<svg width="230" height="51" viewBox="0 0 230 51" fill="none" xmlns="http://www.w3.org/2000/svg">
  <path
    d="M51.4459 23.1823C51.5171 23.953 51.553 24.7265 51.5536 25.5004C51.5536 26.2793 51.516 27.0537 51.4459 27.8186C51.3046 29.3874 51.0142 30.9397 50.5788 32.4548C50.12 34.0568 49.5014 35.6099 48.7323 37.091C47.8767 38.7431 46.841 40.2978 45.6438 41.7272C42.3536 45.6634 37.8966 48.6076 32.8067 50.0357C31.2751 50.466 29.706 50.7531 28.1201 50.8934C27.341 50.964 26.5591 50.9995 25.7768 51C24.9894 51 24.2067 50.9628 23.4335 50.8938C21.8475 50.7538 20.2784 50.4665 18.7469 50.0357C13.6524 48.6076 9.19538 45.6634 5.90984 41.7272C4.71243 40.2977 3.67677 38.743 2.82133 37.0906C2.05192 35.6096 1.43337 34.0565 0.974814 32.4544C0.539431 30.9394 0.249119 29.3873 0.107716 27.8186C0.0363886 27.0479 0.000446135 26.2744 0 25.5004C0 24.7215 0.0375666 23.9472 0.107716 23.1823C0.249094 21.6133 0.539406 20.0609 0.974814 18.5457C1.43342 16.9437 2.05197 15.3908 2.82133 13.9099C3.67692 12.2576 4.71258 10.7029 5.90984 9.27332C9.19499 5.33712 13.6524 2.39332 18.7469 0.965218C20.2784 0.534439 21.8475 0.24725 23.4335 0.107445C24.2126 0.0369987 24.9945 0.00143814 25.7768 0.00088501C26.5688 0.00088501 27.3465 0.0380516 28.1201 0.107445C29.706 0.247692 31.2751 0.534874 32.8067 0.965218C37.8962 2.39332 42.3536 5.33712 45.6438 9.27332C46.8409 10.703 47.8765 12.2577 48.7323 13.9099C49.5014 15.3909 50.1199 16.9438 50.5788 18.5457C51.0142 20.0609 51.3046 21.6133 51.4459 23.1823ZM8.24855 37.091C9.43364 38.8413 10.8794 40.4044 12.5369 41.7272C14.3933 43.216 16.4936 44.3795 18.7469 45.1674C20.2613 45.7037 21.8344 46.0616 23.4335 46.2337C24.2114 46.3218 24.9938 46.3652 25.7768 46.3638C26.5688 46.3638 27.3515 46.3221 28.1201 46.2337C29.7191 46.0611 31.2921 45.7032 32.8067 45.1674C35.059 44.3804 37.1579 43.2168 39.0121 41.7272C40.6694 40.4043 42.115 38.8413 43.3001 37.091C44.2824 35.6512 45.0746 34.0932 45.6576 32.4548C46.1993 30.9565 46.5611 29.4004 46.7355 27.8186C46.8245 27.049 46.8684 26.275 46.867 25.5004C46.867 24.717 46.8248 23.9426 46.7355 23.1823H37.2591C36.9096 21.5005 36.186 19.9166 35.1408 18.5457C34.4781 17.6687 33.6921 16.8898 32.8067 16.2326C31.4214 15.1991 29.8202 14.4847 28.1201 14.1416C27.3489 13.9867 26.5638 13.9091 25.7768 13.9099C24.9756 13.9099 24.1879 13.9884 23.4335 14.1416C21.7331 14.4838 20.1317 15.1982 18.7469 16.2326C17.8611 16.8908 17.0737 17.6696 16.4082 18.5457C15.3625 19.9158 14.6403 21.5001 14.2945 23.1823H9.54229C9.77301 21.574 10.2519 20.0103 10.9622 18.5457C11.7917 16.8074 12.9306 15.2451 14.3037 13.9099C15.6042 12.6536 17.1053 11.6181 18.7465 10.8451C20.227 10.1424 21.8077 9.66852 23.4335 9.44017C24.2094 9.32819 24.9926 9.27242 25.7768 9.27332C26.5734 9.27332 27.3561 9.32906 28.1201 9.44017C29.7458 9.66859 31.3264 10.1424 32.8067 10.8451C34.448 11.6181 35.9491 12.6536 37.2496 13.9099C38.623 15.2447 39.7619 16.8071 40.5914 18.5457H45.6576C45.0745 16.9074 44.2823 15.3495 43.3001 13.9099C42.1149 12.1596 40.6693 10.5964 39.0121 9.27332C37.1578 7.78396 35.0589 6.62047 32.8067 5.83351C31.2921 5.29771 29.7191 4.93969 28.1201 4.76679C27.3422 4.6791 26.5598 4.6358 25.7768 4.6371C24.9938 4.63579 24.2114 4.6791 23.4335 4.76679C21.8344 4.93914 20.2613 5.29718 18.7469 5.83351C16.4937 6.62138 14.3934 7.78476 12.5369 9.27332C10.8795 10.5964 9.43377 12.1595 8.24855 13.9099C7.2698 15.3509 6.47923 16.9085 5.89565 18.5457C5.35412 20.0442 4.99233 21.6004 4.81772 23.1823C4.72905 23.9519 4.68528 24.7259 4.68662 25.5004C4.68662 26.2839 4.72879 27.0582 4.81772 27.8186H14.2945C14.6403 29.5007 15.3625 31.0849 16.4082 32.4548C17.0735 33.3311 17.8608 34.11 18.7465 34.7683C20.771 36.2805 23.24 37.0962 25.7768 37.091C26.578 37.091 27.3607 37.0121 28.1201 36.8597C29.8202 36.5163 31.4214 35.8018 32.8067 34.7683C33.6922 34.111 34.4782 33.332 35.1408 32.4548H25.7768C24.9565 32.4548 24.1645 32.3156 23.4335 32.0562C22.4461 31.709 21.5493 31.1485 20.8083 30.4155C20.0673 29.6825 19.5007 28.7953 19.1498 27.8186C18.8815 27.0746 18.7452 26.2903 18.7469 25.5004C18.7469 24.6889 18.8872 23.9055 19.1498 23.1823C19.5007 22.2055 20.0673 21.3184 20.8083 20.5854C21.5493 19.8523 22.4461 19.2919 23.4335 18.9447C24.1855 18.6792 24.9783 18.5442 25.7768 18.5457C26.5971 18.5457 27.3891 18.6849 28.1201 18.9447C29.1075 19.2919 30.0043 19.8523 30.7453 20.5854C31.4863 21.3184 32.0529 22.2055 32.4039 23.1823H25.7768C25.1554 23.1825 24.5595 23.4268 24.1201 23.8615C23.6806 24.2962 23.4337 24.8857 23.4335 25.5004C23.4337 26.1152 23.6806 26.7047 24.1201 27.1394C24.5595 27.5741 25.1554 27.8183 25.7768 27.8186H42.0113C41.7806 29.4267 41.3017 30.9903 40.5914 32.4548C39.7619 34.1934 38.623 35.7558 37.2496 37.091C35.9491 38.3474 34.448 39.3828 32.8067 40.1557C31.3263 40.8583 29.7457 41.332 28.1201 41.5603C27.3442 41.6725 26.561 41.7283 25.7768 41.7272C24.9799 41.7272 24.1975 41.6718 23.4335 41.5603C21.8079 41.332 20.2273 40.8583 18.7469 40.1557C17.1056 39.3828 15.6045 38.3473 14.304 37.091C12.9306 35.7558 11.7917 34.1938 10.9622 32.4548H5.89565C6.47916 34.0921 7.26974 35.6499 8.24855 37.091Z"
    fill="#B60000" />
  <path
    d="M78.6068 27.717C78.5301 26.9786 78.3618 26.2835 78.105 25.634C77.847 24.9844 77.4989 24.4254 77.0623 23.9529C76.62 23.48 76.0886 23.097 75.4979 22.8255C74.893 22.5468 74.2046 22.4054 73.4318 22.4054C71.9893 22.4054 70.7994 22.8964 69.8595 23.8767C68.9184 24.8573 68.3469 26.1379 68.1402 27.717H78.6068ZM70.1876 34.575C71.2426 35.4536 72.5305 35.8923 74.0497 35.8923C75.2077 35.8923 76.2125 35.6891 77.0623 35.2807C77.9118 34.8734 78.7482 34.2754 79.5728 33.4859L82.314 35.8923C81.3463 37.0306 80.1583 37.9658 78.8199 38.6431C77.4671 39.3318 75.851 39.6746 73.9719 39.6746C72.5052 39.6746 71.1341 39.4194 69.8595 38.9112C68.5849 38.4019 67.4771 37.6886 66.5375 36.7706C65.598 35.854 64.8581 34.7532 64.3165 33.4661C63.7768 32.1806 63.5054 30.748 63.5054 29.1678C63.5054 27.717 63.7503 26.3541 64.2398 25.0799C64.7282 23.8073 65.4178 22.692 66.306 21.7376C67.1942 20.782 68.2437 20.0251 69.4532 19.4646C70.663 18.9041 72.0023 18.6243 73.4701 18.6243C75.0927 18.6243 76.5141 18.9163 77.7385 19.5025C78.9602 20.0892 79.9779 20.8771 80.7891 21.8711C81.6006 22.8646 82.212 24.0235 82.6237 25.3473C83.035 26.6722 83.2416 28.0601 83.2416 29.5121C83.2416 29.7161 83.2351 29.9205 83.2217 30.1234C83.2087 30.3278 83.1899 30.5436 83.1634 30.773H68.1786C68.4619 32.429 69.1315 33.6952 70.1876 34.575Z"
    fill="#555555" />
  <path
    d="M92.7433 20.8391C92.9231 21.2218 93.2512 21.579 93.7304 21.9089C94.2068 22.2403 94.8662 22.5467 95.7038 22.8254C96.5429 23.1068 97.6085 23.3992 98.8988 23.7052C100.319 24.0617 101.578 24.4568 102.675 24.8887C103.772 25.3222 104.681 25.8512 105.404 26.4746C106.127 27.0988 106.676 27.8257 107.049 28.6531C107.424 29.4806 107.612 30.4544 107.612 31.5753C107.612 32.8495 107.375 33.9818 106.902 34.9757C106.43 35.9692 105.772 36.8099 104.929 37.4974C104.087 38.1846 103.074 38.7071 101.893 39.0632C100.709 39.4193 99.4098 39.5986 97.9949 39.5986C95.9088 39.5986 93.9132 39.2479 92.0084 38.5475C90.1029 37.8482 88.3399 36.7705 86.7173 35.32L89.5746 31.9576C90.8876 33.0785 92.2139 33.9386 93.5533 34.5358C94.8911 35.1353 96.4106 35.4338 98.1099 35.4338C99.5777 35.4338 100.743 35.1289 101.606 34.5172C102.468 33.9059 102.9 33.0785 102.9 32.0334C102.9 31.5503 102.815 31.1172 102.648 30.735C102.48 30.3527 102.169 30.0031 101.718 29.6834C101.267 29.3653 100.647 29.0669 99.8598 28.7866C99.0721 28.5064 98.0463 28.2133 96.7813 27.908C95.3358 27.5769 94.052 27.2076 92.9284 26.7992C91.806 26.3919 90.8638 25.8826 90.1029 25.271C89.3404 24.6597 88.7593 23.921 88.3595 23.056C87.9601 22.1891 87.7599 21.1327 87.7599 19.8847C87.7599 18.7129 87.9892 17.6496 88.4496 16.694C88.8995 15.7502 89.5453 14.9106 90.3448 14.2299C91.1498 13.5428 92.1173 13.0138 93.2474 12.6444C94.3778 12.2751 95.6125 12.0908 96.9519 12.0908C98.9345 12.0908 100.717 12.3775 102.3 12.9497C103.884 13.5231 105.371 14.3569 106.762 15.4529L104.213 19.0049C102.977 18.1145 101.754 17.4327 100.544 16.961C99.3328 16.4911 98.1099 16.2541 96.8737 16.2541C95.4841 16.2541 94.4027 16.567 93.6299 17.1904C92.8583 17.815 92.4719 18.573 92.4719 19.4645C92.4719 19.9988 92.562 20.4569 92.7433 20.8395"
    fill="#555555" />
  <path
    d="M126.65 27.717C126.573 26.9786 126.405 26.2835 126.148 25.634C125.89 24.9844 125.542 24.4254 125.105 23.9529C124.663 23.4799 124.132 23.0969 123.541 22.8255C122.936 22.5468 122.248 22.4054 121.475 22.4054C120.032 22.4054 118.842 22.8964 117.903 23.8767C116.962 24.8573 116.39 26.1379 116.184 27.717H126.65ZM118.231 34.575C119.286 35.4536 120.574 35.8923 122.093 35.8923C123.251 35.8923 124.255 35.6891 125.105 35.2807C125.955 34.8734 126.792 34.2754 127.616 33.4859L130.357 35.8923C129.389 37.0307 128.201 37.966 126.863 38.6431C125.51 39.3318 123.894 39.6746 122.015 39.6746C120.549 39.6746 119.177 39.4194 117.903 38.9112C116.628 38.4019 115.52 37.6886 114.581 36.7706C113.641 35.854 112.901 34.7532 112.36 33.4661C111.82 32.1806 111.548 30.748 111.548 29.1678C111.548 27.717 111.793 26.3541 112.283 25.0799C112.772 23.8073 113.461 22.692 114.349 21.7376C115.237 20.782 116.287 20.0251 117.497 19.4646C118.706 18.9041 120.046 18.6243 121.513 18.6243C123.136 18.6243 124.557 18.9163 125.781 19.5025C127.003 20.0892 128.021 20.8771 128.832 21.8711C129.644 22.8646 130.255 24.0235 130.667 25.3473C131.078 26.6722 131.285 28.0601 131.285 29.5121C131.285 29.7161 131.278 29.9205 131.265 30.1234C131.251 30.3404 131.232 30.557 131.207 30.773H116.222C116.505 32.429 117.175 33.6952 118.231 34.575Z"
    fill="#555555" />
  <path
    d="M140.708 39.2164H135.997V19.0444H140.708V23.59C141.351 22.0621 142.266 20.8396 143.45 19.923C144.634 19.0053 146.128 18.5844 147.931 18.6621V23.552H147.659C146.63 23.552 145.69 23.7185 144.84 24.0484C144.002 24.3728 143.249 24.8824 142.639 25.5383C142.021 26.2008 141.545 27.0347 141.21 28.0415C140.875 29.0472 140.708 30.2125 140.708 31.5378V39.2168"
    fill="#555555" />
  <path d="M166.044 19.044H170.949L162.607 39.3696H158.397L150.017 19.044H155.037L160.521 33.8681L166.044 19.0444"
    fill="#555555" />
  <path
    d="M179.716 20.8391C179.896 21.2218 180.224 21.579 180.703 21.9089C181.18 22.2403 181.839 22.5467 182.677 22.8254C183.516 23.1068 184.582 23.3992 185.872 23.7052C187.292 24.0617 188.551 24.4568 189.648 24.8887C190.745 25.3222 191.655 25.8512 192.377 26.4746C193.1 27.0988 193.649 27.8257 194.022 28.6531C194.396 29.4806 194.585 30.4544 194.585 31.5753C194.585 32.8495 194.348 33.9818 193.875 34.9757C193.403 35.9692 192.745 36.8099 191.902 37.4974C191.06 38.1846 190.048 38.7071 188.866 39.0632C187.682 39.4193 186.383 39.5986 184.968 39.5986C182.882 39.5986 180.886 39.2479 178.982 38.5475C177.076 37.8482 175.313 36.7705 173.69 35.32L176.548 31.9576C177.861 33.0785 179.187 33.9386 180.526 34.5358C181.864 35.1353 183.384 35.4338 185.083 35.4338C186.551 35.4338 187.715 35.1289 188.579 34.5172C189.442 33.9059 189.873 33.0785 189.873 32.0334C189.873 31.5503 189.788 31.1172 189.621 30.735C189.453 30.3527 189.142 30.0031 188.691 29.6834C188.24 29.3653 187.62 29.0669 186.833 28.7866C186.045 28.5064 185.019 28.2133 183.754 27.908C182.309 27.5769 181.025 27.2076 179.902 26.7992C178.779 26.3919 177.837 25.8826 177.076 25.271C176.314 24.6597 175.732 23.921 175.333 23.056C174.933 22.1891 174.733 21.1327 174.733 19.8847C174.733 18.7129 174.962 17.6496 175.423 16.694C175.873 15.7502 176.518 14.9106 177.318 14.2299C178.123 13.5428 179.09 13.0138 180.22 12.6444C181.351 12.2751 182.586 12.0908 183.925 12.0908C185.908 12.0908 187.69 12.3775 189.273 12.9497C190.858 13.5231 192.344 14.3569 193.735 15.4529L191.186 19.0049C189.95 18.1145 188.727 17.4327 187.517 16.961C186.306 16.4911 185.083 16.2541 183.847 16.2541C182.457 16.2541 181.376 16.567 180.603 17.1904C179.831 17.815 179.445 18.573 179.445 19.4645C179.445 19.9988 179.535 20.4569 179.716 20.8395"
    fill="#555555" />
  <path
    d="M215.094 26.6851C214.787 25.8956 214.358 25.202 213.809 24.6021C213.259 24.0053 212.594 23.5248 211.851 23.1896C211.096 22.8452 210.258 22.6738 209.338 22.6738C208.415 22.6738 207.577 22.8452 206.823 23.1896C206.088 23.5189 205.428 23.9934 204.884 24.5839C204.347 25.1706 203.938 25.8512 203.656 26.6279C203.375 27.4052 203.235 28.2395 203.235 29.1299C203.235 30.021 203.387 30.8686 203.694 31.671C204.001 32.4734 204.43 33.1677 204.981 33.7528C205.533 34.3417 206.199 34.8157 206.938 35.1472C207.693 35.4915 208.519 35.6629 209.413 35.6629C210.36 35.6629 211.211 35.4915 211.966 35.1472C212.721 34.8044 213.367 34.3395 213.904 33.7528C214.441 33.1677 214.852 32.4866 215.132 31.7089C215.413 30.9326 215.555 30.0988 215.555 29.2069C215.555 28.3153 215.401 27.4746 215.094 26.6851ZM219.436 33.2189C218.882 34.4927 218.123 35.6053 217.157 36.5613C216.192 37.5157 215.04 38.2749 213.702 38.8342C212.362 39.3943 210.906 39.6746 209.337 39.6746C207.792 39.6746 206.356 39.4012 205.03 38.854C203.704 38.3064 202.559 37.5548 201.593 36.5992C200.629 35.6463 199.862 34.5173 199.333 33.275C198.793 32.0142 198.522 30.6589 198.522 29.2069C198.522 27.7549 198.799 26.3855 199.353 25.1C199.907 23.8141 200.666 22.692 201.632 21.7376C202.597 20.782 203.742 20.0251 205.07 19.4646C206.394 18.9041 207.843 18.6243 209.413 18.6243C210.984 18.6243 212.432 18.8977 213.758 19.4449C215.085 19.9936 216.231 20.7437 217.196 21.6997C218.162 22.6541 218.915 23.7682 219.455 25.042C219.996 26.3161 220.266 27.6775 220.266 29.1299C220.266 30.5815 219.99 31.9448 219.436 33.2185"
    fill="#555555" />
  <path d="M225.288 39.2164V11.3259H230V39.2168H225.288" fill="#555555" />
</svg>