<?xml version="1.0" encoding="UTF-8"?>
<!DOCTYPE svg PUBLIC "-//W3C//DTD SVG 1.0//EN" "http://www.w3.org/TR/2001/REC-SVG-20010904/DTD/svg10.dtd">
<!-- Creator: CorelDRAW X8 -->
<svg xmlns="http://www.w3.org/2000/svg" xml:space="preserve" width="21.4667mm" height="17.2334mm" version="1.0" style="shape-rendering:geometricPrecision; text-rendering:geometricPrecision; image-rendering:optimizeQuality; fill-rule:evenodd; clip-rule:evenodd"
viewBox="0 0 1517 1218"
 xmlns:xlink="http://www.w3.org/1999/xlink">
 <defs>
  <style type="text/css">
   <![CDATA[
    .str0 {stroke:#A82116;stroke-width:21.2073;stroke-linecap:round;stroke-linejoin:round}
    .fil0 {fill:#E0E0E0}
    .fil15 {fill:black;fill-rule:nonzero}
    .fil42 {fill:#115063;fill-rule:nonzero}
    .fil47 {fill:#125161;fill-rule:nonzero}
    .fil10 {fill:#141414;fill-rule:nonzero}
    .fil36 {fill:#171717;fill-rule:nonzero}
    .fil58 {fill:#1A1A1A;fill-rule:nonzero}
    .fil43 {fill:#1A3640;fill-rule:nonzero}
    .fil32 {fill:#1C1C1C;fill-rule:nonzero}
    .fil34 {fill:#212121;fill-rule:nonzero}
    .fil18 {fill:#25A4C4;fill-rule:nonzero}
    .fil3 {fill:#292929;fill-rule:nonzero}
    .fil16 {fill:#2B2B2B;fill-rule:nonzero}
    .fil33 {fill:#333333;fill-rule:nonzero}
    .fil25 {fill:#363636;fill-rule:nonzero}
    .fil2 {fill:#423635;fill-rule:nonzero}
    .fil19 {fill:#424242;fill-rule:nonzero}
    .fil35 {fill:#454545;fill-rule:nonzero}
    .fil24 {fill:#474747;fill-rule:nonzero}
    .fil55 {fill:#4A2E23;fill-rule:nonzero}
    .fil48 {fill:#4F4F4F;fill-rule:nonzero}
    .fil6 {fill:#523731;fill-rule:nonzero}
    .fil26 {fill:#525252;fill-rule:nonzero}
    .fil17 {fill:#545454;fill-rule:nonzero}
    .fil20 {fill:#5B4543;fill-rule:nonzero}
    .fil12 {fill:#5C5C5C;fill-rule:nonzero}
    .fil1 {fill:#663F30;fill-rule:nonzero}
    .fil49 {fill:dimgray;fill-rule:nonzero}
    .fil23 {fill:#6B6B6B;fill-rule:nonzero}
    .fil4 {fill:#71787B;fill-rule:nonzero}
    .fil22 {fill:gray;fill-rule:nonzero}
    .fil31 {fill:#8F190E;fill-rule:nonzero}
    .fil50 {fill:#8F8F8F;fill-rule:nonzero}
    .fil5 {fill:#91A5AF;fill-rule:nonzero}
    .fil11 {fill:#965D47;fill-rule:nonzero}
    .fil21 {fill:#9C9C9C;fill-rule:nonzero}
    .fil54 {fill:#A1A1A1;fill-rule:nonzero}
    .fil8 {fill:#A82116;fill-rule:nonzero}
    .fil41 {fill:#A8A8A8;fill-rule:nonzero}
    .fil57 {fill:#B0B0B0;fill-rule:nonzero}
    .fil53 {fill:#B3B3B3;fill-rule:nonzero}
    .fil51 {fill:#C2C2C2;fill-rule:nonzero}
    .fil29 {fill:#C7A495;fill-rule:nonzero}
    .fil30 {fill:#C7C7C7;fill-rule:nonzero}
    .fil7 {fill:#C97E67;fill-rule:nonzero}
    .fil44 {fill:#CF7C00;fill-rule:nonzero}
    .fil39 {fill:#D49C00;fill-rule:nonzero}
    .fil56 {fill:#D4D4D4;fill-rule:nonzero}
    .fil9 {fill:#DB2C1C;fill-rule:nonzero}
    .fil37 {fill:#E0BC31;fill-rule:nonzero}
    .fil28 {fill:#F0C6B4;fill-rule:nonzero}
    .fil27 {fill:whitesmoke;fill-rule:nonzero}
    .fil13 {fill:#FF6A00;fill-rule:nonzero}
    .fil46 {fill:#FF9800;fill-rule:nonzero}
    .fil45 {fill:#FFB64A;fill-rule:nonzero}
    .fil38 {fill:#FFBB00;fill-rule:nonzero}
    .fil40 {fill:#FFC936;fill-rule:nonzero}
    .fil14 {fill:#FFE600;fill-rule:nonzero}
    .fil52 {fill:white;fill-rule:nonzero}
   ]]>
  </style>
 </defs>
 <g id="Capa_x0020_1">
  <metadata id="CorelCorpID_0Corel-Layer"/>
  <rect class="fil0 str0" x="11" y="11" width="1496" height="1197"/>
  <g id="_1758387595440">
   <g>
    <path class="fil1" d="M820 875c5,18 25,40 25,40 0,0 14,18 0,28 -34,15 -65,-28 -65,-28 0,0 -29,-6 -36,-28 -3,-10 14,-33 14,-33 0,0 56,20 62,21z"/>
    <path class="fil2" d="M698 728c0,0 118,65 126,65 -46,25 -67,62 -67,62 0,0 1,17 18,27 17,9 36,3 49,0 22,-30 87,-55 91,-79 4,-16 -32,-46 -32,-46 0,0 -85,-104 -148,-127 -5,1 -37,55 -37,55l0 43z"/>
    <path class="fil3" d="M536 1052c-58,0 -114,-20 -149,-54 -22,-21 -34,-45 -34,-67 0,-43 32,-53 44,-54 3,0 6,1 8,1l0 7c-2,-1 -5,-2 -8,-2 0,0 -37,2 -37,48 0,20 11,43 31,62 36,35 94,55 154,53 61,-2 70,-33 79,-61 6,-22 12,-42 41,-45 21,-2 30,5 38,13 9,7 17,14 40,9 19,-4 31,-11 37,-22 13,-22 2,-58 -12,-103 -12,-43 -27,-87 -27,-139l6 0c0,52 15,95 27,137 14,47 26,84 11,108 -7,12 -20,20 -40,25 -27,5 -36,-3 -46,-11 -7,-7 -15,-13 -34,-11 -24,3 -29,19 -36,41 -8,28 -19,63 -84,65 -3,0 -6,0 -9,0z"/>
    <polygon class="fil4" points="963,693 964,920 983,909 1027,934 1036,713 1011,699 1011,691 1011,665 "/>
    <polygon class="fil5" points="963,693 964,920 983,909 982,682 "/>
    <polygon class="fil5" points="953,688 954,914 964,920 963,693 "/>
    <polygon class="fil4" points="1027,730 1028,957 1076,929 1075,702 "/>
    <polygon class="fil5" points="1018,724 1018,951 1028,957 1027,730 "/>
    <polygon class="fil6" points="1018,724 1027,730 1075,702 1065,697 1046,708 992,676 1011,665 1001,660 953,688 963,693 982,682 1036,713 "/>
    <polygon class="fil4" points="747,818 748,1045 767,1034 811,1059 820,838 795,824 795,815 795,790 "/>
    <polygon class="fil5" points="747,818 748,1045 767,1034 766,807 "/>
    <polygon class="fil5" points="737,812 738,1039 748,1045 747,818 "/>
    <polygon class="fil4" points="811,855 812,1081 860,1054 859,827 "/>
    <polygon class="fil5" points="801,849 802,1076 812,1081 811,855 "/>
    <polygon class="fil6" points="801,849 811,855 859,827 849,821 830,832 776,801 795,790 785,784 737,812 747,818 766,807 820,838 "/>
    <polygon class="fil4" points="718,898 1145,652 1126,641 1126,590 699,824 699,853 692,857 670,870 "/>
    <polygon class="fil5" points="718,898 1145,652 1126,641 699,887 "/>
    <polygon class="fil5" points="718,909 1145,663 1145,652 718,898 "/>
    <polygon class="fil5" points="718,824 1145,578 1097,550 670,796 "/>
    <polygon class="fil4" points="718,835 1145,589 1145,578 718,824 "/>
    <polygon class="fil5" points="718,835 718,824 670,796 670,807 689,818 689,881 670,870 670,881 718,909 718,898 699,887 699,824 "/>
    <path class="fil7" d="M874 654c0,0 -37,-27 -50,-39 -13,-12 -28,-34 -28,-34l-25 -27 40 -27 15 24c0,0 22,25 34,38 12,13 35,54 35,54l-21 11z"/>
    <path class="fil3" d="M895 643c0,0 17,-11 27,-8 10,4 16,5 19,10 3,4 9,16 8,19 -38,20 -45,1 -49,0l-17 9c-5,-4 -8,-14 -9,-19 9,-10 21,-11 21,-11z"/>
    <path class="fil8" d="M762 420c19,25 21,52 21,52 0,0 12,25 32,56 -6,3 -30,12 -40,36 -12,-17 -31,-41 -31,-41l-9 -91c0,0 24,-15 27,-12z"/>
    <path class="fil7" d="M667 409c0,0 -3,5 -8,12 -4,7 -11,13 -11,13l29 54 46 -16 -32 -68 -24 5z"/>
    <path class="fil9" d="M702 469c-16,9 -44,-38 -52,-37 -19,11 -38,29 -56,41 0,5 17,196 17,196l87 5 52 -61c0,0 20,-84 19,-106 -3,-30 -25,-64 -25,-64l-36 -7c0,0 10,23 -6,33z"/>
    <path class="fil2" d="M677 422c51,-7 68,85 68,85l17 -9c0,0 -25,-94 -70,-87l-15 11z"/>
    <path class="fil2" d="M669 669c15,-55 7,-121 5,-129l91 -47c6,65 -15,147 -15,147l-81 29z"/>
    <polygon class="fil10" points="473,735 479,748 456,789 432,774 461,726 "/>
    <path class="fil8" d="M458 810c-2,8 -14,15 -25,15 -11,-1 -34,-18 -35,-30 -2,-11 16,-58 26,-69 11,-12 21,-12 30,-10 9,1 19,19 19,19 0,0 -12,-3 -19,9 -6,10 -7,25 -5,36 2,15 10,25 9,30z"/>
    <path class="fil2" d="M741 623c0,0 -53,41 -102,25 -11,-4 -35,-13 -35,-13 0,0 -20,39 -25,58 -10,31 -10,98 -16,107 -23,-23 -51,-35 -77,-60 -10,-3 -29,9 -36,32 -6,23 0,28 7,40 23,4 99,80 126,90 44,10 90,-152 94,-158 58,-13 17,-43 67,-109l-3 -12z"/>
    <path class="fil1" d="M735 615l0 112c0,2 1,3 3,4 3,2 9,2 13,0 1,-1 2,-2 2,-4l0 -112 -18 0z"/>
    <path class="fil11" d="M751 619c-4,2 -10,2 -13,0 -4,-2 -4,-6 0,-8 3,-2 9,-2 13,0 3,2 3,6 0,8z"/>
    <path class="fil12" d="M849 678l-97 -57 -2 1c-1,0 -2,2 -2,3l1 2 94 54 6 -3z"/>
    <polygon class="fil13" points="877,677 871,650 862,656 851,631 846,663 829,640 826,671 787,675 810,692 793,700 816,712 "/>
    <polygon class="fil14" points="821,709 811,701 827,694 814,681 833,681 836,660 848,675 854,653 861,670 867,659 873,679 "/>
    <path class="fil7" d="M629 613c0,0 -1,18 0,21 13,-1 52,25 73,22 4,2 12,27 1,32 -58,-7 -62,1 -112,-11 -16,-5 -12,-71 -12,-71l50 7z"/>
    <path class="fil3" d="M703 688c-1,-5 -9,-25 0,-33 14,-3 20,-14 26,-14 4,0 6,2 6,2l0 15c0,4 1,7 8,7 11,0 10,-12 10,-12 0,0 12,4 12,12 0,9 -3,32 -7,36 -5,3 -12,6 -25,4 -6,-1 -13,-12 -30,-17z"/>
    <path class="fil8" d="M620 472c-30,-13 -46,21 -48,32 -5,21 0,59 0,59 0,0 -2,50 2,53 31,14 63,2 63,2 0,0 0,-33 1,-77 0,0 8,-55 -18,-69z"/>
    <path class="fil7" d="M759 378c0,0 9,11 9,25 1,13 0,24 -2,28 -1,4 -9,7 -13,11 4,9 -2,14 -2,14 0,0 -16,21 -20,23 -4,3 -13,5 -17,4 -4,-2 -31,-30 -33,-35 -2,-5 0,-12 0,-12 0,0 -14,-5 -9,-24 1,-4 14,-34 14,-34l42 -12 31 12z"/>
    <path class="fil1" d="M672 412c0,0 2,-6 10,0 8,7 6,16 6,16 0,0 6,8 10,8 2,-9 12,-9 13,-18 1,-8 -11,-29 -3,-32 12,-4 31,29 50,20 14,-7 -8,-76 -55,-60 -43,16 -41,50 -36,63 1,5 5,3 5,3z"/>
    <path class="fil2" d="M614 457c50,-6 67,85 67,85l17 -9c0,0 -25,-94 -69,-87l-15 11z"/>
    <path class="fil15" d="M686 355c26,-7 43,17 43,17l9 -5c0,0 -10,-22 -38,-20 -9,2 -14,8 -14,8z"/>
    <path class="fil15" d="M667 379c0,0 5,20 27,23 1,2 -2,8 -3,8 -23,-4 -26,-20 -27,-21 1,-5 3,-10 3,-10z"/>
    <path class="fil16" d="M673 457c0,0 6,-54 25,-72 18,-19 65,-43 77,-21 3,4 23,39 21,57 0,0 -42,54 -47,58 -5,4 -18,13 -34,11 -23,-4 -42,-33 -42,-33z"/>
    <polygon class="fil17" points="786,429 769,450 731,471 735,466 767,449 780,432 "/>
    <polygon class="fil18" points="780,432 767,449 735,466 748,450 "/>
    <path class="fil19" d="M673 457c0,0 6,-54 25,-72 18,-19 47,36 46,53 0,0 -32,44 -36,48 -16,-2 -35,-29 -35,-29z"/>
    <polygon class="fil2" points="531,1005 405,932 405,835 531,908 "/>
    <polygon class="fil20" points="531,908 405,835 477,794 603,867 "/>
    <polygon class="fil21" points="531,1005 531,908 603,867 603,964 "/>
    <polygon class="fil22" points="595,880 595,959 540,990 540,981 586,954 586,885 "/>
    <polygon class="fil23" points="586,885 586,954 540,981 540,912 "/>
    <path class="fil24" d="M581 938l-5 -2c0,-1 -2,-1 -3,0 -2,1 -4,5 -4,7 0,2 0,3 1,3l5 3 6 -11z"/>
    <path class="fil25" d="M573 946c0,-3 2,-6 5,-8 2,-1 4,0 4,3 0,3 -2,6 -4,7 -3,2 -5,1 -5,-2z"/>
    <path class="fil24" d="M562 947l-6 -3c-1,-1 -3,-1 -5,0 -3,2 -6,7 -6,11 0,2 1,4 2,4l6 4 9 -16z"/>
    <path class="fil25" d="M551 959c0,-4 3,-9 7,-11 3,-2 6,0 6,4 0,4 -3,9 -6,11 -4,2 -7,0 -7,-4z"/>
    <polygon class="fil26" points="581,893 581,913 545,934 545,931 579,911 579,895 "/>
    <polygon class="fil27" points="579,895 579,911 545,931 545,915 "/>
    <polygon class="fil16" points="555,912 553,913 553,926 555,925 "/>
   </g>
   <g>
    <polygon class="fil28" points="479,341 480,289 514,290 521,345 497,351 "/>
    <path class="fil29" d="M255 308c0,0 0,29 -10,39 3,5 34,31 34,31l38 5 18 -22 -32 -54 -48 1z"/>
    <path class="fil15" d="M351 910c7,22 59,37 61,44 2,7 1,22 -3,25 -5,3 -24,5 -38,0 -14,-5 -30,-14 -30,-14 0,0 -40,6 -52,-8 -5,-7 0,-46 0,-46 0,0 56,-11 62,-1z"/>
    <path class="fil2" d="M292 650l5 129c0,0 -12,28 -14,38 -2,9 0,98 0,98 0,0 9,7 35,7 25,0 42,-12 42,-12l1 -128c0,0 31,-73 36,-162 -12,3 -105,30 -105,30z"/>
    <path class="fil15" d="M228 980c1,35 21,52 26,60 4,7 10,24 3,29 -32,19 -59,-6 -67,-17 -5,-7 -8,-25 -8,-25 0,0 -9,-6 -13,-14 -3,-9 2,-40 2,-40 0,0 53,6 57,7z"/>
    <path class="fil2" d="M397 583c0,0 -49,37 -94,26 -37,-10 -53,-27 -53,-27 0,0 -16,19 -25,45 -9,26 -7,48 -7,48l-30 122c0,0 -18,35 -23,57 -5,21 -7,123 -7,123 0,0 11,21 37,21 26,0 40,-23 40,-23 0,0 -6,-87 4,-124 23,-29 76,-149 84,-167 47,-6 74,-64 74,-64l0 -37z"/>
    <path class="fil3" d="M255 564l-5 18c0,0 7,24 60,29 53,4 87,-27 87,-27l0 -21 -83 24 -59 -23z"/>
    <polygon class="fil30" points="367,600 349,605 349,587 367,582 "/>
    <path class="fil31" d="M329 329c0,0 34,-22 78,16 16,15 66,38 66,38l2 -8c0,0 23,16 51,4 0,3 1,45 -31,60 -13,6 -111,-40 -118,-37 -8,4 -48,-73 -48,-73z"/>
    <path class="fil31" d="M311 367c-18,8 -57,-22 -63,-24 -25,19 -36,35 -55,52 -2,7 37,118 37,118 0,0 16,16 20,35 1,12 -11,15 2,24 13,9 37,21 59,21 73,0 79,-19 86,-30 5,-3 0,-27 0,-53 0,-51 10,-63 -2,-115 -9,-27 -67,-66 -67,-66 0,0 1,30 -17,38z"/>
    <polygon class="fil3" points="246,934 107,853 107,780 246,860 "/>
    <polygon class="fil32" points="246,873 107,792 107,780 246,860 "/>
    <polygon class="fil33" points="246,934 246,860 311,823 311,896 "/>
    <polygon class="fil34" points="246,873 246,860 311,823 311,835 "/>
    <polygon class="fil3" points="248,865 100,780 100,756 248,842 "/>
    <polygon class="fil33" points="248,865 248,842 318,801 318,825 "/>
    <polygon class="fil35" points="248,842 100,756 169,716 318,801 "/>
    <polygon class="fil16" points="275,780 271,782 202,742 165,764 161,761 202,737 "/>
    <polygon class="fil16" points="258,784 229,800 225,798 258,779 "/>
    <polygon class="fil36" points="271,782 234,803 229,800 258,784 258,779 203,748 170,767 165,764 202,742 "/>
    <polygon class="fil37" points="177,725 170,729 170,767 177,763 "/>
    <polygon class="fil38" points="161,714 161,761 170,767 170,729 225,760 225,798 234,803 234,756 "/>
    <polygon class="fil39" points="241,799 234,803 234,756 241,752 "/>
    <polygon class="fil40" points="241,752 234,756 161,714 168,710 "/>
    <polygon class="fil39" points="192,833 192,810 207,801 207,797 188,809 188,836 "/>
    <polygon class="fil38" points="188,836 188,809 149,786 149,813 "/>
    <polygon class="fil40" points="188,809 149,786 168,775 207,797 "/>
    <path class="fil28" d="M347 248c1,7 7,33 7,36 -1,2 -4,5 -4,5 0,0 0,7 0,17 0,10 -8,46 -8,46 0,0 -9,7 -16,9 -17,3 -46,-23 -51,-27 -4,-5 -7,-16 -7,-16l-12 -1 -4 -25 13 -26 48 -24c0,0 33,3 34,6z"/>
    <path class="fil1" d="M254 329c3,1 14,-11 14,-11 0,0 -22,-16 -8,-20 13,-4 20,7 20,7 0,0 10,-12 9,-19 6,2 11,-5 11,-5 0,0 -2,-13 2,-16 3,-3 23,6 36,2 12,-9 11,-32 8,-39 -5,-10 -49,-25 -58,-13 -51,4 -52,76 -52,76 0,0 0,29 18,38z"/>
    <path class="fil28" d="M165 631c0,0 11,44 13,71 -1,3 4,12 4,12l14 0c0,0 10,-5 12,-12 -2,-19 2,-75 2,-75l-45 4z"/>
    <path class="fil9" d="M162 591c0,0 -3,1 -6,7 -2,6 0,33 4,36 4,4 16,9 30,8 15,-1 20,-6 25,-11 7,-9 5,-34 2,-38 -4,-4 -6,-4 -6,-4l-49 2z"/>
    <path class="fil9" d="M479 338c0,0 -4,0 -7,6 -3,5 -4,32 0,36 3,4 15,10 29,11 15,0 22,0 27,-5 9,-7 1,-37 -2,-42 -3,-4 -5,-5 -5,-5 0,0 -27,12 -42,-1z"/>
    <path class="fil31" d="M227 393c-21,-11 -38,2 -44,14 -5,11 -8,46 -6,57 2,12 -10,91 -10,91 0,0 -7,32 -5,46 27,19 52,-4 52,-4 4,-17 3,-36 3,-36 0,0 25,-82 24,-109 1,-7 7,-48 -14,-59z"/>
    <path class="fil41" d="M178 702c1,5 22,9 30,0 6,12 16,16 21,22 5,6 7,20 4,23l-11 -6 -8 3 0 10 11 6 0 8c-4,4 -18,3 -30,-4 -9,-6 -11,-10 -15,-17 -7,-13 -2,-45 -2,-45z"/>
    <path class="fil42" d="M469 205l0 69c0,4 -4,5 -8,2l-13 -10c-4,-3 -8,-9 -8,-14l0 -63 3 -3 23 14 3 5z"/>
    <polygon class="fil2" points="456,283 467,277 464,265 451,269 "/>
    <polygon class="fil2" points="466,196 455,202 432,188 443,182 "/>
    <polygon class="fil43" points="439,212 439,229 440,230 440,230 440,230 440,212 440,211 440,211 "/>
    <polygon class="fil2" points="466,200 469,205 458,211 455,206 "/>
    <path class="fil2" d="M501 260c-2,1 -22,-18 -22,-18l-10 -16 0 -21 -11 6 0 21 10 16c0,0 8,15 20,17l13 -5z"/>
    <polygon class="fil2" points="489,246 494,248 522,232 522,232 517,230 "/>
    <polygon class="fil44" points="468,238 468,248 479,242 479,232 "/>
    <path class="fil45" d="M469 226l-11 6c0,0 4,7 10,6l11 -6c-6,-1 -10,-6 -10,-6z"/>
    <path class="fil46" d="M458 232l0 13 10 6 0 -13c-6,-2 -10,-6 -10,-6z"/>
    <path class="fil44" d="M459 235l0 10 7 4 0 -10c-4,-1 -7,-4 -7,-4z"/>
    <path class="fil2" d="M458 211l0 68c0,5 -4,6 -8,2l-13 -9c-4,-3 -8,-10 -8,-14l0 -63 3 -3 23 14 3 5z"/>
    <polygon class="fil2" points="466,196 466,200 455,206 455,202 "/>
    <polygon class="fil2" points="455,202 455,206 432,192 432,188 "/>
    <polygon class="fil2" points="455,206 458,211 429,195 432,192 "/>
    <path class="fil2" d="M495 264c-1,3 -3,4 -6,2 -9,-6 -26,-20 -31,-31l0 37c0,-7 7,-2 9,-1l0 1c0,0 11,12 26,22l2 -30z"/>
    <path class="fil2" d="M458 272c0,-4 2,-4 4,-3l0 -18c1,1 2,0 2,-2 0,-1 -1,-4 -2,-5l0 -3c-2,-2 -3,-4 -4,-6l0 37z"/>
    <path class="fil2" d="M492 273l0 16c-7,-4 -14,-11 -19,-16 -4,-4 -6,-9 -6,-13 0,-4 0,-8 0,-9 3,6 25,22 25,22z"/>
    <polygon class="fil47" points="472,262 473,264 472,265 470,263 "/>
    <polygon class="fil2" points="487,275 488,278 487,279 486,276 "/>
    <path class="fil16" d="M547 247l-21 -12 0 -2 -4 -2 -28 15 28 71 28 -16 0 0c0,0 1,-1 1,-2l0 -47c0,-2 -2,-4 -4,-5z"/>
    <path class="fil25" d="M523 268l0 47c0,2 -1,3 -3,2l-26 -15 0 -54 26 14c2,1 3,4 3,6z"/>
    <polygon class="fil25" points="499,249 499,306 494,304 494,246 "/>
    <polygon class="fil16" points="499,271 499,291 494,288 494,269 "/>
    <path class="fil34" d="M499 250l0 23 0 16 0 16 3 1 0 -15c4,1 6,0 6,-5l0 0c0,-4 -2,-9 -6,-11l0 -23 -3 -2z"/>
    <polygon class="fil24" points="501,273 501,291 495,288 495,269 "/>
    <polygon class="fil36" points="501,274 501,290 495,287 495,271 "/>
    <path class="fil46" d="M507 285l0 1c0,4 -3,5 -6,3l-5 -2 0 -15 5 2c3,2 6,7 6,11z"/>
    <polygon class="fil44" points="501,276 501,289 496,286 496,273 "/>
    <polygon class="fil44" points="502,277 502,289 501,288 501,277 "/>
    <polygon class="fil44" points="503,278 503,289 502,289 502,277 "/>
    <polygon class="fil44" points="504,279 504,289 503,289 503,279 "/>
    <polygon class="fil44" points="505,280 505,289 505,289 505,280 "/>
    <path class="fil46" d="M461 245c2,1 3,3 3,4 0,2 -1,2 -3,1 -1,0 -2,-2 -2,-4 0,-1 1,-2 2,-1z"/>
    <path class="fil44" d="M461 246c1,0 2,2 2,3 0,1 -1,1 -2,1 0,-1 -1,-2 -1,-3 0,-1 1,-2 1,-1z"/>
    <path class="fil2" d="M487 299c1,1 5,3 7,5l0 -56 0 0 -5 -2c0,0 -4,52 -2,53z"/>
    <path class="fil33" d="M462 172l-26 0 0 19 0 0c0,2 1,4 4,5 5,3 13,3 18,0 3,-1 4,-3 4,-5l0 0 0 -19z"/>
    <path class="fil48" d="M458 177c-5,3 -13,3 -18,0 -6,-3 -6,-8 0,-11 5,-3 13,-3 18,0 5,3 5,8 0,11z"/>
    <path class="fil19" d="M457 158l-16 0 -4 13 0 0c0,2 2,3 4,4 4,3 11,3 16,0 2,-1 3,-2 3,-4l0 0 -3 -13z"/>
    <path class="fil49" d="M454 161c-3,2 -8,2 -11,0 -3,-2 -3,-5 0,-7 3,-1 8,-1 11,0 4,2 4,5 0,7z"/>
    <polygon class="fil50" points="451,141 446,141 446,157 446,157 447,158 451,158 451,157 451,157 "/>
    <polygon class="fil51" points="447,142 451,142 451,140 447,140 "/>
    <polygon class="fil50" points="450,137 447,137 447,141 447,142 450,142 451,141 "/>
    <polygon class="fil51" points="448,138 450,138 450,137 448,137 "/>
    <path class="fil41" d="M464 281c-3,-5 -9,-19 -3,-22 6,-3 20,4 20,9 0,4 -12,6 -7,10 2,2 13,11 13,11l-1 4 -6 -1c0,0 -12,-6 -16,-11z"/>
    <path class="fil41" d="M462 235c0,-9 13,-17 17,-17 7,0 7,8 7,8l1 9 11 6 -9 5 -1 19c0,0 0,4 -2,5 -1,1 -2,1 -5,1 -2,0 -13,-9 -15,-15 -2,-5 0,-10 6,-16 4,-3 7,-4 7,-4l0 -4c0,0 -17,6 -17,3z"/>
    <path class="fil15" d="M376 277c-4,-12 -19,-18 -19,-18l-115 -13c0,0 -5,3 -8,11 0,1 -1,2 -2,4l0 0 0 5c0,5 3,11 12,17 17,10 33,11 33,11 0,0 23,18 48,16 2,1 43,0 51,-25l0 -3 1 0 -1 -5z"/>
    <path class="fil16" d="M242 241c0,0 -5,4 -8,12 -2,4 -8,15 10,26 17,9 33,11 33,11 0,0 24,20 48,20 2,1 43,0 51,-25 4,-16 -19,-31 -19,-31l-115 -13z"/>
    <path class="fil15" d="M236 255c1,-2 4,-65 61,-59 58,5 64,60 63,70 -9,24 -47,22 -47,22 0,0 -80,2 -77,-33z"/>
   </g>
   <g>
    <path class="fil2" d="M1236 323c-25,-6 -52,47 -52,47 0,0 -67,68 -73,73 -27,21 -23,69 -23,69 0,0 2,28 26,28 17,0 25,-25 25,-25 0,0 4,-25 6,-34 29,-22 60,-46 60,-46l31 -72c0,0 7,-38 0,-40z"/>
    <path class="fil15" d="M1143 477c0,0 -6,-16 -24,-22 13,11 24,22 24,22z"/>
    <path class="fil15" d="M1229 901c0,0 -52,30 -57,37 -4,7 -2,26 -1,30 15,9 28,4 40,-1 11,-4 34,-18 34,-18 0,0 29,1 43,-11 4,-18 0,-44 0,-44l-59 7z"/>
    <path class="fil2" d="M1303 625l-9 147c0,0 2,10 7,38 4,28 -7,101 -7,101 0,0 -23,23 -73,-5 0,-5 15,-100 4,-138 -4,-12 -27,-66 -26,-137 6,-12 104,-6 104,-6z"/>
    <path class="fil15" d="M1356 987c-7,44 -30,63 -20,80 3,6 22,14 35,11 13,-3 22,-14 29,-28 8,-15 11,-28 11,-44 -1,-17 -4,-25 -4,-25 0,0 -40,4 -51,6z"/>
    <path class="fil2" d="M1368 659c0,0 23,104 27,139 4,17 17,40 21,59 3,19 1,136 1,136 0,0 -13,17 -53,16 -8,-5 -23,-18 -23,-18 0,0 6,-98 -4,-127 -23,-34 -69,-178 -69,-178 0,0 -55,-29 -69,-64 1,-4 4,-27 4,-27l165 64z"/>
    <path class="fil29" d="M1335 323c0,0 2,12 7,19 2,2 -46,40 -46,40l-19 0 -23 -33 63 -51 18 25z"/>
    <path class="fil52" d="M1248 336l24 25 6 18c0,0 5,-8 7,-13 32,-5 54,-33 54,-33l6 14 0 0 11 12 -34 64 -65 66 -31 -13 -5 -77 27 -63z"/>
    <polygon class="fil53" points="1285,366 1292,386 1287,379 1278,379 "/>
    <path class="fil53" d="M1345 347c0,0 -4,25 -53,39 41,-13 53,-39 53,-39z"/>
    <polygon class="fil9" points="1283,370 1287,370 1289,376 1276,378 "/>
    <path class="fil9" d="M1229 477c9,-39 32,-86 38,-97l-1 -15 19 5 -10 12c0,0 -13,53 -18,105 -2,-1 -30,-11 -28,-10z"/>
    <path class="fil20" d="M1271 326c-44,54 -24,152 -24,152 0,0 -7,136 -9,142 -8,29 -13,66 -13,66 0,0 -25,-9 -33,-27 -3,-7 4,-69 6,-99 2,-29 -5,-106 -2,-134 3,-27 12,-56 12,-56 0,0 12,-33 25,-45 15,-3 36,-8 38,1z"/>
    <path class="fil20" d="M1402 399c-24,-21 -28,-24 -52,-48 -11,48 -83,82 -109,123 -1,15 -9,119 -7,145 6,37 16,82 16,82 0,0 62,30 100,11 21,-9 28,-32 28,-32l-19 -109c0,0 42,-162 43,-172z"/>
    <path class="fil2" d="M1275 537c0,0 -12,-11 4,-30 15,-20 30,-9 30,-9 0,0 15,21 -2,39 -17,18 -32,0 -32,0z"/>
    <path class="fil28" d="M1298 492c0,0 -13,-14 -23,-17 -10,-3 -52,1 -52,1 0,0 -55,31 -52,36 2,5 42,-18 42,-18 0,0 -13,7 -14,15 -2,14 23,22 23,22 0,0 13,3 19,-1 5,-4 5,-10 5,-10 0,0 19,-4 22,-8l3 8 27 -13 0 -15z"/>
    <path class="fil52" d="M1313 504c0,0 -19,-17 -21,-18 3,8 -9,31 -27,28l21 25 27 -2 0 -33z"/>
    <path class="fil2" d="M1351 422c8,-19 34,-44 58,-17 18,22 -5,76 -5,76 0,0 -11,99 -28,107 -17,7 -36,10 -48,4 -9,-4 -53,-55 -53,-55 27,10 42,-29 34,-39 3,2 24,22 24,22 5,0 12,-85 18,-98z"/>
    <path class="fil2" d="M1375 564c-4,3 -38,-41 -38,-41 0,0 42,39 38,41z"/>
    <path class="fil28" d="M1229 272c0,0 -4,28 -2,33 2,4 6,5 6,5l0 15c0,0 11,36 14,41 4,4 16,7 23,7 8,-1 33,-23 39,-29 6,-6 8,-20 8,-20l13 -7 0 -28 -21 -32 -51 -17 -29 32z"/>
    <path class="fil38" d="M1317 324c0,0 11,-8 11,-14 0,-5 -15,-3 -15,-3 0,0 -11,11 -16,11 -5,0 -6,-16 -6,-16 0,0 -9,3 -14,-3 -5,-6 -2,-13 -2,-13 0,0 -25,5 -34,3 -25,-16 -12,-43 -12,-43 0,0 32,-42 66,-19 53,5 50,67 50,67 0,0 -1,34 -12,38 -11,4 -16,-8 -16,-8z"/>
    <path class="fil54" d="M1199 520c0,0 0,-10 -3,-15 -1,-2 -3,-3 -4,-4 -2,0 -5,-1 -8,0 -3,1 -5,9 -5,9l19 12 1 -2z"/>
    <polygon class="fil1" points="1249,643 1244,647 1199,527 1080,459 1084,455 1204,523 "/>
    <polygon class="fil55" points="1244,647 1125,579 1080,459 1199,527 "/>
    <path class="fil56" d="M1199 520c0,0 0,-32 -17,-10 -14,19 39,113 39,113l-98 -59c0,0 -64,-94 -51,-116 8,-12 20,-7 20,-7 0,0 98,58 103,62 4,3 4,17 4,17z"/>
    <polygon class="fil57" points="1173,524 1174,530 1081,478 1078,470 "/>
    <polygon class="fil57" points="1178,541 1181,549 1086,495 1083,487 "/>
    <polygon class="fil57" points="1201,593 1206,602 1124,555 1119,546 "/>
    <path class="fil28" d="M1112 538c-4,-7 -10,-8 -10,-8l-6 -10c0,0 -6,15 -4,23 3,9 18,21 21,24 4,3 8,-2 10,-3 2,0 -6,-20 -11,-26z"/>
    <polygon class="fil58" points="1338,292 1346,297 1353,278 1342,274 "/>
    <path class="fil8" d="M1204 305c2,-12 16,-21 16,-21l122 -32c0,0 6,3 10,11 1,1 2,3 3,4l0 0 1 5c1,6 -1,13 -11,21 -16,12 -33,16 -33,16 0,0 -22,23 -49,25 -2,1 -46,6 -58,-19l-1 -3 0 0 0 -7z"/>
    <path class="fil9" d="M1341 247c0,0 6,4 11,11 2,4 10,15 -8,30 -16,13 -33,16 -33,16 0,0 -22,26 -48,30 -2,1 -46,6 -58,-19 -7,-17 15,-36 15,-36l121 -32z"/>
    <path class="fil8" d="M1349 261c0,-2 -13,-69 -74,-54 -60,15 -59,74 -56,85 13,25 54,17 54,17 0,0 86,-11 76,-48z"/>
    <path class="fil8" d="M1291 305c0,0 -2,-15 -8,-22 -5,-5 -16,-10 -19,-12 28,-58 75,-32 78,-32 0,0 -52,-33 -81,33l0 1 1 1c0,0 14,5 19,11 5,6 7,21 7,21l3 -1z"/>
    <path class="fil8" d="M1323 215c-98,0 -72,94 -72,94l-4 0c0,0 -27,-98 76,-94z"/>
   </g>
  </g>
 </g>
</svg>
