<svg width="31" height="33" viewBox="0 0 31 33" fill="none" xmlns="http://www.w3.org/2000/svg">
<path d="M1.09998 0V9.9C1.09998 12.3301 3.06992 14.3 5.49998 14.3C7.93003 14.3 9.89997 12.3301 9.89997 9.9V3.3C9.89997 2.08497 8.915 1.1 7.69998 1.1C6.48495 1.1 5.49998 2.08497 5.49998 3.3V11M13.2 1.1H27.5C28.715 1.1 29.7 2.08497 29.7 3.3V29.7C29.7 30.915 28.715 31.9 27.5 31.9H5.49997C4.28495 31.9 3.29998 30.915 3.29998 29.7V17.6M24.2 9.9H15.4M24.2 16.5H15.4M24.2 23.1H8.79997" stroke="black" stroke-opacity="0.24" stroke-width="2"/>
</svg>
