<svg width="52" height="51" viewBox="0 0 52 51" fill="none"
    xmlns="http://www.w3.org/2000/svg">
    <path d="M51.4459 23.1823C51.5171 23.953 51.553 24.7265 51.5536 25.5004C51.5536 26.2793 51.516 27.0537 51.4459 27.8186C51.3046 29.3874 51.0142 30.9397 50.5788 32.4548C50.12 34.0568 49.5014 35.6099 48.7323 37.091C47.8767 38.7431 46.841 40.2978 45.6438 41.7272C42.3536 45.6634 37.8966 48.6076 32.8067 50.0357C31.2751 50.466 29.706 50.7531 28.1201 50.8934C27.341 50.964 26.5591 50.9995 25.7768 51C24.9894 51 24.2067 50.9628 23.4335 50.8938C21.8475 50.7538 20.2784 50.4665 18.7469 50.0357C13.6524 48.6076 9.19538 45.6634 5.90984 41.7272C4.71243 40.2977 3.67677 38.743 2.82133 37.0906C2.05192 35.6096 1.43337 34.0565 0.974814 32.4544C0.539431 30.9394 0.249119 29.3873 0.107716 27.8186C0.0363886 27.0479 0.000446135 26.2744 0 25.5004C0 24.7215 0.0375666 23.9472 0.107716 23.1823C0.249094 21.6133 0.539406 20.0609 0.974814 18.5457C1.43342 16.9437 2.05197 15.3908 2.82133 13.9099C3.67692 12.2576 4.71258 10.7029 5.90984 9.27332C9.19499 5.33712 13.6524 2.39332 18.7469 0.965218C20.2784 0.534439 21.8475 0.24725 23.4335 0.107445C24.2126 0.0369987 24.9945 0.00143814 25.7768 0.00088501C26.5688 0.00088501 27.3465 0.0380516 28.1201 0.107445C29.706 0.247692 31.2751 0.534874 32.8067 0.965218C37.8962 2.39332 42.3536 5.33712 45.6438 9.27332C46.8409 10.703 47.8765 12.2577 48.7323 13.9099C49.5014 15.3909 50.1199 16.9438 50.5788 18.5457C51.0142 20.0609 51.3046 21.6133 51.4459 23.1823ZM8.24855 37.091C9.43364 38.8413 10.8794 40.4044 12.5369 41.7272C14.3933 43.216 16.4936 44.3795 18.7469 45.1674C20.2613 45.7037 21.8344 46.0616 23.4335 46.2337C24.2114 46.3218 24.9938 46.3652 25.7768 46.3638C26.5688 46.3638 27.3515 46.3221 28.1201 46.2337C29.7191 46.0611 31.2921 45.7032 32.8067 45.1674C35.059 44.3804 37.1579 43.2168 39.0121 41.7272C40.6694 40.4043 42.115 38.8413 43.3001 37.091C44.2824 35.6512 45.0746 34.0932 45.6576 32.4548C46.1993 30.9565 46.5611 29.4004 46.7355 27.8186C46.8245 27.049 46.8684 26.275 46.867 25.5004C46.867 24.717 46.8248 23.9426 46.7355 23.1823H37.2591C36.9096 21.5005 36.186 19.9166 35.1408 18.5457C34.4781 17.6687 33.6921 16.8898 32.8067 16.2326C31.4214 15.1991 29.8202 14.4847 28.1201 14.1416C27.3489 13.9867 26.5638 13.9091 25.7768 13.9099C24.9756 13.9099 24.1879 13.9884 23.4335 14.1416C21.7331 14.4838 20.1317 15.1982 18.7469 16.2326C17.8611 16.8908 17.0737 17.6696 16.4082 18.5457C15.3625 19.9158 14.6403 21.5001 14.2945 23.1823H9.54229C9.77301 21.574 10.2519 20.0103 10.9622 18.5457C11.7917 16.8074 12.9306 15.2451 14.3037 13.9099C15.6042 12.6536 17.1053 11.6181 18.7465 10.8451C20.227 10.1424 21.8077 9.66852 23.4335 9.44017C24.2094 9.32819 24.9926 9.27242 25.7768 9.27332C26.5734 9.27332 27.3561 9.32906 28.1201 9.44017C29.7458 9.66859 31.3264 10.1424 32.8067 10.8451C34.448 11.6181 35.9491 12.6536 37.2496 13.9099C38.623 15.2447 39.7619 16.8071 40.5914 18.5457H45.6576C45.0745 16.9074 44.2823 15.3495 43.3001 13.9099C42.1149 12.1596 40.6693 10.5964 39.0121 9.27332C37.1578 7.78396 35.0589 6.62047 32.8067 5.83351C31.2921 5.29771 29.7191 4.93969 28.1201 4.76679C27.3422 4.6791 26.5598 4.6358 25.7768 4.6371C24.9938 4.63579 24.2114 4.6791 23.4335 4.76679C21.8344 4.93914 20.2613 5.29718 18.7469 5.83351C16.4937 6.62138 14.3934 7.78476 12.5369 9.27332C10.8795 10.5964 9.43377 12.1595 8.24855 13.9099C7.2698 15.3509 6.47923 16.9085 5.89565 18.5457C5.35412 20.0442 4.99233 21.6004 4.81772 23.1823C4.72905 23.9519 4.68528 24.7259 4.68662 25.5004C4.68662 26.2839 4.72879 27.0582 4.81772 27.8186H14.2945C14.6403 29.5007 15.3625 31.0849 16.4082 32.4548C17.0735 33.3311 17.8608 34.11 18.7465 34.7683C20.771 36.2805 23.24 37.0962 25.7768 37.091C26.578 37.091 27.3607 37.0121 28.1201 36.8597C29.8202 36.5163 31.4214 35.8018 32.8067 34.7683C33.6922 34.111 34.4782 33.332 35.1408 32.4548H25.7768C24.9565 32.4548 24.1645 32.3156 23.4335 32.0562C22.4461 31.709 21.5493 31.1485 20.8083 30.4155C20.0673 29.6825 19.5007 28.7953 19.1498 27.8186C18.8815 27.0746 18.7452 26.2903 18.7469 25.5004C18.7469 24.6889 18.8872 23.9055 19.1498 23.1823C19.5007 22.2055 20.0673 21.3184 20.8083 20.5854C21.5493 19.8523 22.4461 19.2919 23.4335 18.9447C24.1855 18.6792 24.9783 18.5442 25.7768 18.5457C26.5971 18.5457 27.3891 18.6849 28.1201 18.9447C29.1075 19.2919 30.0043 19.8523 30.7453 20.5854C31.4863 21.3184 32.0529 22.2055 32.4039 23.1823H25.7768C25.1554 23.1825 24.5595 23.4268 24.1201 23.8615C23.6806 24.2962 23.4337 24.8857 23.4335 25.5004C23.4337 26.1152 23.6806 26.7047 24.1201 27.1394C24.5595 27.5741 25.1554 27.8183 25.7768 27.8186H42.0113C41.7806 29.4267 41.3017 30.9903 40.5914 32.4548C39.7619 34.1934 38.623 35.7558 37.2496 37.091C35.9491 38.3474 34.448 39.3828 32.8067 40.1557C31.3263 40.8583 29.7457 41.332 28.1201 41.5603C27.3442 41.6725 26.561 41.7283 25.7768 41.7272C24.9799 41.7272 24.1975 41.6718 23.4335 41.5603C21.8079 41.332 20.2273 40.8583 18.7469 40.1557C17.1056 39.3828 15.6045 38.3473 14.304 37.091C12.9306 35.7558 11.7917 34.1938 10.9622 32.4548H5.89565C6.47916 34.0921 7.26974 35.6499 8.24855 37.091Z" fill="#B60000"/>
</svg>
