<?xml version="1.0" encoding="UTF-8"?>
<!DOCTYPE svg PUBLIC "-//W3C//DTD SVG 1.1//EN" "http://www.w3.org/Graphics/SVG/1.1/DTD/svg11.dtd">
<!-- Creator: CorelDRAW X8 -->
<svg xmlns="http://www.w3.org/2000/svg" xml:space="preserve" width="19.1354mm" height="16.6809mm" version="1.1" style="shape-rendering:geometricPrecision; text-rendering:geometricPrecision; image-rendering:optimizeQuality; fill-rule:evenodd; clip-rule:evenodd"
viewBox="0 0 254 221"
 xmlns:xlink="http://www.w3.org/1999/xlink">
 <defs>
  <style type="text/css">
   <![CDATA[
    .fil1 {fill:#786260}
    .fil2 {fill:#5B4543}
    .fil3 {fill:#423635}
    .fil0 {fill:#E0E0E0}
    .fil18 {fill:#FEFEFE;fill-rule:nonzero}
    .fil17 {fill:#FEFEFE;fill-rule:nonzero}
    .fil21 {fill:#FAC5B5;fill-rule:nonzero}
    .fil24 {fill:#F8AE9B;fill-rule:nonzero}
    .fil5 {fill:#F3F4F4;fill-rule:nonzero}
    .fil35 {fill:#D43939;fill-rule:nonzero}
    .fil33 {fill:#BC3738;fill-rule:nonzero}
    .fil31 {fill:#B73738;fill-rule:nonzero}
    .fil36 {fill:#75302E;fill-rule:nonzero}
    .fil34 {fill:#74302E;fill-rule:nonzero}
    .fil32 {fill:#6F2F2E;fill-rule:nonzero}
    .fil12 {fill:#786260;fill-rule:nonzero}
    .fil11 {fill:#5B4543;fill-rule:nonzero}
    .fil7 {fill:#727272;fill-rule:nonzero}
    .fil10 {fill:#423635;fill-rule:nonzero}
    .fil25 {fill:#575757;fill-rule:nonzero}
    .fil19 {fill:#3B444D;fill-rule:nonzero}
    .fil30 {fill:#32383F;fill-rule:nonzero}
    .fil28 {fill:#444444;fill-rule:nonzero}
    .fil29 {fill:#595959;fill-rule:nonzero}
    .fil8 {fill:#79838B;fill-rule:nonzero}
    .fil6 {fill:#82827E;fill-rule:nonzero}
    .fil16 {fill:#828282;fill-rule:nonzero}
    .fil9 {fill:#8B959D;fill-rule:nonzero}
    .fil22 {fill:#A82116;fill-rule:nonzero}
    .fil13 {fill:#B5B8BD;fill-rule:nonzero}
    .fil4 {fill:#BDBFC1;fill-rule:nonzero}
    .fil15 {fill:#C6C6C6;fill-rule:nonzero}
    .fil20 {fill:#CC2212;fill-rule:nonzero}
    .fil27 {fill:#D18B00;fill-rule:nonzero}
    .fil23 {fill:#DB2C1C;fill-rule:nonzero}
    .fil14 {fill:#EDEDED;fill-rule:nonzero}
    .fil26 {fill:#FFAB00;fill-rule:nonzero}
   ]]>
  </style>
 </defs>
 <g id="Capa_x0020_1">
  <metadata id="CorelCorpID_0Corel-Layer"/>
  <rect class="fil0" transform="matrix(0.882305 -0.503661 0.882305 0.503661 -0.000168986 148.886)" width="144" height="144"/>
  <rect class="fil1" x="157" y="49" width="5.65905" height="92.2946"/>
  <rect class="fil2" x="139" y="38" width="5.65905" height="92.2946"/>
  <rect class="fil3" x="121" y="28" width="5.65905" height="92.2946"/>
  <g id="_2545295218688">
   <polygon class="fil4" points="105,125 115,119 115,13 105,19 "/>
   <polygon class="fil5" points="105,19 115,13 110,10 100,16 "/>
   <polygon class="fil6" points="100,16 100,122 105,125 105,19 "/>
   <polygon class="fil4" points="170,54 109,18 111,17 170,51 "/>
   <polygon class="fil6" points="170,72 109,37 109,18 170,54 "/>
   <polygon class="fil4" points="170,65 112,31 112,27 170,60 "/>
   <polygon class="fil7" points="170,65 112,31 112,30 170,64 "/>
   <polygon class="fil4" points="172,154 182,148 182,42 172,48 "/>
   <polygon class="fil6" points="167,44 167,151 172,154 172,48 "/>
   <polygon class="fil5" points="172,48 182,42 177,39 167,44 "/>
  </g>
  <path class="fil8" d="M108 35l0 1c0,0 0,1 -1,1 -1,1 -4,1 -5,0 -1,0 -1,-1 -1,-1l0 -1c0,0 0,1 1,1 1,1 4,1 5,0 1,0 1,-1 1,-1z"/>
  <path class="fil9" d="M107 33c1,1 1,2 0,3 -1,1 -4,1 -5,0 -2,-1 -2,-2 0,-3 1,-1 4,-1 5,0z"/>
  <path class="fil10" d="M121 32l0 -21c0,-2 0,-5 -2,-5 -3,0 -10,6 -10,12 0,2 0,4 -1,6 0,2 -1,3 -1,5l0 4c0,2 -1,3 -3,3 -1,0 -2,-1 -2,-3l0 -4c0,-2 0,-5 1,-6 0,-2 1,-4 1,-5 0,-9 8,-18 15,-18 2,0 5,1 6,3 1,2 2,5 2,8l0 24 -6 -3z"/>
  <g id="_2545295221632">
   <path class="fil8" d="M125 45l0 1c0,0 0,1 -1,1 -1,1 -3,1 -5,0 -1,0 -1,-1 -1,-1l0 -1c0,0 0,1 1,1 2,1 4,1 5,0 1,0 1,-1 1,-1z"/>
   <path class="fil9" d="M124 43c2,1 2,2 0,3 -1,1 -3,1 -5,0 -1,-1 -1,-2 0,-3 2,-1 4,-1 5,0z"/>
   <path class="fil11" d="M139 42l0 -21c0,-2 -1,-5 -3,-5 -3,0 -9,6 -9,12 0,2 -1,4 -2,6 0,2 0,3 0,5l0 4c0,2 -2,3 -3,3 -2,0 -3,-1 -3,-3l0 -4c0,-2 1,-5 1,-6 1,-2 1,-4 1,-5 0,-9 9,-18 15,-18 3,0 5,1 6,3 2,2 2,5 2,8l0 24 -5 -3z"/>
  </g>
  <g id="_2545295222976">
   <path class="fil8" d="M144 56l0 1c0,0 0,1 -1,1 -1,1 -3,1 -5,0 -1,0 -1,-1 -1,-1l0 -1c0,0 0,1 1,1 2,1 4,1 5,0 1,0 1,-1 1,-1z"/>
   <path class="fil9" d="M143 54c2,1 2,2 0,3 -1,1 -3,1 -5,0 -1,-1 -1,-2 0,-3 2,-1 4,-1 5,0z"/>
   <path class="fil12" d="M157 53l0 -21c0,-2 0,-5 -2,-5 -3,0 -9,6 -9,12 0,2 -1,4 -2,6 0,2 -1,3 -1,5l0 4c0,2 -1,3 -2,3 -2,0 -3,-1 -3,-3l0 -4c0,-3 0,-5 1,-6 0,-2 1,-4 1,-5 0,-9 9,-18 15,-18 3,0 5,1 6,3 1,2 2,5 2,8l0 24 -6 -3z"/>
  </g>
  <path class="fil10" d="M127 119l0 1c0,1 0,1 -1,1 -1,1 -3,1 -4,0 0,0 -1,0 -1,-1l0 -1c0,0 1,0 1,-1 1,0 3,0 4,0 1,1 1,1 1,1z"/>
  <path class="fil11" d="M144 130l0 1c0,1 0,1 -1,1 -1,1 -3,1 -4,0 0,0 0,0 0,-1l0 -1c0,0 0,-1 0,-1 1,-1 3,-1 4,0 1,0 1,1 1,1z"/>
  <path class="fil12" d="M163 141l0 1c0,1 0,1 -1,1 -1,1 -3,1 -4,0 0,0 -1,0 -1,-1l1 -1c-1,0 0,-1 0,-1 1,-1 3,-1 4,0 1,0 1,1 1,1z"/>
  <g id="_2545295223552">
   <path class="fil13" d="M170 65c1,1 2,4 1,5 0,2 -1,3 -3,1 -1,-1 -2,-3 -1,-5 0,-2 1,-2 3,-1z"/>
   <path class="fil14" d="M175 69l0 0c-1,-6 -5,-11 -8,-10 -1,0 -3,1 -3,1 3,-1 6,2 7,7 1,4 1,9 -2,10 0,0 2,-1 3,-1 2,-1 3,-4 3,-7z"/>
   <path class="fil15" d="M168 61c3,3 4,8 4,12 -1,4 -4,5 -7,2 -3,-3 -5,-8 -4,-12 1,-4 4,-4 7,-2z"/>
   <path class="fil16" d="M170 69l0 0c0,-4 -3,-8 -6,-7 0,0 -1,0 -2,1 2,-1 5,2 6,5 0,3 0,6 -2,7 0,0 2,-1 2,-1 2,0 3,-2 2,-5z"/>
   <path class="fil17" d="M166 63c2,2 4,6 3,9 -1,3 -3,4 -5,2 -2,-2 -3,-6 -3,-9 1,-3 3,-4 5,-2z"/>
   <path class="fil18" d="M161 66c0,3 2,7 4,8 2,1 4,0 4,-3 0,-3 -2,-6 -4,-8 -2,-1 -4,0 -4,3z"/>
   <path class="fil19" d="M165 64c0,1 0,1 0,1 0,0 0,0 0,0 0,0 0,-1 0,-1 0,0 0,0 0,0z"/>
   <path class="fil19" d="M162 64c0,1 0,1 1,1 0,0 0,0 0,0 0,0 0,-1 0,-1 -1,0 -1,0 -1,0z"/>
   <path class="fil19" d="M167 67c0,0 0,1 0,1 1,0 1,0 1,0 0,-1 0,-1 -1,-1 0,0 0,0 0,0z"/>
   <path class="fil19" d="M162 70c0,0 0,0 1,0 0,0 0,0 0,0 0,0 0,-1 0,-1 -1,0 -1,0 -1,1z"/>
   <path class="fil19" d="M167 72c0,1 0,1 0,1 1,0 1,0 1,0 0,-1 0,-1 -1,-1 0,0 0,0 0,0z"/>
   <path class="fil19" d="M162 67c0,0 0,0 0,1 0,0 0,0 0,-1 0,0 0,0 0,0 0,-1 0,0 0,0z"/>
   <path class="fil19" d="M168 70c0,1 0,1 0,1 0,0 0,0 0,0 0,-1 0,-1 0,-1 0,0 0,0 0,0z"/>
   <path class="fil19" d="M165 72c0,1 0,1 0,1 0,0 0,0 0,0 0,-1 0,-1 0,-1 0,0 0,0 0,0z"/>
   <path class="fil20" d="M164 69c0,0 1,0 1,0 0,0 1,0 0,0 0,-1 -1,-3 -1,-3 -1,0 0,2 0,3z"/>
   <path class="fil20" d="M165 68c0,0 0,0 -1,0 0,0 0,0 0,0 0,1 2,3 2,3 1,0 -1,-2 -1,-3z"/>
  </g>
  <g id="_2545295231296">
   <path class="fil21" d="M73 65c0,0 -1,2 -1,4 -1,2 -2,13 -3,14 0,1 -1,2 -1,4 -1,2 0,3 1,4 1,0 2,0 3,0 1,0 2,-2 2,-2 0,0 -1,0 -1,-1 0,-1 1,-1 1,-1 0,0 0,-1 -1,-2 0,-2 1,-5 2,-7 0,-2 1,-6 2,-8 0,-1 1,-4 1,-4 0,0 -3,-1 -5,-1z"/>
   <path class="fil22" d="M71 143c0,0 -2,1 -4,3 -1,2 -2,2 -4,4 -1,1 0,2 2,2 2,0 5,-1 7,-2 2,0 5,-2 6,-3 1,-1 2,-2 2,-2l0 -3 -9 1z"/>
   <path class="fil22" d="M97 140c0,0 0,1 -2,3 -2,2 -3,3 -4,5 -1,0 -1,2 1,2 2,0 4,-1 6,-2 3,-1 5,-3 6,-4 1,-1 2,-3 2,-3l-1 -3 -8 2z"/>
   <path class="fil11" d="M97 92c0,-10 -6,-16 -6,-16 1,-4 -16,2 -16,2 0,0 -3,19 -5,29 -2,12 -1,36 -1,36 0,0 1,2 5,2 3,0 6,-3 6,-3l0 -27 4 -19c0,0 4,16 5,21 1,6 6,24 6,24 0,0 3,3 7,1 4,-1 3,-4 3,-4 0,0 -1,-12 -6,-23 0,-9 -3,-18 -2,-23z"/>
   <path class="fil22" d="M76 49c0,0 -2,1 -3,6 -1,5 -2,10 -2,10 0,0 4,0 9,2 3,-6 1,-17 -4,-18z"/>
   <path class="fil23" d="M77 49c0,0 -1,3 -2,8 -1,4 -1,27 -1,27 0,0 5,3 14,2 5,0 7,-3 7,-3 0,0 4,-22 3,-25 0,-3 -7,-10 -7,-10 0,0 -8,-1 -14,1z"/>
   <path class="fil11" d="M84 63c0,0 4,-6 7,-7 3,-2 5,-2 5,-2 0,0 -1,-2 -2,-3 -1,1 -2,1 -5,2 -3,2 -6,5 -7,7 -2,4 1,5 2,3z"/>
   <path class="fil11" d="M78 49c0,0 -2,6 -2,9 -1,2 0,3 1,3 1,0 1,-2 2,-4 0,-2 2,-9 2,-9l-3 1z"/>
   <path class="fil11" d="M96 80c0,0 -3,2 -6,2 -2,0 -6,-3 -5,-10 0,-8 0,-11 0,-11l-9 -4c0,0 -2,6 -3,17 0,11 0,15 0,15 0,0 9,0 15,0 6,-1 8,-2 8,-2l0 -7z"/>
   <path class="fil24" d="M83 46l-1 6c0,0 3,3 6,1 3,-3 3,-4 3,-4l-1 -8 -7 5z"/>
   <path class="fil21" d="M87 33c-2,-2 -8,-3 -10,3 -2,7 3,14 6,13 2,-1 6,-3 7,-7 1,-3 -1,-8 -3,-9z"/>
   <path class="fil25" d="M76 38c1,1 3,2 6,2 3,-1 4,-2 4,-2l1 4c0,0 0,0 1,-1 0,-1 0,-1 1,-1 1,0 1,2 1,2 0,0 2,-2 1,-6 0,-2 -3,-7 -8,-7 -4,1 -7,4 -7,6 -1,2 0,3 0,3z"/>
   <path class="fil11" d="M76 63c-1,1 -1,7 3,8 3,1 4,-3 4,-5 -4,-1 -7,-3 -7,-3z"/>
   <path class="fil21" d="M93 73c0,0 1,8 1,10 0,3 -2,10 -3,12 0,0 -1,1 -2,2 -1,0 -2,1 -3,1 1,1 3,0 3,0 0,0 0,2 0,3 1,1 3,1 5,1 2,0 3,-3 3,-4 0,-1 -1,-2 -1,-3 1,-3 4,-8 4,-10 0,-3 1,-13 1,-13 0,0 -4,-3 -8,1z"/>
   <path class="fil22" d="M95 55c-3,0 -3,6 -4,10 0,4 1,9 1,9 0,0 3,0 6,0 2,0 4,0 4,0 0,0 1,-18 -7,-19z"/>
   <path class="fil26" d="M88 32c4,1 5,4 2,6 -3,2 -8,3 -11,1 -4,-1 -5,-4 -2,-6 2,-2 8,-3 11,-1z"/>
   <path class="fil26" d="M75 36c0,0 -1,-9 7,-10 9,-2 10,9 10,9l-17 1z"/>
   <path class="fil27" d="M75 35c0,0 -4,3 1,5 8,4 15,-3 15,-3 0,0 -9,2 -13,1 -3,-2 -3,-3 -3,-3z"/>
   <path class="fil27" d="M83 26c-1,1 -2,2 -2,3 -1,2 -1,4 1,5 2,1 3,2 3,2 0,0 0,-1 -1,-3 -2,-1 -3,-2 -2,-4 1,-2 4,-3 4,-3 0,0 -1,-1 -3,0z"/>
   <path class="fil27" d="M82 26c0,0 -2,0 -3,2 -1,1 -1,3 -1,4 -1,0 -3,2 -3,2 0,0 0,-1 0,-2 1,-1 2,-1 2,-3 0,-1 0,-3 5,-3z"/>
  </g>
  <g id="_2545295233568">
   <path class="fil28" d="M171 84l0 0c0,-1 0,-2 -1,-2 0,0 -4,0 -4,0 1,0 1,1 1,2 0,1 0,2 -1,2 0,0 4,-1 4,-1 1,0 1,0 1,-1z"/>
   <path class="fil13" d="M167 83c0,1 0,1 0,2 0,1 -1,1 -1,0 -1,0 -1,-1 0,-2 0,-1 1,-1 1,0z"/>
   <path class="fil14" d="M169 85l0 0c1,-3 -1,-6 -2,-5 -1,0 -2,0 -2,0 2,0 3,2 3,4 0,2 -1,4 -3,4 1,0 2,0 2,0 1,0 2,-1 2,-3z"/>
   <path class="fil15" d="M167 81c1,1 1,4 0,6 -1,1 -2,1 -3,0 -1,-2 -1,-5 0,-6 0,-2 2,-2 3,0z"/>
   <path class="fil16" d="M166 84l0 0c0,-1 0,-2 -1,-2l0 0c0,0 1,1 1,2 0,0 -1,1 -1,1l0 0c1,0 1,0 1,-1z"/>
   <path class="fil29" d="M165 83c1,0 1,1 0,2 0,0 0,0 -1,0 0,-1 0,-2 0,-2 1,-1 1,-1 1,0z"/>
  </g>
  <g id="_2545295236288">
   <path class="fil28" d="M171 96l0 0c0,-1 0,-2 -1,-2 0,0 -4,1 -4,1 1,0 1,0 1,1 0,1 0,2 -1,2 0,0 4,0 4,0 1,0 1,-1 1,-2z"/>
   <path class="fil13" d="M167 95c0,1 0,2 0,2 0,1 -1,1 -1,0 -1,0 -1,-1 0,-2 0,-1 1,-1 1,0z"/>
   <path class="fil14" d="M169 97l0 0c1,-3 -1,-5 -2,-5 -1,0 -2,0 -2,0 2,0 3,2 3,4 0,2 -1,4 -3,4 1,0 2,0 2,0 1,0 2,-1 2,-3z"/>
   <path class="fil15" d="M167 93c1,1 1,4 0,6 -1,1 -2,1 -3,0 -1,-2 -1,-4 0,-6 0,-2 2,-2 3,0z"/>
   <path class="fil16" d="M166 96l0 0c0,-1 0,-2 -1,-1l0 0c0,0 1,0 1,1 0,0 -1,1 -1,1l0 0c1,0 1,0 1,-1z"/>
   <path class="fil29" d="M165 95c1,0 1,1 0,2 0,0 0,0 -1,0 0,-1 0,-2 0,-2 1,-1 1,-1 1,0z"/>
  </g>
  <polygon class="fil30" points="154,20 154,23 154,23 154,20 "/>
  <polygon class="fil30" points="154,20 154,23 154,23 154,20 "/>
  <polygon class="fil30" points="154,20 154,23 154,23 154,20 "/>
  <polygon class="fil30" points="154,20 154,23 153,23 153,20 "/>
  <polygon class="fil30" points="153,20 153,23 153,23 153,20 "/>
  <polygon class="fil30" points="153,20 153,23 153,23 153,20 "/>
  <polygon class="fil30" points="153,20 153,23 153,23 153,20 153,20 153,20 "/>
  <path class="fil30" d="M154 20c-1,0 -1,0 -1,0 0,0 0,0 0,0 0,0 0,0 1,0 0,0 0,0 0,0z"/>
  <polygon class="fil31" points="154,20 154,21 156,16 156,15 "/>
  <polygon class="fil32" points="145,21 145,22 145,22 145,21 "/>
  <polygon class="fil33" points="145,21 145,22 153,21 153,20 "/>
  <polygon class="fil34" points="153,20 153,21 159,25 159,24 "/>
  <polygon class="fil35" points="159,24 159,25 159,24 159,24 "/>
  <polygon class="fil36" points="159,24 154,20 156,15 155,15 153,20 145,21 145,21 153,20 159,24 "/>
 </g>
</svg>
