<?xml version="1.0" encoding="UTF-8"?>
<!DOCTYPE svg PUBLIC "-//W3C//DTD SVG 1.1//EN" "http://www.w3.org/Graphics/SVG/1.1/DTD/svg11.dtd">
<!-- Creator: CorelDRAW X8 -->
<svg xmlns="http://www.w3.org/2000/svg" xml:space="preserve" width="19.4943mm" height="16.7879mm" version="1.1" style="shape-rendering:geometricPrecision; text-rendering:geometricPrecision; image-rendering:optimizeQuality; fill-rule:evenodd; clip-rule:evenodd"
viewBox="0 0 131 112"
 xmlns:xlink="http://www.w3.org/1999/xlink">
 <defs>
  <style type="text/css">
   <![CDATA[
    .fil0 {fill:#E0E0E0}
    .fil7 {fill:#D4D4D4;fill-rule:nonzero}
    .fil6 {fill:#C3B0B7;fill-rule:nonzero}
    .fil1 {fill:#B4D342;fill-rule:nonzero}
    .fil2 {fill:#9FC347;fill-rule:nonzero}
    .fil24 {fill:#5B4543;fill-rule:nonzero}
    .fil4 {fill:#85B24C;fill-rule:nonzero}
    .fil3 {fill:#423635;fill-rule:nonzero}
    .fil5 {fill:#7C9A49;fill-rule:nonzero}
    .fil17 {fill:#4B3220;fill-rule:nonzero}
    .fil12 {fill:#605748;fill-rule:nonzero}
    .fil20 {fill:#656464;fill-rule:nonzero}
    .fil18 {fill:#6B492E;fill-rule:nonzero}
    .fil14 {fill:#757575;fill-rule:nonzero}
    .fil22 {fill:#8F190E;fill-rule:nonzero}
    .fil9 {fill:#A01515;fill-rule:nonzero}
    .fil21 {fill:#A82116;fill-rule:nonzero}
    .fil19 {fill:#B2B1B2;fill-rule:nonzero}
    .fil15 {fill:#CECDCC;fill-rule:nonzero}
    .fil13 {fill:#D6D6D6;fill-rule:nonzero}
    .fil8 {fill:#DB2C1C;fill-rule:nonzero}
    .fil16 {fill:#E5E3E1;fill-rule:nonzero}
    .fil10 {fill:#E5E5E5;fill-rule:nonzero}
    .fil23 {fill:#E8E8E8;fill-rule:nonzero}
    .fil25 {fill:#EDEDED;fill-rule:nonzero}
    .fil11 {fill:white;fill-rule:nonzero}
   ]]>
  </style>
 </defs>
 <g id="Capa_x0020_1">
  <metadata id="CorelCorpID_0Corel-Layer"/>
  <rect class="fil0" transform="matrix(0.898855 -0.513108 0.898855 0.513108 -8.68782E-05 75.1658)" width="72.6226" height="72.6226"/>
  <polygon class="fil1" points="19,74 63,99 112,70 68,45 "/>
  <polygon class="fil2" points="112,70 112,73 63,101 63,99 "/>
  <polygon class="fil2" points="19,74 19,76 63,101 63,99 "/>
  <polygon class="fil1" points="17,73 61,98 110,69 66,44 "/>
  <polygon class="fil2" points="17,73 17,75 61,100 61,98 "/>
  <g id="_2545195944000">
   <path class="fil3" d="M91 27c0,0 0,5 0,10 -2,-1 -3,-4 -3,-7 0,0 -1,0 -1,0 0,3 1,7 4,8 0,1 0,2 0,3 -2,0 -5,0 -6,-2 -1,-2 -1,-4 -2,-7 0,0 0,0 0,0 0,3 0,6 2,7 -4,1 -6,-2 -7,-6 0,0 0,0 0,0 0,5 4,9 7,8 2,1 4,2 6,2 0,2 0,4 0,6 0,6 0,15 0,15 0,0 0,1 1,1 1,0 1,-1 1,-1 0,0 0,-14 0,-19 1,0 1,0 2,0 1,0 3,-1 5,-2 3,-3 5,-8 5,-13 0,0 0,0 0,0 -1,4 -2,8 -5,10 -1,2 -2,3 -3,3 -1,1 -3,1 -4,1 0,-1 0,-2 0,-3 1,0 3,-2 3,-3 1,-1 2,-4 2,-6 0,0 -1,0 -1,0 0,2 0,4 -1,6 -1,1 -2,1 -2,1 -1,1 -1,1 -1,1 0,-6 0,-13 0,-13l-2 0z"/>
   <g>
    <path class="fil1" d="M91 26c-1,0 -2,2 -2,3 0,2 0,3 1,5 2,-1 4,-3 4,-5 0,-1 -1,-3 -2,-3 0,0 -1,0 -1,0z"/>
    <path class="fil2" d="M91 27c0,0 0,2 -1,3 0,1 0,3 0,3 0,0 1,-1 1,-2 0,-1 0,-2 0,-3 1,-1 0,-1 0,-1z"/>
    <path class="fil2" d="M88 23c-1,-1 -3,-1 -4,0 -1,1 -2,2 -3,4 2,1 4,2 6,0 1,0 2,-2 1,-3 0,0 0,-1 0,-1z"/>
    <path class="fil4" d="M88 24c0,0 -2,0 -3,1 -2,1 -3,1 -3,1 0,0 1,0 2,0 0,-1 1,-1 2,-1 2,-1 2,-1 2,-1z"/>
    <path class="fil2" d="M94 22c1,-1 3,-1 4,0 1,1 2,2 3,4 -1,1 -4,2 -6,0 -1,0 -1,-2 -1,-3 0,0 0,0 0,-1z"/>
    <path class="fil4" d="M95 23c0,0 1,0 3,1 1,1 2,1 2,1 0,0 -1,0 -1,0 -1,0 -2,-1 -3,-1 -1,-1 -1,-1 -1,-1z"/>
    <path class="fil4" d="M85 29c0,1 0,3 1,3 0,0 1,-1 2,-1 1,-1 3,-2 3,-4 0,-1 0,-2 -1,-3 -2,1 -5,2 -5,5z"/>
    <path class="fil5" d="M89 26c-2,0 -3,3 -3,5 0,-1 1,-2 1,-3 1,-1 2,-2 2,-2z"/>
    <path class="fil4" d="M98 29c0,1 0,2 -1,3 0,-1 -1,-1 -2,-1 -1,-1 -3,-2 -3,-4 0,-1 0,-2 1,-3 2,0 4,2 5,5z"/>
    <path class="fil5" d="M94 25c2,1 3,4 3,6 -1,-1 -1,-3 -1,-3 -1,-1 -2,-2 -2,-3z"/>
    <path class="fil4" d="M87 18c1,0 1,-1 3,-1 1,-1 2,0 2,0 1,0 1,2 0,3 0,1 0,1 -1,1 -1,0 -3,-1 -3,-1 -1,-1 -1,-1 -1,-2z"/>
    <path class="fil2" d="M85 19c-1,0 -3,1 -3,1 1,1 1,2 2,2 1,2 3,2 4,1 1,0 2,0 2,-1 -1,-2 -3,-4 -5,-3z"/>
    <path class="fil4" d="M89 21c-1,-1 -4,-1 -5,-1 0,0 1,0 2,0 1,0 2,1 3,1z"/>
    <path class="fil2" d="M97 17c0,1 2,1 2,1 0,1 -1,2 -1,2 -1,2 -3,3 -5,2 0,0 -2,0 -2,-1 1,-2 3,-4 6,-4z"/>
    <path class="fil4" d="M92 20c1,-1 4,-2 6,-1 -1,0 -2,0 -3,0 -1,0 -2,1 -3,1z"/>
    <path class="fil1" d="M89 21c-1,0 -3,1 -4,2 -1,1 -1,3 -1,4 2,1 5,0 6,-2 0,0 0,-2 0,-3 0,0 -1,-1 -1,-1z"/>
    <path class="fil2" d="M89 22c0,0 -2,1 -3,2 0,1 -1,3 -1,3 0,0 0,0 1,-1 0,-1 1,-2 2,-3 1,-1 1,-1 1,-1z"/>
    <path class="fil1" d="M93 21c1,-1 2,0 3,1 1,1 2,3 2,4 -1,1 -4,1 -6,-1 0,0 -1,-2 0,-3 0,0 1,-1 1,-1z"/>
    <path class="fil2" d="M93 22c0,0 2,1 3,2 1,1 2,2 2,2 0,0 -1,0 -2,-1 0,-1 -1,-1 -2,-2 -1,-1 -1,-1 -1,-1z"/>
    <path class="fil2" d="M91 23c-1,0 -2,0 -2,2 -1,2 0,3 1,4 1,1 2,2 2,2 0,0 2,-2 2,-5 0,-2 -1,-3 -2,-3 0,0 -1,0 -1,0z"/>
    <path class="fil4" d="M91 23c0,1 0,1 0,3 0,2 1,4 1,4 0,0 0,-3 0,-4 0,-2 -1,-3 -1,-3z"/>
    <g>
     <path class="fil2" d="M92 20c-1,-1 -3,-1 -4,0 -1,1 -2,2 -3,4 1,1 4,2 6,1 1,-1 1,-3 1,-4 0,0 0,0 0,-1z"/>
     <path class="fil4" d="M91 21c0,0 -2,0 -3,1 -1,1 -2,2 -2,2 0,0 0,-1 1,-1 1,0 2,-1 3,-1 1,-1 1,-1 1,-1z"/>
    </g>
   </g>
   <g>
    <path class="fil2" d="M73 32c-1,0 -2,1 -3,1 1,1 1,2 2,2 1,2 3,2 4,2 1,-1 2,-1 3,-2 -1,-2 -4,-4 -6,-3z"/>
    <path class="fil4" d="M77 35c-1,-2 -4,-2 -5,-2 0,1 2,0 3,0 1,1 1,1 2,2z"/>
    <path class="fil2" d="M85 30c1,1 2,1 2,2 0,0 -1,1 -1,2 -1,1 -3,2 -5,2 0,-1 -2,-1 -2,-2 1,-2 3,-4 6,-4z"/>
    <path class="fil4" d="M80 34c1,-2 4,-3 6,-2 -1,0 -2,0 -3,0 -1,0 -2,1 -3,2z"/>
    <g>
     <path class="fil2" d="M80 34c-1,-2 -3,-1 -4,-1 -1,1 -2,2 -3,4 1,1 4,2 6,1 1,-1 1,-2 1,-4 0,0 0,0 0,0z"/>
     <path class="fil4" d="M79 34c0,0 -2,0 -3,1 -1,1 -2,2 -2,2 0,0 0,0 1,-1 1,0 2,-1 3,-1 1,-1 1,-1 1,-1z"/>
    </g>
   </g>
   <g>
    <path class="fil2" d="M80 38c-1,0 -2,1 -2,1 1,1 1,1 1,2 1,1 3,2 4,1 1,0 2,-1 2,-1 -1,-2 -3,-4 -5,-3z"/>
    <path class="fil4" d="M84 40c-1,-1 -3,-1 -5,-1 1,0 2,0 3,0 0,0 1,1 2,1z"/>
    <path class="fil2" d="M90 37c0,0 1,0 2,1 -1,0 -1,1 -1,1 -1,2 -2,3 -4,2 0,0 -2,-1 -2,-1 1,-2 2,-4 5,-3z"/>
    <path class="fil4" d="M86 39c1,-1 3,-1 5,-1 -1,0 -2,0 -3,0 0,0 -1,1 -2,1z"/>
    <g>
     <path class="fil2" d="M86 39c-1,0 -2,0 -3,0 -1,1 -2,2 -3,3 1,1 4,2 5,1 1,-1 1,-2 1,-3 0,0 0,-1 0,-1z"/>
     <path class="fil4" d="M85 40c0,0 -1,0 -2,1 -1,0 -2,1 -2,1 0,0 1,0 1,-1 1,0 2,0 2,-1 1,0 1,0 1,0z"/>
    </g>
   </g>
   <g>
    <path class="fil2" d="M108 28c1,-2 3,-1 5,-1 1,1 2,2 3,4 -2,1 -5,2 -7,1 -1,-1 -1,-2 -1,-4 0,0 0,0 0,0z"/>
    <path class="fil4" d="M109 28c0,0 2,0 3,1 2,1 3,2 3,2 0,0 -1,0 -1,-1 -1,0 -3,-1 -4,-1 -1,-1 -1,-1 -1,-1z"/>
    <path class="fil4" d="M112 34c1,1 1,2 0,3 -1,0 -2,-1 -2,-1 -2,-1 -4,-2 -4,-4 0,-1 0,-2 1,-3 3,0 5,2 5,5z"/>
    <path class="fil5" d="M108 30c2,1 3,4 4,6 -1,-1 -1,-2 -2,-3 0,-1 -1,-2 -2,-3z"/>
    <path class="fil1" d="M107 26c1,0 3,0 4,1 1,1 2,3 2,4 -2,1 -5,1 -7,-1 0,0 -1,-2 0,-3 0,0 0,-1 1,-1z"/>
    <path class="fil2" d="M107 27c0,0 2,1 3,2 1,1 2,2 2,2 0,0 -1,0 -1,-1 -1,-1 -2,-1 -3,-2 -1,-1 -1,-1 -1,-1z"/>
    <path class="fil2" d="M104 28c-1,0 -1,0 -2,2 -1,2 0,3 1,4 1,1 2,2 2,2 0,0 3,-2 3,-5 0,-2 -1,-3 -2,-3 -1,0 -1,0 -2,0z"/>
    <path class="fil4" d="M105 29c0,0 0,0 0,2 0,2 0,4 0,4 0,0 1,-2 0,-4 0,-2 0,-2 0,-2z"/>
   </g>
   <g>
    <path class="fil1" d="M78 30c-2,0 -2,2 -2,3 -1,1 0,2 0,4 2,-1 4,-2 4,-4 0,-1 -1,-2 -2,-3 0,0 0,0 0,0z"/>
    <path class="fil2" d="M78 31c0,0 -1,1 -1,3 0,1 0,2 0,2 0,0 0,-1 0,-1 0,-1 0,-2 1,-3 0,-1 0,-1 0,-1z"/>
    <path class="fil2" d="M75 28c-1,-1 -2,-1 -3,0 -1,0 -2,2 -3,3 1,1 4,2 5,0 1,0 2,-1 1,-2 0,0 0,-1 0,-1z"/>
    <path class="fil4" d="M75 29c0,0 -2,0 -3,0 -1,1 -2,2 -2,2 0,0 0,0 1,-1 1,0 2,-1 3,-1 0,0 1,0 1,0z"/>
    <path class="fil2" d="M80 27c1,0 2,0 3,0 2,1 2,2 3,3 -1,1 -4,2 -5,1 -1,-1 -1,-2 -1,-3 0,0 0,-1 0,-1z"/>
    <path class="fil4" d="M80 28c0,0 2,0 3,1 1,0 2,1 2,1 0,0 0,0 -1,-1 -1,0 -2,0 -2,-1 -1,0 -2,0 -2,0z"/>
    <path class="fil4" d="M72 33c0,1 0,2 1,2 0,0 1,0 2,0 1,-1 2,-2 2,-4 0,0 0,-2 0,-2 -2,0 -4,1 -5,4z"/>
    <path class="fil5" d="M76 30c-2,0 -3,3 -3,4 1,0 1,-2 1,-2 1,-1 1,-2 2,-2z"/>
    <path class="fil4" d="M83 33c0,0 0,2 0,2 -1,0 -1,0 -2,-1 -1,0 -2,-1 -2,-3 0,-1 0,-2 0,-2 2,0 4,1 4,4z"/>
    <path class="fil5" d="M80 30c1,0 2,2 3,4 -1,0 -1,-2 -1,-2 -1,-1 -2,-2 -2,-2z"/>
    <path class="fil4" d="M74 24c1,-1 1,-1 2,-1 1,-1 2,0 3,0 0,0 0,2 -1,2 0,1 0,1 -1,1 0,1 -2,0 -2,-1 -1,0 -1,-1 -1,-1z"/>
    <path class="fil2" d="M72 24c-1,1 -2,1 -2,2 0,0 1,1 1,1 1,1 3,2 4,1 1,0 2,0 2,-1 -1,-2 -3,-3 -5,-3z"/>
    <path class="fil4" d="M76 27c-1,-2 -4,-2 -5,-1 1,0 2,0 3,0 0,0 1,0 2,1z"/>
    <path class="fil2" d="M82 23c1,0 2,1 2,1 0,1 0,1 -1,2 -1,1 -2,2 -4,1 0,0 -1,0 -2,-1 1,-2 3,-3 5,-3z"/>
    <path class="fil4" d="M79 26c0,-2 3,-2 4,-2 0,1 -1,0 -2,1 -1,0 -2,1 -2,1z"/>
    <path class="fil1" d="M76 27c-1,-1 -3,0 -3,1 -1,1 -1,2 -2,3 2,1 4,0 5,-1 1,-1 1,-2 0,-3 0,0 0,0 0,0z"/>
    <path class="fil2" d="M76 27c0,0 -2,1 -3,2 0,1 -1,2 -1,2 0,0 1,0 1,-1 0,-1 1,-1 2,-2 1,-1 1,-1 1,-1z"/>
    <path class="fil1" d="M79 26c1,0 2,0 3,1 1,1 1,2 2,3 -2,1 -4,1 -5,0 -1,-1 -1,-2 -1,-3 0,0 1,-1 1,-1z"/>
    <path class="fil2" d="M79 27c0,0 1,1 2,1 1,1 2,2 2,2 0,0 0,0 -1,-1 -1,0 -1,-1 -2,-1 -1,-1 -1,-1 -1,-1z"/>
    <path class="fil2" d="M77 28c0,0 -1,0 -2,1 0,2 0,3 1,4 1,1 2,1 2,1 0,0 2,-1 2,-4 0,-1 -1,-2 -2,-2 0,0 0,0 -1,0z"/>
    <path class="fil4" d="M78 28c0,0 0,1 0,2 0,2 0,3 0,3 0,0 0,-1 0,-3 0,-2 0,-2 0,-2z"/>
    <g>
     <path class="fil2" d="M78 26c-1,-1 -2,-1 -3,-1 -1,1 -2,2 -3,3 1,1 4,2 5,1 1,0 2,-2 1,-2 0,-1 0,-1 0,-1z"/>
     <path class="fil4" d="M78 26c0,0 -2,1 -3,1 -1,1 -2,1 -2,1 0,0 0,0 1,0 1,-1 2,-1 3,-1 1,0 1,-1 1,-1z"/>
    </g>
   </g>
   <g>
    <path class="fil1" d="M105 26c-1,0 -2,2 -2,3 -1,1 0,2 1,3 1,0 3,-2 3,-3 0,-1 -1,-2 -2,-3 0,0 0,0 0,0z"/>
    <path class="fil2" d="M105 27c0,0 -1,1 -1,2 0,2 0,3 0,3 0,0 0,-1 0,-1 0,-1 0,-2 1,-3 0,-1 0,-1 0,-1z"/>
    <path class="fil2" d="M102 24c-1,-1 -2,-1 -3,0 -1,0 -2,1 -2,3 1,1 3,1 4,0 1,0 2,-1 1,-2 0,0 0,-1 0,-1z"/>
    <path class="fil4" d="M102 24c0,0 -2,1 -3,1 -1,1 -2,2 -2,2 0,0 1,-1 1,-1 1,0 2,-1 3,-1 1,0 1,-1 1,-1z"/>
    <path class="fil2" d="M107 23c1,-1 2,-1 3,0 1,0 2,2 3,3 -2,1 -4,2 -5,1 -1,-1 -1,-2 -1,-3 0,0 0,-1 0,-1z"/>
    <path class="fil4" d="M107 24c0,0 2,0 3,1 1,0 2,1 2,1 0,0 -1,0 -1,-1 -1,0 -2,0 -3,-1 0,0 -1,0 -1,0z"/>
    <path class="fil4" d="M100 29c0,0 0,2 0,2 1,0 1,0 2,-1 1,0 2,-1 2,-3 0,0 0,-2 0,-2 -2,0 -4,1 -4,4z"/>
    <path class="fil5" d="M103 26c-1,0 -2,3 -3,4 1,0 1,-2 1,-2 1,-1 2,-2 2,-2z"/>
    <path class="fil4" d="M110 29c0,0 0,1 0,2 -1,0 -2,-1 -2,-1 -1,0 -2,-1 -2,-3 0,-1 0,-2 0,-2 2,0 4,1 4,4z"/>
    <path class="fil5" d="M107 26c1,0 2,2 2,4 0,-1 0,-2 -1,-3 0,0 -1,-1 -1,-1z"/>
    <path class="fil4" d="M102 20c0,-1 0,-1 2,-1 0,-1 1,0 2,0 0,0 0,1 -1,2 0,1 0,1 0,1 -1,0 -3,-1 -3,-1 0,0 -1,-1 0,-1z"/>
    <path class="fil2" d="M99 20c0,1 -1,1 -2,1 1,1 1,2 2,2 1,1 2,2 3,1 1,0 2,-1 2,-1 -1,-2 -2,-3 -5,-3z"/>
    <path class="fil4" d="M103 22c-1,-1 -3,-1 -5,-1 1,1 2,0 3,1 1,0 1,0 2,0z"/>
    <path class="fil2" d="M109 19c1,0 2,1 2,1 0,1 -1,1 -1,2 -1,1 -2,2 -4,1 0,0 -1,0 -1,-1 0,-2 2,-3 4,-3z"/>
    <path class="fil4" d="M106 22c0,-2 3,-2 4,-2 0,0 -2,0 -2,1 -1,0 -2,0 -2,1z"/>
    <path class="fil1" d="M103 22c-1,0 -2,1 -3,1 -1,1 -1,3 -1,4 1,1 4,0 4,-1 1,-1 1,-2 0,-3 0,0 0,-1 0,-1z"/>
    <path class="fil2" d="M103 23c0,0 -2,1 -2,2 -1,1 -2,2 -2,2 0,0 1,0 1,-1 1,-1 1,-1 2,-2 1,-1 1,-1 1,-1z"/>
    <path class="fil1" d="M106 22c1,0 2,0 3,1 1,1 1,2 1,3 -1,1 -3,1 -4,0 -1,-1 -1,-2 -1,-3 0,0 1,-1 1,-1z"/>
    <path class="fil2" d="M106 23c0,0 1,1 2,1 1,1 2,2 2,2 0,0 -1,0 -1,-1 -1,0 -1,-1 -2,-1 -1,-1 -1,-1 -1,-1z"/>
    <path class="fil2" d="M104 24c0,0 -1,0 -1,1 -1,2 0,3 0,4 1,0 2,1 2,1 0,0 2,-1 2,-4 0,-1 -1,-3 -2,-3 0,1 0,1 -1,1z"/>
    <path class="fil4" d="M105 24c0,0 0,1 0,2 0,1 0,3 0,3 0,0 0,-2 0,-3 0,-2 0,-2 0,-2z"/>
    <g>
     <path class="fil2" d="M105 22c-1,-1 -2,-1 -3,-1 -1,1 -2,2 -2,3 1,1 3,2 4,1 1,0 2,-2 1,-3 0,0 0,0 0,0z"/>
     <path class="fil4" d="M105 22c0,0 -2,0 -3,1 -1,0 -2,1 -2,1 0,0 1,0 1,0 1,-1 2,-1 3,-1 1,-1 1,-1 1,-1z"/>
    </g>
   </g>
   <g>
    <path class="fil1" d="M78 19c-1,1 -2,2 -2,3 0,1 1,2 1,4 2,-1 4,-2 4,-4 0,-1 -1,-2 -2,-3 0,0 -1,0 -1,0z"/>
    <path class="fil2" d="M78 20c0,0 0,1 0,3 -1,1 -1,2 -1,2 0,0 1,0 1,-1 0,-1 0,-2 0,-3 1,-1 0,-1 0,-1z"/>
    <path class="fil2" d="M76 17c-1,-1 -3,-1 -4,0 -1,0 -2,2 -2,3 1,1 3,2 5,1 1,-1 1,-2 1,-3 0,0 0,-1 0,-1z"/>
    <path class="fil4" d="M75 18c0,0 -1,0 -2,0 -1,1 -3,2 -3,2 0,0 1,0 2,-1 0,0 1,0 2,-1 1,0 1,0 1,0z"/>
    <path class="fil2" d="M81 16c1,0 2,0 3,0 1,1 2,2 3,3 -2,1 -4,2 -5,1 -1,-1 -2,-2 -2,-3 1,0 1,0 1,-1z"/>
    <path class="fil4" d="M81 17c0,0 2,0 3,1 1,0 2,1 2,1 0,0 -1,0 -1,0 -1,-1 -2,-1 -3,-2 -1,0 -1,0 -1,0z"/>
    <path class="fil4" d="M73 22c0,1 0,2 0,2 1,0 2,0 2,0 2,-1 3,-2 3,-4 0,0 0,-2 -1,-2 -2,0 -4,1 -4,4z"/>
    <path class="fil5" d="M76 19c-1,0 -2,3 -2,4 0,0 0,-1 1,-2 0,-1 1,-1 1,-2z"/>
    <path class="fil4" d="M84 22c0,0 0,2 0,2 -1,0 -2,0 -2,-1 -2,0 -3,-1 -3,-3 0,0 0,-2 1,-2 2,0 4,1 4,4z"/>
    <path class="fil5" d="M81 19c1,0 2,3 2,4 0,0 0,-2 -1,-2 0,-1 -1,-2 -1,-2z"/>
    <path class="fil4" d="M75 13c0,-1 1,-1 2,-1 1,-1 2,0 2,0 1,0 1,2 0,2 0,1 0,1 -1,2 0,0 -2,-1 -3,-2 0,0 0,-1 0,-1z"/>
    <path class="fil2" d="M73 14c-1,0 -2,0 -2,1 0,0 1,1 1,1 1,1 2,2 4,1 0,0 2,0 2,-1 -1,-2 -3,-3 -5,-2z"/>
    <path class="fil4" d="M77 16c-1,-2 -4,-2 -5,-1 0,0 1,0 2,0 1,0 2,0 3,1z"/>
    <path class="fil2" d="M83 12c1,1 2,1 2,1 0,1 -1,2 -1,2 -1,1 -2,2 -4,1 0,0 -2,0 -2,-1 1,-2 3,-3 5,-3z"/>
    <path class="fil4" d="M79 15c1,-2 3,-2 5,-2 -1,1 -2,0 -3,1 0,0 -1,1 -2,1z"/>
    <path class="fil1" d="M76 16c-1,-1 -2,0 -3,1 -1,1 -1,2 -1,3 2,1 4,1 5,-1 0,-1 1,-2 0,-3 0,0 -1,0 -1,0z"/>
    <path class="fil2" d="M76 16c0,0 -1,1 -2,2 -1,1 -1,2 -1,2 0,0 0,0 1,-1 0,0 1,-1 2,-2 0,-1 0,-1 0,-1z"/>
    <path class="fil1" d="M80 16c0,-1 2,-1 3,0 1,1 1,2 1,3 -1,1 -3,1 -5,0 0,-1 -1,-2 0,-3 0,0 0,0 1,0z"/>
    <path class="fil2" d="M80 16c0,0 1,1 2,1 1,1 2,2 2,2 0,0 -1,0 -1,0 -1,-1 -2,-2 -3,-2 0,-1 0,-1 0,-1z"/>
    <path class="fil2" d="M78 17c-1,0 -1,0 -2,1 -1,2 0,3 1,4 1,1 2,1 2,1 0,0 2,-1 2,-3 0,-2 -1,-3 -2,-3 0,0 -1,0 -1,0z"/>
    <path class="fil4" d="M78 17c0,0 0,1 0,2 0,2 1,3 1,3 0,0 0,-1 0,-3 0,-1 -1,-2 -1,-2z"/>
    <g>
     <path class="fil2" d="M79 15c-1,-1 -3,-1 -4,-1 -1,1 -1,2 -2,3 1,1 3,2 5,1 1,0 1,-2 1,-2 0,-1 0,-1 0,-1z"/>
     <path class="fil4" d="M78 15c0,0 -1,1 -2,1 -1,1 -3,1 -3,1 0,0 1,0 2,0 0,0 1,-1 2,-1 1,0 1,-1 1,-1z"/>
    </g>
   </g>
   <g>
    <path class="fil1" d="M99 13c-1,0 -2,1 -2,2 0,2 0,3 1,4 1,0 3,-2 3,-4 0,0 -1,-2 -1,-2 -1,0 -1,0 -1,0z"/>
    <path class="fil2" d="M99 13c0,0 -1,2 -1,3 0,1 0,3 0,3 0,0 0,-1 0,-2 0,0 1,-1 1,-2 0,-1 0,-2 0,-2z"/>
    <path class="fil2" d="M96 11c0,-1 -2,-1 -3,-1 -1,1 -2,2 -2,3 1,1 3,2 5,1 0,0 1,-2 1,-2 0,-1 -1,-1 -1,-1z"/>
    <path class="fil4" d="M96 11c0,0 -2,1 -3,1 0,1 -2,1 -2,1 0,0 1,0 2,0 0,0 1,-1 2,-1 1,0 1,-1 1,-1z"/>
    <path class="fil2" d="M101 10c1,-1 2,-1 3,0 1,0 2,1 3,3 -1,1 -4,1 -5,0 -1,0 -1,-1 -1,-2 0,0 0,-1 0,-1z"/>
    <path class="fil4" d="M102 11c0,0 1,0 2,0 1,1 2,2 2,2 0,0 0,0 -1,-1 -1,0 -2,-1 -2,-1 -1,0 -1,0 -1,0z"/>
    <path class="fil4" d="M94 16c0,0 0,1 0,2 1,0 2,-1 2,-1 1,0 2,-1 2,-3 0,-1 0,-2 0,-2 -2,0 -4,1 -4,4z"/>
    <path class="fil5" d="M97 13c-1,0 -2,2 -2,4 0,-1 0,-2 1,-3 0,0 1,-1 1,-1z"/>
    <path class="fil4" d="M104 15c0,1 0,2 0,3 -1,-1 -1,-1 -2,-1 -1,-1 -2,-2 -2,-3 0,-1 0,-2 0,-3 2,1 4,2 4,4z"/>
    <path class="fil5" d="M101 12c1,1 2,3 3,5 -1,-1 -1,-2 -1,-3 -1,0 -2,-1 -2,-2z"/>
    <path class="fil4" d="M96 7c0,-1 0,-1 2,-1 0,-1 1,0 2,0 0,0 0,1 0,2 -1,1 -1,1 -1,1 -1,0 -2,-1 -3,-1 0,-1 0,-1 0,-1z"/>
    <path class="fil2" d="M93 7c0,0 -1,1 -1,1 0,1 0,1 1,2 1,1 2,2 4,1 0,0 1,-1 1,-1 -1,-2 -2,-4 -5,-3z"/>
    <path class="fil4" d="M97 9c-1,-1 -3,-1 -4,-1 0,0 1,0 2,0 1,0 2,1 2,1z"/>
    <path class="fil2" d="M103 6c1,0 2,0 2,1 0,0 -1,1 -1,1 -1,2 -2,3 -3,2 -1,0 -2,0 -2,-1 0,-2 2,-3 4,-3z"/>
    <path class="fil4" d="M100 8c0,-1 3,-1 4,-1 0,0 -1,0 -2,0 -1,1 -2,1 -2,1z"/>
    <path class="fil1" d="M97 9c-1,0 -2,0 -3,1 -1,1 -1,3 -1,4 2,0 4,0 5,-1 0,-1 0,-3 0,-3 -1,0 -1,-1 -1,-1z"/>
    <path class="fil2" d="M97 10c0,0 -1,1 -2,2 -1,1 -1,2 -1,2 0,0 0,-1 1,-1 0,-1 1,-2 1,-2 1,-1 1,-1 1,-1z"/>
    <path class="fil1" d="M100 9c1,-1 2,0 3,1 1,0 1,2 2,3 -2,1 -4,1 -5,-1 -1,0 -1,-1 -1,-2 1,0 1,-1 1,-1z"/>
    <path class="fil2" d="M100 10c0,0 2,0 2,1 1,1 2,2 2,2 0,0 -1,0 -1,-1 -1,0 -1,-1 -2,-2 -1,0 -1,0 -1,0z"/>
    <path class="fil2" d="M98 10c0,0 -1,0 -1,2 -1,2 0,3 1,3 0,1 1,2 1,2 0,0 2,-2 2,-4 0,-1 -1,-3 -1,-3 -1,0 -1,0 -2,0z"/>
    <path class="fil4" d="M99 11c0,0 0,1 0,2 0,1 0,3 0,3 0,0 0,-2 0,-3 0,-2 0,-2 0,-2z"/>
    <g>
     <path class="fil2" d="M99 8c-1,0 -2,0 -3,0 -1,1 -2,2 -2,3 1,1 3,2 4,1 1,-1 2,-2 2,-3 -1,0 -1,0 -1,-1z"/>
     <path class="fil4" d="M99 9c0,0 -2,0 -3,1 -1,0 -2,1 -2,1 0,0 1,0 2,0 0,-1 1,-1 2,-1 1,-1 1,-1 1,-1z"/>
    </g>
   </g>
   <g>
    <path class="fil1" d="M87 12c-1,0 -1,2 -1,3 -1,1 0,2 0,4 2,-1 4,-2 4,-4 0,-1 -1,-2 -2,-3 0,0 0,0 -1,0z"/>
    <path class="fil2" d="M88 13c0,0 -1,1 -1,2 0,2 0,3 0,3 0,0 0,-1 0,-1 0,-1 0,-2 1,-3 0,-1 0,-1 0,-1z"/>
    <path class="fil2" d="M85 10c-1,-1 -2,-1 -3,0 -1,0 -2,2 -2,3 1,1 3,1 4,0 1,0 2,-1 1,-2 0,0 0,-1 0,-1z"/>
    <path class="fil4" d="M85 11c0,0 -2,0 -3,0 -1,1 -2,2 -2,2 0,0 1,0 1,-1 1,0 2,-1 3,-1 1,0 1,0 1,0z"/>
    <path class="fil2" d="M90 9c1,0 2,0 3,0 1,1 2,2 2,3 -1,1 -3,2 -4,1 -1,-1 -2,-2 -1,-3 0,0 0,-1 0,-1z"/>
    <path class="fil4" d="M90 10c0,0 2,0 3,1 1,0 2,1 2,1 0,0 -1,0 -1,-1 -1,0 -2,0 -3,-1 -1,0 -1,0 -1,0z"/>
    <path class="fil4" d="M83 15c0,1 0,2 0,2 0,0 1,0 2,0 1,-1 2,-2 2,-4 0,0 0,-2 -1,-2 -1,0 -3,1 -3,4z"/>
    <path class="fil5" d="M86 12c-2,0 -3,3 -3,4 1,0 1,-2 1,-2 1,-1 1,-2 2,-2z"/>
    <path class="fil4" d="M93 15c0,0 0,2 0,2 -1,0 -2,0 -2,-1 -2,0 -3,-1 -3,-3 0,-1 0,-2 1,-2 2,0 4,1 4,4z"/>
    <path class="fil5" d="M90 12c1,0 2,2 2,4 0,0 0,-2 -1,-2 0,-1 -1,-2 -1,-2z"/>
    <path class="fil4" d="M84 6c1,-1 1,-1 2,-1 1,-1 2,0 2,0 1,0 1,2 0,2 0,1 0,1 -1,1 0,1 -2,0 -2,-1 -1,0 -1,-1 -1,-1z"/>
    <path class="fil2" d="M82 6c-1,1 -2,1 -2,2 1,0 1,1 1,1 1,1 3,2 4,1 1,0 2,-1 2,-1 -1,-2 -3,-3 -5,-3z"/>
    <path class="fil4" d="M86 9c-1,-2 -3,-2 -5,-1 1,0 2,-1 3,0 0,0 1,0 2,1z"/>
    <path class="fil2" d="M92 5c1,0 2,1 2,1 -1,1 -1,1 -1,2 -1,1 -2,2 -4,1 0,0 -2,0 -2,-1 1,-2 3,-3 5,-3z"/>
    <path class="fil4" d="M88 8c1,-2 3,-2 5,-2 -1,1 -2,0 -3,1 0,0 -1,1 -2,1z"/>
    <path class="fil1" d="M86 9c-1,-1 -3,0 -3,1 -1,1 -1,2 -1,3 1,1 3,0 4,-1 1,-1 1,-2 0,-3 0,0 0,0 0,0z"/>
    <path class="fil2" d="M86 9c0,0 -2,1 -2,2 -1,1 -2,2 -2,2 0,0 1,0 1,-1 1,-1 1,-1 2,-2 1,-1 1,-1 1,-1z"/>
    <path class="fil1" d="M89 8c0,0 2,0 3,1 1,1 1,2 1,3 -1,1 -3,1 -5,0 0,-1 0,-2 0,-3 0,0 1,-1 1,-1z"/>
    <path class="fil2" d="M89 9c0,0 1,1 2,1 1,1 2,2 2,2 0,0 -1,0 -1,-1 -1,0 -2,-1 -2,-1 -1,-1 -1,-1 -1,-1z"/>
    <path class="fil2" d="M87 10c-1,0 -1,0 -2,1 0,2 0,3 1,4 1,0 2,1 2,1 0,0 2,-1 2,-4 0,-1 -1,-3 -2,-2 0,0 0,0 -1,0z"/>
    <path class="fil4" d="M88 10c0,0 -1,1 0,2 0,2 0,3 0,3 0,0 0,-2 0,-3 0,-2 0,-2 0,-2z"/>
    <g>
     <path class="fil2" d="M88 8c-1,-1 -2,-1 -3,-1 -1,1 -2,2 -3,3 2,1 4,2 5,1 1,0 1,-2 1,-2 0,-1 0,-1 0,-1z"/>
     <path class="fil4" d="M88 8c0,0 -2,1 -3,1 -1,1 -2,1 -2,1 0,0 1,0 1,0 1,-1 2,-1 3,-1 0,0 1,-1 1,-1z"/>
    </g>
   </g>
   <g>
    <path class="fil1" d="M91 8c-1,0 -2,1 -2,2 0,1 0,3 1,4 1,-1 3,-2 3,-4 0,-1 -1,-2 -1,-2 -1,0 -1,0 -1,0z"/>
    <path class="fil2" d="M91 8c0,0 -1,2 -1,3 0,1 0,2 0,2 0,0 0,0 0,-1 1,-1 1,-2 1,-3 0,-1 0,-1 0,-1z"/>
    <path class="fil2" d="M88 5c0,0 -2,0 -3,0 -1,1 -1,2 -2,3 1,1 3,2 5,1 0,-1 1,-2 1,-3 0,0 -1,0 -1,-1z"/>
    <path class="fil4" d="M88 6c0,0 -1,0 -2,1 -1,0 -3,1 -3,1 0,0 1,0 2,0 0,-1 1,-1 2,-2 1,0 1,0 1,0z"/>
    <path class="fil2" d="M93 5c1,-1 2,-1 3,-1 1,1 2,2 3,3 -1,1 -3,2 -5,1 -1,0 -1,-2 -1,-3 0,0 0,0 0,0z"/>
    <path class="fil4" d="M94 5c0,0 1,0 2,1 1,0 2,1 2,1 0,0 0,0 -1,0 -1,-1 -1,-1 -2,-1 -1,-1 -1,-1 -1,-1z"/>
    <path class="fil4" d="M86 10c0,1 0,2 0,2 1,0 2,0 2,0 1,-1 2,-2 2,-4 0,0 0,-1 0,-2 -2,0 -4,2 -4,4z"/>
    <path class="fil5" d="M89 7c-1,1 -2,3 -2,4 0,0 0,-1 1,-2 0,-1 1,-1 1,-2z"/>
    <path class="fil4" d="M96 10c0,1 0,2 0,2 -1,0 -1,0 -2,0 -1,-1 -2,-2 -2,-4 0,0 0,-2 0,-2 2,0 4,2 4,4z"/>
    <path class="fil5" d="M93 7c1,0 2,3 3,4 -1,0 -1,-1 -1,-2 -1,-1 -2,-1 -2,-2z"/>
    <path class="fil4" d="M88 1c0,0 1,-1 2,0 1,-1 1,-1 2,-1 0,1 0,2 0,3 -1,0 -1,1 -1,1 -1,0 -2,-1 -3,-2 0,0 0,0 0,-1z"/>
    <path class="fil2" d="M86 2c-1,0 -2,0 -2,1 0,0 1,1 1,1 1,2 2,2 4,2 0,-1 1,-1 1,-2 -1,-2 -2,-3 -4,-2z"/>
    <path class="fil4" d="M89 4c-1,-1 -3,-2 -4,-1 0,0 1,0 2,0 1,0 2,1 2,1z"/>
    <path class="fil2" d="M95 1c1,0 2,0 2,0 0,1 -1,2 -1,2 -1,1 -2,2 -3,2 -1,0 -2,-1 -2,-1 0,-2 2,-4 4,-3z"/>
    <path class="fil4" d="M92 3c1,-1 3,-2 4,-1 0,0 -1,0 -2,0 -1,0 -2,1 -2,1z"/>
    <path class="fil1" d="M89 4c-1,-1 -2,0 -3,1 -1,1 -1,2 -1,4 2,0 4,0 5,-2 0,-1 0,-2 0,-3 0,0 -1,0 -1,0z"/>
    <path class="fil2" d="M89 4c0,0 -1,1 -2,2 -1,1 -1,2 -1,2 0,0 0,0 1,-1 0,0 1,-1 1,-2 1,0 1,-1 1,-1z"/>
    <path class="fil1" d="M92 4c1,-1 2,0 3,0 1,1 1,2 2,4 -2,0 -4,1 -5,-1 -1,-1 -1,-2 -1,-3 1,0 1,0 1,0z"/>
    <path class="fil2" d="M92 4c0,0 2,1 2,2 1,0 2,2 2,2 0,0 0,-1 -1,-1 -1,-1 -1,-1 -2,-2 -1,0 -1,-1 -1,-1z"/>
    <path class="fil2" d="M90 5c0,0 -1,0 -1,2 -1,1 0,2 1,3 0,1 1,1 1,1 0,0 2,-1 2,-3 0,-2 -1,-3 -1,-3 -1,0 -1,0 -2,0z"/>
    <path class="fil4" d="M91 6c0,0 0,0 0,2 0,1 0,3 0,3 0,0 0,-2 0,-4 0,-1 0,-1 0,-1z"/>
    <g>
     <path class="fil2" d="M91 3c0,-1 -2,-1 -3,0 -1,0 -2,1 -2,3 1,1 3,1 5,0 0,0 1,-1 1,-2 0,0 -1,-1 -1,-1z"/>
     <path class="fil4" d="M91 4c0,0 -2,0 -3,0 -1,1 -2,2 -2,2 0,0 1,0 2,-1 0,0 1,-1 2,-1 1,0 1,0 1,0z"/>
    </g>
   </g>
   <g>
    <path class="fil1" d="M104 17c-1,1 -2,2 -2,3 0,1 0,2 1,4 1,-1 3,-2 3,-4 0,-1 -1,-2 -1,-3 0,0 -1,0 -1,0z"/>
    <path class="fil2" d="M104 18c0,0 -1,1 -1,3 0,1 0,2 0,2 0,0 0,0 0,-1 1,-1 1,-2 1,-3 0,-1 0,-1 0,-1z"/>
    <path class="fil2" d="M101 15c0,-1 -2,-1 -3,0 -1,0 -1,2 -2,3 1,1 3,2 5,1 0,-1 1,-2 1,-3 0,0 -1,-1 -1,-1z"/>
    <path class="fil4" d="M101 16c0,0 -1,0 -2,0 -1,1 -3,2 -3,2 0,0 1,0 2,-1 0,0 1,0 2,-1 1,0 1,0 1,0z"/>
    <path class="fil2" d="M106 14c1,0 3,0 3,0 2,1 2,2 3,3 -1,1 -3,2 -5,1 -1,-1 -1,-2 -1,-3 0,0 0,0 0,-1z"/>
    <path class="fil4" d="M107 15c0,0 1,0 2,1 1,0 2,1 2,1 0,0 0,0 -1,0 -1,-1 -1,-1 -2,-2 -1,0 -1,0 -1,0z"/>
    <path class="fil4" d="M99 20c0,1 0,2 0,2 1,0 2,0 2,0 2,-1 3,-2 2,-4 0,0 0,-2 0,-2 -2,0 -4,1 -4,4z"/>
    <path class="fil5" d="M102 17c-1,0 -2,3 -2,4 0,0 0,-1 1,-2 0,-1 1,-1 1,-2z"/>
    <path class="fil4" d="M109 20c0,0 0,2 0,2 -1,0 -1,0 -2,-1 -1,0 -2,-1 -2,-3 0,0 0,-2 0,-2 2,0 4,1 4,4z"/>
    <path class="fil5" d="M106 17c2,0 3,3 3,4 -1,0 -1,-2 -1,-2 -1,-1 -2,-2 -2,-2z"/>
    <path class="fil4" d="M101 11c0,-1 1,-1 2,-1 1,-1 1,0 2,0 0,0 0,2 0,2 -1,1 -1,1 -1,2 -1,0 -2,-1 -3,-2 0,0 0,-1 0,-1z"/>
    <path class="fil2" d="M99 12c-1,0 -2,0 -2,1 0,0 1,1 1,1 1,1 2,2 4,1 0,0 1,0 1,-1 0,-2 -2,-3 -4,-2z"/>
    <path class="fil4" d="M102 14c-1,-2 -3,-2 -4,-1 0,0 1,0 2,0 1,0 2,0 2,1z"/>
    <path class="fil2" d="M108 10c1,1 2,1 2,1 0,1 0,2 -1,2 -1,1 -2,2 -3,1 -1,0 -2,0 -2,-1 0,-2 2,-3 4,-3z"/>
    <path class="fil4" d="M105 13c1,-2 3,-2 4,-2 0,1 -1,0 -2,1 -1,0 -2,1 -2,1z"/>
    <path class="fil1" d="M102 14c-1,-1 -2,0 -3,1 -1,1 -1,2 -1,3 2,1 4,1 5,-1 0,-1 0,-2 0,-3 0,0 -1,0 -1,0z"/>
    <path class="fil2" d="M102 14c0,0 -1,1 -2,2 -1,1 -1,2 -1,2 0,0 0,0 1,-1 0,0 1,-1 1,-2 1,-1 1,-1 1,-1z"/>
    <path class="fil1" d="M105 14c1,-1 2,-1 3,0 1,1 1,2 2,3 -2,1 -4,1 -5,0 -1,-1 -1,-2 0,-3 0,0 0,0 0,0z"/>
    <path class="fil2" d="M105 14c0,0 2,1 2,1 1,1 2,2 2,2 0,0 0,0 -1,0 0,-1 -1,-2 -2,-2 -1,-1 -1,-1 -1,-1z"/>
    <path class="fil2" d="M103 15c0,0 -1,0 -1,1 -1,2 0,3 1,4 0,1 1,1 1,1 0,0 2,-1 2,-3 0,-2 -1,-3 -1,-3 -1,0 -1,0 -2,0z"/>
    <path class="fil4" d="M104 15c0,0 0,1 0,2 0,2 0,3 0,3 0,0 0,-1 0,-3 0,-1 0,-2 0,-2z"/>
    <g>
     <path class="fil2" d="M104 13c0,-1 -2,-1 -3,-1 -1,1 -2,2 -2,3 1,1 3,2 5,1 0,0 1,-2 1,-2 0,-1 -1,-1 -1,-1z"/>
     <path class="fil4" d="M104 13c0,0 -2,1 -3,1 -1,1 -2,1 -2,1 0,0 1,0 2,0 0,0 1,-1 2,-1 1,0 1,-1 1,-1z"/>
    </g>
   </g>
   <g>
    <path class="fil2" d="M94 31c0,0 -1,1 -1,1 0,0 0,1 1,1 1,2 2,2 3,2 1,-1 2,-1 2,-2 -1,-1 -2,-3 -5,-2z"/>
    <path class="fil4" d="M98 33c-1,-1 -3,-1 -4,-1 0,0 1,0 2,0 1,0 1,1 2,1z"/>
    <path class="fil2" d="M104 30c1,0 2,0 2,1 0,0 -1,1 -1,1 -1,2 -2,2 -4,2 0,0 -1,-1 -1,-1 0,-2 2,-4 4,-3z"/>
    <path class="fil4" d="M101 32c0,-1 3,-2 4,-1 0,0 -2,0 -2,0 -1,0 -2,1 -2,1z"/>
    <g>
     <path class="fil2" d="M100 32c-1,-1 -2,-1 -3,0 -1,0 -2,2 -2,3 1,1 3,2 4,0 1,0 2,-1 1,-2 0,0 0,-1 0,-1z"/>
     <path class="fil4" d="M100 33c0,0 -2,0 -3,0 -1,1 -2,2 -2,2 0,0 1,0 1,-1 1,0 2,0 3,-1 1,0 1,0 1,0z"/>
    </g>
   </g>
  </g>
  <polygon class="fil6" points="50,88 22,72 22,49 50,51 "/>
  <polygon class="fil7" points="61,53 72,55 72,76 50,88 50,51 "/>
  <polygon class="fil7" points="72,74 72,76 50,88 50,86 "/>
  <polygon class="fil6" points="50,86 50,88 22,72 22,71 "/>
  <polygon class="fil6" points="50,88 48,87 48,64 50,51 "/>
  <polygon class="fil7" points="52,66 52,87 50,88 50,51 "/>
  <polygon class="fil8" points="51,70 19,52 31,36 63,53 "/>
  <polygon class="fil9" points="51,70 52,69 63,54 75,56 75,56 63,53 "/>
  <polygon class="fil3" points="34,64 34,74 25,69 25,59 "/>
  <polygon class="fil6" points="30,62 30,71 29,71 29,61 "/>
  <path class="fil10" d="M32 74l-7 -4c0,0 0,-1 0,-1l0 1c0,0 0,1 0,1l7 3c0,1 1,1 2,0l0 0c-1,0 -2,0 -2,0z"/>
  <path class="fil11" d="M34 74c-1,0 -2,0 -2,0l-7 -4c-1,0 -1,-1 0,-1l9 5z"/>
  <polygon class="fil3" points="46,71 46,80 37,76 37,66 "/>
  <polygon class="fil12" points="42,69 42,79 41,78 41,68 "/>
  <path class="fil10" d="M44 81l-7 -4c0,0 0,-1 0,-1l0 1c0,0 0,0 0,1l7 3c0,1 1,1 2,0l0 -1c-1,1 -2,1 -2,1z"/>
  <path class="fil11" d="M46 80c-1,1 -2,1 -2,1l-7 -4c0,-1 0,-1 0,-2l9 5z"/>
  <polygon class="fil6" points="59,69 59,83 67,78 67,64 "/>
  <polygon class="fil11" points="66,64 59,69 59,83 66,79 "/>
  <path class="fil13" d="M60 76c0,0 0,0 0,0 -1,0 -1,0 -1,0 0,0 0,0 0,1l0 0c0,0 0,0 0,-1 0,0 1,0 1,0 0,0 0,0 0,0l0 0z"/>
  <path class="fil14" d="M60 76c0,0 0,0 0,0 0,0 0,1 0,1 0,0 -1,0 -1,-1 0,0 1,0 1,0z"/>
  <path class="fil14" d="M61 76l-1 0 0 0 0 0 0 1 1 -1c0,0 0,0 0,0l0 0c0,0 0,0 0,0z"/>
  <path class="fil13" d="M61 76c0,0 0,0 0,0l-1 0 0 0 0 0 0 0 1 0c0,0 0,0 0,0z"/>
  <path class="fil15" d="M41 39c0,0 2,1 4,2 -2,-1 -3,-1 -2,-2 1,0 0,-1 -1,-1 0,0 0,0 -1,-1 1,1 1,2 0,2z"/>
  <path class="fil16" d="M48 42c-1,-1 -1,-1 -2,-1 0,0 -1,0 -1,0 1,0 2,1 2,1 0,0 1,0 1,0z"/>
  <polygon class="fil17" points="44,33 44,39 42,40 42,35 "/>
  <polygon class="fil18" points="45,37 45,43 41,40 41,35 "/>
  <path class="fil6" d="M45 36l2 -1 -3 -2 -2 2 3 1zm-1 -3l5 2 -4 2 -4 -2 3 -2z"/>
  <path class="fil19" d="M59 77l0 0c0,-1 0,-1 0,-1 0,0 0,0 1,0 0,0 0,0 0,0 0,0 0,0 0,0l0 0c0,0 0,0 0,0 0,0 0,0 0,0 0,0 0,0 0,0l0 0c0,0 -1,0 -1,0l0 0c0,0 0,1 0,1 0,0 0,0 0,0 0,0 0,0 0,0z"/>
  <path class="fil20" d="M60 77c0,0 0,0 -1,0 0,0 0,0 0,0 0,0 0,0 0,0 0,0 0,-1 0,-1l0 0c0,0 1,0 1,0l0 0c0,0 0,0 0,0 0,0 0,0 0,0 0,0 0,0 0,0 0,0 0,0 0,0l0 0 0 0 0 0 0 1c0,0 0,0 0,0 0,0 0,0 0,0z"/>
  <path class="fil20" d="M60 77l0 0 0 -1 0 0 0 0 1 0c0,0 0,0 0,0l0 0c0,0 0,0 0,0l-1 1z"/>
  <path class="fil19" d="M60 76l0 0 0 0 0 0 0 0 1 0c0,0 0,0 0,0 0,0 0,0 0,0 0,0 0,0 0,0 0,0 0,0 0,0l-1 0z"/>
  <polygon class="fil21" points="67,51 75,56 63,53 31,36 43,38 49,41 56,45 65,50 "/>
  <polygon class="fil22" points="51,70 52,68 63,53 63,53 73,55 75,56 75,56 73,56 71,56 71,56 71,56 63,54 52,69 52,69 "/>
  <path class="fil23" d="M33 75c-1,0 -1,0 -1,-1l-7 -3c0,0 0,-1 0,-1l0 -1c0,0 0,1 0,1l0 0 6 3c0,1 1,1 1,1 0,0 0,0 0,0 1,0 1,0 2,0 0,0 0,0 0,0l0 0c-1,1 -1,1 -1,1z"/>
  <path class="fil11" d="M34 74c0,0 0,0 0,0l0 0 0 0c0,0 0,0 0,0zm-3 -1l-6 -3 0 0c-1,0 -1,-1 0,-1l0 0 4 2 1 0 1 1c0,0 0,1 0,1 0,0 0,0 0,0z"/>
  <path class="fil3" d="M44 79l-2 -1 0 -9 4 2 0 8c-1,0 -1,0 -2,0zm-3 -2l-2 -1 -2 0 0 -10 3 1c0,0 0,1 0,1 0,0 0,0 0,0 0,0 0,0 0,0 0,0 0,0 1,0 0,0 0,0 0,0l0 0 0 9z"/>
  <polygon class="fil6" points="42,78 41,77 41,77 41,68 41,68 42,69 42,69 42,78 "/>
  <path class="fil23" d="M41 80l-4 -2c0,-1 0,-1 0,-1l0 -1c0,0 0,0 0,1 0,0 0,0 0,0l5 3c0,0 0,0 -1,0z"/>
  <path class="fil11" d="M42 80l-5 -3c0,0 0,0 0,0 0,-1 0,-1 0,-2l0 1 2 0 2 1 1 1 2 1c-1,0 -1,1 -2,1z"/>
  <polygon class="fil3" points="44,36 42,35 44,33 "/>
  <polygon class="fil24" points="45,36 44,36 44,33 47,35 "/>
  <polygon class="fil6" points="45,43 41,40 41,37 41,35 45,37 45,41 "/>
  <path class="fil25" d="M32 74c0,0 0,0 0,0 0,0 -1,0 -1,-1l1 1c0,0 0,0 1,0 0,0 0,0 1,0 -1,0 -1,0 -2,0z"/>
  <polygon class="fil7" points="49,44 45,43 45,41 45,37 49,35 49,41 49,42 49,42 49,42 "/>
 </g>
</svg>
