<?xml version="1.0" encoding="UTF-8"?>
<!DOCTYPE svg PUBLIC "-//W3C//DTD SVG 1.1//EN" "http://www.w3.org/Graphics/SVG/1.1/DTD/svg11.dtd">
<!-- Creator: CorelDRAW X8 -->
<svg xmlns="http://www.w3.org/2000/svg" xml:space="preserve" width="19.1354mm" height="16.698mm" version="1.1" style="shape-rendering:geometricPrecision; text-rendering:geometricPrecision; image-rendering:optimizeQuality; fill-rule:evenodd; clip-rule:evenodd"
viewBox="0 0 363 317"
 xmlns:xlink="http://www.w3.org/1999/xlink">
 <defs>
  <style type="text/css">
   <![CDATA[
    .fil0 {fill:#E0E0E0}
    .fil3 {fill:#FEFEFE;fill-rule:nonzero}
    .fil8 {fill:#FEFEFE;fill-rule:nonzero}
    .fil1 {fill:#CB713A;fill-rule:nonzero}
    .fil2 {fill:#575757;fill-rule:nonzero}
    .fil4 {fill:#3B444D;fill-rule:nonzero}
    .fil6 {fill:#8F190E;fill-rule:nonzero}
    .fil7 {fill:#A82116;fill-rule:nonzero}
    .fil5 {fill:#DB2C1C;fill-rule:nonzero}
   ]]>
  </style>
 </defs>
 <g id="Capa_x0020_1">
  <metadata id="CorelCorpID_0Corel-Layer"/>
  <rect class="fil0" transform="matrix(0.882305 -0.503661 0.882305 0.503661 -0.000241463 213.067)" width="206" height="206"/>
  <polygon class="fil1" points="94,197 94,193 155,157 155,162 "/>
  <polygon class="fil1" points="94,40 94,35 155,0 155,5 "/>
  <g id="_2545261267568">
   <path class="fil2" d="M155 79l0 4 -29 -20c-1,0 -1,1 -2,1 0,1 -1,1 -1,1l-28 53 -1 1 0 -5 27 -51c-1,0 -1,-1 -1,-2 0,0 1,-1 1,-2l-27 -19 0 -5 28 21c1,-1 2,-1 2,-2 1,0 1,0 1,0l28 -53 2 -1 0 5 -27 50c0,1 0,1 0,2 0,1 0,2 0,3l27 19z"/>
   <path class="fil3" d="M127 58c0,2 -1,4 -3,5 -1,1 -3,0 -3,-2 0,-2 2,-4 3,-5 2,-1 3,0 3,2z"/>
   <path class="fil4" d="M125 59c0,1 0,2 -1,2 -1,0 -1,0 -1,-1 0,-1 0,-2 1,-2 1,-1 1,0 1,1z"/>
  </g>
  <path class="fil2" d="M154 157l1 5 -29 -20c-1,0 -1,1 -2,1 0,1 -1,1 -1,1l-28 53 -1 0 0 -4 27 -51c-1,-1 -1,-1 -1,-2 0,0 1,-1 1,-2l-27 -19 0 -5 28 21c1,-1 2,-1 2,-2 1,0 1,0 1,0l28 -53 2 -1 0 4 -27 51c0,1 0,1 0,2 0,1 0,2 0,2l26 19z"/>
  <path class="fil3" d="M127 137c0,2 -1,4 -3,5 -1,1 -3,0 -3,-2 0,-2 2,-5 3,-5 2,-1 3,0 3,2z"/>
  <path class="fil4" d="M125 137c0,1 0,3 -1,3 -1,0 -1,0 -1,-1 0,-1 0,-2 1,-3 1,0 1,1 1,1z"/>
  <polygon class="fil5" points="154,157 94,193 203,256 264,220 "/>
  <polygon class="fil6" points="203,260 203,256 264,220 264,225 "/>
  <polygon class="fil7" points="94,193 94,197 203,260 203,256 "/>
  <polygon class="fil5" points="154,0 94,35 203,98 264,63 "/>
  <polygon class="fil6" points="203,103 203,98 264,63 264,68 "/>
  <polygon class="fil7" points="94,35 94,40 203,103 203,98 "/>
  <g id="_2545261272304">
   <path class="fil2" d="M264 142l0 5 -29 -21c-1,0 -1,1 -2,1 0,1 -1,1 -1,1l-28 53 -1 1 0 -5 27 -51c0,0 -1,-1 -1,-1 0,-1 1,-2 1,-3l-27 -19 0 -5 29 21c0,-1 1,-1 1,-2 1,0 1,0 1,0l28 -53 2 -1 0 5 -27 50c0,1 0,2 0,2 0,1 0,2 0,3l27 19z"/>
   <path class="fil3" d="M236 121c0,2 -1,4 -3,5 -1,1 -2,0 -2,-2 0,-2 1,-4 2,-5 2,-1 3,0 3,2z"/>
   <path class="fil4" d="M235 122c0,1 -1,2 -2,2 0,1 -1,0 -1,-1 0,-1 1,-2 1,-2 1,-1 2,0 2,1z"/>
  </g>
  <g id="_2545261271792">
   <path class="fil2" d="M264 221l0 4 -29 -20c-1,0 -1,1 -2,1 0,1 -1,1 -1,1l-28 53 -1 1 0 -5 27 -51c0,-1 -1,-1 -1,-2 0,0 1,-1 1,-2l-27 -19 0 -5 29 21c0,-1 1,-1 1,-2 1,0 1,0 1,0l28 -53 2 -1 0 4 -27 51c0,1 0,1 0,2 0,1 0,2 0,2l27 20z"/>
   <path class="fil3" d="M236 200c0,2 -1,4 -3,5 -1,1 -2,0 -2,-2 0,-2 1,-4 2,-5 2,-1 3,0 3,2z"/>
   <path class="fil4" d="M235 201c0,0 -1,2 -2,2 0,0 -1,0 -1,-1 0,-1 1,-2 1,-2 1,-1 2,0 2,1z"/>
  </g>
  <path class="fil8" d="M207 61c-1,1 -1,1 -2,2 0,0 -1,1 -1,1 -1,1 -3,2 -4,3 -2,0 -3,1 -5,1 -2,1 -4,2 -6,2 -6,1 -12,0 -17,-2 -2,0 -4,-1 -5,-2 -1,0 -2,0 -3,-1 0,0 -1,-1 -2,-1 -1,-1 -2,-2 -4,-3 -3,-4 -6,-8 -6,-12 0,-2 0,-3 0,-5 0,-1 1,-3 2,-4 0,-1 1,-2 2,-3 0,-1 1,-1 1,-2 1,0 1,-1 2,-1 1,-1 2,-2 4,-3 1,-1 3,-1 5,-2 2,0 4,-1 6,-1 5,-1 11,0 17,1 2,1 3,2 5,2 1,1 2,1 2,2 1,0 2,0 2,1 2,1 3,2 4,3 4,4 6,8 7,12 0,2 0,3 -1,5 0,1 0,2 -1,4 0,1 -1,2 -2,3zm-50 -14c0,2 0,3 1,5 1,2 2,4 4,6 1,1 2,2 3,3 1,0 2,1 2,1 1,1 2,1 3,1 1,1 3,2 5,2 2,1 5,1 8,1 2,0 5,0 7,0 2,-1 4,-1 5,-2 2,-1 3,-2 4,-3 1,0 1,0 2,-1 1,0 1,-1 1,-1l-8 -6c0,-1 1,-2 1,-4 0,-1 -1,-1 -1,-2 -1,-2 -2,-3 -3,-4 -1,-1 -1,-1 -2,-2 -1,0 -1,0 -2,-1 -2,0 -4,-1 -6,-1 -1,0 -3,0 -4,0 -2,1 -3,1 -5,2l-4 -2c1,-1 3,-2 4,-3 2,0 4,-1 6,-1 2,0 4,0 7,1 1,0 3,1 5,1 1,1 1,1 2,1 1,1 2,1 2,2 2,1 3,2 4,3 1,2 1,3 2,5 0,1 0,3 0,4l5 3c0,-1 0,-3 0,-4 0,-2 0,-4 -1,-5 0,-2 -1,-4 -3,-6 -1,-1 -2,-2 -4,-3 0,-1 -1,-1 -2,-2 -1,0 -1,0 -2,-1 -2,0 -3,-1 -5,-1 -3,-1 -6,-2 -8,-2 -3,0 -5,1 -7,1 -2,0 -4,1 -6,2 -1,0 -2,1 -4,2 0,1 -1,1 -1,2 -1,0 -1,1 -2,1l9 5c-1,1 -1,3 -1,4 0,1 0,2 1,3 0,1 1,3 3,4 0,0 1,1 2,1 0,1 1,1 2,1 2,1 4,1 6,2 1,0 2,-1 3,-1l-8 -5c-1,0 -2,-1 -2,-1 -2,-2 -2,-4 -1,-5 0,-1 0,-1 1,-2 0,0 1,-1 2,-1 2,-1 4,-1 7,-1 0,1 1,1 2,1 1,1 1,1 2,2 1,1 2,3 1,5l-6 -4c-1,0 -3,0 -4,1 -1,0 0,2 1,2l15 9c-1,1 -3,2 -4,2 -2,1 -5,1 -7,1 -2,0 -4,0 -6,0 -2,0 -3,-1 -5,-2 -1,0 -2,0 -2,-1 -1,0 -2,-1 -3,-1 -1,-1 -2,-2 -3,-4 -1,-1 -2,-2 -2,-4 0,-1 -1,-3 0,-5l-5 -2c0,1 -1,2 -1,4z"/>
 </g>
</svg>
