<?xml version="1.0" encoding="UTF-8"?>
<!DOCTYPE svg PUBLIC "-//W3C//DTD SVG 1.1//EN" "http://www.w3.org/Graphics/SVG/1.1/DTD/svg11.dtd">
<!-- Creator: CorelDRAW X8 -->
<svg xmlns="http://www.w3.org/2000/svg" xml:space="preserve" width="19.1354mm" height="16.7149mm" version="1.1" style="shape-rendering:geometricPrecision; text-rendering:geometricPrecision; image-rendering:optimizeQuality; fill-rule:evenodd; clip-rule:evenodd"
viewBox="0 0 178 155"
 xmlns:xlink="http://www.w3.org/1999/xlink">
 <defs>
  <style type="text/css">
   <![CDATA[
    .str0 {stroke:#8F190E;stroke-width:0.707693;stroke-linecap:round;stroke-linejoin:round}
    .fil11 {fill:none}
    .fil0 {fill:#E0E0E0}
    .fil5 {fill:#FEFEFE;fill-rule:nonzero}
    .fil8 {fill:#FEFEFE;fill-rule:nonzero}
    .fil7 {fill:#E6E7E8;fill-rule:nonzero}
    .fil15 {fill:#FAC5B5;fill-rule:nonzero}
    .fil18 {fill:#FAC1B2;fill-rule:nonzero}
    .fil14 {fill:#F9BCB8;fill-rule:nonzero}
    .fil13 {fill:#F79F90;fill-rule:nonzero}
    .fil17 {fill:#9DA6B9;fill-rule:nonzero}
    .fil1 {fill:#9FA4A7;fill-rule:nonzero}
    .fil12 {fill:#744E4E;fill-rule:nonzero}
    .fil6 {fill:#5B4543;fill-rule:nonzero}
    .fil3 {fill:#5B4543;fill-rule:nonzero}
    .fil16 {fill:#533E3E;fill-rule:nonzero}
    .fil2 {fill:#85898A;fill-rule:nonzero}
    .fil4 {fill:#423635;fill-rule:nonzero}
    .fil9 {fill:#A82116;fill-rule:nonzero}
    .fil10 {fill:#DB2C1C;fill-rule:nonzero}
   ]]>
  </style>
 </defs>
 <g id="Capa_x0020_1">
  <metadata id="CorelCorpID_0Corel-Layer"/>
  <rect class="fil0" transform="matrix(0.882305 -0.503661 0.882305 0.503661 -0.000118263 104.512)" width="101" height="101"/>
  <g id="_2545297732416">
   <path class="fil1" d="M23 104l2 1 0 -2c-1,-6 -1,-20 0,-22 1,0 3,-1 5,-2 2,-2 5,-4 6,-4 3,1 4,13 5,19l1 1 0 -2c-1,-5 -2,-19 -6,-19 -1,0 -3,1 -7,3 -2,2 -4,3 -5,3 -2,2 -1,17 -1,24l0 0z"/>
   <path class="fil2" d="M25 105l1 -1c0,-6 -1,-21 0,-22 1,-1 3,-1 5,-3 2,-1 5,-3 6,-3 3,0 4,12 5,19l1 -1c0,-6 -2,-20 -6,-20 -1,0 -3,1 -7,4 -2,1 -4,3 -4,3 -3,2 -2,17 -1,24l0 0z"/>
   <path class="fil3" d="M52 80c0,0 4,2 1,5 -3,2 -11,8 -16,7 -5,-2 -13,-7 -13,-8 -1,-1 -1,-2 2,-4 2,-1 11,-6 11,-6 1,-1 2,-1 6,0 3,2 9,6 9,6l0 0z"/>
   <path class="fil2" d="M40 113l1 1 0 -1c0,-6 -1,-21 1,-22 1,-1 2,-1 4,-3 3,-1 6,-3 6,-3 3,0 4,12 5,19l1 0 0 -1c0,-6 -2,-20 -6,-20 -1,0 -2,1 -6,4 -2,1 -5,2 -5,3 -3,2 -1,17 -1,23l0 0z"/>
   <path class="fil1" d="M41 114l1 -1c0,-6 -1,-20 1,-21 1,-1 2,-2 5,-3 2,-2 5,-4 5,-4 3,1 4,13 5,19l2 -1c-1,-5 -3,-19 -7,-19 0,0 -2,1 -6,4 -2,1 -4,2 -5,2 -3,2 -1,18 -1,24l0 0z"/>
   <path class="fil2" d="M27 86c0,-1 0,-6 0,-8l-2 -1c0,0 0,9 1,10 0,1 1,2 3,1l-1 -1c-1,0 -1,-1 -1,-1z"/>
   <polygon class="fil2" points="26,88 28,89 28,88 27,87 "/>
   <path class="fil1" d="M29 87l0 0c-1,0 -1,0 -1,-1 0,0 0,-5 0,-7l-2 -1c0,0 0,9 1,10 0,0 1,2 4,1 -1,-1 -1,-1 -2,-2z"/>
   <path class="fil2" d="M32 88c0,-1 0,-5 0,-8l-2 -1c0,0 0,9 1,11 0,0 1,1 3,1l0 -2c-1,0 -1,0 -2,-1z"/>
   <polygon class="fil2" points="32,90 33,91 33,91 32,90 "/>
   <path class="fil1" d="M34 90l0 0c0,0 0,-1 0,-1 -1,-1 -1,-6 -1,-8l-1 -1c0,0 -1,9 0,10 0,1 1,2 4,1 0,0 -1,-1 -2,-1z"/>
   <path class="fil4" d="M25 63c0,0 -4,-2 -4,1 0,0 0,0 0,1 1,4 0,9 3,12 4,3 12,7 12,7 1,0 3,0 2,-3 0,-2 -1,-9 -1,-9 0,-1 0,-2 -3,-4 -3,-2 -9,-5 -9,-5l0 0z"/>
  </g>
  <g id="_2545297734560">
   <path class="fil1" d="M46 118l1 1 0 -2c0,-6 -1,-20 1,-22 1,0 2,-1 4,-2 3,-2 6,-4 6,-4 3,1 4,13 5,19l1 1 1 -2c-1,-5 -3,-19 -7,-19 0,0 -2,1 -6,3 -2,2 -4,3 -5,3 -3,2 -1,17 -1,24l0 0z"/>
   <path class="fil2" d="M47 119l1 -1c0,-6 0,-21 1,-22 1,-1 2,-1 5,-3 2,-1 5,-3 6,-3 2,0 3,12 4,19l2 -1c-1,-6 -3,-20 -6,-20 -1,0 -3,1 -7,4 -2,1 -4,2 -5,3 -3,2 -1,17 -1,24l0 0z"/>
   <path class="fil3" d="M75 94c0,0 4,2 1,5 -3,2 -11,8 -16,6 -5,-1 -13,-7 -14,-7 0,-1 0,-2 2,-4 2,-1 11,-6 12,-6 0,-1 2,-2 5,0 3,2 10,6 10,6l0 0z"/>
   <path class="fil2" d="M62 127l1 1 1 -1c-1,-6 -1,-21 0,-22 1,-1 3,-1 5,-3 2,-1 5,-3 6,-4 3,1 4,13 4,20l2 0 0 -1c-1,-6 -2,-20 -6,-20 -1,0 -3,1 -7,4 -2,1 -4,2 -5,3 -2,2 -1,17 -1,23l0 0z"/>
   <path class="fil1" d="M63 128l2 -1c-1,-6 -1,-20 0,-21 1,-1 3,-2 5,-3 2,-2 5,-4 6,-4 3,1 4,13 5,19l1 -1c-1,-5 -2,-19 -6,-19 -1,0 -3,1 -7,3 -2,2 -4,3 -5,3 -2,2 -1,17 -1,24l0 0z"/>
   <path class="fil2" d="M50 100c-1,-1 -1,-6 -1,-8l-1 -1c0,0 -1,9 0,10 0,1 1,2 3,1l0 -1c-1,0 -1,-1 -1,-1z"/>
   <polygon class="fil2" points="49,102 50,103 50,102 49,101 "/>
   <path class="fil1" d="M51 101l0 0c0,0 0,0 0,-1 -1,-1 -1,-5 -1,-8l-1 -1c0,0 0,10 0,11 1,0 2,2 5,1 -1,-1 -2,-1 -3,-2z"/>
   <path class="fil2" d="M55 102c-1,-1 -1,-5 -1,-8l-1 -1c0,0 0,9 0,11 1,0 1,1 3,1l0 -2c-1,0 -1,0 -1,-1z"/>
   <polygon class="fil2" points="54,104 55,105 56,105 54,104 "/>
   <path class="fil1" d="M57 104l0 0c-1,0 -1,-1 -1,-1 0,-1 -1,-6 0,-8l-2 -1c0,0 0,9 1,10 0,1 1,2 4,1 -1,0 -2,-1 -2,-1z"/>
   <path class="fil4" d="M47 77c0,0 -4,-2 -4,1 0,0 0,0 0,1 1,4 1,9 4,12 3,3 11,7 12,7 1,0 2,0 2,-4 0,-2 -2,-8 -2,-8 0,-1 0,-2 -3,-4 -2,-2 -9,-5 -9,-5l0 0z"/>
  </g>
  <g id="_2545297738944">
   <path class="fil1" d="M70 131l1 1 0 -2c0,-6 -1,-20 1,-22 1,0 2,-1 4,-2 3,-2 6,-4 6,-4 3,1 4,13 5,19l1 1 1 -2c-1,-5 -3,-20 -7,-20 0,0 -2,2 -6,4 -2,2 -4,3 -5,3 -3,2 -1,17 -1,24l0 0z"/>
   <path class="fil2" d="M71 132l1 -1c0,-6 0,-21 1,-22 1,-1 2,-1 5,-3 2,-1 5,-3 6,-3 2,0 3,12 4,19l2 -1c-1,-6 -3,-20 -6,-20 -1,0 -3,1 -7,4 -2,1 -4,2 -5,3 -3,2 -1,17 -1,24l0 0z"/>
   <path class="fil3" d="M99 107c0,0 4,2 0,5 -3,2 -10,8 -15,6 -5,-1 -13,-7 -14,-7 0,-1 0,-2 2,-4 2,-1 11,-6 12,-6 0,-1 2,-2 5,0 3,2 10,6 10,6l0 0z"/>
   <path class="fil2" d="M86 140l1 1 1 -1c-1,-7 -1,-21 0,-22 1,-1 3,-2 5,-3 2,-1 5,-3 6,-4 3,1 4,13 4,19l2 1 0 -1c-1,-6 -2,-20 -6,-20 -1,0 -3,1 -7,4 -2,1 -4,2 -5,3 -2,1 -1,17 -1,23l0 0z"/>
   <path class="fil1" d="M87 141l2 -1c-1,-6 -1,-20 0,-22 1,0 3,-1 5,-2 2,-2 5,-4 6,-4 3,1 4,13 5,19l1 -1c-1,-5 -2,-19 -6,-19 -1,0 -3,1 -7,3 -2,2 -4,3 -5,3 -2,2 -1,17 -1,24l0 0z"/>
   <path class="fil2" d="M74 113c-1,-1 -1,-6 -1,-8l-1 -1c0,0 -1,9 0,10 0,1 1,2 3,1l0 -1c-1,0 -1,-1 -1,-1z"/>
   <polygon class="fil2" points="73,115 74,116 74,115 73,114 "/>
   <path class="fil1" d="M75 114l0 0c0,0 0,0 0,-1 -1,-1 -1,-5 -1,-8l-1 -1c0,0 0,9 0,11 1,0 2,2 5,1 -1,-1 -2,-1 -3,-2z"/>
   <path class="fil2" d="M79 115c-1,-1 -1,-5 -1,-8l-1 -1c0,0 0,9 0,11 1,0 1,1 3,0l0 -1c-1,0 -1,0 -1,-1z"/>
   <polygon class="fil2" points="78,117 79,118 79,118 78,117 "/>
   <path class="fil1" d="M81 117l0 0c-1,0 -1,-1 -1,-1 0,-1 -1,-6 -1,-8l-1 -1c0,0 0,9 1,10 0,1 1,2 4,1 -1,0 -2,-1 -2,-1z"/>
   <path class="fil4" d="M71 90c0,0 -4,-2 -4,1 0,0 0,0 0,0 1,5 1,10 4,13 3,3 11,6 12,7 1,0 2,0 2,-4 0,-2 -2,-8 -2,-8 0,-1 0,-2 -3,-4 -3,-2 -9,-5 -9,-5l0 0z"/>
  </g>
  <g id="_2545297742752">
   <path class="fil5" d="M112 57c-2,0 -2,2 -2,3 -1,0 1,1 3,3 -1,-1 0,-2 1,-4 0,0 1,-1 1,-1 -1,-1 -2,-1 -3,-1z"/>
   <polygon class="fil6" points="103,53 131,69 131,16 104,0 103,1 "/>
   <polygon class="fil7" points="105,50 129,64 129,19 105,5 "/>
   <path class="fil8" d="M126 24c0,2 0,4 0,7 -1,-1 -3,-2 -4,-2 0,-3 0,-5 0,-7 2,0 3,1 4,2z"/>
   <path class="fil9" d="M118 19c0,3 0,6 0,9 0,3 -1,6 -1,8 -1,0 -3,-1 -5,-2 -1,-1 -3,-2 -5,-3 1,-3 1,-6 1,-8 0,-3 0,-6 1,-9 1,1 3,2 4,3 2,0 4,1 5,2z"/>
   <path class="fil10" d="M121 34c-1,2 -1,4 -1,6 0,2 0,4 0,6 -1,-1 -3,-1 -4,-2 -1,0 -2,-1 -3,-2 0,-2 0,-4 0,-6 0,-2 1,-4 1,-6 1,1 2,1 3,2 1,0 2,1 4,2z"/>
   <polygon class="fil4" points="131,69 133,68 133,16 131,17 "/>
   <polygon class="fil4" points="125,13 131,17 133,16 126,12 126,12 104,0 103,1 125,13 "/>
   <path class="fil8" d="M116 39c-1,4 -1,9 -1,13 -2,-1 -5,-3 -7,-4 0,-4 0,-8 1,-12 2,1 4,2 7,3z"/>
   <path class="fil11 str0" d="M110 47c0,0 1,0 1,-1 1,0 2,0 2,0 1,1 1,3 2,4 1,1 1,2 2,4 1,-1 2,-1 4,-2 1,0 2,-1 3,-2"/>
  </g>
  <g id="_2545297746272">
   <polygon class="fil12" points="151,19 151,27 152,28 152,19 "/>
   <polygon class="fil12" points="145,15 145,24 146,25 146,16 "/>
   <path class="fil13" d="M140 27c-2,3 -2,5 -3,7 -1,2 -3,6 -3,7 0,0 1,3 2,2 1,0 2,-2 2,-2 2,-3 3,-5 3,-5 0,0 5,-8 3,-10 0,0 -2,-1 -4,1z"/>
   <path class="fil14" d="M140 62c0,0 0,6 -1,8 0,4 0,6 1,11 1,2 1,11 1,14 0,4 -2,6 -3,7 -1,1 2,3 4,1 1,-2 2,-2 2,-2 1,-1 1,-2 1,-5 0,-2 1,-8 1,-12 1,-6 -1,-6 -1,-9 1,-6 2,-10 2,-11 1,-1 -7,-2 -7,-2z"/>
   <path class="fil9" d="M146 98l0 -1 0 0c0,0 -1,-1 -1,-1 0,0 0,4 -2,5 -3,2 -4,2 -5,1 0,0 0,1 -2,3 0,0 0,1 2,1 1,0 3,-1 4,-2 1,-1 1,-2 2,-3 0,0 0,0 0,0l0 0c0,1 0,1 0,2 1,0 1,0 1,0 0,-1 0,-1 1,-3 0,-1 0,-2 0,-2l0 0z"/>
   <path class="fil15" d="M155 84c0,-3 -1,-4 -1,-6 0,-1 0,-6 0,-6l-7 3c0,0 1,8 2,11 0,3 2,13 2,16 0,1 -1,4 -1,5 -1,1 0,2 1,3 1,0 4,-6 4,-8 -1,-4 1,-16 0,-18z"/>
   <path class="fil9" d="M155 107c0,0 0,-1 0,-1 0,-1 0,-3 0,-3 0,0 -1,2 -1,4 0,1 1,0 1,0z"/>
   <path class="fil9" d="M155 101c0,0 0,3 -1,4 -1,3 -2,4 -3,4 -2,0 -1,-2 -1,-2 0,0 -1,1 -1,3 0,1 0,2 1,2 2,0 3,-1 3,-2 1,-1 1,-5 2,-6 1,-2 0,-3 0,-3z"/>
   <path class="fil10" d="M155 53c0,-1 -4,-2 -6,-2 -3,0 -6,0 -9,-1 0,0 0,0 0,1l0 0c-1,4 -4,18 -3,26 1,1 2,0 4,3 1,3 6,3 7,1 2,-2 9,-1 10,-2 1,-4 1,-12 0,-16 -1,-5 -2,-9 -3,-10z"/>
   <path class="fil5" d="M156 32c0,-1 -4,-3 -4,-3l-5 -3c0,0 -1,0 -1,0 -1,1 -3,3 -4,4 0,1 -3,5 -2,8 1,2 1,6 1,7 0,1 -1,4 -1,6 2,4 11,3 14,2 0,-3 -1,-8 -1,-10 0,0 4,-6 3,-11z"/>
   <path class="fil10" d="M143 26c0,0 -2,-1 -3,1 -2,2 -3,7 -3,7 0,0 1,1 3,2 2,1 3,-8 3,-8l0 -2z"/>
   <path class="fil10" d="M156 32c-1,-2 -5,-4 -5,-4l-1 0 -4 -2c0,0 0,0 -1,-1 0,1 -2,4 -3,5 -1,2 -3,4 -2,7 0,3 1,5 1,6 0,3 -1,8 -2,10 5,5 11,4 16,0 0,-2 -1,-7 -1,-10 1,-6 2,-11 2,-11z"/>
   <path class="fil9" d="M146 27c0,0 -2,0 -2,0 0,0 0,1 0,2 -1,1 -1,3 -1,3 0,0 0,0 1,0 1,1 2,1 2,1 0,0 0,-2 0,-4 1,-1 0,-2 0,-2z"/>
   <path class="fil9" d="M151 24l-1 1c0,0 2,1 1,2 -1,1 -3,3 -4,4 -1,1 -2,1 -2,1 0,0 0,1 2,2 0,1 1,2 1,2 0,0 5,-7 5,-8 0,-2 -2,-4 -2,-4z"/>
   <path class="fil13" d="M151 22c-2,-1 -5,4 -5,4 0,0 0,2 0,3 -1,1 -1,2 -1,3 1,0 3,0 4,-1 1,-1 2,-2 2,-3 0,-2 -1,-3 0,-6z"/>
   <path class="fil16" d="M140 24c0,1 2,3 2,4 1,2 -2,2 -2,2 0,0 2,2 4,0 2,-1 2,-5 2,-6 2,-1 -3,-9 -3,-9 0,0 -4,2 -3,9z"/>
   <path class="fil15" d="M143 18c-2,4 1,10 3,10 2,-1 5,-2 6,-5 1,-2 0,-6 -2,-7 -1,-1 -5,-2 -7,2z"/>
   <path class="fil16" d="M148 14c0,0 -3,-3 -6,2 -1,2 0,4 0,4 3,0 5,0 5,0 0,0 2,0 3,4 0,2 -1,6 -2,8 -1,1 0,5 3,4 -3,0 0,-4 2,-7 1,-1 1,-3 1,-4 1,-4 0,-7 -1,-9 -2,-2 -5,-2 -5,-2z"/>
   <path class="fil16" d="M154 23l-1 6 2 2c0,0 1,-2 1,-3 -2,-1 -2,-5 -2,-5z"/>
   <path class="fil17" d="M144 55c0,1 0,1 0,1 0,0 0,0 0,-1z"/>
   <path class="fil9" d="M153 58c0,0 1,6 1,12 1,5 0,10 0,10l2 -1c0,0 0,-9 0,-13 -1,-3 -3,-8 -3,-8z"/>
   <path class="fil9" d="M149 62c0,0 -1,6 -1,10 0,4 0,9 0,9l2 -1c0,0 0,-6 0,-10 -1,-3 -1,-8 -1,-8z"/>
   <path class="fil9" d="M140 70c0,4 -1,8 -1,8l1 1c0,0 0,-7 1,-11 0,-3 0,-7 0,-7 0,0 -1,5 -1,9z"/>
   <path class="fil18" d="M151 36c0,0 -4,9 -5,11 -3,1 -9,4 -11,4 -1,0 -2,0 -2,0l1 1c0,0 -1,1 -4,1 -2,0 -1,2 2,3 1,0 4,-1 6,-2 2,0 9,-2 12,-3 2,-2 3,-5 4,-7 2,-4 3,-8 3,-8l-6 0z"/>
   <path class="fil10" d="M154 30c2,0 2,1 3,2 1,1 1,4 0,6 0,2 -2,5 -2,5 0,0 -2,1 -4,0 -2,-1 -3,-2 -3,-2 0,0 2,-4 3,-7 1,-3 3,-4 3,-4z"/>
   <path class="fil13" d="M135 40c0,-1 -7,-3 -8,-3 -1,-1 -3,0 -4,0 -2,0 -1,1 0,1 1,0 2,0 2,0 0,0 0,2 1,2 2,1 3,0 3,0 0,0 3,3 5,4 1,0 2,0 2,-1 1,0 0,0 0,-1 0,-1 -1,-2 -1,-2z"/>
  </g>
 </g>
</svg>
