<?xml version="1.0" encoding="UTF-8"?>
<!DOCTYPE svg PUBLIC "-//W3C//DTD SVG 1.1//EN" "http://www.w3.org/Graphics/SVG/1.1/DTD/svg11.dtd">
<!-- Creator: CorelDRAW X8 -->
<svg xmlns="http://www.w3.org/2000/svg" xml:space="preserve" width="19.1354mm" height="16.7826mm" version="1.1" style="shape-rendering:geometricPrecision; text-rendering:geometricPrecision; image-rendering:optimizeQuality; fill-rule:evenodd; clip-rule:evenodd"
viewBox="0 0 223 195"
 xmlns:xlink="http://www.w3.org/1999/xlink">
 <defs>
  <style type="text/css">
   <![CDATA[
    .fil17 {fill:#786260}
    .fil18 {fill:#5B4543}
    .fil19 {fill:#423635}
    .fil0 {fill:#E0E0E0}
    .fil9 {fill:#786260;fill-rule:nonzero}
    .fil11 {fill:#5B4543;fill-rule:nonzero}
    .fil12 {fill:#423635;fill-rule:nonzero}
    .fil3 {fill:black;fill-rule:nonzero}
    .fil16 {fill:#1D1D1B;fill-rule:nonzero}
    .fil4 {fill:#264566;fill-rule:nonzero}
    .fil6 {fill:#315477;fill-rule:nonzero}
    .fil13 {fill:#3C3C3B;fill-rule:nonzero}
    .fil15 {fill:#575756;fill-rule:nonzero}
    .fil10 {fill:#706F6F;fill-rule:nonzero}
    .fil20 {fill:#79838B;fill-rule:nonzero}
    .fil8 {fill:#878787;fill-rule:nonzero}
    .fil21 {fill:#8B959D;fill-rule:nonzero}
    .fil2 {fill:#A82116;fill-rule:nonzero}
    .fil14 {fill:#B2B2B2;fill-rule:nonzero}
    .fil7 {fill:#C5996C;fill-rule:nonzero}
    .fil1 {fill:#DB2C1C;fill-rule:nonzero}
    .fil22 {fill:#F39200;fill-rule:nonzero}
    .fil23 {fill:#FCEA10;fill-rule:nonzero}
    .fil5 {fill:#FFBB7D;fill-rule:nonzero}
    .fil24 {fill:white;fill-rule:nonzero}
   ]]>
  </style>
 </defs>
 <g id="Capa_x0020_1">
  <metadata id="CorelCorpID_0Corel-Layer"/>
  <rect class="fil0" transform="matrix(0.882305 -0.503661 0.882305 0.503661 -0.00014829 131.836)" width="126" height="126"/>
  <path class="fil1" d="M143 52c-2,0 -4,0 -6,0 -4,1 -9,0 -13,-1l-5 -5 -5 -5c-6,-8 -2,-11 6,-6l7 9 15 3 1 5z"/>
  <path class="fil2" d="M135 52c-4,0 -8,0 -11,-1l-3 -3c0,-1 0,-1 0,-1 0,0 0,-2 0,-3l4 5 12 3c-1,0 -1,0 -2,0z"/>
  <path class="fil3" d="M113 113c0,0 0,3 0,4 0,1 3,2 3,2 0,0 5,4 8,3 2,0 3,0 3,-1 1,-1 0,-1 0,-2 -1,-1 -5,-2 -6,-4 -1,-1 -1,-3 -1,-3l-1 -3 -6 0 1 3 -1 1z"/>
  <path class="fil2" d="M108 71l4 19c-1,7 -1,15 1,23 1,3 5,2 7,0 0,-6 0,-13 0,-20l0 -5c0,0 1,-3 1,-12 0,-5 -3,-16 -3,-16l-10 11z"/>
  <path class="fil3" d="M101 119c-1,1 -1,3 -1,5 1,1 1,2 2,2 0,0 2,4 7,5 3,0 4,-1 4,-1 1,-1 1,-1 1,-1 0,0 0,-1 -1,-2 -1,-1 -4,-3 -5,-4 -1,-1 -1,-2 -1,-2l0 -4 -7 0 1 2z"/>
  <path class="fil1" d="M111 75c0,10 1,15 -2,20 0,0 0,4 -1,6 -1,3 -1,14 0,20 -2,2 -5,3 -7,1 0,0 -1,-1 -1,-2 -2,-10 -3,-18 1,-26 -1,-6 -1,-13 -1,-20 0,-4 0,-8 2,-11 0,0 0,-1 1,-2l17 3c-2,6 -5,10 -9,11z"/>
  <path class="fil2" d="M101 122c0,0 -1,-1 -1,-2 0,0 0,0 0,0 -1,-5 -2,-10 -2,-14 0,-4 1,-8 3,-12l0 0c-1,-4 -1,-7 -1,-11 0,-3 0,-6 0,-9l0 0c0,-1 0,-2 0,-3 0,-2 0,-4 1,-6l0 1c0,0 1,3 6,3 0,0 0,0 0,0 -6,4 -4,16 -3,26 -5,6 -4,15 -3,27z"/>
  <path class="fil1" d="M121 43c0,1 0,4 0,4 0,7 -1,17 -1,17 -6,4 -10,5 -13,5 -5,1 -6,-3 -6,-3l-1 -16 0 0 0 -10c1,-2 3,-3 5,-4 5,-3 9,-5 14,-3 0,0 1,3 2,7 0,1 0,2 0,3z"/>
  <path class="fil2" d="M106 66c-1,-1 -1,-3 -2,-5 1,-6 2,-17 2,-17 2,9 1,14 5,21 0,0 -3,1 -5,1z"/>
  <path class="fil2" d="M107 69c-5,0 -6,-3 -6,-3l-1 -16 0 0 5 -4c-1,6 -1,11 -1,15 0,3 0,5 0,5 0,0 0,0 0,0 0,0 1,0 2,0 0,1 1,2 1,3 0,0 0,0 0,0z"/>
  <path class="fil4" d="M104 66c0,0 0,0 0,0 0,0 0,-2 0,-5 1,2 1,4 2,5 -1,0 -2,0 -2,0z"/>
  <path class="fil5" d="M111 32c0,0 -2,2 -2,2 -3,2 0,9 4,7l4 -2 -6 -7z"/>
  <path class="fil6" d="M121 39c-1,0 -1,0 -1,-1l1 0c0,1 0,1 0,1z"/>
  <path class="fil2" d="M115 45c-2,-1 -3,-2 -3,-4 0,1 0,1 0,1 0,0 1,-1 1,-1l4 -2 -2 -3 5 2c0,1 0,1 1,1 -1,3 -3,6 -6,6z"/>
  <path class="fil7" d="M112 42c0,0 0,0 0,-1 -1,-2 -1,-5 -1,-6l4 1 2 3 -4 2c0,0 -1,1 -1,1z"/>
  <path class="fil5" d="M115 25c-3,0 -5,1 -5,5 0,4 0,6 2,8 1,2 3,3 4,3 3,0 6,-5 6,-9 0,-4 -3,-6 -7,-7z"/>
  <path class="fil3" d="M121 35c0,2 -5,1 -7,-1l0 1 -2 -1 -1 2 -1 -1c-1,-1 -1,-3 -1,-5 0,-1 1,-1 1,-2 0,-1 1,-2 3,-3 0,0 0,0 0,0 1,-1 2,-1 4,0 4,1 7,5 4,10z"/>
  <path class="fil5" d="M112 35c-1,0 -1,0 -1,-1 0,0 0,-1 1,-1 0,0 0,0 1,0 0,0 0,0 0,1 0,0 0,0 0,1 0,0 0,0 0,0 0,1 0,1 -1,1 0,0 0,0 0,0 0,0 0,0 0,-1z"/>
  <path class="fil1" d="M98 46l0 13c4,6 8,10 14,14l3 -4 -10 -12 2 -12c-3,-9 -8,-9 -9,1z"/>
  <path class="fil8" d="M114 33l-1 1c-2,-1 -3,-3 -4,-4 0,-1 1,-1 1,-2 0,2 2,4 4,5z"/>
  <path class="fil8" d="M120 29l-2 1c-1,-4 -2,-5 -5,-5 1,-1 2,-1 4,0 1,1 2,2 3,4z"/>
  <polygon class="fil9" points="116,36 124,31 121,39 113,44 "/>
  <polygon class="fil3" points="117,36 122,34 121,37 116,39 "/>
  <path class="fil10" d="M117 37l-1 2 4 -2 1 -3 -4 3zm-1 3l1 -4 5 -3 -1 4 -5 3z"/>
  <polygon class="fil11" points="113,30 121,26 124,31 116,36 "/>
  <path class="fil12" d="M113 30l3 6 -3 8c-2,-3 -3,-5 -2,-7l2 -7z"/>
  <polygon class="fil12" points="133,8 133,112 146,120 146,15 "/>
  <polygon class="fil9" points="146,15 146,120 159,112 159,103 159,8 "/>
  <polygon class="fil11" points="133,8 146,15 159,8 146,0 "/>
  <path class="fil13" d="M74 135c-1,0 -1,0 -2,-1 0,0 0,-1 1,-2l65 -37c0,-1 1,0 2,0 0,1 0,2 -1,3l-64 37c-1,0 -1,0 -1,0z"/>
  <path class="fil14" d="M70 119c-1,0 -1,0 -1,0 0,0 0,0 0,0 7,-2 18,-15 24,-29 5,-11 13,-17 22,-17 0,0 0,0 0,0 0,0 0,0 0,0 -9,1 -16,6 -21,18 -7,14 -17,26 -24,28l0 0z"/>
  <path class="fil15" d="M127 89c0,0 0,0 0,0l-1 -15c0,0 0,-1 1,-1 0,0 0,1 0,1l1 15c0,0 0,0 -1,0l0 0z"/>
  <path class="fil16" d="M127 78c0,0 0,0 0,-1l-12 -3c-1,0 -1,-1 -1,-2 0,0 1,-1 1,-1l13 4c0,0 1,1 1,2 -1,0 -1,1 -2,1z"/>
  <polygon class="fil13" points="141,71 141,72 "/>
  <path class="fil5" d="M111 72c0,-2 1,-4 3,-3l4 1 2 3 -2 -1c-1,1 -1,2 0,2 0,0 1,1 2,1 -1,1 -2,1 -3,1l-3 0 -3 -4z"/>
  <polygon class="fil12" points="64,41 64,146 77,154 77,49 "/>
  <polygon class="fil9" points="77,49 77,154 90,146 90,41 "/>
  <polygon class="fil11" points="64,41 77,49 90,41 77,34 "/>
  <rect class="fil17" x="104" y="99" width="3.74132" height="61.0179"/>
  <rect class="fil18" x="116" y="91" width="3.74132" height="61.0179"/>
  <rect class="fil19" x="128" y="84" width="3.74132" height="61.0179"/>
  <path class="fil20" d="M116 91l0 0c0,1 0,1 1,1 1,1 2,1 3,0 0,0 1,0 1,-1l0 0c0,0 -1,0 -1,1 -1,0 -3,0 -3,0 -1,-1 -1,-1 -1,-1z"/>
  <path class="fil21" d="M117 90c-1,0 -1,1 0,2 0,0 2,0 3,0 1,-1 1,-2 0,-2 -1,-1 -2,-1 -3,0z"/>
  <path class="fil20" d="M103 98l0 0c0,1 1,1 1,1 1,1 2,1 3,0 1,0 1,0 1,-1l0 0c0,0 0,0 -1,1 -1,0 -2,0 -3,0 0,-1 -1,-1 -1,-1z"/>
  <path class="fil21" d="M104 97c-1,0 -1,1 0,2 1,0 2,0 3,0 1,-1 1,-2 0,-2 -1,-1 -2,-1 -3,0z"/>
  <path class="fil22" d="M125 102c2,-10 2,-10 -8,-3 10,-7 10,-8 -1,-9 11,1 11,1 7,-9 4,10 5,10 9,-1 -4,11 -4,11 5,7 -9,4 -9,5 2,10 -11,-5 -11,-5 -7,5 -4,-10 -5,-10 -7,0z"/>
  <path class="fil23" d="M129 94c-1,0 -1,0 -1,0 -1,0 -1,0 -1,0 0,0 0,0 0,0 -1,-1 -1,-1 -2,-1l0 0c0,0 0,-1 0,-1 0,0 0,-1 0,-1 0,0 1,0 1,-1 0,0 0,-1 0,-1 1,0 1,0 1,0 1,0 1,0 1,0 0,0 1,1 1,1 0,0 0,0 1,1 0,0 -1,0 -1,0 0,1 1,1 1,2 -1,0 -1,0 -1,0 0,1 0,1 0,1z"/>
  <path class="fil24" d="M128 93c0,0 0,0 -1,0 0,0 0,0 0,0l0 0c0,-1 0,-1 -1,-1l0 0c0,0 0,0 0,0 0,0 0,-1 0,-1 0,0 0,0 1,0 0,0 0,-1 0,-1 0,0 0,0 0,0 1,0 1,0 1,0 0,0 0,0 0,1 0,0 0,0 1,0 -1,0 -1,0 -1,0 0,1 0,1 1,1 -1,0 -1,0 -1,0 0,1 0,1 0,1z"/>
  <path class="fil20" d="M127 84l0 1c0,1 1,1 1,1 1,1 2,1 3,0 1,0 1,0 1,-1l0 -1c0,1 0,1 -1,1 -1,1 -2,1 -3,0 0,0 -1,0 -1,-1z"/>
  <path class="fil21" d="M128 83c-1,1 -1,2 0,2 1,1 2,1 3,0 1,0 1,-1 0,-2 -1,0 -2,0 -3,0z"/>
 </g>
</svg>
