<?xml version="1.0" encoding="UTF-8"?>
<!DOCTYPE svg PUBLIC "-//W3C//DTD SVG 1.1//EN" "http://www.w3.org/Graphics/SVG/1.1/DTD/svg11.dtd">
<!-- Creator: CorelDRAW X8 -->
<svg xmlns="http://www.w3.org/2000/svg" xml:space="preserve" width="19.1354mm" height="16.7444mm" version="1.1" style="shape-rendering:geometricPrecision; text-rendering:geometricPrecision; image-rendering:optimizeQuality; fill-rule:evenodd; clip-rule:evenodd"
viewBox="0 0 147 129"
 xmlns:xlink="http://www.w3.org/1999/xlink">
 <defs>
  <style type="text/css">
   <![CDATA[
    .fil16 {fill:none;fill-rule:nonzero}
    .fil0 {fill:#E0E0E0}
    .fil20 {fill:#FEFEFE;fill-rule:nonzero}
    .fil13 {fill:#FCCAA1;fill-rule:nonzero}
    .fil8 {fill:#FBBE93;fill-rule:nonzero}
    .fil18 {fill:#ECEDEE;fill-rule:nonzero}
    .fil6 {fill:#CECDCC;fill-rule:nonzero}
    .fil14 {fill:#B06B3F;fill-rule:nonzero}
    .fil9 {fill:#A75F3E;fill-rule:nonzero}
    .fil17 {fill:#A6A7A7;fill-rule:nonzero}
    .fil19 {fill:#919191;fill-rule:nonzero}
    .fil1 {fill:#5B4543;fill-rule:nonzero}
    .fil7 {fill:#3C3130;fill-rule:nonzero}
    .fil5 {fill:#535353;fill-rule:nonzero}
    .fil12 {fill:#38507B;fill-rule:nonzero}
    .fil3 {fill:#8F190E;fill-rule:nonzero}
    .fil4 {fill:#A82116;fill-rule:nonzero}
    .fil10 {fill:#A82116;fill-rule:nonzero}
    .fil11 {fill:#CC2212;fill-rule:nonzero}
    .fil2 {fill:#DB2C1C;fill-rule:nonzero}
    .fil15 {fill:#DB2C1C;fill-rule:nonzero}
   ]]>
  </style>
   <clipPath id="id0" style="clip-rule:nonzero">
    <path d="M102 24l-21 -12 0 33 0 0 21 12 0 -24 0 -9z"/>
   </clipPath>
 </defs>
 <g id="Capa_x0020_1">
  <metadata id="CorelCorpID_0Corel-Layer"/>
  <rect class="fil0" transform="matrix(0.882305 -0.503661 0.882305 0.503661 -9.81074E-05 86.9274)" width="83.5474" height="83.5474"/>
  <polygon class="fil1" points="75,63 109,82 109,19 75,0 "/>
  <polygon class="fil2" points="38,85 71,104 109,82 75,63 "/>
  <polygon class="fil3" points="109,82 109,84 71,106 71,104 "/>
  <polygon class="fil4" points="38,85 38,87 71,106 71,104 "/>
  <path class="fil5" d="M108 58c-1,-1 -3,-2 -3,-2l4 -2 -1 4z"/>
  <polygon class="fil6" points="80,10 80,45 103,58 103,23 "/>
  <polygon class="fil7" points="102,24 81,12 81,45 81,45 102,57 102,33 "/>
  <g style="clip-path:url(#id0)">
   <g id="_2545296104960">
    <path id="1" class="fil8" d="M83 49c1,-1 2,-8 2,-9 0,0 0,0 0,0 1,1 1,2 2,3 0,0 0,0 0,0 0,0 0,0 0,0 -1,4 -2,6 -2,7 0,1 -2,0 -2,-1z"/>
    <path class="fil9" d="M93 24c0,0 0,-1 1,-1 0,0 0,0 0,0 0,0 0,0 0,0 0,-1 0,-1 0,-1 0,0 0,0 1,0 0,0 0,0 0,0 0,0 0,0 0,0 0,0 1,0 1,0 0,1 1,1 1,2 0,0 0,0 -1,1 0,0 0,0 0,0 0,0 0,0 0,0 1,0 1,1 0,1 0,0 0,0 0,0 0,1 -1,1 -1,1 0,0 0,0 0,0 0,0 0,0 0,-1l-2 -2z"/>
    <path class="fil10" d="M88 32c0,0 1,1 2,5 0,3 0,3 0,3 0,0 0,2 -2,2 -1,0 -3,-1 -3,-2 0,-2 -1,-8 3,-8z"/>
    <path class="fil11" d="M94 39c0,-1 2,-2 1,-3 0,-1 -2,-3 -3,-3 -1,-1 -2,-1 -4,-1 0,0 -1,0 -1,1 -1,0 -2,4 -3,5 0,0 0,1 1,3 1,0 1,1 2,5l0 0 0 0 0 0 0 0 0 0 0 0 0 0 0 0 0 0 0 0 0 0c0,3 -1,5 0,5l0 0 0 0 0 0 0 0 0 0 0 0 0 0 0 0 0 0 0 0 0 0 0 0 0 0 0 0c4,2 8,3 7,1 0,-2 -1,-6 0,-8 0,-3 0,-4 0,-5z"/>
    <path class="fil12" d="M87 46c0,0 0,0 0,0 0,0 0,0 0,0z"/>
    <path class="fil12" d="M87 46c0,0 0,0 0,0 0,0 0,0 0,0z"/>
    <path class="fil12" d="M87 46c0,0 0,0 0,0 0,0 0,0 0,0z"/>
    <path class="fil8" d="M91 35c1,0 1,-1 1,-1 0,-1 0,-2 -1,-2 0,0 -2,1 -2,1 0,0 -3,6 2,2z"/>
    <path class="fil8" d="M89 31c0,0 0,3 1,3 0,1 1,1 2,0 1,0 0,-1 0,-2 0,-1 0,-1 -1,-1 0,-1 -3,2 -2,0z"/>
    <path class="fil13" d="M93 25c0,-1 -2,-1 -3,-1 -2,0 -2,1 -3,3 0,0 0,0 0,1 0,0 0,0 0,0 0,0 0,1 0,1 0,1 0,2 0,3 0,0 0,0 1,0 0,0 1,0 1,0 1,0 2,0 2,0 1,-1 1,-2 1,-2 1,-2 2,-4 1,-5z"/>
    <path class="fil14" d="M88 24c2,-2 4,-1 5,-1 1,1 2,2 2,3l0 0 0 0 0 0 0 0 0 0 0 0 0 0 0 0 0 0 0 0 0 0 0 0 0 0 0 0 0 0 0 0 0 0 0 0 0 0 0 0 0 0 0 0 0 0 0 0 0 0 0 0 0 0 0 0 0 0 0 0 0 0 0 0 0 0 0 0 0 0 0 0 0 0 0 0 0 0 0 0 0 1 0 0 0 0 0 0 0 0 0 0 0 0 0 0 0 0 0 0 0 0 0 0 0 0 0 0 0 0 0 0 0 0 0 0 0 0 0 1 0 0 0 0 0 0 0 0 0 0 0 0 0 0 0 0 0 0 0 0 0 0 0 0 0 0 0 0 0 0 0 0 0 0 0 0 0 0 0 0 0 0 -1 0 0 0 0 0 0 0 0 1 0 0 0 0 0 0 0 0 0 0 0 0 0 0 0 0 0 0 0 0 0 0 0 0 0 0 0 0 0 0 0 0 0 0 0 0 0 0 0 0 0 0 0 0 0 0 0 0 0 0 0 0 -1 0c0,1 0,1 0,1 -1,0 -1,1 -1,1l0 0 0 0 0 0 0 0 0 0 0 0 0 0 0 0 0 0 0 0 0 0 0 0c0,0 0,0 0,0l0 0 0 0 0 0 0 0 0 0 0 0 0 -1 0 0 0 0 0 0 0 0 0 0 0 0 0 0c0,-1 -1,-2 0,-5 0,1 -1,1 -2,1 -2,0 -2,-2 -2,-2 0,0 0,0 0,0z"/>
    <path class="fil13" d="M97 40c1,2 2,6 2,8 0,1 -2,1 -2,1 -2,0 -1,-4 -3,-8 -2,-2 0,-5 1,-5 1,0 2,1 2,4z"/>
    <path class="fil15" d="M97 38c2,3 2,4 2,4 0,0 0,1 -1,1 -2,1 -4,1 -4,0 -1,-1 -1,-4 -1,-6 1,-4 3,-1 4,1z"/>
    <path class="fil13" d="M93 29c0,1 -1,1 -1,1 0,0 -1,0 -1,-1 1,-1 1,-1 2,-1 0,0 0,1 0,1z"/>
   </g>
  </g>
  <polygon class="fil16" points="102,24 81,12 81,45 81,45 102,57 102,33 "/>
  <polygon class="fil6" points="80,11 69,18 69,51 80,44 "/>
  <polygon class="fil17" points="69,51 68,50 68,17 69,18 "/>
  <polygon class="fil18" points="80,11 80,11 68,17 69,18 "/>
  <polygon class="fil17" points="70,49 74,47 74,16 70,18 "/>
  <polygon class="fil17" points="75,46 79,44 79,13 75,15 "/>
  <polygon class="fil6" points="101,24 112,30 112,63 101,57 "/>
  <polygon class="fil19" points="112,63 113,63 113,30 112,30 "/>
  <polygon class="fil18" points="101,24 102,23 113,30 112,30 "/>
  <polygon class="fil17" points="111,62 107,59 107,28 111,31 "/>
  <polygon class="fil17" points="106,59 102,56 102,25 106,28 "/>
  <path class="fil13" d="M98 47c0,0 -7,0 -9,-1 -1,0 -1,1 -1,1 1,1 4,2 7,2 2,1 5,0 3,-2z"/>
  <path class="fil13" d="M89 48c0,0 1,-2 0,-2 0,0 -3,-1 -3,-1 0,0 0,0 0,0 0,0 -1,0 -1,0 0,1 -1,1 -1,1 0,0 0,0 0,0 0,0 -1,0 -1,0 0,0 0,0 0,0 0,1 0,1 0,1 0,0 0,0 0,0 0,0 0,0 0,0 0,0 0,0 0,0 0,0 0,0 0,0 0,0 1,0 1,0 0,0 0,0 1,0 0,0 0,0 0,0 0,0 0,0 0,0 0,1 -1,0 -1,1 1,0 2,0 2,0 1,0 2,0 3,0z"/>
  <path class="fil20" d="M89 39c0,0 0,0 0,0 0,0 0,0 0,0 0,0 0,0 0,1 0,0 0,0 0,0 0,0 0,0 -1,1 0,0 0,0 0,0 0,0 0,0 0,0 0,0 0,0 0,0 0,0 0,0 0,0 -1,0 -1,0 -1,0 0,0 0,0 0,0 0,0 -1,0 -1,-1 0,0 -1,0 -1,0 0,0 0,-1 0,-1 0,0 0,0 0,0 0,0 0,0 0,0 0,0 0,-1 0,-1 0,0 0,0 0,0 0,0 0,0 0,0 1,0 1,-1 1,-1 0,0 0,0 0,0 1,0 1,0 1,0 0,0 0,0 0,0 1,0 1,0 1,0 0,0 0,0 0,0 0,0 0,0 0,0 0,0 0,0 0,1 0,0 1,0 1,0 0,0 0,0 0,0 0,0 0,1 0,1zm-3 1c0,0 0,0 0,0 0,1 1,1 1,1 0,0 0,0 0,0 0,0 0,0 0,0 0,0 0,0 0,0 1,0 1,0 1,0 0,0 0,0 0,0 0,-1 0,-1 0,-1 0,0 0,0 0,0 0,0 0,-1 0,-1 0,0 0,0 0,0 0,0 0,0 0,0 0,0 0,0 0,0 0,0 0,0 0,0 -1,0 -1,-1 -1,-1 0,0 0,0 0,0 0,0 0,0 0,0 0,0 0,0 0,0 0,0 0,0 -1,0 0,0 0,0 0,0 0,1 0,1 0,1 0,0 0,0 0,0 0,0 0,-1 0,-1 0,0 0,0 0,0 0,0 0,0 1,0 0,0 0,0 0,0 0,0 0,0 0,0 0,0 0,0 0,0 0,0 0,0 1,0 0,0 0,0 0,0 0,0 0,0 0,1 0,0 0,-1 0,-1 0,0 0,0 0,0 0,0 0,0 0,0 0,0 0,0 0,-1 0,0 0,0 -1,0 0,0 0,0 0,0 0,0 0,0 0,0 0,0 0,0 0,0 0,0 -1,1 -1,1 0,0 0,0 0,0 0,0 0,0 0,0 0,0 -1,0 -1,1 0,0 0,0 0,0 0,0 0,0 0,0 1,0 1,0 1,0 0,0 0,1 0,1 0,0 0,0 0,0 1,0 1,0 1,0 0,0 0,0 0,0 0,0 0,0 0,0 0,0 0,0 0,0 0,0 0,0 1,0 -1,0 -1,0 -1,0 0,0 0,0 0,0 0,0 -1,0 -1,-1 0,0 0,0 0,0 0,0 0,0 0,0 0,0 1,0 1,0 0,0 0,0 0,0 0,0 0,0 0,0 0,0 0,0 0,0 0,0 0,0 0,0 0,0 0,0 0,0 0,0 0,0 0,0 0,0 0,0 0,0 1,0 1,0 1,0 0,0 0,1 0,1 0,0 0,0 0,0 0,0 0,0 0,1 -1,0 -1,0 -1,0 0,0 0,0 0,0 0,0 0,0 0,0 0,0 0,-1 0,-1 -1,0 -1,0 -1,0 0,0 0,0 0,0 0,0 0,-1 -1,-1 1,1 1,1 1,1z"/>
 </g>
</svg>
