<?xml version="1.0" encoding="UTF-8"?>
<!DOCTYPE svg PUBLIC "-//W3C//DTD SVG 1.1//EN" "http://www.w3.org/Graphics/SVG/1.1/DTD/svg11.dtd">
<!-- Creator: CorelDRAW X8 -->
<svg xmlns="http://www.w3.org/2000/svg" xml:space="preserve" width="19.1354mm" height="16.7767mm" version="1.1" style="shape-rendering:geometricPrecision; text-rendering:geometricPrecision; image-rendering:optimizeQuality; fill-rule:evenodd; clip-rule:evenodd"
viewBox="0 0 302 265"
 xmlns:xlink="http://www.w3.org/1999/xlink">
 <defs>
  <style type="text/css">
   <![CDATA[
    .fil0 {fill:#E0E0E0}
    .fil9 {fill:#FAC5B5;fill-rule:nonzero}
    .fil24 {fill:#E9DBDB;fill-rule:nonzero}
    .fil22 {fill:#B4D342;fill-rule:nonzero}
    .fil3 {fill:#9FA4A7;fill-rule:nonzero}
    .fil26 {fill:#6A5252;fill-rule:nonzero}
    .fil11 {fill:#5B4543;fill-rule:nonzero}
    .fil25 {fill:#4B3B3A;fill-rule:nonzero}
    .fil1 {fill:#85898A;fill-rule:nonzero}
    .fil4 {fill:#423635;fill-rule:nonzero}
    .fil27 {fill:#575757;fill-rule:nonzero}
    .fil21 {fill:#0D252D;fill-rule:nonzero}
    .fil14 {fill:#A82116;fill-rule:nonzero}
    .fil5 {fill:#D2E1F7;fill-rule:nonzero}
    .fil23 {fill:#D9E6F9;fill-rule:nonzero}
    .fil7 {fill:#DB2C1C;fill-rule:nonzero}
    .fil2 {fill:#E0E0E0;fill-rule:nonzero}
    .fil12 {fill:#E5AC7F;fill-rule:nonzero}
    .fil8 {fill:#FEB30F;fill-rule:nonzero}
    .fil10 {fill:#FEB516;fill-rule:nonzero}
    .fil13 {fill:#FF5D0D;fill-rule:nonzero}
    .fil18 {fill:#FF864A;fill-rule:nonzero}
    .fil20 {fill:#FF884D;fill-rule:nonzero}
    .fil15 {fill:#FF9764;fill-rule:nonzero}
    .fil16 {fill:#FFB28D;fill-rule:nonzero}
    .fil17 {fill:#FFB48F;fill-rule:nonzero}
    .fil19 {fill:#FFC4A7;fill-rule:nonzero}
    .fil6 {fill:#FFF1D9;fill-rule:nonzero}
   ]]>
  </style>
 </defs>
 <g id="Capa_x0020_1">
  <metadata id="CorelCorpID_0Corel-Layer"/>
  <rect class="fil0" transform="matrix(0.882305 -0.503661 0.882305 0.503661 -0.000201198 178.78)" width="171" height="171"/>
  <g id="_2581130107296">
   <polygon class="fil1" points="41,111 44,113 90,1 85,0 41,25 "/>
   <polygon class="fil2" points="46,31 46,21 46,109 83,88 87,85 87,8 "/>
   <path class="fil3" d="M85 84l-36 21 0 -75 36 -20 0 74zm-41 29l46 -27 0 -85 -46 26 0 86z"/>
  </g>
  <path class="fil4" d="M198 22c0,0 0,0 -1,-2 -1,-1 -4,-3 -7,-3 -3,1 -6,5 -5,10 0,5 2,11 1,11 -1,0 0,1 2,0 3,-2 -1,-8 5,-12 6,-4 6,-4 6,-4l-1 0z"/>
  <path class="fil5" d="M233 80l6 0c0,0 2,1 1,3 0,3 0,4 -1,5 -2,0 -6,-4 -6,-4l0 -4 0 0z"/>
  <path class="fil6" d="M209 46c-7,-1 4,13 5,18 2,5 1,4 3,9 1,5 7,5 11,8 5,3 11,5 11,5l3 -4c0,0 -8,-1 -11,-5 -3,-4 -9,-5 -9,-5 0,0 -5,-16 -6,-18 -2,-4 -3,-8 -7,-8z"/>
  <path class="fil6" d="M236 84c0,0 1,-3 3,-4 2,-1 5,1 5,1 0,0 2,2 0,5 -1,1 -5,1 -7,0 0,0 -1,-2 -1,-2z"/>
  <path class="fil6" d="M238 80l0 -2 6 3 1 2 1 2c0,0 -1,1 -1,0 -1,-1 -1,-2 -1,-2l-1 -1 -3 -1 -2 -1z"/>
  <path class="fil6" d="M243 83l0 0 4 1 1 3 1 3c0,0 -1,0 -2,-1 0,-1 0,-2 0,-2l-1 -1 -3 -1 0 -2z"/>
  <path class="fil6" d="M242 85l1 0 3 1 1 1 1 3c0,0 -1,0 -2,-1 0,-1 0,-1 0,-1l-1 -1 -3 -1 0 -1z"/>
  <path class="fil6" d="M243 86l0 0 2 0 1 2 0 1c0,0 -1,1 -1,0 0,-1 0,-1 0,-1l-1 -1 -3 0 2 -1z"/>
  <path class="fil7" d="M207 46c0,0 5,-4 9,6 4,10 7,20 7,20 0,0 5,0 10,4 5,3 6,4 6,4 0,0 -3,0 -3,3 0,2 2,5 2,5 0,0 -19,-6 -22,-12 -3,-5 -16,-25 -9,-30z"/>
  <path class="fil4" d="M194 45c0,0 -3,3 -7,5 -5,2 -6,2 -5,11 1,9 8,17 8,23 0,1 -2,6 -4,8 -2,3 -1,14 -1,14 0,0 -3,1 7,-1 11,-3 28,-7 23,-17 -2,-2 -4,-3 -3,-7 0,-4 3,-12 0,-17 -5,-7 0,-19 -4,-21 -3,-2 -6,1 -9,2 -2,1 -5,0 -5,0z"/>
  <path class="fil8" d="M207 65c0,4 3,6 6,6 3,0 5,-2 5,-6 0,-3 -5,-8 -5,-8 0,0 -6,5 -6,8z"/>
  <path class="fil8" d="M194 69c0,6 5,9 8,9 3,0 6,-2 6,-5 0,-3 -3,-6 -6,-6 -3,0 -8,-1 -8,2z"/>
  <path class="fil9" d="M200 97c1,-5 15,-7 15,-7 0,0 2,1 3,15 1,13 -1,30 -4,32 -2,2 -3,13 -3,18 0,5 0,9 2,11 2,3 5,6 6,7 0,0 0,4 -1,5 -1,1 -6,-2 -8,-4 -2,-1 -4,-6 -5,-6 -2,0 0,-4 0,-7 0,-4 -4,-13 -3,-17 1,-4 3,-4 3,-10 0,-6 -1,-27 -1,-27l-4 -10z"/>
  <path class="fil9" d="M197 171c0,0 2,4 5,7 3,2 4,5 3,6 -2,1 -1,1 -4,1 -3,0 -6,-4 -7,-6 -1,-1 -2,-2 -3,-3 -1,-1 -2,-3 -1,-4 0,-1 1,-3 1,-4 0,-1 0,-5 -1,-9 -2,-5 -4,-12 0,-23 3,-7 -8,-29 -5,-33 2,-4 20,-15 20,-3 0,0 -2,34 -4,39 -3,6 -3,9 -3,12 -1,3 -1,20 -1,20z"/>
  <path class="fil4" d="M190 173c0,0 -1,2 -1,3 0,1 1,2 1,2l2 1 0 0c0,0 5,6 7,7 2,0 6,1 8,0 2,-1 -1,-4 -1,-4 -1,0 -8,-1 -8,-1l-8 -8z"/>
  <path class="fil4" d="M203 165c0,0 0,2 0,3 0,1 1,2 1,2l1 1 1 0c0,0 4,5 6,6 2,1 6,3 8,1 2,-1 -1,-4 -1,-4 -1,-1 -7,-1 -7,-1l-9 -8z"/>
  <path class="fil4" d="M203 179c0,0 1,1 -1,2 -5,1 -10,-7 -11,-9 -1,-1 -1,-2 -1,-2 0,0 -1,2 -1,5 1,2 3,2 4,5 2,3 6,7 12,6 4,-1 1,-4 0,-5 0,0 -2,-2 -2,-2z"/>
  <path class="fil4" d="M216 170c0,0 2,2 0,3 -3,0 -9,-5 -10,-7 -1,-1 -1,-3 -1,-3 0,0 -3,2 -2,5 1,2 2,1 4,4 2,3 5,7 12,6 3,0 2,-2 -1,-6 0,-1 -2,-2 -2,-2z"/>
  <path class="fil10" d="M214 84c1,2 -2,4 -6,7 -7,3 -12,4 -16,2 -2,-1 -5,-2 -4,-4 0,0 -3,4 -4,8 -1,4 0,38 1,41 0,0 4,13 16,9 12,-4 14,-7 16,-10 1,-2 3,-43 -1,-48 -2,-3 -2,-5 -2,-5z"/>
  <path class="fil11" d="M208 64c0,0 -8,-7 -12,-11 -4,-4 -4,-6 -4,-6l-10 4c0,0 -1,9 1,15 2,5 8,17 6,19 -3,3 -8,19 -8,28 0,10 4,26 4,26 0,0 3,10 9,9 7,-1 17,-5 17,-5 0,0 0,-44 -2,-50 -1,-6 -1,-29 -1,-29z"/>
  <path class="fil11" d="M207 53c1,3 1,12 1,12 0,0 -3,19 -1,23 2,3 4,56 4,56 0,0 7,-5 9,-7 2,-2 0,-46 -5,-51 -5,-4 0,-13 1,-15 1,-1 6,-5 -1,-13 -4,-4 -3,-14 -7,-15 -4,-1 -6,4 -6,4 0,0 4,5 5,6z"/>
  <path class="fil7" d="M211 52l-3 -1 3 -1 -9 -7 -3 2c0,0 4,1 7,7 2,5 2,13 2,13l3 -13z"/>
  <path class="fil9" d="M207 46c0,0 -3,4 -3,5 0,1 1,2 0,3 0,2 -7,1 -10,-3 -2,-4 -2,-4 -2,-4 0,0 3,-3 3,-6 0,-3 12,5 12,5z"/>
  <path class="fil9" d="M188 31c0,-5 5,-10 11,-10 4,0 8,2 9,6l0 0c0,0 2,3 2,5 0,2 -1,1 0,3 0,2 1,3 0,6 -2,3 -2,5 -2,5 -1,1 0,2 -5,1 -5,-1 -9,-4 -11,-5 0,-1 -1,-2 -2,-4 -1,-2 -2,-4 -2,-7z"/>
  <path class="fil7" d="M209 65l-16 -10 2 -2 -3 2c0,0 -4,-5 -3,-7 1,-3 4,-5 4,-5 0,0 0,2 1,4 5,11 15,18 15,18z"/>
  <path class="fil4" d="M204 24c0,0 3,4 -1,6 -4,2 -3,1 -5,3 -1,2 -1,8 -1,8 0,0 -1,-6 -4,-5 -2,2 1,8 1,8 0,0 -8,-5 -7,-12 1,-7 3,-9 5,-10 3,-2 10,-4 14,0 5,5 3,8 3,8l-5 -6z"/>
  <path class="fil9" d="M194 35c0,0 -1,-2 -2,-1 0,1 -1,2 -1,3 1,2 1,3 2,3 1,0 2,0 2,0 1,-1 0,-2 0,-2l-1 -3z"/>
  <path class="fil9" d="M194 35c0,0 0,-1 -1,-1 -1,1 -2,2 -1,3 0,2 1,3 2,3 1,0 1,1 2,0 0,-1 0,-2 0,-2l-2 -3z"/>
  <path class="fil12" d="M194 36c0,0 -1,1 -1,1 0,0 0,1 0,1 0,1 1,1 1,1 0,0 0,-2 0,-2 0,-1 0,-1 0,-2 -1,0 -1,-1 -1,0 -1,0 -1,1 -1,2 0,1 1,2 1,2 0,1 1,1 1,1 0,0 -1,-1 -1,-2 -1,-1 -1,-2 0,-3 0,0 0,0 0,0 0,1 0,1 0,1 0,0 0,-1 1,0 0,0 0,0 0,0z"/>
  <path class="fil12" d="M194 38l0 -1c0,0 0,0 1,0 0,0 0,0 0,0 0,0 0,0 0,0 0,1 0,0 0,1 -1,0 -1,0 -1,0 0,0 0,0 0,0l0 0z"/>
  <path class="fil1" d="M251 91l-3 26 0 0c0,1 0,2 -1,2l-20 11c-1,1 -2,1 -3,1 -1,0 -3,0 -4,-1l-13 -7c0,0 -1,-1 -1,-1l0 0 0 -1 -3 -26 21 2 27 -6z"/>
  <path class="fil2" d="M251 91l-3 26 0 0c0,1 0,2 -1,2l-20 11c-1,1 -2,1 -3,1l0 -34 27 -6z"/>
  <path class="fil3" d="M220 106l-16 -9c-3,-2 -3,-7 -1,-8l23 -10c2,-1 6,-1 8,0l18 7c2,1 1,6 -2,8l-22 12c-2,1 -6,1 -8,0z"/>
  <path class="fil13" d="M224 102c1,0 3,0 4,-1l22 -12c1,0 1,-1 1,-2 0,-1 0,-1 -1,-2l-16 -9c-1,-1 -3,-1 -4,-1 -2,0 -3,0 -4,1l-22 12c-1,1 -2,2 -2,2 0,1 1,2 2,2l16 9c1,1 2,1 4,1z"/>
  <path class="fil1" d="M204 92c-1,-1 -1,-1 -1,-2 0,0 0,-1 1,-1l22 -12c1,-1 2,-1 4,-1 1,0 2,0 3,1l16 9c1,0 1,1 1,1 0,1 0,1 -1,1l-22 13c-1,0 -2,1 -3,1 -2,0 -3,-1 -4,-1l-16 -9z"/>
  <path class="fil2" d="M227 101l22 -13c1,0 1,0 1,-1 0,0 0,-1 -1,-1l-16 -9c-1,-1 -2,-1 -3,-1 -2,0 -3,0 -4,1l-22 12c-1,0 -1,1 -1,1 0,1 0,1 1,2l16 9c1,0 2,1 4,1 1,0 2,-1 3,-1zm-24 -13l22 -13c2,0 3,-1 5,-1 1,0 3,1 4,1l16 10c2,1 2,3 0,5l-22 12c-1,1 -3,1 -4,1 -2,0 -3,0 -5,-1l-16 -9c-2,-2 -2,-4 0,-5z"/>
  <path class="fil7" d="M239 92l1 2 6 -4 1 -1c0,-3 -6,-8 -6,-8 -1,-2 -2,-4 -3,-3l0 0c-1,1 -1,3 -1,4l1 8c0,1 0,2 1,2z"/>
  <path class="fil7" d="M237 81l1 1c2,1 3,0 3,-2l0 -4 -3 -2 -1 7z"/>
  <path class="fil14" d="M235 82l1 10c2,1 4,-9 4,-11l0 -4 -4 -2 -1 7z"/>
  <polygon class="fil15" points="240,77 242,76 242,75 240,76 "/>
  <polygon class="fil16" points="236,75 240,77 240,76 236,74 "/>
  <path class="fil17" d="M245 80l0 1c0,0 0,-1 0,-1 -1,-2 0,-3 -2,-6 -4,-3 -2,1 -3,1 3,-1 4,6 4,6l1 -1z"/>
  <path class="fil15" d="M244 81l0 0c0,0 0,0 0,0 -1,-3 0,-4 -2,-6 -4,-3 -2,0 -3,0 3,0 3,3 4,5 1,1 1,1 1,1z"/>
  <path class="fil13" d="M238 73l4 2c0,0 1,-1 2,-1 0,0 0,-1 0,-2l-7 -3c1,2 1,3 1,4z"/>
  <path class="fil14" d="M236 95l1 0 6 -3 0 -1c0,-3 -3,-9 -3,-9 -2,-2 -5,-2 -5,-2 -1,1 -1,3 -1,4l0 8c0,1 1,2 2,3z"/>
  <path class="fil14" d="M242 93l0 -3c0,-1 -2,-5 -4,-7 0,0 -1,-1 -1,-1 0,0 -1,0 -1,0l0 0c-1,0 -1,2 -1,3l1 8 0 0 0 0 2 2 4 -2z"/>
  <path class="fil7" d="M239 95l-3 -2 -1 -8c0,-1 1,-2 1,-3l0 0c0,0 1,1 2,1 1,3 3,6 4,7l-1 3 1 0 0 -3 0 0c0,-1 -2,-5 -4,-7l0 0c0,-1 -1,-1 -1,-1 -1,0 -1,-1 -2,0l0 0c0,0 0,2 0,2l0 9 0 0c0,0 1,0 1,1l2 1 1 0z"/>
  <polygon class="fil18" points="235,70 242,74 242,73 235,69 "/>
  <path class="fil19" d="M237 74l2 2c1,0 2,0 3,-1 0,0 0,0 0,-1l-7 -4c1,2 1,3 2,4z"/>
  <polygon class="fil20" points="235,69 242,73 244,72 237,68 "/>
  <path class="fil20" d="M242 74c0,0 1,-1 1,-1 0,0 1,0 1,0l0 0 1 1 0 1 -1 0 -1 0 0 0 0 0 0 0c0,0 -1,-1 -1,-1z"/>
  <path class="fil19" d="M244 75c0,0 0,0 1,0 0,0 0,0 0,-1 0,0 0,0 0,0 -1,0 -1,1 -1,1z"/>
  <path class="fil7" d="M207 93c1,-2 5,-6 5,-6 1,-2 2,-3 3,-2l0 0c1,0 1,2 1,3l-1 8c0,1 0,1 0,2l-8 -5z"/>
  <path class="fil7" d="M216 87l-1 1c-2,1 -4,1 -4,-1l0 -5 4 -2 1 7z"/>
  <path class="fil14" d="M218 88l-1 11c0,0 0,0 0,0l-1 -1c-2,-2 -3,-9 -3,-10l0 -5 4 -2 1 7z"/>
  <polygon class="fil15" points="213,83 211,82 211,81 213,82 "/>
  <polygon class="fil16" points="217,81 213,83 213,82 217,80 "/>
  <path class="fil17" d="M208 87l0 0c0,0 0,0 0,0 1,-3 0,-4 2,-6 4,-4 2,0 3,0 -3,0 -4,6 -4,6l-1 0z"/>
  <path class="fil15" d="M209 87l0 0c0,1 0,0 0,0 1,-2 0,-4 1,-6 5,-3 3,1 4,1 -3,-1 -3,2 -4,4 -1,1 -1,1 -1,1z"/>
  <path class="fil13" d="M214 80l-3 2c0,0 -1,-1 -2,-1 0,-1 0,-2 0,-2l7 -4c-1,2 -1,4 -2,5z"/>
  <path class="fil14" d="M210 95c1,-3 3,-7 3,-7 2,-2 5,-2 5,-2 1,1 1,3 1,4l0 9c0,0 0,0 -1,1l-8 -5z"/>
  <path class="fil14" d="M211 96c1,-2 3,-5 4,-7 0,0 1,0 1,0 0,-1 1,-1 1,-1l0 0c1,1 1,2 1,3l-1 8 -6 -3z"/>
  <path class="fil7" d="M217 99l1 -8c0,-1 -1,-2 -1,-2l0 0c0,0 -1,0 -2,1 -1,2 -3,5 -3,6l-1 0c1,-2 3,-5 4,-7l0 0c0,0 1,0 1,-1 1,0 1,0 2,0l0 0c0,0 0,2 0,3l0 8 0 0c0,0 0,0 0,0l-1 0z"/>
  <polygon class="fil18" points="218,76 211,81 211,80 218,76 "/>
  <path class="fil19" d="M216 81l-2 1c-1,0 -2,0 -3,0 0,-1 0,-1 0,-1l7 -5c-1,2 -1,4 -2,5z"/>
  <polygon class="fil20" points="218,76 211,80 209,79 216,75 "/>
  <path class="fil20" d="M211 81c0,-1 -1,-1 -1,-2 0,0 -1,0 -1,0l0 0 -1 1 0 1 1 1 1 -1 0 0 0 0 0 0c0,0 1,0 1,0z"/>
  <path class="fil19" d="M209 81c0,1 0,1 -1,1 0,-1 0,-1 0,-1 0,-1 0,-1 0,-1 1,1 1,1 1,1z"/>
  <polygon class="fil21" points="229,98 229,98 229,98 "/>
  <path class="fil22" d="M229 88l0 10 0 0c0,0 0,1 1,1l0 0 7 -3 0 -8 -8 0z"/>
  <path class="fil22" d="M229 87c0,-1 2,-2 2,-2l0 1c1,-1 1,-1 2,-1l0 0 2 0c0,0 1,1 1,2l0 0c1,1 0,2 -1,2 -1,1 -3,1 -5,0 -1,0 -1,-1 -1,-2l0 0z"/>
  <path class="fil22" d="M231 86c1,1 2,1 3,0 1,0 1,-1 0,-1 -1,-1 -2,-1 -3,0 -1,0 -1,1 0,1z"/>
  <path class="fil4" d="M231 84l0 1 0 0c0,0 1,0 1,1 0,0 1,0 2,0 0,-1 0,-1 0,-1l0 0 0 -1 -3 0z"/>
  <path class="fil11" d="M232 84c0,0 1,0 2,0 0,0 0,-1 0,-1 -1,0 -2,0 -2,0 -1,0 -1,1 0,1z"/>
  <path class="fil4" d="M219 87l0 13 1 1c1,0 2,1 4,1 1,0 2,-1 3,-1l3 -2 0 -12 -11 0z"/>
  <path class="fil11" d="M219 87c1,-3 3,-3 3,-3l1 0c0,0 1,0 2,0l0 0 2 0c0,0 3,1 3,3l0 0c0,1 0,2 -1,3 -3,1 -6,1 -8,0 -1,-1 -2,-2 -2,-3l0 0z"/>
  <path class="fil11" d="M223 85c1,1 3,1 4,0 1,0 1,-1 0,-2 -1,-1 -3,-1 -4,0 -2,1 -2,2 0,2z"/>
  <path class="fil14" d="M223 82l0 2 0 0c0,0 0,0 0,1 1,0 2,0 3,0 1,-1 1,-1 1,-1l0 0 0 -2 -4 0z"/>
  <path class="fil7" d="M223 83c1,0 2,0 3,0 1,-1 1,-2 0,-2 -1,-1 -2,-1 -3,0 0,0 0,1 0,2z"/>
  <path class="fil23" d="M197 98c0,0 1,5 2,4 2,0 3,0 4,-4 1,-1 0,-6 -3,-4 -4,1 -3,4 -3,4z"/>
  <path class="fil9" d="M210 104c0,0 -1,0 -2,1 0,0 -2,0 -2,0l-2 0 -2 -3 2 0 6 2z"/>
  <path class="fil9" d="M211 103c0,0 -1,1 -1,1 -1,1 -2,1 -2,1l-2 -1 -2 -1 1 -2 6 2z"/>
  <path class="fil9" d="M212 102c0,0 0,1 -1,2 0,0 -2,0 -2,0l-2 -1 -2 -1 1 -1 6 1z"/>
  <path class="fil9" d="M188 54c-1,-1 -4,-5 -6,-1 -3,3 -2,10 -1,14 2,5 2,10 4,15 2,5 4,6 7,10 3,4 8,8 8,8l5 -3c0,0 -8,-5 -9,-9 -2,-5 -5,-8 -5,-8 0,0 0,-13 0,-15 0,-4 0,-8 -3,-11z"/>
  <path class="fil9" d="M200 96c0,0 2,-1 4,0 2,1 4,3 4,3 0,0 -3,4 -3,5 0,1 -6,-5 -6,-5 0,-1 1,-3 1,-3z"/>
  <path class="fil9" d="M201 96c0,0 3,-1 5,0 2,0 4,2 5,1 1,0 0,2 0,2 -1,0 -4,-1 -4,0 -1,0 -6,-3 -6,-3z"/>
  <path class="fil9" d="M206 101l1 0 2 2 3 1 2 -1c0,0 -1,-2 -2,-1 -1,0 0,0 0,0l-2 -1 -2 -2 -2 2z"/>
  <path class="fil7" d="M184 50c0,0 -2,0 -4,3 -3,3 1,25 3,32 3,6 16,17 16,17 0,0 -3,-4 -1,-7 3,-2 4,-1 4,-1 0,0 -7,-11 -8,-16 -2,-6 0,-14 -3,-21 -2,-6 -3,-8 -7,-7z"/>
  <path class="fil24" d="M46 55l0 0 0 0c0,0 0,0 0,0l0 0 0 0 5 3 0 0 -5 -3z"/>
  <path class="fil7" d="M67 81c0,-1 1,-4 2,-8 1,-4 4,0 4,0 0,1 0,6 -1,8 0,1 -1,2 -1,3l0 0 -2 1 -2 -3 0 -1z"/>
  <path class="fil14" d="M71 75c0,0 0,5 -1,7 -1,3 -2,4 -4,2 -2,-1 0,-4 1,-9 0,-5 4,0 4,0z"/>
  <path class="fil25" d="M50 56l0 0c0,0 -1,0 -1,0 0,1 0,1 0,1 0,1 0,1 0,1l0 0 6 4 1 -2 -6 -4z"/>
  <path class="fil14" d="M54 58l0 0c0,0 0,0 0,0 -1,1 -2,2 -2,3 0,0 1,1 1,1l0 0 6 3 1 -3 -6 -4z"/>
  <path class="fil26" d="M56 61l3 -2c0,0 1,0 1,0l14 8c1,0 1,2 1,3l0 5c0,0 0,1 0,1l-3 2 -12 -8c-1,-1 -4,-9 -4,-9z"/>
  <path class="fil25" d="M57 70l14 8c1,1 1,0 1,-1l0 -5c0,-1 0,-3 -1,-3l-14 -8c-1,-1 -2,0 -2,1l0 5c0,1 1,3 2,3z"/>
  <path class="fil14" d="M58 63l4 2 0 7 -4 -2c0,-1 -1,-2 -1,-3l0 -3c0,-1 1,-1 1,-1z"/>
  <polygon class="fil14" points="63,66 65,67 65,73 63,72 "/>
  <polygon class="fil27" points="82,84 82,82 74,78 74,79 "/>
  <path class="fil4" d="M100 178c0,0 -7,-3 -11,-4 -4,0 -4,5 0,8 4,4 7,4 11,5 3,2 4,2 6,0 4,-2 1,-8 1,-8l-7 -1z"/>
  <path class="fil4" d="M123 165c0,0 -6,-3 -10,-3 -4,0 -5,3 -1,7 4,3 7,4 10,5 3,2 4,2 7,0 3,-2 0,-8 0,-8l-6 -1z"/>
  <path class="fil11" d="M100 89c0,0 -7,36 -7,48 0,20 0,41 0,41 0,0 4,3 7,3 7,0 8,-3 8,-3 0,0 0,-24 1,-35 0,-8 1,-18 4,-27 0,9 0,12 0,22 1,7 4,26 4,28 3,2 10,4 13,0 0,-3 -2,-25 -2,-37 1,-11 3,-36 -3,-41 -5,-4 -25,1 -25,1z"/>
  <path class="fil14" d="M119 66c0,-5 1,-8 1,-8l-4 -12c0,0 5,-2 8,2 2,1 4,7 7,11 -2,3 -7,7 -12,7z"/>
  <path class="fil9" d="M109 24c2,-2 7,-1 10,4 1,2 -1,9 -1,14 0,4 1,6 1,6 0,0 0,0 -3,2 -4,1 -7,0 -7,0l0 -6c0,0 -4,-1 -5,-1 -1,-2 -2,-6 -1,-11 1,-9 5,-7 6,-8z"/>
  <path class="fil7" d="M99 68c-2,-5 3,-13 4,-15 1,-3 6,-5 6,-5 0,0 5,-2 7,-2 1,0 4,0 4,0 0,0 6,10 7,15 1,4 -2,17 0,30 1,7 -24,5 -27,2 2,-6 3,-17 -1,-25z"/>
  <path class="fil11" d="M127 70c0,1 -1,9 0,14 1,5 1,13 1,13 0,0 -7,5 -15,4 -8,-1 -14,-5 -14,-5 0,0 3,-15 2,-16 0,-2 0,-2 0,-2 0,0 4,1 6,0 2,0 5,-2 6,-7 1,-4 0,-12 0,-15 0,0 11,-3 11,-3 0,0 3,10 3,17z"/>
  <path class="fil27" d="M105 34c0,-2 -1,-5 -1,-6 -1,-2 -1,-4 1,-6 2,-2 9,-3 12,-1 2,1 8,4 6,13 -2,7 -3,7 -5,9 -2,2 -5,2 -5,2 0,0 -2,-1 -2,-4 -1,-1 0,-3 0,-3 0,0 1,-4 0,-5 -2,-2 -3,0 -4,1 -1,3 -2,5 -2,0z"/>
  <path class="fil9" d="M76 78c3,0 6,0 10,-1 5,-2 8,-3 9,-4 1,-2 3,-7 3,-7l9 4c0,0 -2,6 -3,9 -2,2 -3,3 -5,3 -3,2 -13,2 -17,2 -1,0 -1,1 -2,1 -2,0 -4,1 -7,0 -2,-1 -8,-3 -9,-6 -1,-2 -2,-4 1,-4 3,0 6,2 6,2 2,1 -1,-3 0,-2 1,0 2,0 4,2 0,0 1,1 1,1z"/>
  <path class="fil14" d="M107 72c-4,1 -9,0 -11,-3 1,-8 4,-17 8,-19 2,0 6,7 5,12 0,2 -1,6 -2,10z"/>
  <path class="fil4" d="M128 90l0 3c0,0 -5,4 -15,5 -10,0 -14,-4 -14,-4l1 -3c0,0 5,3 13,3 8,0 15,-4 15,-4z"/>
  <path class="fil11" d="M116 58c0,0 -1,-5 -3,-7 -2,-2 -4,-3 -4,-3 0,0 -3,1 -3,1 2,1 4,2 5,4 1,2 2,7 2,7l3 -2z"/>
  <path class="fil11" d="M120 46c0,0 2,2 4,7 0,2 1,7 1,7l-2 0c0,0 -2,-8 -3,-10 -1,-3 -2,-4 -2,-4l2 0z"/>
  <path class="fil9" d="M77 79c-1,0 -3,-2 -4,-3 -1,-1 -2,-1 -1,0 0,1 2,3 2,3 0,0 2,0 2,0l1 0z"/>
  <path class="fil7" d="M109 22c-5,1 -7,4 -5,8 3,3 9,6 14,5 5,0 7,-4 5,-7 -3,-4 -9,-6 -14,-6z"/>
  <path class="fil7" d="M124 32c0,0 3,-10 -7,-14 -6,-2 -11,1 -14,8 -1,4 21,6 21,6z"/>
  <path class="fil14" d="M107 32c-1,0 -4,-4 -3,-8 0,0 1,-2 1,-2 0,0 -1,-1 -5,0 -3,1 -4,4 -1,7 4,3 8,3 8,3z"/>
  <polygon class="fil27" points="82,84 82,82 74,78 74,79 "/>
  <path class="fil9" d="M120 75c-2,-6 -3,-14 0,-19l8 0c0,0 2,7 3,11 1,5 0,7 -2,9 -2,3 -9,0 -9,-1l0 0z"/>
  <path class="fil4" d="M100 178c0,0 -7,-3 -11,-4 -4,0 -4,5 0,8 4,4 7,4 11,5 3,2 4,2 6,0 4,-2 1,-8 1,-8l-7 -1z"/>
  <path class="fil4" d="M123 165c0,0 -6,-3 -10,-3 -4,0 -5,3 -1,7 4,3 7,4 10,5 3,2 4,2 7,0 3,-2 0,-8 0,-8l-6 -1z"/>
  <path class="fil11" d="M100 89c0,0 -7,36 -7,48 0,20 0,41 0,41 0,0 4,3 7,3 7,0 8,-3 8,-3 0,0 0,-24 1,-35 0,-8 1,-18 4,-27 0,9 0,12 0,22 1,7 4,26 4,28 3,2 10,4 13,0 0,-3 -2,-25 -2,-37 1,-11 3,-36 -3,-41 -5,-4 -25,1 -25,1z"/>
  <path class="fil14" d="M119 66c0,-5 1,-8 1,-8l-4 -12c0,0 5,-2 8,2 2,1 4,7 7,11 -2,3 -7,7 -12,7z"/>
  <path class="fil9" d="M109 24c2,-2 7,-1 10,4 1,2 -1,9 -1,14 0,4 1,6 1,6 0,0 0,0 -3,2 -4,1 -7,0 -7,0l0 -6c0,0 -4,-1 -5,-1 -1,-2 -2,-6 -1,-11 1,-9 5,-7 6,-8z"/>
  <path class="fil7" d="M99 68c-2,-5 3,-13 4,-15 1,-3 6,-5 6,-5 0,0 5,-2 7,-2 1,0 4,0 4,0 0,0 6,10 7,15 1,4 -2,17 0,30 1,7 -24,5 -27,2 2,-6 3,-17 -1,-25z"/>
  <path class="fil11" d="M127 70c0,1 -1,9 0,14 1,5 1,13 1,13 0,0 -7,5 -15,4 -8,-1 -14,-5 -14,-5 0,0 3,-15 2,-16 0,-2 0,-2 0,-2 0,0 4,1 6,0 2,0 5,-2 6,-7 1,-4 0,-12 0,-15 0,0 11,-3 11,-3 0,0 3,10 3,17z"/>
  <path class="fil27" d="M105 34c0,-2 -1,-5 -1,-6 -1,-2 -1,-4 1,-6 2,-2 9,-3 12,-1 2,1 8,4 6,13 -2,7 -3,7 -5,9 -2,2 -5,2 -5,2 0,0 -2,-1 -2,-4 -1,-1 0,-3 0,-3 0,0 1,-4 0,-5 -2,-2 -3,0 -4,1 -1,3 -2,5 -2,0z"/>
  <path class="fil9" d="M76 78c3,0 6,0 10,-1 5,-2 8,-3 9,-4 1,-2 3,-7 3,-7l9 4c0,0 -2,6 -3,9 -2,2 -3,3 -5,3 -3,2 -13,2 -17,2 -1,0 -1,1 -2,1 -2,0 -4,1 -7,0 -2,-1 -8,-3 -9,-6 -1,-2 -2,-4 1,-4 3,0 6,2 6,2 2,1 -1,-3 0,-2 1,0 2,0 4,2 0,0 1,1 1,1z"/>
  <path class="fil14" d="M107 72c-4,1 -9,0 -11,-3 1,-8 4,-17 8,-19 2,0 6,7 5,12 0,2 -1,6 -2,10z"/>
  <path class="fil4" d="M128 90l0 3c0,0 -5,4 -15,5 -10,0 -14,-4 -14,-4l1 -3c0,0 5,3 13,3 8,0 15,-4 15,-4z"/>
  <path class="fil11" d="M116 58c0,0 -1,-5 -3,-7 -2,-2 -4,-3 -4,-3 0,0 -3,1 -3,1 2,1 4,2 5,4 1,2 2,7 2,7l3 -2z"/>
  <path class="fil11" d="M120 46c0,0 2,2 4,7 0,2 1,7 1,7l-2 0c0,0 -2,-8 -3,-10 -1,-3 -2,-4 -2,-4l2 0z"/>
  <path class="fil9" d="M77 79c-1,0 -3,-2 -4,-3 -1,-1 -2,-1 -1,0 0,1 2,3 2,3 0,0 2,0 2,0l1 0z"/>
  <path class="fil7" d="M109 22c-5,1 -7,4 -5,8 3,3 9,6 14,5 5,0 7,-4 5,-7 -3,-4 -9,-6 -14,-6z"/>
  <path class="fil7" d="M124 32c0,0 3,-10 -7,-14 -6,-2 -11,1 -14,8 -1,4 21,6 21,6z"/>
  <path class="fil14" d="M107 32c-1,0 -4,-4 -3,-8 0,0 1,-2 1,-2 0,0 -1,-1 -5,0 -3,1 -4,4 -1,7 4,3 8,3 8,3z"/>
 </g>
</svg>
