<?xml version="1.0" encoding="UTF-8"?>
<!DOCTYPE svg PUBLIC "-//W3C//DTD SVG 1.1//EN" "http://www.w3.org/Graphics/SVG/1.1/DTD/svg11.dtd">
<!-- Creator: CorelDRAW X8 -->
<svg xmlns="http://www.w3.org/2000/svg" xml:space="preserve" width="19.1354mm" height="16.7183mm" version="1.1" style="shape-rendering:geometricPrecision; text-rendering:geometricPrecision; image-rendering:optimizeQuality; fill-rule:evenodd; clip-rule:evenodd"
viewBox="0 0 1915 1673"
 xmlns:xlink="http://www.w3.org/1999/xlink">
 <defs>
  <style type="text/css">
   <![CDATA[
    .str0 {stroke:#8F190E;stroke-width:7.62566}
    .str1 {stroke:#444347;stroke-width:7.62566;stroke-linecap:round;stroke-linejoin:round}
    .fil56 {fill:none}
    .fil10 {fill:#D2D3D5}
    .fil9 {fill:#96989A}
    .fil14 {fill:#E8E7E8}
    .fil15 {fill:#BFC0C1}
    .fil1 {fill:#9FC347}
    .fil13 {fill:#96989B}
    .fil21 {fill:#A82116}
    .fil20 {fill:#DB2C1C}
    .fil0 {fill:#E0E0E0}
    .fil39 {fill:#FEFEFE;fill-rule:nonzero}
    .fil3 {fill:#BDBFC1;fill-rule:nonzero}
    .fil53 {fill:#E83154;fill-rule:nonzero}
    .fil23 {fill:#EA9A69;fill-rule:nonzero}
    .fil28 {fill:#DF3163;fill-rule:nonzero}
    .fil57 {fill:#E8E7E8;fill-rule:nonzero}
    .fil33 {fill:#D03539;fill-rule:nonzero}
    .fil51 {fill:#D5BCDA;fill-rule:nonzero}
    .fil46 {fill:#CE5D39;fill-rule:nonzero}
    .fil49 {fill:#CF6739;fill-rule:nonzero}
    .fil50 {fill:#CD6539;fill-rule:nonzero}
    .fil44 {fill:#CDCAE5;fill-rule:nonzero}
    .fil25 {fill:#C8B2D6;fill-rule:nonzero}
    .fil32 {fill:#C1AED4;fill-rule:nonzero}
    .fil52 {fill:#C1A9D1;fill-rule:nonzero}
    .fil38 {fill:#C3B0B7;fill-rule:nonzero}
    .fil17 {fill:#BFC0C1;fill-rule:nonzero}
    .fil27 {fill:#AE5F62;fill-rule:nonzero}
    .fil30 {fill:#B7A0CC;fill-rule:nonzero}
    .fil24 {fill:#AE99C8;fill-rule:nonzero}
    .fil43 {fill:#A38EC2;fill-rule:nonzero}
    .fil45 {fill:#7A533A;fill-rule:nonzero}
    .fil18 {fill:#96989B;fill-rule:nonzero}
    .fil59 {fill:#5B4543;fill-rule:nonzero}
    .fil37 {fill:#423635;fill-rule:nonzero}
    .fil48 {fill:#413931;fill-rule:nonzero}
    .fil47 {fill:#2F2E2D;fill-rule:nonzero}
    .fil26 {fill:#685787;fill-rule:nonzero}
    .fil36 {fill:#302F2F;fill-rule:nonzero}
    .fil40 {fill:#3B444D;fill-rule:nonzero}
    .fil34 {fill:#44376D;fill-rule:nonzero}
    .fil31 {fill:#37315D;fill-rule:nonzero}
    .fil7 {fill:#2B2B2D;fill-rule:nonzero}
    .fil41 {fill:#32201E;fill-rule:nonzero}
    .fil6 {fill:#48484D;fill-rule:nonzero}
    .fil19 {fill:#6A6A6C;fill-rule:nonzero}
    .fil8 {fill:#6E9F14;fill-rule:nonzero}
    .fil42 {fill:#725A58;fill-rule:nonzero}
    .fil58 {fill:#726C6A;fill-rule:nonzero}
    .fil22 {fill:#8F190E;fill-rule:nonzero}
    .fil35 {fill:#A82116;fill-rule:nonzero}
    .fil16 {fill:#DADADA;fill-rule:nonzero}
    .fil29 {fill:#DB2C1C;fill-rule:nonzero}
    .fil5 {fill:#E5E5E5;fill-rule:nonzero}
    .fil4 {fill:#ECECEC;fill-rule:nonzero}
    .fil2 {fill:#F3F3F3;fill-rule:nonzero}
    .fil55 {fill:url(#id2)}
    .fil12 {fill:url(#id3)}
    .fil54 {fill:url(#id4)}
    .fil11 {fill:url(#id5)}
   ]]>
  </style>
    <clipPath id="id0">
     <path d="M470 825c-3,0 -4,-1 -4,-4l0 -48c0,-4 3,-9 7,-12l82 -47c2,-1 3,-1 4,-1 2,0 4,1 4,4l0 48c0,4 -3,9 -8,12l-82 47c-1,1 -2,1 -3,1zm6 -14l0 0 77 -44 0 -39 -3 1 0 0 -74 43 0 39 0 0z"/>
    </clipPath>
    <clipPath id="id1">
     <path d="M476 811l0 0 77 -44 0 -39 -3 1 0 0 3 -1 0 39 -77 44 0 0z"/>
    </clipPath>
  <linearGradient id="id2" gradientUnits="userSpaceOnUse" x1="1267.35" y1="386.387" x2="2721.12" y2="2887.93">
   <stop offset="0" style="stop-opacity:1; stop-color:#EBEBEB"/>
   <stop offset="1" style="stop-opacity:1; stop-color:#EEEDED"/>
  </linearGradient>
  <linearGradient id="id3" gradientUnits="userSpaceOnUse" x1="1703.83" y1="100.505" x2="3773.19" y2="3665.85">
   <stop offset="0" style="stop-opacity:1; stop-color:#29282A"/>
   <stop offset="1" style="stop-opacity:1; stop-color:#2F2E2E"/>
  </linearGradient>
  <linearGradient id="id4" gradientUnits="userSpaceOnUse" xlink:href="#id2" x1="935.314" y1="607.491" x2="2389.04" y2="3109.04">
  </linearGradient>
  <linearGradient id="id5" gradientUnits="userSpaceOnUse" x1="1705.42" y1="100.395" x2="3777.24" y2="3666.26">
   <stop offset="0" style="stop-opacity:1; stop-color:#444347"/>
   <stop offset="1" style="stop-opacity:1; stop-color:#4F4D4F"/>
  </linearGradient>
 </defs>
 <g id="Capa_x0020_1">
  <metadata id="CorelCorpID_0Corel-Layer"/>
  <rect class="fil0" transform="matrix(0.882305 -0.503661 0.882305 0.503661 -0.00121137 1126.5)" width="1085" height="1085"/>
  <g id="_1470038237552">
   <path class="fil1" d="M583 850c0,-7 -3,-12 -7,-14l-70 -41c4,2 7,7 7,14l0 140c0,13 -10,30 -22,37l-100 58c-6,3 -11,4 -15,1l70 41c4,2 10,2 16,-1l100 -58c12,-7 21,-24 21,-38l0 -139z"/>
   <path class="fil2" d="M546 659l-70 -41c17,-10 32,-10 43,-4l70 41c-11,-7 -26,-6 -43,4z"/>
   <polygon class="fil3" points="415,1133 345,1092 344,764 414,805 "/>
   <polygon class="fil4" points="475,700 404,660 476,618 546,659 "/>
   <path class="fil5" d="M583 989l0 -139c0,-14 -10,-20 -22,-13l-100 58c-12,7 -22,24 -22,37l1 140c0,14 10,20 22,13l100 -58c12,-7 21,-24 21,-38zm-37 -330c34,-19 61,-4 61,34l1 329 -193 111 -1 -328c0,-39 27,-85 61,-105l71 -41z"/>
   <path class="fil2" d="M414 805l-70 -41c0,-39 27,-85 60,-104l71 40c-34,20 -61,66 -61,105z"/>
   <path class="fil6" d="M383 818c-1,-2 -2,-4 -3,-5l-4 -4c-3,-1 -5,-1 -6,0l-9 5c2,-1 4,-1 7,0l3 3c2,2 3,4 4,6 1,2 1,4 1,7 0,2 -1,4 -2,5l8 -5c2,-1 3,-2 3,-5 0,-2 -1,-5 -2,-7z"/>
   <path class="fil7" d="M368 814c-5,-3 -9,0 -9,5 0,6 4,13 9,16 4,2 8,0 8,-5 0,-6 -4,-13 -8,-16z"/>
   <polygon class="fil8" points="553,728 476,772 476,811 553,767 "/>
   <path class="fil9" d="M415 1133l0 0 -1 -328c0,0 0,-1 0,-1 0,-38 27,-84 61,-104l71 -41c1,0 1,0 1,0 9,-6 19,-8 27,-8 19,0 33,15 33,42l0 156 1 161 0 12 -193 111zm-1 -328l0 0zm61 -105l0 0zm71 -41l0 0zm-94 429c0,0 0,0 0,0 3,0 6,-1 9,-3 0,0 0,0 0,0 0,0 1,0 1,0l100 -58c12,-7 21,-24 21,-38l0 -139c0,0 0,-1 0,-1 0,0 0,0 0,0 0,0 0,0 0,0 0,0 0,0 0,0 0,0 0,0 0,0l0 0c0,0 0,0 0,0 0,0 0,0 0,0 0,0 0,0 0,0 0,0 0,0 0,0 0,0 0,0 0,-1l0 0c0,0 0,0 0,0 0,0 0,0 0,0 0,0 0,0 0,0 0,0 0,0 0,0 0,0 0,0 0,0l0 0c-1,-6 -3,-10 -6,-12l0 0c0,0 0,0 0,0 0,0 0,0 0,0 0,0 0,0 0,0 0,0 0,0 0,0 0,0 0,0 0,0 0,0 0,0 -1,0 -1,-1 -3,-2 -5,-2 -3,0 -6,1 -10,3l-48 28 -52 30c-12,7 -22,24 -22,37l0 14 1 70 0 56c0,9 4,14 9,15 0,0 0,0 0,0l0 0c0,0 0,0 0,0 0,0 0,0 1,0 0,0 0,0 0,0 0,0 0,0 0,0 0,0 0,0 0,0 0,0 0,0 0,0 0,0 0,0 0,0 0,0 0,0 0,0 0,0 0,0 0,0 0,0 0,0 0,0 0,0 0,0 0,0 0,0 0,0 0,0 0,0 0,0 0,0 0,0 0,0 0,0 0,0 0,0 0,0 0,0 0,0 0,0 0,1 0,1 0,1 0,0 0,0 0,0 0,0 0,0 0,0 0,0 0,0 0,0 0,0 0,0 0,0 0,0 0,0 0,0 0,0 0,0 0,0l1 0c0,0 0,0 0,0 0,0 0,0 0,0 0,0 0,0 0,0 0,0 0,0 0,0 0,0 0,0 0,0 0,0 0,0 0,0 0,0 0,0 0,0l0 0c0,0 0,0 0,0 0,0 0,0 0,0 0,0 0,0 0,0 0,0 0,0 0,0 0,0 0,0 0,0 0,0 0,0 0,0 0,0 0,0 0,0l0 0c1,0 1,0 1,0l0 0c0,0 0,0 0,0 0,0 0,0 0,0zm10 -3l0 0zm121 -235l0 0zm-6 -14l0 0zm-128 251l0 0zm0 0l0 0zm110 -374c-1,0 -2,0 -4,1l-82 47c-4,3 -7,8 -7,12l0 48c0,3 1,4 4,4 1,0 2,0 3,-1l82 -47c5,-3 8,-8 8,-12l0 -48c0,-3 -2,-4 -4,-4z"/>
   <path class="fil10" d="M414 805l-70 -41c0,-39 27,-85 60,-104l72 -42c10,-5 19,-8 27,-8 6,0 12,1 16,4l70 41c-4,-3 -10,-4 -15,-4 -9,0 -18,2 -27,8 0,0 0,0 0,0l-72 41c-34,20 -61,66 -61,104 0,0 0,1 0,1l0 0z"/>
   <path class="fil11" d="M374 835c0,0 0,0 1,0 0,0 0,0 0,0 0,0 0,0 0,0 0,0 0,0 0,0 0,0 0,0 0,0 0,0 0,0 0,0 0,-1 0,-1 0,-1 1,-1 1,-2 1,-4 0,0 0,0 0,0 0,-1 0,-1 0,-1 0,0 0,0 0,0 0,0 0,0 0,0 0,0 0,0 0,0 0,0 0,0 0,0 0,-4 -2,-8 -5,-12l0 0 0 0c-1,-1 -2,-2 -3,-3 -2,-1 -3,-1 -4,-1 -1,0 -2,0 -2,1l-1 0 0 0 0 0 1 0 8 -5c0,-1 1,-1 2,-1 1,0 2,1 4,1l4 4c1,1 2,3 3,5 1,2 2,5 2,7 0,3 -1,4 -3,5l-8 5zm2 -5l0 0zm0 0l0 0zm-8 -16l0 0z"/>
   <path class="fil12" d="M372 836c-2,0 -3,-1 -4,-1 -5,-3 -9,-10 -9,-16 0,-3 1,-4 2,-5 1,-1 2,-1 3,-1 1,0 2,0 4,1 1,1 2,2 3,3 3,4 5,8 5,12 0,0 0,0 0,0 0,0 0,0 0,0 0,0 0,0 0,0 0,0 0,0 0,0 0,0 0,0 0,1 0,0 0,0 0,0 0,2 0,3 -1,4 0,0 0,0 0,1 0,0 0,0 0,0 0,0 0,0 0,0 0,0 0,0 0,0 0,0 0,0 0,0 0,0 0,0 0,0 -1,0 -2,1 -3,1zm-4 -22l0 0zm3 3l0 0zm5 13l0 0zm0 0l0 0z"/>
   <g style="clip-path:url(#id0)">
    <image x="452" y="697" width="122" height="137" xlink:href="8032-1-5e5509da-f216-4a6c-acff-0cf0b77fd1a8_Images\8032-1-5e5509da-f216-4a6c-acff-0cf0b77fd1a8_ImgID1.png"/>
   </g>
   <polygon class="fil1" points="476,811 476,772 550,729 550,766 476,808 "/>
   <g style="clip-path:url(#id1)">
    <image x="460" y="714" width="107" height="114" xlink:href="8032-1-5e5509da-f216-4a6c-acff-0cf0b77fd1a8_Images\8032-1-5e5509da-f216-4a6c-acff-0cf0b77fd1a8_ImgID2.png"/>
   </g>
   <polygon class="fil1" points="476,811 476,808 550,766 550,729 553,728 553,767 "/>
  </g>
  <path class="fil13" d="M950 846l0 0 -4 0c-2,-1 -4,-1 -7,-2l0 0 0 0c-2,0 -3,0 -4,-1l0 0 -1 0c0,0 -1,0 -2,-1l0 0 -1 0c-1,0 -2,-1 -2,-1l0 0 -1 0c0,0 -1,-1 -2,-1l0 0 0 0c-1,-1 -1,-1 -1,-1 -2,-1 -3,-2 -5,-3l0 0 0 0c-5,-4 -8,-9 -8,-14l0 -82c0,6 5,12 13,17 16,9 42,9 58,0 8,-5 12,-11 12,-17l0 82c0,6 -4,11 -10,15l0 0 0 0c-1,1 -2,1 -2,2 -2,1 -3,1 -4,2l-1 0 0 0c-1,1 -1,1 -2,1l0 0 0 0c-1,1 -2,1 -3,1l-1 0 0 0c-1,1 -2,1 -4,1l-1 0 0 1c-2,0 -4,0 -6,1l-3 0 0 0c-3,0 -5,0 -8,0z"/>
  <path class="fil14" d="M982 723c17,9 17,24 1,34 -16,9 -42,9 -58,0 -17,-10 -17,-25 -1,-34 16,-9 42,-9 58,0z"/>
  <path class="fil15" d="M954 755c-8,0 -16,-2 -22,-5 -5,-4 -8,-8 -8,-13 6,-248 12,-281 18,-505l23 13c2,2 4,2 6,2 4,211 9,248 14,490 0,5 -3,10 -10,13 -6,3 -13,5 -21,5z"/>
  <path class="fil16" d="M969 202c-4,-2 -11,-2 -15,0 -4,2 -4,6 0,9 4,2 11,2 15,0 4,-3 4,-6 0,-9z"/>
  <path class="fil17" d="M958 162c-8,-4 -16,-5 -21,-2l-28 16c5,-3 13,-2 21,3l37 21 28 -16 -37 -22z"/>
  <path class="fil17" d="M995 184l-28 16c7,4 13,15 13,23l0 22c0,4 -1,6 -3,8l28 -17c2,-1 3,-4 3,-7l0 -22c0,-9 -6,-19 -13,-23z"/>
  <path class="fil17" d="M980 223c0,0 0,0 0,0l0 0c0,-9 -6,-19 -13,-23l28 -16c7,4 13,14 13,23 0,0 0,0 0,0l0 0 -28 16z"/>
  <path class="fil18" d="M967 200l-37 -21c-16,-10 -30,-2 -30,16l0 4c0,8 6,17 12,21l56 32c7,4 12,1 12,-7l0 -22c0,-8 -6,-19 -13,-23z"/>
  <path class="fil17" d="M984 235c0,8 5,11 12,8 7,-4 12,-14 12,-22 0,-8 -5,-11 -12,-7 -7,4 -12,14 -12,21z"/>
  <path class="fil19" d="M950 226c-1,0 -2,-1 -3,-1 -3,-2 -6,-7 -6,-11 0,-3 1,-5 3,-5 1,0 2,1 3,1 4,2 6,7 6,11 0,3 -1,5 -3,5zm-14 -8l-27 -16 0 -4 27 16 0 4zm0 -9l-27 -15 0 -4 27 15 0 4z"/>
  <path class="fil20" d="M1051 265c-1,0 -2,-1 -3,-1l0 0 -1 0 -1 -1 -11 -10c3,-3 4,-7 4,-10 0,-3 -1,-7 -4,-11l154 6 0 1 0 0 0 0c2,1 -2,11 -4,12l-133 14c0,0 0,0 -1,0z"/>
  <path class="fil13" d="M1014 258l-8 -5 0 0 -15 -9 -3 -1c-2,-1 -3,-4 -3,-8 0,-7 5,-16 11,-20 2,-1 4,-2 6,-2 1,0 2,0 3,1l3 2 15 9 0 0 7 4 0 0c0,0 0,0 0,0l0 0 0 0c0,0 0,0 0,0 0,0 0,-1 0,-1 0,0 0,0 0,0 -1,0 -2,0 -3,0 0,0 0,0 0,0 0,0 0,0 0,0 -1,0 -3,0 -5,1 0,0 0,0 0,1 -7,3 -12,12 -12,20 0,0 0,0 0,0 0,4 2,6 4,8zm16 -29l0 0zm-3 -1l0 0z"/>
  <path class="fil21" d="M1022 260c-4,0 -7,-2 -8,-2l0 0c-2,-2 -4,-4 -4,-8 0,0 0,0 0,0 0,-8 5,-17 12,-20 0,-1 0,-1 0,-1 2,-1 4,-1 5,-1 0,0 0,0 0,0l0 0c0,0 0,0 0,0 1,0 2,0 3,0 0,0 0,0 0,0 0,0 0,1 0,1 0,0 0,0 0,0 0,0 0,0 0,0 0,0 0,0 0,0l0 0c2,1 3,2 5,3 3,4 4,8 4,11 0,3 -1,7 -4,10 -1,2 -3,3 -5,4 -2,2 -5,3 -8,3 0,0 0,0 0,0z"/>
  <path class="fil20" d="M1032 156l-15 -155 -1 -1 0 0 0 0c-1,0 -3,0 -4,1 -3,2 -6,4 -6,6l1 217 1 0 6 -4 17 -55c1,-3 1,-6 1,-9z"/>
  <path class="fil20" d="M999 246l-43 34c-2,2 -4,4 -6,6l-111 168c-1,2 1,6 3,7l0 0 0 0c1,0 2,1 3,0l1 0 157 -211 -4 -4 0 0z"/>
  <g id="_1470038248208">
   <path class="fil22" d="M456 1088c0,0 0,-4 5,-9 4,-6 23,-21 47,-35 25,-14 93,-53 109,-52 -1,6 -161,96 -161,96z"/>
   <path class="fil23" d="M662 1008c-5,2 -10,4 -11,4 1,0 7,-2 14,-3 1,0 2,-1 3,-1l0 0c6,-1 16,-2 21,-2 1,0 2,0 3,0l0 0c1,-1 1,-1 2,-1 4,1 8,-1 12,-2l1 -1 0 0c2,-1 4,-2 4,-2l-1 0c-2,0 -4,1 -7,1l0 0c-13,2 -35,6 -37,6l0 0c-1,0 -3,1 -4,1z"/>
   <path class="fil24" d="M1059 1259c0,3 0,3 0,4 1,3 6,13 6,20 0,-2 1,-4 0,-7 -1,-4 -4,-12 -6,-17z"/>
   <path class="fil25" d="M1053 1277c-1,2 4,20 4,20 0,1 5,-5 6,-8 1,-3 -5,-18 -6,-18 0,1 -3,5 -4,6z"/>
   <path class="fil26" d="M608 994l0 0c1,0 1,-1 1,-1 0,1 0,1 -1,1z"/>
   <path class="fil27" d="M608 994l0 0c1,0 1,0 1,-1 0,0 1,0 2,0 -1,0 -2,1 -3,1z"/>
   <path class="fil28" d="M622 994c-8,0 -21,3 -27,6 1,-2 14,-7 17,-8 3,0 5,0 6,0 1,0 5,2 5,2l-1 0z"/>
   <path class="fil29" d="M905 1150c0,2 0,3 0,4l1 0 0 1 1 0c1,1 2,2 5,3 0,0 1,0 2,0l0 0 0 0 0 0c1,-1 2,-1 3,-1l1 -1 0 0 0 0 0 0c4,-2 9,-7 11,-11 0,-1 1,-1 1,-2 0,-1 0,-1 0,-2l0 -1c0,0 0,-1 0,-2l0 -1 0 -1c0,-1 0,-2 0,-2l0 0c-1,-2 -2,-4 -3,-4 0,-1 -1,-1 -3,-1 -2,0 -6,2 -13,7 -2,1 -5,5 -6,7l0 1 0 1c0,1 0,1 0,2l0 0c0,1 0,2 0,3z"/>
   <path class="fil29" d="M910 1148l0 1 0 0 0 0c0,2 1,4 1,5l0 0 0 0c1,1 2,2 3,3 1,0 2,0 4,-1l0 0 0 0 0 0c5,-2 9,-7 11,-11 0,-1 1,-1 1,-2 0,-1 0,-1 0,-2l0 0 0 -1c0,0 0,-1 0,-2l0 -1 0 -1 0 0c0,-1 0,-2 0,-2l0 0c-1,-2 -1,-2 -2,-2 0,0 -1,0 -1,0 -2,0 -6,2 -9,4 -3,3 -8,6 -8,12z"/>
   <polygon class="fil22" points="507,1183 529,1168 607,1224 789,1353 819,1335 884,1387 851,1235 522,1076 490,1137 "/>
   <path class="fil29" d="M598 1021l0 9 1 4 -11 0 10 11 1 1 2 2 1 1 8 5 2 1 17 13 2 1 33 23 1 0 0 -13c1,-17 15,-22 32,-12l16 9c16,9 31,31 31,49l1 11 0 0 0 4c0,2 0,4 0,5l0 0 3 -3 0 0 6 3 2 1 1 1 32 24 0 0 14 7 20 12 20 12 2 1 5 3 2 1 7 4 3 2 26 15 59 34 0 0 0 0c0,-2 0,-4 0,-5l0 -8 1 -7c0,0 0,-1 0,-2 0,-1 0,-1 0,-2 0,0 0,-1 1,-1l0 -1c0,-1 1,-2 1,-3l0 -1 1 0c1,-3 3,-4 5,-5l2 -1 1 0 1 -1 1 0 0 0c2,0 5,0 7,0 1,0 2,1 3,1 1,0 2,1 2,1 2,0 3,1 4,2 1,0 2,0 2,1l19 10c1,1 2,2 3,2 1,1 2,1 3,2 2,2 3,3 5,5 1,1 2,2 3,3l0 0c1,1 2,2 2,3 2,1 3,4 5,6 1,1 2,3 3,5 1,1 1,2 2,3l0 0c0,1 1,2 1,3l0 0 0 1 1 1c0,1 0,1 1,2l0 0c0,2 1,3 1,4l0 0c0,1 0,1 1,2l0 0c0,1 0,1 0,2l0 1c0,0 0,1 0,1 0,1 1,2 1,2l0 0 0 1 0 1 0 3 0 1 0 0 0 1 0 1 0 0 0 2 0 7c0,1 0,2 0,3l0 0 1 0c3,1 6,1 9,2l1 0 0 0c1,0 1,0 2,0l0 0c1,0 2,0 2,0l0 0c2,1 4,1 6,1l0 0c4,1 8,1 8,1 0,1 2,0 5,-1 1,0 3,0 3,0l5 -5 0 -3 1 0 0 -1 -4 -1 -2 -7 -2 -13 0 0 0 0 0 0 0 -1 0 0 -2 -3 -4 -12 0 0 -1 -2 -2 -5 -1 -3 -1 -3 0 0 0 0 -5 -4c0,0 -1,-1 -30,-22 -15,-11 -42,-29 -65,-44 -8,-6 -16,-11 -22,-15 -5,-4 -9,-6 -11,-7l0 -1 -1 0 -2 -3 0 0 0 0 0 0 -1 0 0 0c-1,-1 -3,-4 -7,-7l0 0c-1,-2 -3,-4 -5,-6 -15,-15 -40,-47 -53,-60l-1 0 0 0c-3,-3 -6,-6 -10,-9l0 0c-4,-3 -10,-7 -16,-11l-1 0c0,-1 -1,-1 -1,-1l0 0 -1 0 0 -1c-16,-9 -36,-15 -62,-30 -36,-21 -43,-31 -49,-31l-1 0c-2,0 -4,1 -7,1l0 0c-1,0 -2,1 -3,1l0 0c-3,1 -6,2 -9,3 -1,0 -1,0 -2,1 -3,1 -20,1 -21,1 -6,-4 -1,-1 -12,-6 -12,-6 -34,-9 -38,-9 -2,1 -3,1 -4,2l-1 1 0 0 0 0 0 0c-2,2 -3,4 -3,4l0 0 0 24 -2 0 -10 -2z"/>
   <path class="fil30" d="M1030 1308c0,1 0,1 0,2 0,-1 0,-1 0,-2 0,-1 0,-2 0,-3l0 -15c-1,-18 -15,-40 -32,-50l-19 -10c-16,-10 -30,-5 -31,12l-1 15c0,1 0,3 0,5 0,-3 0,-5 0,-7l1 -16c0,-17 15,-24 31,-14l19 11c17,9 31,32 32,51l1 16c0,2 0,4 -1,5z"/>
   <path class="fil30" d="M745 1145l0 0 0 0c0,-1 0,-3 0,-5l-1 -15c0,-18 -15,-40 -31,-49l-16 -9c-17,-10 -31,-5 -32,12l0 13 -1 0 0 0 1 -16c1,-18 15,-24 32,-14l16 9c16,10 31,32 32,51l0 16c0,3 0,5 0,7z"/>
   <polygon class="fil31" points="947,1262 947,1262 947,1262 "/>
   <path class="fil30" d="M676 1059l-2 0c0,0 -59,-30 -70,-37 -12,-7 -4,2 -6,-1l12 2c0,0 -10,-8 0,-2 11,6 66,38 66,38z"/>
   <path class="fil30" d="M1065 1280c0,0 -1,6 -13,-1 -12,-7 -12,-7 -12,-7l3 4c0,0 22,19 25,18l-3 -14z"/>
   <path class="fil32" d="M1059 1260c0,0 -16,-9 -19,-10 -3,-2 -7,0 -7,5 -1,4 -1,6 -1,6l33 19 -6 -20z"/>
   <path class="fil33" d="M618 992c0,0 -1,7 -1,11 0,3 -8,17 -8,17 0,0 2,6 -1,3 0,-18 2,-24 2,-24 0,0 1,-5 8,-7z"/>
   <path class="fil34" d="M1024 1297c0,21 -15,26 -34,15 -19,-11 -36,-34 -36,-55 0,-22 17,-29 36,-18 19,11 34,37 34,58z"/>
   <path class="fil29" d="M1065 1280c0,11 -2,22 -60,57 -62,37 -84,44 -99,41 -5,0 -6,-31 -6,-31 0,0 114,-109 157,-92l1 2c2,7 7,20 7,23z"/>
   <path class="fil29" d="M758 1249c0,3 4,9 12,15l0 0c2,2 4,4 6,6l1 0c3,3 6,5 9,8 24,18 59,40 86,55 5,3 10,5 14,8l0 0c5,2 10,5 14,6l0 0 0 0 2 1 0 0c8,3 23,2 49,-9l0 0 2 -1c4,-2 9,-4 15,-7 1,0 1,-1 2,-1 2,-1 51,-30 54,-31 1,-1 2,-2 3,-3 1,-1 2,-1 3,-2l0 0 0 0c4,-3 8,-6 11,-9l0 0c3,-2 5,-4 7,-6l1 -1c2,-2 3,-3 4,-5 3,-3 4,-7 5,-10 0,-1 0,-2 0,-4 0,0 0,-1 0,-2l-1 -1 0 -1c-1,-1 -2,-2 -3,-3l0 0c-1,-1 -2,-1 -3,-1l-96 -68 0 0 -34 -23 0 -1 -1 0 -3 2 0 0 0 0 -4 2 -4 3 -17 9 -38 21 -11 6 -16 9 -18 9 -20 11 0 1 -15 8 -1 0 -6 3 0 1 0 0 0 0 0 0 -5 2 0 0 -4 2 0 1z"/>
   <path class="fil29" d="M752 1208l104 -60 94 185c0,1 0,2 0,2l-198 -127z"/>
   <path class="fil24" d="M959 1362c3,-2 5,2 9,1 4,-1 35,-17 42,-21 7,-4 28,-18 31,-21 4,-4 2,-19 2,-19 0,0 -84,45 -84,60z"/>
   <path class="fil29" d="M752 1208l104 -60 183 134c0,0 -1,-1 -3,1 -4,3 -12,10 -27,18 -19,12 -42,24 -53,28 -2,1 -6,2 -6,4 -2,0 -198,-125 -198,-125z"/>
   <path class="fil29" d="M717 1161c16,23 36,67 46,88 9,4 -8,-1 -8,-1l-46 -86 8 -1z"/>
   <path class="fil35" d="M618 992c-12,0 -47,19 -79,37 -41,23 -73,43 -75,52 -4,20 54,29 54,29l156 -99 -56 -19z"/>
   <path class="fil36" d="M700 1002c-7,0 -41,8 -52,11 -15,5 -36,15 -65,32 -47,27 -65,45 -69,58 -5,18 75,-16 75,-16l133 -82 -11 -5c0,0 -6,2 -11,2z"/>
   <path class="fil36" d="M701 1003c-7,1 -40,6 -50,9 -16,6 -38,17 -67,34 -47,27 -65,45 -69,59 -5,17 75,-17 75,-17l134 -82 -12 -4c0,0 -6,1 -11,1z"/>
   <path class="fil35" d="M575 1076c-13,2 -34,7 -46,13 -4,2 -7,3 -9,3 -5,1 -6,-1 -6,-1l0 12 31 5 31 -26 -1 -6z"/>
   <path class="fil35" d="M572 1100l1 1c2,3 4,6 7,8 0,1 1,1 1,2 2,0 3,1 4,2 1,1 2,2 3,2 0,1 1,1 2,2 4,3 9,6 14,9 2,0 3,1 4,2 14,7 31,14 46,20 2,1 4,2 6,2 1,1 3,1 4,2 3,1 5,0 8,0 2,-1 4,-1 6,0 2,0 3,1 4,1 2,1 5,2 7,2 2,1 5,2 7,3 2,0 3,1 5,1 1,1 3,1 4,2 2,0 3,1 4,1 2,0 3,1 3,1 2,-1 4,-1 5,-2 2,0 3,-1 5,-1 1,-1 2,-1 4,-2 1,0 2,-1 3,-1l1 -1c2,0 3,-1 5,-2 1,0 3,-1 5,-2 1,0 3,-1 4,-2 4,-1 7,-3 10,-5 3,-1 7,-3 10,-4 3,-2 5,-3 8,-5 2,-1 4,-2 6,-3 2,-1 5,-3 7,-4 4,-2 9,-5 13,-7 3,-2 6,-4 9,-6 1,0 2,0 3,-1l0 0 0 0c6,-4 11,-7 16,-10l0 0c9,-6 15,-11 20,-15l0 0 1 -1c1,-1 2,-2 3,-3l0 0c0,-1 1,-2 1,-3l0 0c0,-1 -5,-5 -10,-9l0 0c-6,-4 -14,-9 -17,-11 0,-1 -1,-1 -1,-1l0 0 -1 0c-9,-6 -98,-64 -111,-62 -2,0 -4,1 -7,1l0 0 -1 1c-2,0 -4,1 -6,2 -2,0 -3,1 -5,1l0 1 0 0c-4,1 -8,3 -12,4 -1,1 -2,1 -3,2 -12,6 -26,13 -39,20 0,0 -1,1 -2,1l-1 1c-8,5 -17,10 -25,15 -4,3 -8,5 -12,8 -3,2 -6,4 -8,6 -7,5 -12,9 -15,13 -2,2 -3,3 -3,4l0 1c-1,1 -2,2 -2,3 0,1 0,1 0,2 0,3 0,11 2,14z"/>
   <path class="fil22" d="M914 1385l0 6 -2 8 -5 4 -8 7c0,0 -21,-11 -29,-12l0 0c0,-1 0,-2 0,-3l-3 -15c-1,-18 -15,-39 -32,-49l-15 -9c-17,-10 -31,-4 -32,13l1 13c0,2 0,3 0,5l0 0 0 0 -199 -115 -3 -2 0 0c0,-1 0,-3 0,-4l-2 -15c-1,-18 -16,-40 -32,-50l-16 -8c-17,-10 -31,-4 -32,12l2 12 -1 0 -46 -34 -13 -15 -2 -14 0 -10 11 1 0 -23c0,0 2,-6 8,-7 14,5 48,21 50,22l0 0c13,-9 51,-23 58,-22 6,0 13,4 49,24 48,28 78,47 94,62 18,28 43,82 43,82l3 3c0,0 67,44 96,65 28,20 42,30 43,30l0 0 5 25 9 13z"/>
   <g>
    <path class="fil37" d="M812 1354c0,22 13,48 30,58 17,9 30,-1 30,-23 0,-22 -13,-48 -30,-58 -17,-9 -30,1 -30,23z"/>
    <polygon class="fil37" points="839,1426 861,1414 822,1330 801,1342 "/>
    <path class="fil37" d="M789 1367c0,22 14,48 30,57 17,10 30,0 30,-23 0,-22 -13,-47 -30,-57 -16,-10 -30,1 -30,23z"/>
    <path class="fil38" d="M800 1374c0,14 9,31 19,37 11,6 20,-1 20,-15 0,-14 -9,-31 -20,-37 -10,-6 -19,0 -19,15z"/>
    <path class="fil39" d="M805 1377c0,10 7,22 14,26 8,5 14,0 14,-10 0,-10 -6,-22 -14,-27 -7,-4 -14,0 -14,11z"/>
    <path class="fil40" d="M813 1381c0,5 3,11 6,13 4,2 7,0 7,-5 0,-5 -3,-11 -7,-13 -3,-2 -6,0 -6,5z"/>
    <path class="fil40" d="M818 1370c0,1 1,2 1,3 1,0 2,0 2,-1 0,-1 -1,-2 -2,-3 0,0 -1,0 -1,1z"/>
    <path class="fil40" d="M809 1370c0,1 1,2 2,3 0,0 1,0 1,-1 0,-1 -1,-2 -1,-3 -1,0 -2,0 -2,1z"/>
    <path class="fil40" d="M826 1380c0,1 1,2 1,2 1,1 2,0 2,-1 0,-1 -1,-2 -2,-2 0,-1 -1,0 -1,1z"/>
    <path class="fil40" d="M809 1388c0,1 1,2 2,3 0,0 1,0 1,-1 0,-1 -1,-2 -1,-3 -1,0 -2,0 -2,1z"/>
    <path class="fil40" d="M826 1398c0,1 1,2 1,2 1,1 2,0 2,-1 0,0 -1,-2 -2,-2 0,0 -1,0 -1,1z"/>
    <path class="fil40" d="M807 1378c0,1 1,3 2,3 0,0 1,0 1,-1 0,-1 -1,-2 -1,-3 -1,0 -2,1 -2,1z"/>
    <path class="fil40" d="M829 1391c0,1 0,2 1,2 1,1 1,0 1,-1 0,-1 0,-2 -1,-2 -1,-1 -1,0 -1,1z"/>
    <path class="fil40" d="M818 1398c0,1 1,2 1,2 1,1 2,0 2,-1 0,0 -1,-2 -2,-2 0,0 -1,0 -1,1z"/>
   </g>
   <g>
    <path class="fil37" d="M525 1189c0,23 14,50 32,61 18,10 32,-1 32,-24 0,-24 -14,-51 -32,-61 -18,-10 -32,0 -32,24z"/>
    <polygon class="fil37" points="554,1265 577,1252 536,1164 514,1176 "/>
    <path class="fil37" d="M501 1202c0,24 15,51 32,61 18,10 32,-1 32,-24 0,-24 -14,-51 -32,-61 -17,-10 -32,1 -32,24z"/>
    <path class="fil38" d="M513 1209c0,16 9,33 20,40 12,6 21,-1 21,-16 0,-15 -9,-33 -21,-39 -11,-7 -20,0 -20,15z"/>
    <path class="fil39" d="M518 1213c0,11 7,23 15,28 8,5 15,0 15,-11 0,-11 -7,-24 -15,-28 -8,-5 -15,0 -15,11z"/>
    <path class="fil40" d="M526 1217c0,5 3,11 7,14 4,2 7,0 7,-6 0,-5 -3,-11 -7,-13 -4,-3 -7,0 -7,5z"/>
    <path class="fil40" d="M532 1206c0,1 0,2 1,2 1,1 1,0 1,-1 0,-1 0,-2 -1,-2 -1,-1 -1,0 -1,1z"/>
    <path class="fil40" d="M522 1206c0,1 1,2 2,2 1,1 1,0 1,-1 0,-1 0,-2 -1,-2 -1,-1 -2,0 -2,1z"/>
    <path class="fil40" d="M540 1216c0,1 1,2 2,3 0,0 1,0 1,-1 0,-1 -1,-3 -1,-3 -1,-1 -2,0 -2,1z"/>
    <path class="fil40" d="M522 1225c0,1 1,2 2,3 1,0 1,0 1,-1 0,-2 0,-3 -1,-3 -1,-1 -2,0 -2,1z"/>
    <path class="fil40" d="M540 1235c0,1 1,2 2,3 0,0 1,0 1,-1 0,-1 -1,-2 -1,-3 -1,0 -2,0 -2,1z"/>
    <path class="fil40" d="M520 1215c0,1 1,2 2,2 0,1 1,0 1,-1 0,-1 -1,-2 -1,-2 -1,-1 -2,0 -2,1z"/>
    <path class="fil40" d="M543 1228c0,1 1,2 1,2 1,1 2,0 2,-1 0,-1 -1,-2 -2,-2 0,-1 -1,0 -1,1z"/>
    <path class="fil40" d="M532 1235c0,1 0,2 1,3 1,0 1,0 1,-1 0,-1 0,-2 -1,-3 -1,0 -1,0 -1,1z"/>
   </g>
   <path class="fil22" d="M789 1353l0 0 -199 -115 -3 -2 0 0c0,-1 0,-3 0,-4l-2 -15c-1,-18 -16,-40 -32,-50l-16 -8c-17,-10 -31,-4 -32,12l1 6 1 6 -1 0 -46 -34 -13 -15 -2 -14 0 -10 7 1 3 4 38 24c6,3 17,11 23,12 2,0 4,0 6,0 3,-1 6,-2 15,3 25,15 43,29 50,43 4,6 3,11 18,22 46,34 147,85 161,93 7,5 16,9 24,13 -1,3 -2,6 -2,10l1 13c0,2 0,3 0,5l0 0z"/>
   <path class="fil29" d="M660 1207c-2,2 -3,6 -2,7 1,3 17,11 18,12 2,0 3,-4 2,-6 0,-1 -18,-13 -18,-13z"/>
   <path class="fil29" d="M571 1156c-1,2 -2,6 -1,8 1,2 16,10 18,11 1,0 2,-4 2,-6 0,-1 -19,-13 -19,-13z"/>
   <path class="fil36" d="M919 1164c-6,8 -24,26 -53,43 -41,23 -99,44 -108,42l-1 -2 -45 -84 138 -80 69 77c0,1 1,2 0,4z"/>
   <path class="fil29" d="M514 1103c6,-3 51,-14 59,-14 7,1 86,42 93,47 7,4 36,26 45,39 10,13 43,77 48,83 2,3 127,83 127,83l-128 -92c0,0 -41,-82 -46,-86 -5,-4 -39,-30 -86,-56 -46,-26 -48,-27 -55,-26 -8,1 -45,13 -57,22z"/>
   <path class="fil22" d="M789 1353l-199 -115 -3 -2 0 0c0,-1 0,-1 0,-2l202 116c0,1 0,2 0,3l0 0 0 0z"/>
   <path class="fil22" d="M761 1331l-2 0c-2,-1 -57,-33 -157,-91 -4,-2 -6,-3 -6,-4l0 0c-2,-1 -4,-2 -5,-7 0,-5 -2,-22 -8,-34 -3,-7 -5,-9 -7,-13 2,2 3,4 5,5 1,2 2,4 3,8 6,12 8,30 9,34 0,4 1,5 3,6l1 0c0,0 2,2 6,4 17,10 33,19 47,27 0,1 1,2 1,2l1 0c0,0 0,-1 0,-1 74,43 100,58 106,62 -2,-5 -2,-10 -2,-10 0,-4 -1,-9 -1,-13 0,0 1,1 1,1 0,4 1,8 1,12 0,0 0,6 3,11l1 1z"/>
   <path class="fil22" d="M619 1111c0,0 -15,-8 -22,-10 -1,-1 -3,1 -4,1 -4,3 -19,18 -24,25 -4,6 -6,11 -4,15 1,4 3,5 3,5 0,0 182,107 183,107 2,0 1,-2 -2,-7 -4,-5 -30,-68 -45,-82 -5,-5 -7,-7 -15,-12 -7,-5 -17,-12 -25,-16 -12,-7 -45,-26 -45,-26z"/>
   <path class="fil36" d="M742 1246c-37,-21 -172,-101 -174,-102l0 0 0 0c0,0 -1,-1 -1,-2 -1,-1 -1,-5 4,-13 5,-6 19,-20 23,-23l1 -1c1,0 2,-1 3,-1 6,2 21,9 21,9 0,1 29,17 43,25l2 1c7,4 18,11 25,16 7,6 9,7 14,12l1 0c14,13 37,72 43,81 1,1 1,2 2,2 -2,0 -4,-2 -7,-4l0 0z"/>
   <polygon class="fil36" points="741,1235 738,1231 735,1244 750,1252 751,1252 "/>
   <path class="fil36" d="M742 1244c-37,-21 -171,-101 -173,-102l0 0 0 -1c0,0 -1,-3 4,-11 3,-4 13,-16 18,-20 2,-1 3,-2 4,-3l1 0 1 -1c7,2 19,9 21,9l0 1c7,4 31,17 42,24l3 1c7,4 18,11 25,16 7,5 9,7 14,11l0 1c9,8 23,40 32,59 4,7 6,12 8,16z"/>
   <path class="fil22" d="M657 1134c0,0 -12,39 -13,56l14 8c0,-28 8,-58 8,-58l-9 -6z"/>
   <path class="fil22" d="M647 1246c0,0 -1,0 -1,-1 0,-14 1,-34 5,-49 0,0 0,0 0,0 1,0 1,0 1,0 -4,16 -5,36 -5,50z"/>
   <path class="fil22" d="M652 1267c-1,0 -1,0 -2,-1 -1,-3 -4,-10 -4,-15 0,-1 0,-3 0,-6 0,1 1,1 1,1 0,2 0,4 0,5 1,6 4,15 5,16z"/>
   <path class="fil41" d="M663 1136c0,0 0,0 -1,0 1,-1 1,-2 1,-2 0,0 1,0 1,0 0,1 0,2 -1,2z"/>
   <path class="fil42" d="M664 1134c0,0 -1,0 -1,0 0,-1 0,-1 0,-1 0,0 1,0 1,1 0,0 0,0 0,0z"/>
   <path class="fil22" d="M651 1268c0,0 -1,-1 -1,-2 1,1 1,1 2,1 0,0 0,1 0,1l-1 0z"/>
   <path class="fil42" d="M664 1134c0,-1 -1,-1 -1,-1 0,0 0,-1 0,-1l1 1c0,0 0,0 0,1z"/>
   <path class="fil41" d="M652 1196c0,0 0,0 -1,0 0,-1 0,-1 0,-2l1 1c0,0 0,1 0,1l0 0c0,0 0,0 0,0zm11 -58l-1 -1c0,0 0,-1 0,-1 1,0 1,0 1,0 0,1 0,1 0,2z"/>
   <path class="fil41 str0" d="M652 1195l-1 -1c1,-17 8,-46 11,-57l1 1c-3,11 -10,40 -11,57z"/>
   <path class="fil22" d="M491 1133l-1 1c0,0 -16,-4 -27,-11 -12,-7 -15,-9 -18,-13l11 1c0,0 7,6 18,12 10,6 17,10 17,10z"/>
   <path class="fil35" d="M672 1213l-10 -6c-2,-1 -3,-1 -3,1l0 1c0,1 1,3 3,4l14 8c2,1 3,0 2,-2 -2,-3 -4,-5 -6,-6z"/>
   <path class="fil43" d="M664 1211c0,1 -1,1 -2,1 -1,-1 -1,-2 -1,-3 0,-1 0,-1 1,-1 1,1 2,2 2,3z"/>
   <path class="fil35" d="M584 1162l-10 -6c-2,-1 -3,0 -3,1l0 1c0,1 1,3 3,4l14 8c2,1 3,0 2,-2 -2,-3 -4,-5 -6,-6z"/>
   <path class="fil44" d="M575 1160c0,1 0,1 -1,1 -1,-1 -1,-2 -1,-3 0,-1 0,-1 1,0 1,0 1,1 1,2z"/>
   <polygon class="fil36" points="599,1162 595,1159 608,1108 611,1111 "/>
   <path class="fil29" d="M944 1332c0,0 7,3 9,10 2,7 3,17 3,17 0,0 -1,-21 -6,-26 -1,-1 -6,-1 -6,-1z"/>
   <path class="fil29" d="M902 1348c-18,-8 -46,-27 -52,-32 -7,-4 -88,-61 -88,-61l-4 -6 58 28 86 71z"/>
   <path class="fil22" d="M850 1086l0 0 0 0 0 0c0,0 17,20 17,21 2,1 2,3 3,4l1 2c1,0 2,1 3,2l1 1c1,1 2,2 3,3 2,2 3,4 5,5 1,1 2,2 3,3 1,1 3,3 4,4 1,1 2,2 3,3 2,2 4,4 6,6 0,1 1,1 1,2 1,0 1,1 2,1 1,2 2,3 3,4l0 0c2,3 4,5 6,7l0 0 0 0c1,1 2,2 3,3l0 1 1 0 0 0 0 0 0 0 0 0 0 0 0 0 0 0 1 1c0,1 1,1 1,2 1,1 1,2 2,2 2,0 2,-2 2,-3l-1 -1 0 0 -2 -3 0 0 0 0 0 0 -1 0 0 0 -7 -7 -5 -5 -9 -10 -44 -51 -1 0 0 0 0 0 -1 3z"/>
   <path class="fil36" d="M915 1158c0,5 -6,11 -14,17 -13,12 -41,27 -58,37 -10,6 -25,14 -42,21 -22,9 -40,12 -40,12l2 4c0,0 19,-1 40,-8 22,-8 75,-34 102,-57 7,-6 14,-21 14,-21l-4 -5z"/>
   <path class="fil45" d="M1054 1253c0,-1 0,-1 0,-1l0 0 0 0 0 0 0 0c0,0 0,0 0,1z"/>
   <path class="fil46" d="M1054 1252l0 0 0 0c0,0 0,0 0,0l0 0 0 0 0 0z"/>
   <path class="fil47" d="M765 1248l0 0 1 0c0,0 0,0 1,0 -1,0 -1,0 -2,0z"/>
   <path class="fil48" d="M717 1161c0,0 0,0 0,0 0,0 0,0 0,0l0 0 0 0z"/>
   <path class="fil49" d="M717 1162c0,0 0,0 0,-1 0,0 0,0 0,0l0 0 0 1z"/>
   <path class="fil48" d="M575 1076l0 0 0 -1c0,0 0,0 0,0 0,0 0,1 0,1 0,0 0,0 0,0z"/>
   <polygon class="fil50" points="575,1076 575,1076 "/>
   <path class="fil48" d="M692 1006l0 0 0 -1c1,0 3,-1 5,-1 -2,0 -3,1 -5,1l0 1z"/>
   <path class="fil47" d="M520 1092c0,0 0,0 0,0l0 0c0,0 0,0 0,0z"/>
   <path class="fil22" d="M507 1183l-1 0 -46 -34 -13 -15c15,13 59,43 59,43l1 6z"/>
   <path class="fil36" d="M721 1162l0 0c9,-3 21,-8 34,-15l2 0c1,-1 3,-2 5,-3 1,-1 3,-1 4,-2 2,-1 5,-3 7,-4 9,-4 17,-9 26,-14 4,-3 8,-5 12,-7 6,-4 12,-7 17,-11l0 0 0 0c9,-6 15,-10 19,-14l0 0c1,-1 2,-2 3,-3 8,8 36,41 55,61 2,2 4,4 5,6l2 2 1 1c-1,2 -2,4 -4,7 -3,3 -6,5 -9,8 -1,1 -3,2 -4,3 -10,7 -23,15 -35,22 -4,3 -7,5 -11,7l0 0c-3,1 -5,3 -8,4 -3,2 -7,4 -11,7 -4,2 -9,4 -14,7 -5,2 -11,5 -16,7 -3,1 -6,2 -8,3l-1 0c-7,2 -13,4 -18,6 -3,1 -6,1 -9,2 0,0 -1,0 -2,0l-1 0 0 0 0 0c-1,-3 -3,-5 -4,-8 -5,-11 -35,-67 -37,-72zm-4 -1c2,3 29,54 31,58 2,4 4,9 7,13l1 2c0,1 1,1 1,2l0 1 0 0 1 1c0,1 1,1 1,2l1 2 0 1 0 0 1 2 0 0 0 0 1 0 0 0 0 0 1 -1 1 0 0 0 2 0 1 0 0 0 0 0 0 0 0 0 1 -1c0,0 1,0 2,0 0,0 1,0 2,-1 1,0 3,0 4,-1 1,0 1,0 2,0 0,0 1,-1 2,-1l1 0c0,0 1,0 1,-1 1,0 3,0 4,-1 2,0 5,-1 7,-2l1 0 1 -1 0 0 0 0 0 0c2,-1 4,-1 6,-2 5,-2 9,-4 12,-5 2,-1 4,-2 6,-3 4,-2 7,-4 11,-5 4,-2 7,-4 10,-6 1,-1 2,-1 3,-2 3,-2 6,-3 9,-5 1,-1 2,-1 3,-2 2,-1 5,-3 8,-4 6,-4 13,-8 18,-12 2,0 3,-1 4,-2 1,0 2,-1 2,-1 1,-1 1,-1 2,-1 3,-3 6,-5 9,-7 1,-1 2,-2 3,-3 2,-1 3,-2 4,-3 1,-1 2,-2 3,-2 1,-1 1,-2 2,-3l0 0 1 -1c1,-1 1,-2 2,-3l1 -1 0 -1 0 -1 1 -1 0 0 0 0 0 -1 0 0 0 0 0 0 0 0 -1 0 0 0 0 -1c-1,-1 -2,-2 -3,-3l0 0 0 0c-2,-2 -4,-4 -6,-7l0 0c-1,-1 -2,-2 -3,-4 -1,0 -1,-1 -2,-1 0,-1 -1,-1 -1,-2 -2,-2 -49,-54 -49,-54l0 0 0 0 -1 1c-1,0 -1,1 -2,2l-1 1 0 0c-5,4 -11,9 -20,15l0 0c-5,3 -10,6 -16,10l0 0 0 0c-1,1 -2,1 -3,1 -1,1 -3,2 -5,3 -1,1 -3,2 -4,3 -5,3 -11,6 -16,9 -2,1 -3,1 -4,2 -2,1 -4,2 -6,3 -3,2 -5,3 -8,5 -3,1 -7,3 -10,4 -3,2 -6,4 -10,5 -1,1 -3,2 -4,2 -2,1 -4,2 -5,2 -2,1 -3,2 -5,2l-1 1c-1,0 -2,1 -3,1 -2,1 -3,1 -4,2 -2,0 -3,1 -5,1z"/>
   <path class="fil29" d="M742 1251c0,0 3,0 4,-1 1,-1 0,-4 -2,-6 -2,-1 -7,2 -8,1 -1,0 -7,2 -7,2l2 4 11 0z"/>
   <path class="fil29" d="M731 1237c5,-2 10,0 11,6 1,7 -2,9 -4,9 -2,1 -9,5 -19,5 -9,0 -10,-5 -10,-8l0 -1c0,-5 2,-6 5,-7 7,-2 17,-4 17,-4z"/>
   <path class="fil29" d="M740 1240c-3,-1 -9,0 -16,1 -6,2 -11,2 -11,8 -1,6 1,7 4,7 3,1 8,1 15,-1 7,-2 8,-4 9,-6 2,-2 2,-8 -1,-9z"/>
   <path class="fil29" d="M1073 1301l0 18 -6 10 -9 9 0 0c-1,1 -19,20 -59,44 -41,26 -74,32 -74,32l-11 3 0 0 -25 -2 -12 -6 -3 -2c0,0 -1,-1 -1,-2 0,-1 0,-2 0,-2l0 0c-1,-3 -1,-5 -1,-6 -1,-2 -1,-3 -1,-3 0,-12 0,-21 -5,-33l9 7 0 0 6 1 11 0 8 2 7 3 11 2 18 -3 12 -5 15 -7 74 -45 14 -10 5 -5 8 -5 3 -6 4 0 1 6 1 5z"/>
   <path class="fil22" d="M1073 1311l0 8 -6 10 -9 10 0 0c-1,1 -19,19 -59,43 -41,26 -74,32 -74,32l-11 3 0 0 -25 -2 -12 -6 -3 -2c0,0 -1,-1 -1,-2 0,-1 0,-2 0,-2l0 0c-1,-3 -1,-5 -1,-6 -1,-2 -1,-3 -1,-3 0,0 28,11 50,9 22,-2 65,-29 89,-44 24,-16 63,-39 63,-48z"/>
   <path class="fil51" d="M918 1376c0,0 13,-1 18,-3 4,-1 12,-5 12,-5l-4 -18c0,0 -6,-2 -9,-2 -5,2 -22,5 -22,5 0,0 -4,0 -7,-1 -3,0 -8,4 -8,4 0,0 0,6 1,12 0,6 19,8 19,8z"/>
   <path class="fil29" d="M1066 1281l-15 25 -14 10 -74 45 -15 7 -12 5 -18 3 0 0c0,3 1,5 1,8 13,0 20,-3 34,-9 14,-7 74,-43 93,-56 14,-11 21,-17 26,-23 -1,-8 -6,-15 -6,-15z"/>
   <path class="fil51" d="M1067 1290l-2 4 -14 12c-3,-18 -4,-22 -4,-22 0,0 1,-2 1,-3 1,-1 10,-10 11,-15 0,-2 0,-4 0,-5 1,3 6,11 8,29z"/>
   <path class="fil36" d="M950 1367l0 -16c1,-3 -3,-8 0,-9 5,-2 16,-8 16,-8 0,0 61,-36 64,-39 2,-2 5,-4 7,-6 1,-1 3,0 4,1l6 19 -10 7 -74 45 -13 6z"/>
   <polygon class="fil29" points="1047,1309 1037,1316 966,1362 950,1367 953,1363 954,1362 964,1359 1035,1315 1043,1308 "/>
   <path class="fil36" d="M954 1394c-6,4 -7,6 -8,8 0,3 24,-9 31,-13 15,-7 49,-29 66,-42 11,-8 12,-11 14,-13 1,-2 4,-6 3,-5 -1,1 -4,4 -4,4 0,0 -72,49 -102,61z"/>
   <polygon class="fil51" points="1048,1281 1041,1289 1047,1309 1051,1306 "/>
   <polygon class="fil52" points="1047,1309 1043,1308 1036,1293 1041,1289 "/>
   <polygon class="fil51" points="935,1348 953,1342 957,1364 936,1373 "/>
   <path class="fil53" d="M456 1088c0,0 2,5 5,7 3,3 9,6 9,6 0,0 3,2 3,7 0,5 0,7 0,9 0,2 -3,1 -8,-2 -6,-4 -9,-6 -9,-8 0,-1 0,-19 0,-19z"/>
   <path class="fil22" d="M445 1110c0,0 0,-4 2,-6 3,-2 9,-6 9,-6l0 13c0,0 -7,5 -11,-1z"/>
   <path class="fil29" d="M766 1287l6 3c0,1 1,0 1,-1l0 -1c1,-2 0,-3 -1,-3l-5 -3c-1,-1 -2,0 -2,1l0 1c0,1 1,3 1,3z"/>
   <path class="fil29" d="M766 1282c0,0 -1,0 -2,1 0,1 0,2 0,2 0,1 1,2 1,2 1,1 5,3 5,3 1,1 2,0 2,0 1,-1 0,-5 0,-5l-6 -3z"/>
   <path class="fil29" d="M765 1287l5 3c1,1 2,0 2,-1l0 -1c0,-1 -1,-2 -1,-3l-5 -3c-1,0 -1,1 -2,1l0 2c0,1 1,2 1,2z"/>
   <path class="fil29" d="M919 1384c-22,-1 -36,-8 -43,-15 19,5 27,9 42,7 15,-2 18,-2 20,-4 3,-1 -2,10 -19,12z"/>
   <path class="fil22" d="M594 1231l-3 -15c-1,-19 -17,-44 -35,-54l0 -1 -16 -8c-6,-3 -12,-5 -18,-5 -13,0 -22,8 -23,22l1 8 6 5 1 0 -2 -12c1,-16 15,-22 32,-12l16 8c16,10 31,32 32,50l2 15c0,1 0,3 0,4l0 0 3 2 4 3c0,-5 0,-9 0,-10l0 0z"/>
  </g>
  <polygon class="fil54" points="789,1444 352,1192 365,1184 802,1437 "/>
  <polygon class="fil55" points="1122,1223 684,970 697,963 1134,1216 "/>
  <polyline class="fil56 str1" points="365,825 316,853 316,1024 154,1118 501,1318 501,1142 510,1136 "/>
  <g id="_1470038214032">
   <path class="fil13" d="M1523 1060l-61 -2 -3 116 0 0c0,5 3,9 9,13 12,7 31,8 43,1 6,-3 9,-8 9,-12l0 0 3 -116z"/>
   <path class="fil57" d="M1513 1072c-12,6 -31,6 -42,-1 -12,-7 -12,-18 0,-25 12,-6 31,-6 43,1 11,7 11,18 -1,25z"/>
   <path class="fil15" d="M1514 710l-7 347c0,1 -1,3 -3,4 0,1 -1,1 -2,2 -4,2 -10,3 -16,1 -1,0 -3,-1 -4,-2 -3,-2 -4,-4 -4,-6l7 -346 29 0z"/>
  </g>
  <polygon class="fil58" points="1832,899 1823,905 1556,1066 1564,1060 "/>
  <polygon class="fil18" points="1564,1060 1556,1066 1203,858 1212,853 "/>
  <polygon class="fil57" points="1832,899 1564,1060 1212,853 1479,691 "/>
  <polygon class="fil36" points="1820,898 1481,698 1223,853 1563,1054 "/>
  <path class="fil59" d="M1503 713l-15 -9c-4,-2 -9,-2 -12,0l-12 7c-3,1 -2,5 2,7l14 9c4,2 10,2 13,0l11 -7c3,-1 3,-5 -1,-7z"/>
  <path class="fil59" d="M1477 728l-14 -8c-4,-2 -9,-3 -12,-1l-12 7c-3,2 -2,5 1,7l15 9c4,2 9,2 12,1l12 -7c3,-2 2,-5 -2,-8z"/>
  <path class="fil59" d="M1452 744l-14 -9c-4,-2 -10,-3 -13,-1l-11 7c-3,2 -3,5 1,8l15 8c3,2 9,3 12,1l11 -7c3,-2 3,-5 -1,-7z"/>
  <path class="fil59" d="M1427 759l-15 -9c-4,-2 -9,-2 -12,0l-12 7c-3,1 -2,5 2,7l14 8c4,3 9,3 13,1l11 -7c3,-2 2,-5 -1,-7z"/>
  <path class="fil59" d="M1401 774l-14 -8c-4,-3 -10,-3 -13,-1l-11 7c-3,2 -2,5 1,7l15 9c4,2 9,2 12,1l12 -7c3,-2 2,-6 -2,-8z"/>
  <path class="fil59" d="M1533 731l-14 -8c-4,-3 -9,-3 -12,-1l-12 7c-3,2 -2,5 1,7l15 9c4,2 9,2 12,0l12 -6c3,-2 2,-6 -2,-8z"/>
  <path class="fil59" d="M1508 746l-14 -8c-4,-2 -10,-3 -13,-1l-11 7c-3,2 -3,5 1,7l15 9c3,2 9,3 12,1l12 -7c3,-2 2,-5 -2,-8z"/>
  <path class="fil59" d="M1483 762l-15 -9c-4,-2 -9,-2 -12,-1l-12 7c-3,2 -2,6 2,8l14 8c4,3 10,3 13,1l11 -7c3,-2 3,-5 -1,-7z"/>
  <path class="fil59" d="M1457 777l-14 -9c-4,-2 -9,-2 -12,0l-12 7c-3,2 -2,5 1,7l15 9c4,2 9,2 12,0l12 -7c3,-1 2,-5 -2,-7z"/>
  <path class="fil59" d="M1564 749l-14 -8c-4,-3 -10,-3 -13,-1l-11 7c-3,2 -3,5 1,7l15 9c3,2 9,2 12,1l12 -7c3,-2 2,-6 -2,-8z"/>
  <path class="fil59" d="M1539 765l-15 -9c-3,-2 -9,-3 -12,-1l-12 7c-3,2 -2,5 2,8l14 8c4,2 10,3 13,1l11 -7c3,-2 3,-5 -1,-7z"/>
  <path class="fil59" d="M1595 767l-15 -8c-3,-2 -9,-3 -12,-1l-11 7c-3,2 -3,5 1,7l14 9c4,2 10,3 13,1l11 -7c3,-2 3,-5 -1,-8z"/>
  <g id="_1470038220400">
   <path class="fil36" d="M1524 894c-8,4 -22,6 -33,5 -10,-2 -12,-7 -5,-12 8,-4 23,-6 33,-4 10,2 13,7 5,11z"/>
   <path class="fil59" d="M1373 792l-15 -9c-4,-2 -9,-3 -12,-1l-12 7c-3,2 -2,5 2,8l14 8c4,2 9,3 12,1l12 -7c3,-2 2,-5 -1,-7z"/>
   <path class="fil59" d="M1347 807l-14 -9c-4,-2 -10,-2 -13,0l-11 6c-3,2 -3,6 1,8l15 8c4,3 9,3 12,1l12 -7c3,-2 2,-5 -2,-7z"/>
   <path class="fil59" d="M1322 822l-15 -8c-3,-3 -9,-3 -12,-1l-11 7c-4,2 -3,5 1,7l14 9c4,2 10,2 13,0l11 -7c3,-1 3,-5 -1,-7z"/>
   <path class="fil59" d="M1297 837l-15 -8c-4,-2 -9,-3 -12,-1l-12 7c-3,2 -2,5 2,7l14 9c4,2 9,3 12,1l12 -7c3,-2 2,-5 -1,-8z"/>
   <path class="fil59" d="M1271 853l-14 -9c-4,-2 -10,-2 -13,-1l-11 7c-3,2 -3,6 1,8l15 8c3,3 9,3 12,1l12 -7c3,-2 2,-5 -2,-7z"/>
   <path class="fil59" d="M1432 792l-14 -8c-4,-2 -10,-3 -13,-1l-11 7c-3,2 -3,5 1,7l15 9c3,2 9,2 12,1l11 -7c3,-2 3,-5 -1,-8z"/>
   <path class="fil59" d="M1403 810l-14 -9c-4,-2 -9,-2 -13,-1l-11 7c-3,2 -2,5 1,8l15 8c4,2 9,3 12,1l12 -7c3,-2 2,-5 -2,-7z"/>
   <path class="fil59" d="M1378 825l-15 -9c-3,-2 -9,-2 -12,0l-11 7c-3,1 -3,5 1,7l14 9c4,2 10,2 13,0l11 -7c3,-2 3,-5 -1,-7z"/>
   <path class="fil59" d="M1353 840l-15 -8c-4,-3 -9,-3 -12,-1l-12 7c-3,2 -2,5 2,7l14 9c4,2 9,2 12,1l12 -7c3,-2 2,-6 -1,-8z"/>
   <path class="fil59" d="M1327 856l-14 -9c-4,-2 -10,-3 -13,-1l-11 7c-3,2 -3,5 1,8l15 8c4,2 9,3 12,1l12 -7c3,-2 2,-5 -2,-7z"/>
   <path class="fil59" d="M1302 871l-15 -9c-3,-2 -9,-2 -12,0l-11 7c-4,1 -3,5 1,7l14 8c4,3 10,3 13,1l11 -7c3,-2 3,-5 -1,-7z"/>
   <path class="fil59" d="M1513 780l-14 -9c-4,-2 -9,-2 -12,0l-12 7c-3,1 -2,5 2,7l14 8c4,3 9,3 12,1l12 -7c3,-2 2,-5 -2,-7z"/>
   <path class="fil59" d="M1488 795l-14 -8c-4,-3 -10,-3 -13,-1l-11 7c-3,2 -3,5 1,7l15 9c3,2 9,2 12,0l12 -6c3,-2 2,-6 -2,-8z"/>
   <path class="fil59" d="M1463 810l-15 -8c-3,-2 -9,-3 -12,-1l-12 7c-3,2 -2,5 2,7l14 9c4,2 10,3 13,1l11 -7c3,-2 3,-5 -1,-8z"/>
   <path class="fil59" d="M1434 828l-14 -9c-4,-2 -10,-2 -13,-1l-11 7c-3,2 -3,6 1,8l15 8c3,3 9,3 12,1l11 -7c3,-2 3,-5 -1,-7z"/>
   <path class="fil59" d="M1409 843l-15 -8c-4,-3 -9,-3 -12,-1l-12 7c-3,2 -2,5 2,7l14 9c4,2 10,2 13,0l11 -7c3,-1 2,-5 -1,-7z"/>
   <path class="fil59" d="M1383 858l-14 -8c-4,-2 -9,-3 -13,-1l-11 7c-3,2 -2,5 1,7l15 9c4,2 9,3 12,1l12 -7c3,-2 2,-5 -2,-8z"/>
   <path class="fil59" d="M1358 874l-15 -9c-3,-2 -9,-2 -12,-1l-11 7c-3,2 -3,5 1,8l14 8c4,2 10,3 13,1l11 -7c3,-2 3,-5 -1,-7z"/>
   <path class="fil59" d="M1333 889l-15 -9c-4,-2 -9,-2 -12,0l-12 7c-3,1 -2,5 2,7l14 9c4,2 9,2 12,0l12 -7c3,-1 2,-5 -1,-7z"/>
   <path class="fil59" d="M1570 783l-15 -9c-4,-2 -9,-2 -12,-1l-12 7c-3,2 -2,5 2,8l14 8c4,3 9,3 12,1l12 -7c3,-2 2,-5 -1,-7z"/>
   <path class="fil59" d="M1544 798l-14 -9c-4,-2 -10,-2 -13,0l-11 7c-3,1 -3,5 1,7l15 9c4,2 9,2 12,0l12 -7c3,-1 2,-5 -2,-7z"/>
   <path class="fil59" d="M1519 813l-15 -8c-3,-2 -9,-3 -12,-1l-12 7c-3,2 -2,5 2,7l14 9c4,2 10,2 13,1l11 -7c3,-2 3,-5 -1,-8z"/>
   <path class="fil59" d="M1493 829l-14 -9c-4,-2 -9,-3 -12,-1l-12 7c-3,2 -2,5 2,8l14 8c4,2 9,3 12,1l12 -7c3,-2 2,-5 -2,-7z"/>
   <path class="fil59" d="M1465 846l-15 -9c-3,-2 -9,-2 -12,0l-12 7c-3,1 -2,5 2,7l14 8c4,3 10,3 13,1l11 -7c3,-2 3,-5 -1,-7z"/>
   <path class="fil59" d="M1439 861l-14 -8c-4,-3 -9,-3 -12,-1l-12 7c-3,2 -2,5 1,7l15 9c4,2 9,2 12,1l12 -7c3,-2 2,-6 -2,-8z"/>
   <path class="fil59" d="M1414 876l-14 -8c-4,-2 -10,-3 -13,-1l-11 7c-3,2 -3,5 1,8l15 8c3,2 9,3 12,1l11 -7c3,-2 3,-5 -1,-8z"/>
   <path class="fil59" d="M1389 892l-15 -9c-4,-2 -9,-2 -12,0l-12 6c-3,2 -2,6 2,8l14 8c4,3 10,3 13,1l11 -7c3,-2 2,-5 -1,-7z"/>
   <path class="fil59" d="M1363 907l-14 -8c-4,-3 -9,-3 -13,-1l-11 7c-3,2 -2,5 1,7l15 9c4,2 9,2 12,0l12 -7c3,-1 2,-5 -2,-7z"/>
   <path class="fil59" d="M1626 786l-15 -9c-4,-2 -9,-3 -12,-1l-12 7c-3,2 -2,5 2,8l14 8c4,2 9,3 13,1l11 -7c3,-2 2,-5 -1,-7z"/>
   <path class="fil59" d="M1600 801l-14 -9c-4,-2 -10,-2 -13,0l-11 6c-3,2 -2,6 1,8l15 8c4,3 9,3 12,1l12 -7c3,-2 2,-5 -2,-7z"/>
   <path class="fil59" d="M1575 816l-15 -8c-3,-3 -9,-3 -12,-1l-11 7c-3,2 -3,5 1,7l14 9c4,2 10,2 13,0l11 -7c3,-1 3,-5 -1,-7z"/>
   <path class="fil59" d="M1550 831l-15 -8c-4,-2 -9,-3 -12,-1l-12 7c-3,2 -2,5 2,7l14 9c4,2 9,3 12,1l12 -7c3,-2 2,-5 -1,-8z"/>
   <path class="fil59" d="M1524 847l-14 -9c-4,-2 -10,-2 -13,-1l-11 7c-3,2 -3,6 1,8l15 8c4,3 9,3 12,1l12 -7c3,-2 2,-5 -2,-7z"/>
   <path class="fil59" d="M1495 864l-14 -8c-4,-3 -9,-3 -12,-1l-12 7c-3,2 -2,5 2,7l14 9c4,2 9,2 12,0l12 -7c3,-1 2,-5 -2,-7z"/>
   <path class="fil59" d="M1470 879l-14 -8c-4,-2 -10,-3 -13,-1l-11 7c-3,2 -3,5 1,7l15 9c3,2 9,2 12,1l12 -7c3,-2 2,-5 -2,-8z"/>
   <path class="fil59" d="M1445 895l-15 -9c-3,-2 -9,-2 -12,-1l-12 7c-3,2 -2,5 2,8l14 8c4,2 10,3 13,1l11 -7c3,-2 3,-5 -1,-7z"/>
   <path class="fil59" d="M1419 910l-14 -9c-4,-2 -9,-2 -12,0l-12 7c-3,1 -2,5 1,7l15 9c4,2 9,2 12,0l12 -7c3,-2 2,-5 -2,-7z"/>
   <path class="fil59" d="M1394 925l-14 -8c-4,-3 -10,-3 -13,-1l-11 7c-3,2 -3,5 1,7l15 9c3,2 9,2 12,1l11 -7c3,-2 3,-6 -1,-8z"/>
   <path class="fil59" d="M1656 804l-14 -9c-4,-2 -9,-2 -12,-1l-12 7c-3,2 -2,5 1,8l15 8c4,2 9,3 12,1l12 -7c3,-2 2,-5 -2,-7z"/>
   <path class="fil59" d="M1631 819l-14 -9c-4,-2 -10,-2 -13,0l-11 7c-3,1 -3,5 1,7l15 9c3,2 9,2 12,0l11 -7c3,-1 3,-5 -1,-7z"/>
   <path class="fil59" d="M1606 834l-15 -8c-4,-3 -9,-3 -12,-1l-12 7c-3,2 -2,5 2,7l14 9c4,2 10,2 13,1l11 -7c3,-2 2,-6 -1,-8z"/>
   <path class="fil59" d="M1580 850l-14 -9c-4,-2 -9,-3 -13,-1l-11 7c-3,2 -2,5 1,8l15 8c4,2 9,3 12,1l12 -7c3,-2 2,-5 -2,-7z"/>
   <path class="fil59" d="M1555 865l-15 -9c-3,-2 -9,-2 -12,0l-11 7c-3,1 -3,5 1,7l14 8c4,3 10,3 13,1l11 -7c3,-2 3,-5 -1,-7z"/>
   <path class="fil59" d="M1526 882l-14 -8c-4,-3 -10,-3 -13,-1l-11 7c-3,2 -3,5 1,7l15 9c4,2 9,2 12,0l12 -6c3,-2 2,-6 -2,-8z"/>
   <path class="fil59" d="M1501 897l-15 -8c-3,-2 -9,-3 -12,-1l-12 7c-3,2 -2,5 2,8l14 8c4,2 10,3 13,1l11 -7c3,-2 3,-5 -1,-8z"/>
   <path class="fil59" d="M1476 913l-15 -9c-4,-2 -9,-2 -12,-1l-12 7c-3,2 -2,6 2,8l14 8c4,3 9,3 12,1l12 -7c3,-2 2,-5 -1,-7z"/>
   <path class="fil59" d="M1450 928l-14 -8c-4,-3 -10,-3 -13,-1l-11 7c-3,2 -3,5 1,7l15 9c3,2 9,2 12,0l12 -7c3,-1 2,-5 -2,-7z"/>
   <path class="fil59" d="M1425 943l-15 -8c-3,-2 -9,-3 -12,-1l-12 7c-3,2 -2,5 2,7l14 9c4,2 10,3 13,1l11 -7c3,-2 3,-5 -1,-8z"/>
   <path class="fil59" d="M1687 822l-14 -9c-4,-2 -10,-2 -13,0l-11 6c-3,2 -3,6 1,8l15 8c3,3 9,3 12,1l12 -7c3,-2 2,-5 -2,-7z"/>
   <path class="fil59" d="M1662 837l-15 -8c-4,-3 -9,-3 -12,-1l-12 7c-3,2 -2,5 2,7l14 9c4,2 10,2 13,0l11 -7c3,-1 3,-5 -1,-7z"/>
   <path class="fil59" d="M1636 852l-14 -8c-4,-2 -9,-3 -12,-1l-12 7c-3,2 -2,5 1,7l15 9c4,2 9,3 12,1l12 -7c3,-2 2,-5 -2,-8z"/>
   <path class="fil59" d="M1611 868l-14 -9c-4,-2 -10,-2 -13,-1l-11 7c-3,2 -3,5 1,8l15 8c3,2 9,3 12,1l11 -7c3,-2 3,-5 -1,-7z"/>
   <path class="fil59" d="M1586 883l-15 -9c-4,-2 -9,-2 -12,0l-12 7c-3,1 -2,5 2,7l14 9c4,2 10,2 13,0l11 -7c3,-1 2,-5 -1,-7z"/>
   <path class="fil59" d="M1557 900l-15 -8c-3,-2 -9,-3 -12,-1l-11 7c-3,2 -3,5 1,7l14 9c4,2 10,2 13,1l11 -7c3,-2 3,-5 -1,-8z"/>
   <path class="fil59" d="M1532 916l-15 -9c-4,-2 -9,-3 -12,-1l-12 7c-3,2 -2,5 2,8l14 8c4,2 9,3 12,1l12 -7c3,-2 2,-5 -1,-7z"/>
   <path class="fil59" d="M1506 931l-14 -9c-4,-2 -10,-2 -13,0l-11 7c-3,1 -3,5 1,7l15 8c4,3 9,3 12,1l12 -7c3,-2 2,-5 -2,-7z"/>
   <path class="fil59" d="M1481 946l-15 -8c-3,-3 -9,-3 -12,-1l-11 7c-4,2 -3,5 1,7l14 9c4,2 10,2 13,1l11 -7c3,-2 3,-6 -1,-8z"/>
   <path class="fil59" d="M1456 961l-15 -8c-4,-2 -9,-3 -12,-1l-12 7c-3,2 -2,5 2,8l14 8c4,2 9,3 12,1l12 -7c3,-2 2,-5 -1,-8z"/>
   <path class="fil59" d="M1718 840l-15 -9c-3,-2 -9,-2 -12,0l-12 7c-3,1 -2,5 2,7l14 8c4,3 10,3 13,1l11 -7c3,-2 3,-5 -1,-7z"/>
   <path class="fil59" d="M1692 855l-14 -8c-4,-3 -9,-3 -12,-1l-12 7c-3,2 -2,5 1,7l15 9c4,2 9,2 12,1l12 -7c3,-2 2,-6 -2,-8z"/>
   <path class="fil59" d="M1667 871l-14 -9c-4,-2 -10,-3 -13,-1l-11 7c-3,2 -3,5 1,8l15 8c3,2 9,3 12,1l12 -7c3,-2 2,-5 -2,-7z"/>
   <path class="fil59" d="M1642 886l-15 -9c-4,-2 -9,-2 -12,0l-12 6c-3,2 -2,6 2,8l14 8c4,3 10,3 13,1l11 -7c3,-2 3,-5 -1,-7z"/>
   <path class="fil59" d="M1616 901l-14 -8c-4,-3 -9,-3 -12,-1l-12 7c-3,2 -2,5 1,7l15 9c4,2 9,2 12,0l12 -7c3,-1 2,-5 -2,-7z"/>
   <path class="fil59" d="M1588 918l-15 -8c-4,-2 -9,-3 -12,-1l-12 7c-3,2 -2,5 2,7l14 9c4,2 9,3 13,1l11 -7c3,-2 2,-5 -1,-8z"/>
   <path class="fil59" d="M1562 934l-14 -9c-4,-2 -9,-2 -13,-1l-11 7c-3,2 -2,6 1,8l15 8c4,3 9,3 12,1l12 -7c3,-2 2,-5 -2,-7z"/>
   <path class="fil59" d="M1537 949l-15 -9c-3,-2 -9,-2 -12,0l-11 7c-3,2 -3,5 1,7l14 9c4,2 10,2 13,0l11 -7c3,-1 3,-5 -1,-7z"/>
   <path class="fil59" d="M1512 964l-15 -8c-4,-2 -9,-3 -12,-1l-12 7c-3,2 -2,5 2,7l14 9c4,2 9,2 12,1l12 -7c3,-2 2,-5 -1,-8z"/>
   <path class="fil59" d="M1486 980l-14 -9c-4,-2 -10,-2 -13,-1l-11 7c-3,2 -3,5 1,8l15 8c4,2 9,3 12,1l12 -7c3,-2 2,-5 -2,-7z"/>
   <path class="fil59" d="M1749 858l-15 -8c-4,-3 -9,-3 -12,-1l-12 7c-3,2 -2,5 2,7l14 9c4,2 9,2 12,0l12 -7c3,-1 2,-5 -1,-7z"/>
   <path class="fil59" d="M1723 873l-14 -8c-4,-2 -10,-3 -13,-1l-11 7c-3,2 -3,5 1,7l15 9c3,2 9,3 12,1l12 -7c3,-2 2,-5 -2,-8z"/>
   <path class="fil59" d="M1698 889l-15 -9c-3,-2 -9,-2 -12,-1l-12 7c-3,2 -2,5 2,8l14 8c4,2 10,3 13,1l11 -7c3,-2 3,-5 -1,-7z"/>
   <path class="fil59" d="M1672 904l-14 -9c-4,-2 -9,-2 -12,0l-12 7c-3,1 -2,5 2,7l14 9c4,2 9,2 12,0l12 -7c3,-2 2,-5 -2,-7z"/>
   <path class="fil59" d="M1647 919l-14 -8c-4,-3 -10,-3 -13,-1l-11 7c-3,2 -3,5 1,7l15 9c3,2 9,2 12,1l12 -7c3,-2 2,-6 -2,-8z"/>
   <path class="fil59" d="M1618 937l-14 -9c-4,-2 -9,-3 -12,-1l-12 7c-3,2 -2,5 1,8l15 8c4,2 9,3 12,1l12 -7c3,-2 2,-5 -2,-7z"/>
   <path class="fil59" d="M1593 952l-14 -9c-4,-2 -10,-2 -13,0l-11 7c-3,1 -3,5 1,7l15 8c3,3 9,3 12,1l11 -7c3,-2 3,-5 -1,-7z"/>
   <path class="fil59" d="M1568 967l-15 -8c-4,-3 -9,-3 -12,-1l-12 7c-3,2 -2,5 2,7l14 9c4,2 10,2 13,0l11 -6c3,-2 2,-6 -1,-8z"/>
   <path class="fil59" d="M1542 982l-14 -8c-4,-2 -9,-3 -13,-1l-11 7c-3,2 -2,5 1,8l15 8c4,2 9,3 12,1l12 -7c3,-2 2,-5 -2,-8z"/>
   <path class="fil59" d="M1517 998l-14 -9c-4,-2 -10,-2 -13,-1l-11 7c-3,2 -3,6 1,8l14 8c4,3 10,3 13,1l11 -7c3,-2 3,-5 -1,-7z"/>
   <path class="fil59" d="M1779 876l-14 -8c-4,-3 -10,-3 -13,-1l-11 7c-3,2 -2,5 1,7l15 9c4,2 9,2 12,1l12 -7c3,-2 2,-6 -2,-8z"/>
   <path class="fil59" d="M1754 891l-15 -8c-3,-2 -9,-3 -12,-1l-11 7c-3,2 -3,5 1,8l14 8c4,2 10,3 13,1l11 -7c3,-2 3,-5 -1,-8z"/>
   <path class="fil59" d="M1729 907l-15 -9c-4,-2 -9,-2 -12,-1l-12 7c-3,2 -2,6 2,8l14 8c4,3 9,3 12,1l12 -7c3,-2 2,-5 -1,-7z"/>
   <path class="fil59" d="M1703 922l-14 -8c-4,-3 -10,-3 -13,-1l-11 7c-3,2 -3,5 1,7l15 9c4,2 9,2 12,0l12 -7c3,-1 2,-5 -2,-7z"/>
   <path class="fil59" d="M1678 937l-15 -8c-3,-2 -9,-3 -12,-1l-12 7c-3,2 -2,5 2,7l14 9c4,2 10,3 13,1l11 -7c3,-2 3,-5 -1,-8z"/>
   <path class="fil59" d="M1649 955l-14 -9c-4,-2 -10,-2 -13,-1l-11 7c-3,2 -3,5 1,8l15 8c3,3 9,3 12,1l12 -7c3,-2 2,-5 -2,-7z"/>
   <path class="fil59" d="M1624 970l-15 -9c-3,-2 -9,-2 -12,0l-12 7c-3,1 -2,5 2,7l14 9c4,2 10,2 13,0l11 -7c3,-1 3,-5 -1,-7z"/>
   <path class="fil59" d="M1598 985l-14 -8c-4,-2 -9,-3 -12,-1l-12 7c-3,2 -2,5 1,7l15 9c4,2 9,2 12,1l12 -7c3,-2 2,-5 -2,-8z"/>
   <path class="fil59" d="M1573 1001l-14 -9c-4,-2 -10,-3 -13,-1l-11 7c-3,2 -3,5 1,8l15 8c3,2 9,3 12,1l11 -7c3,-2 3,-5 -1,-7z"/>
   <path class="fil59" d="M1548 1016l-15 -9c-4,-2 -9,-2 -12,0l-12 7c-3,1 -2,5 2,7l14 8c4,3 10,3 13,1l11 -7c3,-2 2,-5 -1,-7z"/>
   <path class="fil59" d="M1810 894l-14 -8c-4,-2 -10,-3 -13,-1l-11 7c-3,2 -3,5 1,7l15 9c3,2 9,2 12,1l11 -7c3,-2 3,-5 -1,-8z"/>
   <path class="fil59" d="M1785 910l-15 -9c-4,-2 -9,-3 -12,-1l-12 7c-3,2 -2,5 2,8l14 8c4,2 9,3 13,1l11 -7c3,-2 2,-5 -1,-7z"/>
   <path class="fil59" d="M1759 925l-14 -9c-4,-2 -10,-2 -13,0l-11 7c-3,1 -2,5 1,7l15 8c4,3 9,3 12,1l12 -7c3,-2 2,-5 -2,-7z"/>
   <path class="fil59" d="M1734 940l-15 -8c-3,-3 -9,-3 -12,-1l-11 7c-3,2 -3,5 1,7l14 9c4,2 10,2 13,1l11 -7c3,-2 3,-6 -1,-8z"/>
   <path class="fil59" d="M1709 955l-15 -8c-4,-2 -9,-3 -12,-1l-12 7c-3,2 -2,5 2,8l14 8c4,2 9,3 12,1l12 -7c3,-2 2,-5 -1,-8z"/>
   <path class="fil59" d="M1680 973l-15 -9c-3,-2 -9,-2 -12,0l-12 6c-3,2 -2,6 2,8l14 8c4,3 10,3 13,1l11 -7c3,-2 3,-5 -1,-7z"/>
   <path class="fil59" d="M1655 988l-15 -8c-4,-3 -9,-3 -12,-1l-12 7c-3,2 -2,5 2,7l14 9c4,2 9,2 12,0l12 -7c3,-1 2,-5 -1,-7z"/>
   <path class="fil59" d="M1629 1003l-14 -8c-4,-2 -10,-3 -13,-1l-11 7c-3,2 -3,5 1,7l15 9c3,2 9,3 12,1l12 -7c3,-2 2,-5 -2,-8z"/>
   <path class="fil59" d="M1604 1019l-15 -9c-3,-2 -9,-2 -12,-1l-12 7c-3,2 -2,6 2,8l14 8c4,3 10,3 13,1l11 -7c3,-2 3,-5 -1,-7z"/>
   <path class="fil59" d="M1578 1034l-14 -9c-4,-2 -9,-2 -12,0l-12 7c-3,2 -2,5 1,7l15 9c4,2 9,2 12,0l12 -7c3,-1 2,-5 -2,-7z"/>
  </g>
 </g>
</svg>
