<?xml version="1.0" encoding="UTF-8"?>
<!DOCTYPE svg PUBLIC "-//W3C//DTD SVG 1.1//EN" "http://www.w3.org/Graphics/SVG/1.1/DTD/svg11.dtd">
<!-- Creator: CorelDRAW X8 -->
<svg xmlns="http://www.w3.org/2000/svg" xml:space="preserve" width="19.1354mm" height="16.6163mm" version="1.1" style="shape-rendering:geometricPrecision; text-rendering:geometricPrecision; image-rendering:optimizeQuality; fill-rule:evenodd; clip-rule:evenodd"
viewBox="0 0 605 525"
 xmlns:xlink="http://www.w3.org/1999/xlink">
 <defs>
  <style type="text/css">
   <![CDATA[
    .fil0 {fill:#E0E0E0}
    .fil4 {fill:#FEFEFE;fill-rule:nonzero}
    .fil5 {fill:#373435;fill-rule:nonzero}
    .fil11 {fill:#F9A750;fill-rule:nonzero}
    .fil7 {fill:#C3B0B7;fill-rule:nonzero}
    .fil3 {fill:#786260;fill-rule:nonzero}
    .fil6 {fill:#5B4543;fill-rule:nonzero}
    .fil14 {fill:#757676;fill-rule:nonzero}
    .fil1 {fill:#423635;fill-rule:nonzero}
    .fil2 {fill:#636364;fill-rule:nonzero}
    .fil9 {fill:#3F3F3F;fill-rule:nonzero}
    .fil13 {fill:#282829;fill-rule:nonzero}
    .fil15 {fill:#3B444D;fill-rule:nonzero}
    .fil8 {fill:#8F190E;fill-rule:nonzero}
    .fil12 {fill:#A82116;fill-rule:nonzero}
    .fil10 {fill:#DB2C1C;fill-rule:nonzero}
   ]]>
  </style>
 </defs>
 <g id="Capa_x0020_1">
  <metadata id="CorelCorpID_0Corel-Layer"/>
  <rect class="fil0" transform="matrix(0.882305 -0.503661 0.882305 0.503661 -0.000402379 352.478)" width="343" height="343"/>
  <g id="_2545295219168">
   <path class="fil1" d="M320 198c-10,10 -23,29 -27,36l-33 19 0 28 0 1 70 -41c-1,-3 -2,-7 -2,-11 0,-16 10,-34 22,-41 3,-2 6,-3 9,-3l0 -14c-12,6 -26,13 -39,26z"/>
   <path class="fil2" d="M323 202c-10,10 -21,27 -26,34l-34 20 0 29 0 0 71 -41c-2,-3 -2,-6 -2,-10 0,-16 10,-35 22,-42 3,-2 6,-3 8,-2l0 -14c-12,5 -26,12 -39,26z"/>
   <polygon class="fil1" points="353,180 348,178 348,18 357,8 "/>
   <polygon class="fil3" points="362,180 353,186 353,18 362,8 "/>
   <path class="fil1" d="M357 0l-54 31c-17,10 -31,34 -34,58l-11 164 5 4 5 -10 9 -155c3,-21 16,-42 30,-50l50 -29 0 -13z"/>
   <polygon class="fil1" points="362,4 357,0 350,4 357,10 "/>
   <path class="fil3" d="M362 4l-54 31c-17,10 -31,34 -34,58l-11 163 0 2 10 -7 10 -155c2,-21 15,-42 30,-50l49 -29 0 -13z"/>
   <path class="fil1" d="M272 284c0,12 -8,27 -18,33 -10,5 -17,0 -17,-13 0,-13 7,-28 17,-34 10,-5 18,1 18,14z"/>
   <polygon class="fil1" points="256,325 243,318 266,270 278,276 "/>
   <path class="fil1" d="M285 291c0,13 -8,28 -18,33 -9,6 -17,0 -17,-13 0,-13 8,-28 17,-33 10,-6 18,0 18,13z"/>
   <path class="fil4" d="M281 293c0,11 -6,22 -14,27 -7,4 -13,-1 -13,-11 0,-10 6,-22 13,-26 8,-4 14,0 14,10z"/>
   <path class="fil1" d="M278 295c0,8 -5,17 -11,20 -6,3 -10,0 -10,-8 0,-7 4,-16 10,-19 6,-4 11,0 11,7z"/>
   <path class="fil4" d="M271 299c0,3 -2,6 -4,8 -2,1 -4,0 -4,-3 0,-3 2,-7 4,-8 2,-1 4,0 4,3z"/>
   <path class="fil5" d="M454 235l-92 -53c-11,5 -23,12 -35,24 -10,10 -22,29 -27,36l-26 15 0 29 42 -25 78 48 60 -74z"/>
   <polygon class="fil6" points="356,110 362,106 370,110 361,117 "/>
   <polygon class="fil6" points="461,162 362,106 362,181 461,238 "/>
   <polygon class="fil3" points="404,90 308,35 308,40 404,96 "/>
   <polygon class="fil3" points="431,75 335,20 335,24 431,80 "/>
   <polygon class="fil5" points="432,248 449,238 356,185 340,195 "/>
   <polygon class="fil5" points="454,167 356,110 356,185 454,242 "/>
   <path class="fil1" d="M459 262c0,13 -8,28 -17,33 -10,6 -18,0 -18,-13 0,-13 8,-28 18,-33 9,-6 17,0 17,13z"/>
   <polygon class="fil1" points="444,303 431,296 454,248 466,255 "/>
   <path class="fil1" d="M472 269c0,13 -7,28 -17,34 -10,5 -18,-1 -18,-14 0,-13 8,-27 18,-33 10,-6 17,0 17,13z"/>
   <path class="fil7" d="M469 272c0,10 -6,21 -14,26 -8,4 -14,0 -14,-10 0,-11 6,-22 14,-27 8,-4 14,1 14,11z"/>
   <path class="fil4" d="M465 274c0,7 -4,16 -10,19 -6,4 -10,0 -10,-7 0,-8 4,-17 10,-20 6,-3 10,0 10,8z"/>
   <path class="fil5" d="M459 277c0,3 -2,7 -4,8 -2,1 -4,0 -4,-3 0,-3 2,-6 4,-8 2,-1 4,0 4,3z"/>
   <polygon class="fil1" points="258,252 258,282 365,343 365,314 "/>
   <path class="fil1" d="M421 256c-10,10 -22,29 -27,36l-33 19 0 29 0 0 71 -41c-1,-3 -2,-7 -2,-11 0,-16 10,-34 22,-41 3,-2 6,-3 9,-3l0 -13c-13,5 -27,12 -40,25z"/>
   <path class="fil3" d="M424 260c-10,10 -21,28 -26,35l-33 19 0 29 0 1 70 -42c-1,-3 -2,-6 -2,-10 0,-16 10,-35 22,-42 3,-2 6,-2 9,-2l0 -14c-12,5 -27,12 -40,26z"/>
   <path class="fil8" d="M368 243c-4,-1 -13,-4 -17,-7 -6,-3 -12,-8 -16,-12 -1,-2 -4,-9 2,-12l20 -12c6,-4 16,-5 21,-1 4,4 13,11 17,13 4,3 12,5 16,6 5,2 4,9 -2,12l-20 12c-6,3 -16,2 -21,1z"/>
   <path class="fil9" d="M351 212c0,0 -15,-7 -16,-3 -2,5 -2,9 -2,9l18 1 0 -7z"/>
   <path class="fil8" d="M412 213c-2,-4 -17,4 -17,4l0 7 19 -1c0,0 1,-7 -2,-10z"/>
   <path class="fil10" d="M368 233c-4,-1 -12,-4 -16,-6 -4,-2 -12,-8 -15,-12 -2,-2 -5,-8 1,-12l20 -11c5,-4 15,-5 20,-1 4,3 12,11 16,13 4,2 12,4 15,6 5,2 5,8 -1,11l-20 11c-6,4 -15,3 -20,1z"/>
   <path class="fil8" d="M422 201l0 -34c0,-12 -7,-26 -16,-32l-9 -5c-9,-5 -16,1 -16,13l0 34 41 24z"/>
   <polygon class="fil11" points="386,130 379,134 385,138 "/>
   <polygon class="fil8" points="415,206 422,201 414,193 "/>
   <path class="fil12" d="M415 206l0 -35c0,-12 -7,-26 -16,-32l-9 -5c-9,-5 -16,1 -16,13l0 35 41 24z"/>
   <path class="fil13" d="M318 201c-1,0 -2,0 -3,0 -3,2 -5,6 -5,11 0,11 7,24 15,29 3,2 6,2 9,1 2,-2 4,-6 4,-11 0,-11 -7,-24 -15,-29 -2,-1 -4,-1 -5,-1zm12 46c-2,0 -4,-1 -7,-2 -9,-6 -17,-20 -17,-33 0,-6 3,-12 7,-14 3,-2 8,-2 12,1 10,5 17,19 17,32 0,7 -2,12 -6,14 -2,1 -4,2 -6,2z"/>
   <polygon class="fil5" points="365,314 398,295 293,234 259,253 "/>
   <polygon class="fil3" points="340,257 330,263 289,239 299,234 "/>
   <polygon class="fil6" points="289,239 289,272 330,295 330,263 "/>
   <polygon class="fil3" points="340,257 330,263 330,295 340,288 "/>
   <polygon class="fil3" points="284,125 268,134 268,324 284,314 "/>
   <polygon class="fil1" points="261,130 261,314 268,318 268,134 "/>
   <polygon class="fil6" points="284,125 277,120 261,130 268,134 "/>
   <polygon class="fil12" points="302,155 275,139 275,145 302,161 "/>
   <polygon class="fil10" points="316,157 279,137 275,139 316,163 "/>
   <polygon class="fil12" points="302,177 275,161 275,167 302,183 "/>
   <polygon class="fil10" points="316,179 279,158 275,161 316,184 "/>
   <polygon class="fil3" points="319,146 303,155 303,339 319,330 "/>
   <polygon class="fil1" points="296,151 296,335 303,339 303,155 "/>
   <polygon class="fil6" points="319,146 312,141 296,151 303,155 "/>
   <path class="fil1" d="M347 326c0,13 -8,28 -18,33 -9,6 -17,0 -17,-13 0,-13 8,-28 17,-33 10,-6 18,0 18,13z"/>
   <polygon class="fil1" points="331,368 318,361 341,312 353,319 "/>
   <path class="fil1" d="M360 333c0,13 -8,28 -18,34 -9,5 -17,-1 -17,-13 0,-13 8,-28 17,-34 10,-5 18,1 18,13z"/>
   <path class="fil7" d="M356 336c0,10 -6,22 -14,26 -7,4 -13,0 -13,-10 0,-10 6,-22 13,-26 8,-5 14,0 14,10z"/>
   <path class="fil4" d="M353 338c0,8 -5,16 -11,20 -5,3 -10,-1 -10,-8 0,-8 5,-17 10,-20 6,-3 11,0 11,8z"/>
   <path class="fil5" d="M346 342c0,3 -2,6 -4,7 -2,1 -4,0 -4,-3 0,-3 2,-6 4,-7 2,-2 4,0 4,3z"/>
   <polygon class="fil1" points="454,238 449,236 449,76 459,67 "/>
   <polygon class="fil3" points="464,238 454,244 454,76 464,67 "/>
   <polygon class="fil3" points="455,61 359,6 359,11 455,67 "/>
   <path class="fil1" d="M459 59l-55 30c-16,10 -31,34 -34,58l-11 164 10 -6 10 -155c3,-21 15,-42 30,-50l50 -29 5 -9 -5 -3z"/>
   <polygon class="fil1" points="363,316 359,311 365,302 370,310 "/>
   <path class="fil3" d="M464 62l-3 2 -5 3 -47 26c-16,10 -31,34 -34,58l-10 163 0 2 10 -7 9 -155c3,-21 15,-42 30,-50l50 -29 0 -13z"/>
   <polygon class="fil8" points="257,228 253,230 253,315 257,313 "/>
   <polygon class="fil10" points="317,301 312,304 253,269 257,267 "/>
   <polygon class="fil6" points="317,337 312,339 253,305 257,302 "/>
   <polygon class="fil12" points="312,264 247,227 247,233 312,270 "/>
   <polygon class="fil10" points="317,281 312,284 253,250 257,247 "/>
   <polygon class="fil8" points="317,262 312,264 312,350 317,347 "/>
   <polygon class="fil10" points="317,262 312,264 247,227 252,224 "/>
   <polygon class="fil12" points="312,284 247,246 247,253 312,290 "/>
   <polygon class="fil12" points="312,304 247,266 247,272 312,310 "/>
   <polygon class="fil12" points="253,315 247,312 247,228 253,231 "/>
   <polygon class="fil12" points="312,350 307,347 307,262 312,265 "/>
   <polygon class="fil1" points="312,339 247,302 247,311 312,348 "/>
   <polygon class="fil14" points="317,351 189,425 173,416 301,342 "/>
   <polygon class="fil3" points="189,425 189,421 317,348 317,351 "/>
   <polygon class="fil1" points="173,412 173,416 189,425 189,421 "/>
   <polygon class="fil6" points="317,347 189,421 173,412 301,338 "/>
   <polygon class="fil14" points="263,320 135,394 119,384 247,311 "/>
   <polygon class="fil3" points="135,394 135,390 263,316 263,320 "/>
   <polygon class="fil1" points="119,381 119,384 135,394 135,390 "/>
   <polygon class="fil6" points="263,316 135,390 119,381 247,307 "/>
   <polygon class="fil1" points="410,89 309,31 305,34 405,92 "/>
   <polygon class="fil1" points="437,73 336,15 332,18 432,76 "/>
   <polygon class="fil1" points="464,62 459,59 357,0 353,3 456,63 "/>
   <path class="fil1" d="M323 35c0,4 -5,7 -12,7 -7,0 -13,-3 -13,-7 0,-4 6,-7 13,-7 7,0 12,3 12,7z"/>
   <polygon class="fil1" points="298,35 323,35 323,33 298,33 "/>
   <path class="fil3" d="M323 33c0,3 -5,6 -12,6 -7,0 -13,-3 -13,-6 0,-4 6,-7 13,-7 7,0 12,3 12,7z"/>
   <path class="fil10" d="M321 32c0,3 -4,6 -10,6 -6,0 -10,-3 -10,-6 0,-3 4,-5 10,-5 6,0 10,2 10,5z"/>
   <polygon class="fil10" points="302,10 301,32 321,32 319,10 "/>
   <path class="fil8" d="M319 10c0,2 -3,4 -8,4 -5,0 -9,-2 -9,-4 0,-3 4,-5 9,-5 5,0 8,2 8,5z"/>
   <path class="fil8" d="M317 10c0,2 -3,3 -6,3 -3,0 -6,-1 -6,-3 0,-2 3,-3 6,-3 3,0 6,1 6,3z"/>
   <g>
    <path class="fil15" d="M459 277c0,3 -2,7 -4,8 -2,1 -4,0 -4,-3 0,-3 2,-7 4,-8 2,-2 4,0 4,3z"/>
    <path class="fil15" d="M456 270c0,1 0,1 -1,2 0,0 -1,0 -1,-1 0,-1 1,-1 1,-2 1,0 1,1 1,1z"/>
    <path class="fil15" d="M461 270c0,1 0,1 0,2 -1,0 -1,0 -1,-1 0,-1 0,-1 1,-2 0,0 0,1 0,1z"/>
    <path class="fil15" d="M451 276c0,1 0,1 -1,2 0,0 -1,0 -1,-1 0,0 1,-1 1,-1 1,-1 1,0 1,0z"/>
    <path class="fil15" d="M461 281c0,1 0,2 0,2 -1,0 -1,0 -1,-1 0,0 0,-1 1,-1 0,0 0,0 0,0z"/>
    <path class="fil15" d="M451 288c0,0 0,1 -1,1 0,0 -1,0 -1,-1 0,0 1,-1 1,-1 1,0 1,0 1,1z"/>
    <path class="fil15" d="M463 275c0,1 -1,2 -1,2 0,0 -1,0 -1,-1 0,0 1,-1 1,-1 0,-1 1,0 1,0z"/>
    <path class="fil15" d="M449 283c0,1 0,1 0,2 -1,0 -1,0 -1,-1 0,-1 0,-1 1,-2 0,0 0,1 0,1z"/>
    <path class="fil15" d="M456 288c0,0 0,1 -1,1 0,0 -1,0 -1,-1 0,0 1,-1 1,-1 1,0 1,0 1,1z"/>
   </g>
   <g>
    <path class="fil15" d="M347 342c0,3 -2,7 -5,8 -2,1 -4,0 -4,-3 0,-3 2,-7 4,-8 3,-2 5,0 5,3z"/>
    <path class="fil15" d="M343 335c0,1 0,1 -1,2 0,0 0,0 0,-1 0,-1 0,-1 0,-1 1,-1 1,0 1,0z"/>
    <path class="fil15" d="M349 335c0,1 -1,1 -1,2 -1,0 -1,0 -1,-1 0,-1 0,-1 1,-1 0,-1 1,0 1,0z"/>
    <path class="fil15" d="M338 341c0,1 0,1 -1,2 0,0 -1,0 -1,-1 0,0 1,-1 1,-1 1,-1 1,0 1,0z"/>
    <path class="fil15" d="M349 347c0,0 -1,1 -1,1 -1,0 -1,0 -1,-1 0,0 0,-1 1,-1 0,0 1,0 1,1z"/>
    <path class="fil15" d="M338 353c0,0 0,1 -1,1 0,0 -1,0 -1,0 0,-1 1,-2 1,-2 1,0 1,0 1,1z"/>
    <path class="fil15" d="M350 340c0,1 0,2 -1,2 0,0 -1,0 -1,-1 0,0 1,-1 1,-1 1,0 1,0 1,0z"/>
    <path class="fil15" d="M336 348c0,1 0,1 0,2 -1,0 -1,0 -1,-1 0,-1 0,-1 1,-1 0,-1 0,0 0,0z"/>
    <path class="fil15" d="M343 353c0,0 0,1 -1,1 0,0 0,0 0,0 0,-1 0,-2 0,-2 1,0 1,0 1,1z"/>
   </g>
  </g>
 </g>
</svg>
