<?xml version="1.0" encoding="UTF-8"?>
<!DOCTYPE svg PUBLIC "-//W3C//DTD SVG 1.1//EN" "http://www.w3.org/Graphics/SVG/1.1/DTD/svg11.dtd">
<!-- Creator: CorelDRAW X8 -->
<svg xmlns="http://www.w3.org/2000/svg" xml:space="preserve" width="19.1354mm" height="16.679mm" version="1.1" style="shape-rendering:geometricPrecision; text-rendering:geometricPrecision; image-rendering:optimizeQuality; fill-rule:evenodd; clip-rule:evenodd"
viewBox="0 0 197 172"
 xmlns:xlink="http://www.w3.org/1999/xlink">
 <defs>
  <style type="text/css">
   <![CDATA[
    .fil1 {fill:#CECECE}
    .fil0 {fill:#E0E0E0}
    .fil14 {fill:#FEFEFE;fill-rule:nonzero}
    .fil15 {fill:#FAC5B5;fill-rule:nonzero}
    .fil18 {fill:#AE3436;fill-rule:nonzero}
    .fil11 {fill:#786260;fill-rule:nonzero}
    .fil10 {fill:#5B4543;fill-rule:nonzero}
    .fil9 {fill:#423635;fill-rule:nonzero}
    .fil13 {fill:#575757;fill-rule:nonzero}
    .fil19 {fill:#327793;fill-rule:nonzero}
    .fil12 {fill:#2D2D2D;fill-rule:nonzero}
    .fil6 {fill:#63767C;fill-rule:nonzero}
    .fil3 {fill:#71787B;fill-rule:nonzero}
    .fil2 {fill:#91A5AF;fill-rule:nonzero}
    .fil16 {fill:#A82116;fill-rule:nonzero}
    .fil8 {fill:#BECFD8;fill-rule:nonzero}
    .fil5 {fill:#CECECE;fill-rule:nonzero}
    .fil7 {fill:#D0DCE3;fill-rule:nonzero}
    .fil17 {fill:#DB2C1C;fill-rule:nonzero}
    .fil4 {fill:#EAEAEA;fill-rule:nonzero}
   ]]>
  </style>
 </defs>
 <g id="Capa_x0020_1">
  <metadata id="CorelCorpID_0Corel-Layer"/>
  <rect class="fil0" transform="matrix(0.882305 -0.503661 0.882305 0.503661 -0.000131054 115.446)" width="112" height="112"/>
  <polygon class="fil1" points="92,13 92,70 92,95 123,113 123,52 123,31 "/>
  <polygon class="fil2" points="123,31 146,18 146,100 123,113 "/>
  <polygon class="fil3" points="114,0 92,13 123,31 146,18 139,14 "/>
  <polygon class="fil2" points="112,37 112,61 119,56 119,32 "/>
  <polygon class="fil4" points="87,23 87,46 112,61 112,37 "/>
  <polygon class="fil3" points="112,37 119,32 94,18 87,23 "/>
  <polygon class="fil2" points="112,71 112,107 120,103 120,67 "/>
  <polygon class="fil4" points="87,57 87,93 112,107 112,71 "/>
  <polygon class="fil2" points="112,71 120,67 95,52 87,57 "/>
  <polygon class="fil5" points="101,43 101,62 101,62 101,98 108,94 108,83 108,75 108,74 108,63 108,52 108,38 "/>
  <polygon class="fil4" points="83,33 83,52 83,52 83,88 101,98 101,79 101,79 101,43 "/>
  <polygon class="fil3" points="101,43 108,38 90,28 83,33 "/>
  <path class="fil2" d="M107 43c0,0 0,0 0,0l-5 3c0,0 0,1 0,1 0,0 0,0 0,0l5 -3c1,0 1,-1 0,-1z"/>
  <path class="fil2" d="M107 61c0,0 0,0 0,0l-5 3c0,0 0,1 0,1 0,0 0,0 0,0l5 -3c0,0 0,0 0,-1z"/>
  <path class="fil2" d="M107 57c0,0 0,0 0,0l-5 3c0,0 0,0 0,0 0,0 0,0 0,0l5 -3c0,0 1,0 0,0z"/>
  <path class="fil2" d="M107 52c0,0 0,0 0,0l-5 3c0,0 0,1 0,1 0,0 0,0 0,0l5 -3c0,0 1,-1 0,-1z"/>
  <path class="fil2" d="M107 48c0,0 0,0 0,0l-5 3c0,0 0,0 0,0 0,0 0,0 0,0l5 -3c0,0 1,0 0,0z"/>
  <polygon class="fil3" points="113,72 113,80 118,77 118,69 "/>
  <path class="fil2" d="M107 66c0,0 0,0 0,0l-5 3c0,0 0,0 0,0 0,1 0,1 0,1l5 -4c1,0 1,0 0,0z"/>
  <path class="fil2" d="M107 84c0,0 0,0 0,0l-5 3c0,0 0,0 0,1 0,0 0,0 0,0l5 -3c0,-1 0,-1 0,-1z"/>
  <path class="fil2" d="M107 80c0,0 0,0 0,0l-5 3c0,0 0,0 0,0 0,0 0,0 0,0l5 -3c0,0 1,0 0,0z"/>
  <path class="fil2" d="M107 75c0,0 0,0 0,0l-5 3c0,0 0,0 0,1 0,0 0,0 0,0l5 -4c0,0 1,0 0,0z"/>
  <path class="fil2" d="M107 71c0,0 0,-1 0,0l-5 3c0,0 0,0 0,0 0,0 0,0 0,0l5 -3c0,0 1,0 0,0z"/>
  <path class="fil2" d="M107 89c0,-1 0,-1 0,-1l-5 4c0,0 0,0 0,0 0,0 0,0 0,0l5 -3c0,0 0,0 0,0z"/>
  <g id="_2545296111872">
   <polygon class="fil6" points="97,45 97,55 98,55 98,45 "/>
   <polygon class="fil7" points="83,37 83,47 97,55 97,45 "/>
   <path class="fil2" d="M97 45l1 0c0,-1 -13,-8 -14,-9l-1 1 14 8z"/>
   <polygon class="fil8" points="96,50 96,54 84,46 87,45 "/>
   <polygon class="fil3" points="84,46 84,39 87,40 87,45 "/>
   <polygon class="fil2" points="87,45 87,40 91,42 96,46 96,50 "/>
   <g>
    <polygon class="fil9" points="87,45 88,44 88,47 87,47 "/>
    <polygon class="fil10" points="85,44 86,44 88,44 87,45 "/>
    <polygon class="fil11" points="87,45 87,47 85,46 85,44 "/>
    <path class="fil12" d="M89 41c0,1 -1,1 -1,1 0,0 -1,0 -1,0 -1,1 -1,2 0,2 0,0 0,0 0,0 -1,0 -1,0 -1,0 0,0 0,-1 0,-2 1,0 1,-1 2,-1 0,0 1,0 1,0z"/>
   </g>
   <g>
    <polygon class="fil9" points="89,46 90,46 90,48 89,49 "/>
    <polygon class="fil10" points="88,46 89,45 90,46 89,46 "/>
    <polygon class="fil11" points="89,46 89,49 88,48 88,46 "/>
    <path class="fil12" d="M91 43c0,0 0,0 0,0 -1,0 -2,0 -2,1 0,0 0,1 0,2 0,0 0,0 0,0 0,0 0,0 0,0 0,-1 -1,-2 0,-2 0,-1 1,-1 2,-1 0,0 0,0 0,0z"/>
   </g>
   <g>
    <polygon class="fil9" points="92,48 93,47 93,50 92,50 "/>
    <polygon class="fil10" points="90,47 91,46 93,47 92,48 "/>
    <polygon class="fil11" points="92,48 92,50 90,49 90,47 "/>
    <path class="fil12" d="M93 44c0,0 0,1 0,1 -1,0 -1,0 -2,0 0,1 0,2 0,2 0,0 0,0 0,0 0,0 0,0 0,0 0,0 0,-1 0,-2 1,0 1,-1 2,-1 0,0 0,0 0,0z"/>
   </g>
   <g>
    <polygon class="fil9" points="94,49 95,49 95,51 94,52 "/>
    <polygon class="fil10" points="92,48 93,48 95,49 94,49 "/>
    <polygon class="fil11" points="94,49 94,52 92,51 92,48 "/>
    <path class="fil12" d="M96 46c0,0 0,0 -1,0 0,0 -1,0 -1,1 -1,0 0,1 0,1 0,0 0,1 0,1 0,0 0,0 -1,0 0,-1 0,-2 1,-3 0,0 1,0 2,0 0,0 0,0 0,0z"/>
   </g>
   <polygon class="fil6" points="97,58 97,68 98,67 98,57 "/>
   <polygon class="fil7" points="83,49 83,59 97,68 97,58 "/>
   <path class="fil2" d="M97 58l1 -1c0,-1 -13,-8 -14,-8l-1 0 14 9z"/>
   <polygon class="fil8" points="96,63 96,66 84,59 87,57 "/>
   <polygon class="fil3" points="84,59 84,51 87,53 87,57 "/>
   <polygon class="fil2" points="87,57 87,53 91,55 96,58 96,63 "/>
   <g>
    <polygon class="fil9" points="87,57 88,57 88,59 87,60 "/>
    <polygon class="fil10" points="85,56 86,56 88,57 87,57 "/>
    <polygon class="fil11" points="87,57 87,60 85,59 85,56 "/>
    <path class="fil12" d="M89 54c0,0 -1,0 -1,0 0,0 -1,0 -1,1 -1,0 -1,1 0,1 0,0 0,1 0,1 -1,0 -1,0 -1,0 0,-1 0,-2 0,-3 1,0 1,0 2,0 0,0 1,0 1,0z"/>
   </g>
   <g>
    <polygon class="fil9" points="89,59 90,58 90,60 89,61 "/>
    <polygon class="fil10" points="88,58 89,57 90,58 89,59 "/>
    <polygon class="fil11" points="89,59 89,61 88,60 88,58 "/>
    <path class="fil12" d="M91 55c0,0 0,0 0,0 -1,0 -2,1 -2,1 0,1 0,2 0,2 0,0 0,0 0,0 0,0 0,0 0,0 0,0 -1,-1 0,-2 0,-1 1,-1 2,-1 0,0 0,0 0,0z"/>
   </g>
   <g>
    <polygon class="fil9" points="92,60 93,60 93,62 92,62 "/>
    <polygon class="fil10" points="90,59 91,59 93,60 92,60 "/>
    <polygon class="fil11" points="92,60 92,62 90,62 90,59 "/>
    <path class="fil12" d="M93 57c0,0 0,0 0,0 -1,0 -1,0 -2,0 0,1 0,2 0,2 0,0 0,0 0,0 0,1 0,0 0,0 0,0 0,-1 0,-2 1,0 1,0 2,0 0,0 0,0 0,0z"/>
   </g>
   <g>
    <polygon class="fil9" points="94,62 95,61 95,63 94,64 "/>
    <polygon class="fil10" points="92,61 93,60 95,61 94,62 "/>
    <polygon class="fil11" points="94,62 94,64 92,63 92,61 "/>
    <path class="fil12" d="M96 58c0,0 0,0 -1,0 0,0 -1,0 -1,1 -1,1 0,1 0,2 0,0 0,0 0,0 0,0 0,0 -1,0 0,-1 0,-1 1,-2 0,-1 1,-1 2,-1 0,0 0,0 0,0z"/>
   </g>
   <polygon class="fil6" points="97,70 97,80 98,80 98,70 "/>
   <polygon class="fil7" points="83,62 83,72 97,80 97,70 "/>
   <path class="fil2" d="M97 70l1 0c0,-1 -13,-8 -14,-9l-1 1 14 8z"/>
   <polygon class="fil8" points="96,75 96,79 84,71 87,70 "/>
   <polygon class="fil3" points="84,71 84,64 87,65 87,70 "/>
   <polygon class="fil2" points="87,70 87,65 91,67 96,71 96,75 "/>
   <g>
    <polygon class="fil9" points="87,70 88,69 88,72 87,72 "/>
    <polygon class="fil10" points="85,69 86,69 88,69 87,70 "/>
    <polygon class="fil11" points="87,70 87,72 85,71 85,69 "/>
    <path class="fil12" d="M89 66c0,1 -1,1 -1,1 0,0 -1,0 -1,0 -1,1 -1,2 0,2 0,0 0,0 0,0 -1,0 -1,0 -1,0 0,0 0,-1 0,-2 1,0 1,-1 2,-1 0,0 1,0 1,0z"/>
   </g>
   <g>
    <polygon class="fil9" points="89,71 90,71 90,73 89,74 "/>
    <polygon class="fil10" points="88,71 89,70 90,71 89,71 "/>
    <polygon class="fil11" points="89,71 89,74 88,73 88,71 "/>
    <path class="fil12" d="M91 68c0,0 0,0 0,0 -1,0 -2,0 -2,1 0,0 0,1 0,2 0,0 0,0 0,0 0,0 0,0 0,0 0,-1 -1,-2 0,-2 0,-1 1,-1 2,-1 0,0 0,0 0,0z"/>
   </g>
   <g>
    <polygon class="fil9" points="92,73 93,72 93,75 92,75 "/>
    <polygon class="fil10" points="90,72 91,71 93,72 92,73 "/>
    <polygon class="fil11" points="92,73 92,75 90,74 90,72 "/>
    <path class="fil12" d="M93 69c0,0 0,1 0,1 -1,0 -1,0 -2,0 0,1 0,2 0,2 0,0 0,0 0,0 0,0 0,0 0,0 0,0 0,-1 0,-2 1,0 1,-1 2,-1 0,0 0,0 0,0z"/>
   </g>
   <g>
    <polygon class="fil9" points="94,74 95,74 95,76 94,77 "/>
    <polygon class="fil10" points="92,73 93,73 95,74 94,74 "/>
    <polygon class="fil11" points="94,74 94,77 92,76 92,73 "/>
    <path class="fil12" d="M96 71c0,0 0,0 -1,0 0,0 -1,0 -1,1 -1,0 0,1 0,1 0,0 0,1 0,1 0,0 0,0 -1,0 0,-1 0,-2 1,-3 0,0 1,0 2,0 0,0 0,0 0,0z"/>
   </g>
   <polygon class="fil6" points="97,83 97,93 98,92 98,82 "/>
   <polygon class="fil7" points="83,74 83,84 97,93 97,83 "/>
   <path class="fil2" d="M97 83l1 -1c0,-1 -13,-8 -14,-8l-1 0 14 9z"/>
   <polygon class="fil8" points="96,88 96,91 84,84 87,82 "/>
   <polygon class="fil3" points="84,84 84,76 87,77 87,82 "/>
   <polygon class="fil2" points="87,82 87,77 91,80 96,83 96,88 "/>
   <g>
    <polygon class="fil9" points="87,82 88,82 88,84 87,85 "/>
    <polygon class="fil10" points="85,81 86,81 88,82 87,82 "/>
    <polygon class="fil11" points="87,82 87,85 85,84 85,81 "/>
    <path class="fil12" d="M89 79c0,0 -1,0 -1,0 0,0 -1,0 -1,1 -1,0 -1,1 0,1 0,0 0,1 0,1 -1,0 -1,0 -1,0 0,-1 0,-2 0,-3 1,0 1,0 2,0 0,0 1,0 1,0z"/>
   </g>
   <g>
    <polygon class="fil9" points="89,84 90,83 90,85 89,86 "/>
    <polygon class="fil10" points="88,83 89,82 90,83 89,84 "/>
    <polygon class="fil11" points="89,84 89,86 88,85 88,83 "/>
    <path class="fil12" d="M91 80c0,0 0,0 0,0 -1,0 -2,1 -2,1 0,1 0,2 0,2 0,0 0,0 0,0 0,0 0,0 0,0 0,0 -1,-1 0,-2 0,-1 1,-1 2,-1 0,0 0,0 0,0z"/>
   </g>
   <g>
    <polygon class="fil9" points="92,85 93,85 93,87 92,87 "/>
    <polygon class="fil10" points="90,84 91,84 93,85 92,85 "/>
    <polygon class="fil11" points="92,85 92,87 90,87 90,84 "/>
    <path class="fil12" d="M93 82c0,0 0,0 0,0 -1,0 -1,0 -2,0 0,1 0,2 0,2 0,0 0,0 0,0 0,0 0,0 0,0 0,0 0,-1 0,-2 1,0 1,0 2,0 0,0 0,0 0,0z"/>
   </g>
   <g>
    <polygon class="fil9" points="94,87 95,86 95,88 94,89 "/>
    <polygon class="fil10" points="92,86 93,85 95,86 94,87 "/>
    <polygon class="fil11" points="94,87 94,89 92,88 92,86 "/>
    <path class="fil12" d="M96 83c0,0 0,0 -1,0 0,0 -1,0 -1,1 -1,1 0,1 0,2 0,0 0,0 0,0 0,0 0,0 -1,0 0,-1 0,-1 1,-2 0,-1 1,-1 2,-1 0,0 0,0 0,0z"/>
   </g>
  </g>
  <g id="_2545296135136">
   <polygon class="fil13" points="81,58 81,57 86,54 86,55 "/>
   <polygon class="fil13" points="63,43 63,47 60,45 60,41 "/>
   <polygon class="fil13" points="67,45 67,49 64,47 64,43 "/>
   <polygon class="fil14" points="79,52 79,57 72,52 72,48 "/>
   <path class="fil15" d="M58 53c2,-4 2,-8 0,-11l-4 0c0,0 -2,3 -2,6 -1,3 0,4 1,6 1,1 5,-1 5,-1l0 0z"/>
   <path class="fil9" d="M70 114c0,0 5,-2 7,-2 2,0 2,2 0,5 -3,2 -4,2 -7,3 -1,0 -2,1 -3,0 -2,-2 -1,-5 -1,-5l4 -1z"/>
   <path class="fil9" d="M57 106c0,0 3,-1 6,-1 2,0 3,1 0,4 -2,2 -4,2 -6,3 -2,1 -2,1 -4,0 -2,-2 0,-5 0,-5l4 -1z"/>
   <path class="fil10" d="M70 61c0,0 4,22 4,29 0,11 0,24 0,24 0,0 -2,2 -4,2 -4,0 -4,-2 -4,-2 0,0 0,-14 -1,-21 0,-4 0,-11 -2,-16 0,6 0,7 -1,13 0,4 -2,16 -2,17 -1,1 -6,3 -8,0 0,-2 2,-15 2,-22 -1,-6 -2,-21 1,-24 4,-3 15,0 15,0z"/>
   <path class="fil16" d="M59 48c0,-4 0,-5 0,-5l2 -7c0,0 -3,-2 -5,1 -1,1 -3,4 -4,6 1,2 4,5 7,5z"/>
   <path class="fil15" d="M65 23c-1,-2 -4,-1 -6,2 0,1 1,5 1,8 0,3 -1,4 -1,4 0,0 0,0 2,1 2,1 4,0 4,0l0 -4c0,0 2,0 3,0 1,-1 1,-4 1,-7 -1,-5 -3,-4 -4,-4z"/>
   <path class="fil17" d="M71 48c1,-2 -2,-7 -3,-8 0,-2 -3,-3 -3,-3 0,0 -3,-1 -4,-1 -1,-1 -2,-1 -2,-1 0,0 -4,6 -5,10 0,2 1,10 0,17 0,4 15,3 16,2 -1,-4 -2,-10 1,-16z"/>
   <path class="fil10" d="M54 50c0,0 1,5 0,8 0,3 -1,8 -1,8 0,0 5,3 10,3 5,-1 8,-4 8,-4 0,0 -2,-8 -2,-9 1,-2 1,-2 1,-2 0,0 -2,1 -4,1 -1,-1 -3,-2 -3,-5 -1,-2 -1,-7 0,-8 -1,0 -7,-2 -7,-2 0,0 -2,6 -2,10z"/>
   <path class="fil13" d="M67 28c0,-1 1,-2 1,-3 0,-1 0,-2 -1,-4 -1,-1 -5,-1 -7,0 -1,0 -4,2 -3,7 1,4 2,5 3,6 1,1 3,1 3,1 0,0 1,-1 1,-2 0,-1 0,-2 0,-2 0,0 -1,-3 0,-3 1,-1 2,0 2,1 1,1 1,2 1,-1z"/>
   <path class="fil15" d="M85 55c-2,0 -4,-1 -6,-1 -3,-1 -5,-2 -6,-3 0,-1 -1,-4 -1,-4l-6 3c0,0 1,3 2,5 1,1 2,2 3,2 2,1 8,1 10,1 0,0 1,1 1,1 2,0 3,0 4,0 2,-1 5,-2 6,-4 0,-1 1,-2 -1,-2 -2,0 -3,1 -4,1 -1,1 1,-2 0,-1 0,0 0,0 -2,1 0,0 0,0 0,1z"/>
   <path class="fil16" d="M66 51c3,1 5,0 7,-2 -1,-5 -3,-10 -5,-11 -1,0 -4,4 -3,7 0,1 0,3 1,6z"/>
   <path class="fil9" d="M54 62l0 2c0,0 2,2 9,2 6,0 8,-2 8,-2l0 -2c0,0 -4,2 -9,2 -4,0 -8,-2 -8,-2z"/>
   <path class="fil10" d="M61 42c0,0 0,-2 2,-4 1,-1 2,-1 2,-1 0,0 2,0 2,1 -1,0 -2,0 -3,2 -1,1 -2,4 -2,4l-1 -2z"/>
   <path class="fil10" d="M58 35c0,0 -1,2 -2,5 0,1 -1,4 -1,4l2 0c0,0 1,-5 1,-6 1,-2 2,-3 2,-3l-2 0z"/>
   <path class="fil15" d="M84 55c0,0 2,-1 2,-2 1,0 1,0 1,1 0,0 -1,1 -1,1 0,0 -1,0 -1,0l-1 0z"/>
   <path class="fil17" d="M65 22c3,0 4,2 3,4 -2,2 -5,4 -8,3 -3,0 -5,-2 -3,-4 1,-2 5,-4 8,-3z"/>
   <path class="fil17" d="M56 27c0,0 -1,-6 4,-8 4,-1 7,0 8,4 1,3 -12,4 -12,4z"/>
   <path class="fil16" d="M66 27c1,0 3,-2 2,-4 0,-1 -1,-2 -1,-2 0,0 1,0 3,0 2,1 3,3 1,4 -2,2 -5,2 -5,2z"/>
  </g>
  <path class="fil18" d="M88 69l0 0c2,1 3,2 4,2 1,-1 1,-3 1,-5 0,-1 -1,-1 -1,-1 0,-1 0,-1 0,-2 0,-1 -1,-4 2,-5 1,0 2,0 4,0 1,0 2,0 2,0 1,-1 1,-3 1,-5 -1,-3 -2,-5 -3,-6 -2,0 -4,2 -4,2l0 0c0,0 2,-3 4,-2 2,1 3,2 3,6 1,3 1,4 0,5 -1,1 -2,1 -4,0 -1,0 -2,0 -3,0 -2,2 -2,4 -1,5 0,1 0,1 0,2 0,0 0,0 0,1 0,2 0,4 -1,5 -1,0 -2,0 -4,-2z"/>
  <path class="fil19" d="M87 70l0 0c0,-1 0,-1 0,-1 2,1 4,1 6,0 1,-1 1,-2 1,-4 0,0 -1,-1 -1,-2 -2,-1 -3,-4 -3,-5 1,-1 1,-1 2,-1 1,-1 2,-1 3,-1 2,0 4,0 5,-1 1,-1 1,-2 1,-5 -1,-2 -2,-4 -3,-5 -3,0 -6,3 -6,3l0 -1c0,0 3,-3 6,-2 2,1 3,2 3,5 0,3 0,5 -1,6 -1,1 -3,1 -5,1 -1,0 -2,0 -3,0 -1,0 -1,1 -1,1 -1,1 1,4 2,5 1,1 1,2 1,2 1,2 0,3 -1,4 -1,1 -2,2 -5,0 -1,0 -1,0 -1,1z"/>
  <g id="_2545296140768">
   <polygon class="fil13" points="81,58 81,57 86,54 86,55 "/>
   <polygon class="fil13" points="63,43 63,47 60,45 60,41 "/>
   <polygon class="fil13" points="67,45 67,49 64,47 64,43 "/>
   <polygon class="fil14" points="79,52 79,57 72,52 72,48 "/>
   <path class="fil15" d="M58 53c2,-4 2,-8 0,-11l-4 0c0,0 -2,3 -2,6 -1,3 0,4 1,6 1,1 5,-1 5,-1l0 0z"/>
   <path class="fil9" d="M70 114c0,0 5,-2 7,-2 2,0 2,2 0,5 -3,2 -4,2 -7,3 -1,0 -2,1 -3,0 -2,-2 -1,-5 -1,-5l4 -1z"/>
   <path class="fil9" d="M57 106c0,0 3,-1 6,-1 2,0 3,1 0,4 -2,2 -4,2 -6,3 -2,1 -2,1 -4,0 -2,-2 0,-5 0,-5l4 -1z"/>
   <path class="fil10" d="M70 61c0,0 4,22 4,29 0,11 0,24 0,24 0,0 -2,2 -4,2 -4,0 -4,-2 -4,-2 0,0 0,-14 -1,-21 0,-4 0,-11 -2,-16 0,6 0,7 -1,13 0,4 -2,16 -2,17 -1,1 -6,3 -8,0 0,-2 2,-15 2,-22 -1,-6 -2,-21 1,-24 4,-3 15,0 15,0z"/>
   <path class="fil16" d="M59 48c0,-4 0,-5 0,-5l2 -7c0,0 -3,-2 -5,1 -1,1 -3,4 -4,6 1,2 4,5 7,5z"/>
   <path class="fil15" d="M65 23c-1,-2 -4,-1 -6,2 0,1 1,5 1,8 0,3 -1,4 -1,4 0,0 0,0 2,1 2,1 4,0 4,0l0 -4c0,0 2,0 3,0 1,-1 1,-4 1,-7 -1,-5 -3,-4 -4,-4z"/>
   <path class="fil17" d="M71 48c1,-2 -2,-7 -3,-8 0,-2 -3,-3 -3,-3 0,0 -3,-1 -4,-1 -1,-1 -2,-1 -2,-1 0,0 -4,6 -5,10 0,2 1,10 0,17 0,4 15,3 16,2 -1,-4 -2,-10 1,-16z"/>
   <path class="fil10" d="M54 50c0,0 1,5 0,8 0,3 -1,8 -1,8 0,0 5,3 10,3 5,-1 8,-4 8,-4 0,0 -2,-8 -2,-9 1,-2 1,-2 1,-2 0,0 -2,1 -4,1 -1,-1 -3,-2 -3,-5 -1,-2 -1,-7 0,-8 -1,0 -7,-2 -7,-2 0,0 -2,6 -2,10z"/>
   <path class="fil13" d="M67 28c0,-1 1,-2 1,-3 0,-1 0,-2 -1,-4 -1,-1 -5,-1 -7,0 -1,0 -4,2 -3,7 1,4 2,5 3,6 1,1 3,1 3,1 0,0 1,-1 1,-2 0,-1 0,-2 0,-2 0,0 -1,-3 0,-3 1,-1 2,0 2,1 1,1 1,2 1,-1z"/>
   <path class="fil15" d="M85 55c-2,0 -4,-1 -6,-1 -3,-1 -5,-2 -6,-3 0,-1 -1,-4 -1,-4l-6 3c0,0 1,3 2,5 1,1 2,2 3,2 2,1 8,1 10,1 0,0 1,1 1,1 2,0 3,0 4,0 2,-1 5,-2 6,-4 0,-1 1,-2 -1,-2 -2,0 -3,1 -4,1 -1,1 1,-2 0,-1 0,0 0,0 -2,1 0,0 0,0 0,1z"/>
   <path class="fil16" d="M66 51c3,1 5,0 7,-2 -1,-5 -3,-10 -5,-11 -1,0 -4,4 -3,7 0,1 0,3 1,6z"/>
   <path class="fil9" d="M54 62l0 2c0,0 2,2 9,2 6,0 8,-2 8,-2l0 -2c0,0 -4,2 -9,2 -4,0 -8,-2 -8,-2z"/>
   <path class="fil10" d="M61 42c0,0 0,-2 2,-4 1,-1 2,-1 2,-1 0,0 2,0 2,1 -1,0 -2,0 -3,2 -1,1 -2,4 -2,4l-1 -2z"/>
   <path class="fil10" d="M58 35c0,0 -1,2 -2,5 0,1 -1,4 -1,4l2 0c0,0 1,-5 1,-6 1,-2 2,-3 2,-3l-2 0z"/>
   <path class="fil15" d="M84 55c0,0 2,-1 2,-2 1,0 1,0 1,1 0,0 -1,1 -1,1 0,0 -1,0 -1,0l-1 0z"/>
   <path class="fil17" d="M65 22c3,0 4,2 3,4 -2,2 -5,4 -8,3 -3,0 -5,-2 -3,-4 1,-2 5,-4 8,-3z"/>
   <path class="fil17" d="M56 27c0,0 -1,-6 4,-8 4,-1 7,0 8,4 1,3 -12,4 -12,4z"/>
   <path class="fil16" d="M66 27c1,0 3,-2 2,-4 0,-1 -1,-2 -1,-2 0,0 1,0 3,0 2,1 3,3 1,4 -2,2 -5,2 -5,2z"/>
  </g>
 </g>
</svg>
