<?xml version="1.0" encoding="UTF-8"?>
<!DOCTYPE svg PUBLIC "-//W3C//DTD SVG 1.1//EN" "http://www.w3.org/Graphics/SVG/1.1/DTD/svg11.dtd">
<!-- Creator: CorelDRAW X8 -->
<svg xmlns="http://www.w3.org/2000/svg" xml:space="preserve" width="19.1354mm" height="16.7201mm" version="1.1" style="shape-rendering:geometricPrecision; text-rendering:geometricPrecision; image-rendering:optimizeQuality; fill-rule:evenodd; clip-rule:evenodd"
viewBox="0 0 19996 17472"
 xmlns:xlink="http://www.w3.org/1999/xlink">
 <defs>
  <style type="text/css">
   <![CDATA[
    .fil16 {fill:#75787A}
    .fil11 {fill:#8BA3BA}
    .fil13 {fill:#8F190E}
    .fil8 {fill:#A82116}
    .fil1 {fill:#B4C4D4}
    .fil10 {fill:#BA4217}
    .fil9 {fill:#D15527}
    .fil17 {fill:#D8D8D8}
    .fil7 {fill:#DB2C1C}
    .fil0 {fill:#E0E0E0}
    .fil15 {fill:#F99F3C}
    .fil12 {fill:white}
    .fil41 {fill:#FEFEFE;fill-rule:nonzero}
    .fil40 {fill:#FEE1C0;fill-rule:nonzero}
    .fil39 {fill:#E9B77D;fill-rule:nonzero}
    .fil38 {fill:#DCAA6A;fill-rule:nonzero}
    .fil31 {fill:#5B4543;fill-rule:nonzero}
    .fil37 {fill:#3B444D;fill-rule:nonzero}
    .fil24 {fill:#3D3E3F;fill-rule:nonzero}
    .fil19 {fill:#3FACCC;fill-rule:nonzero}
    .fil32 {fill:#444444;fill-rule:nonzero}
    .fil35 {fill:#595959;fill-rule:nonzero}
    .fil21 {fill:#686A6C;fill-rule:nonzero}
    .fil25 {fill:#6A6A69;fill-rule:nonzero}
    .fil30 {fill:#757573;fill-rule:nonzero}
    .fil18 {fill:#75787A;fill-rule:nonzero}
    .fil28 {fill:#767675;fill-rule:nonzero}
    .fil29 {fill:#82827E;fill-rule:nonzero}
    .fil34 {fill:#828282;fill-rule:nonzero}
    .fil3 {fill:#8F190E;fill-rule:nonzero}
    .fil6 {fill:#94979B;fill-rule:nonzero}
    .fil22 {fill:#979B9E;fill-rule:nonzero}
    .fil4 {fill:#A82116;fill-rule:nonzero}
    .fil23 {fill:#AA9415;fill-rule:nonzero}
    .fil36 {fill:#B2B2B2;fill-rule:nonzero}
    .fil33 {fill:#B5B8BD;fill-rule:nonzero}
    .fil26 {fill:#BABABA;fill-rule:nonzero}
    .fil27 {fill:#BDBFC1;fill-rule:nonzero}
    .fil2 {fill:#C1A816;fill-rule:nonzero}
    .fil5 {fill:#C4C7CC;fill-rule:nonzero}
    .fil20 {fill:#D8D8D8;fill-rule:nonzero}
    .fil14 {fill:#DB2C1C;fill-rule:nonzero}
   ]]>
  </style>
 </defs>
 <g id="Capa_x0020_1">
  <metadata id="CorelCorpID_0Corel-Layer"/>
  <rect class="fil0" transform="matrix(0.882305 -0.503661 0.882305 0.503661 -0.0133064 11764.6)" width="11332" height="11332"/>
  <g id="_2545273952432">
   <polygon class="fil1" points="2628,9951 4416,11010 4410,12370 2623,11309 "/>
   <path class="fil2" d="M8459 7340c415,239 750,820 749,1296 -2,477 -339,669 -754,429 -414,-239 -749,-819 -748,-1296 1,-477 338,-669 753,-429z"/>
   <polygon class="fil3" points="6894,7072 6988,7017 8394,7200 8300,7255 "/>
   <polygon class="fil3" points="9702,8693 9797,8638 9794,9751 9699,9805 "/>
   <polygon class="fil3" points="8300,7255 8394,7200 9797,8638 9702,8693 "/>
   <polygon class="fil4" points="8300,7255 9702,8693 9699,9805 6890,8184 6894,7072 "/>
   <path class="fil5" d="M7099 7309l0 0c-26,-73 -96,-127 -137,-103l-38 22c35,-21 93,16 125,76 23,44 33,111 -4,132l38 -21c28,-16 31,-61 16,-106z"/>
   <path class="fil6" d="M6985 7233c47,28 85,94 85,149 0,54 -39,76 -86,49 -47,-28 -86,-94 -86,-148 1,-55 39,-77 87,-50z"/>
   <path class="fil5" d="M8316 7459l0 0c-27,-74 -96,-128 -138,-103l-38 21c36,-21 93,16 126,76 23,45 33,111 -4,133l38 -22c27,-16 31,-60 16,-105z"/>
   <path class="fil6" d="M8202 7383c47,27 85,94 85,148 0,54 -39,76 -86,49 -47,-27 -86,-94 -85,-148 0,-54 38,-76 86,-49z"/>
   <path class="fil5" d="M9636 8769l0 0c-26,-73 -95,-128 -137,-103l-38 22c36,-21 93,15 125,76 24,44 34,111 -3,132l38 -21c27,-17 31,-61 15,-106z"/>
   <path class="fil6" d="M9522 8693c47,28 86,94 86,148 0,55 -39,77 -86,49 -48,-27 -86,-93 -86,-148 0,-54 39,-76 86,-49z"/>
   <polygon class="fil7" points="2628,9951 4416,11010 9292,8219 7504,7161 "/>
   <polygon class="fil8" points="4410,12370 4416,11010 9292,8219 9286,9579 "/>
   <path class="fil9" d="M8529 9721c160,49 377,-115 484,-368 108,-252 65,-496 -94,-546 -160,-49 -377,116 -484,368 -108,252 -65,497 94,546z"/>
   <path class="fil10" d="M8650 9722c119,-31 246,-144 331,-301 32,-181 -36,-351 -159,-387 -129,-37 -270,87 -315,278 -43,186 21,365 143,410z"/>
   <path class="fil11" d="M8591 9576c109,33 257,-79 330,-251 74,-172 45,-339 -64,-372 -109,-34 -257,78 -330,250 -73,172 -45,339 64,373z"/>
   <path class="fil1" d="M8638 9601c109,34 256,-79 330,-250 73,-172 44,-339 -65,-373 -109,-34 -256,79 -330,251 -73,172 -44,338 65,372z"/>
   <path class="fil12" d="M8936 8994c-10,-7 -21,-12 -33,-16 -109,-34 -256,79 -330,251 -25,60 -39,120 -40,174 7,-39 20,-80 37,-121 82,-191 243,-317 366,-288z"/>
   <polygon class="fil13" points="5876,7836 4396,8713 4400,10653 5881,9774 "/>
   <polygon class="fil8" points="4400,10653 4396,8713 3092,7981 3096,9920 "/>
   <polygon class="fil8" points="6164,6895 4377,7953 4383,10294 6169,9233 "/>
   <polygon class="fil7" points="6164,6895 4377,7953 2803,7069 4590,6010 "/>
   <polygon class="fil7" points="4383,10294 4377,7953 2803,7069 2809,9410 "/>
   <polygon class="fil7" points="5997,7214 4546,8074 4550,9974 6001,9113 "/>
   <polygon class="fil13" points="5923,7258 4546,8074 4550,9864 5927,9047 "/>
   <path class="fil2" d="M3473 10088c414,240 750,820 748,1297 -1,476 -338,668 -753,429 -415,-239 -750,-820 -748,-1296 1,-477 338,-669 753,-430z"/>
   <polygon class="fil3" points="1907,9821 2002,9766 3408,9949 3313,10004 "/>
   <polygon class="fil3" points="4716,11442 4810,11387 4807,12499 4712,12554 "/>
   <polygon class="fil3" points="3313,10004 3408,9949 4810,11387 4716,11442 "/>
   <polygon class="fil14" points="3313,10004 4716,11442 4712,12554 1904,10933 1907,9821 "/>
   <path class="fil5" d="M2112 10058l0 0c-26,-73 -95,-128 -137,-103l-38 21c36,-21 93,16 125,77 24,44 34,111 -3,132l38 -21c27,-17 31,-61 15,-106z"/>
   <path class="fil6" d="M1998 9982c48,28 86,94 86,148 -1,55 -39,76 -86,49 -48,-27 -86,-93 -86,-148 0,-54 39,-76 86,-49z"/>
   <path class="fil5" d="M3329 10208l0 0c-26,-74 -95,-128 -137,-104l-38 22c36,-21 93,16 125,76 24,45 34,111 -3,132l37 -21c28,-16 32,-61 16,-105z"/>
   <path class="fil6" d="M3215 10132c47,27 86,93 85,148 0,54 -38,76 -86,49 -47,-28 -85,-94 -85,-148 0,-55 39,-77 86,-49z"/>
   <path class="fil5" d="M4650 11518l0 0c-26,-74 -96,-128 -137,-104l-38 22c35,-21 93,16 125,76 23,45 34,111 -4,133l38 -22c28,-16 31,-61 16,-105z"/>
   <path class="fil6" d="M4536 11442c47,27 85,94 85,148 0,54 -39,76 -86,49 -47,-27 -85,-93 -85,-148 0,-54 38,-77 86,-49z"/>
  </g>
  <path class="fil15" d="M5213 3445c-296,92 -699,-214 -899,-683 -200,-468 -121,-923 176,-1014 296,-92 699,214 899,683 199,468 121,923 -176,1014z"/>
  <path class="fil13" d="M5127 3494c-296,91 -699,-214 -899,-683 -200,-469 -121,-923 175,-1015 297,-92 700,214 899,683 200,469 122,923 -175,1015z"/>
  <polygon class="fil13" points="3592,2917 4638,3399 5396,2969 4349,2487 "/>
  <polygon class="fil8" points="4633,3399 4633,7497 5391,7018 5391,2968 "/>
  <polygon class="fil13" points="4838,3278 4838,4785 4838,4785 4838,4787 5197,4583 5194,4582 5197,4581 5197,3074 4838,3278 5197,3074 4150,2592 3791,2796 "/>
  <polygon class="fil7" points="4638,7497 3504,6853 3504,2754 4638,3399 "/>
  <polygon class="fil7" points="4839,4440 4839,4787 5200,4582 "/>
  <path class="fil15" d="M11705 2459c-200,43 -449,-181 -554,-502 -106,-320 -28,-615 173,-659 200,-44 449,181 554,501 106,321 28,616 -173,660z"/>
  <path class="fil13" d="M11646 2486c-201,43 -449,-181 -555,-502 -105,-320 -28,-615 173,-659 201,-44 449,181 555,501 105,320 28,616 -173,660z"/>
  <path class="fil15" d="M8161 1574c-273,84 -643,-197 -826,-627 -184,-431 -112,-848 161,-932 272,-84 642,197 826,627 183,431 111,848 -161,932z"/>
  <path class="fil13" d="M8082 1619c-273,84 -643,-197 -826,-628 -184,-430 -112,-848 161,-932 272,-84 642,197 826,627 183,431 111,848 -161,933z"/>
  <path class="fil8" d="M7710 352l3105 892c958,275 1100,994 304,1108l-3699 -906c-1086,-267 -504,-1322 290,-1094z"/>
  <polygon class="fil7" points="11212,1746 11056,2335 7360,1719 7615,754 "/>
  <path class="fil8" d="M8471 1905l-1111 -186 255 -965 127 35c34,18 68,37 102,57 441,268 692,710 627,1059z"/>
  <polygon class="fil7" points="7596,1592 6996,511 3449,2529 3820,3740 "/>
  <path class="fil8" d="M8013 732l15 27 -95 54 -27 -49c-172,-319 -493,-436 -750,-385 268,-113 660,-13 857,353z"/>
  <path class="fil3" d="M4078 2522c4,0 8,-2 12,-4l2429 -1370c12,-7 16,-22 9,-33 -6,-12 -21,-16 -33,-9l-2429 1370c-12,7 -16,22 -9,33 4,8 13,13 21,13z"/>
  <path class="fil3" d="M4163 2637c4,0 8,-1 12,-3l2350 -1329c11,-6 15,-21 9,-32 -7,-12 -22,-16 -33,-9l-2350 1329c-11,6 -15,21 -9,32 5,8 13,12 21,12z"/>
  <path class="fil3" d="M4248 2753c4,0 8,-1 12,-3l2270 -1287c12,-6 16,-21 9,-32 -6,-12 -21,-16 -33,-9l-2270 1286c-11,7 -15,22 -9,33 5,8 13,12 21,12z"/>
  <path class="fil3" d="M4334 2869c4,0 8,-1 11,-3l2191 -1245c11,-6 15,-21 9,-32 -7,-12 -22,-16 -33,-9l-2190 1244c-12,7 -16,22 -9,33 4,8 12,12 21,12z"/>
  <path class="fil3" d="M4419 2985c4,0 8,-1 12,-3l2110 -1203c12,-6 16,-21 9,-32 -6,-12 -21,-16 -32,-9l-2111 1202c-12,7 -16,22 -9,33 4,8 13,12 21,12z"/>
  <path class="fil3" d="M4504 3101c4,0 8,-1 12,-3l2031 -1161c12,-6 16,-21 9,-32 -7,-12 -21,-16 -33,-9l-2031 1160c-11,7 -15,22 -9,33 5,8 13,12 21,12z"/>
  <path class="fil4" d="M4082 2484c4,0 8,-1 12,-3l2429 -1371c12,-6 16,-21 9,-32 -6,-12 -21,-16 -32,-9l-2430 1370c-11,7 -15,22 -9,33 5,8 13,12 21,12z"/>
  <path class="fil4" d="M4167 2600c5,0 9,-1 12,-3l2350 -1329c12,-6 16,-21 9,-32 -6,-12 -21,-16 -33,-9l-2349 1328c-12,7 -16,22 -9,33 4,8 12,12 20,12z"/>
  <path class="fil4" d="M4253 2716c4,0 8,-1 12,-3l2270 -1287c11,-6 15,-21 9,-32 -7,-12 -22,-16 -33,-10l-2270 1287c-12,7 -16,22 -9,33 4,8 12,12 21,12z"/>
  <path class="fil4" d="M4338 2832c4,0 8,-1 12,-3l2190 -1245c12,-6 16,-21 9,-33 -6,-11 -21,-15 -32,-9l-2191 1245c-12,7 -16,22 -9,33 4,8 13,12 21,12z"/>
  <path class="fil4" d="M4423 2948c4,0 8,-1 12,-3l2111 -1203c11,-6 15,-21 9,-33 -7,-11 -22,-15 -33,-9l-2111 1203c-11,7 -15,22 -9,33 5,8 13,12 21,12z"/>
  <path class="fil4" d="M4509 3064c4,0 8,-1 12,-3l2031 -1161c11,-6 15,-21 8,-33 -6,-11 -21,-15 -32,-9l-2031 1161c-12,7 -16,22 -9,33 4,8 12,12 21,12z"/>
  <path class="fil15" d="M7670 1843c-273,85 -644,-197 -828,-629 -185,-432 -112,-851 161,-935 273,-85 645,197 829,629 184,432 112,851 -162,935z"/>
  <path class="fil9" d="M7591 1888c-274,84 -645,-197 -829,-629 -184,-432 -112,-851 162,-936 273,-84 644,198 828,630 185,432 112,851 -161,935z"/>
  <path class="fil10" d="M7384 1889c-204,-52 -422,-245 -567,-515 -55,-311 62,-602 273,-663 221,-63 462,150 539,476 74,318 -36,627 -245,702z"/>
  <path class="fil16" d="M7485 1639c-187,58 -440,-134 -565,-429 -126,-295 -77,-580 110,-638 186,-58 439,135 565,429 126,295 76,581 -110,638z"/>
  <path class="fil17" d="M7405 1683c-186,57 -439,-135 -565,-430 -126,-294 -76,-580 110,-638 187,-57 440,135 565,430 126,294 77,580 -110,638z"/>
  <path class="fil12" d="M6894 642c17,-11 36,-20 56,-27 187,-57 440,135 565,430 44,103 67,206 70,298 -13,-67 -35,-137 -64,-207 -140,-327 -417,-543 -627,-494z"/>
  <path class="fil7" d="M3504 3869l0 -1115 1100 626c65,404 -54,741 -325,825 -239,73 -534,-67 -775,-336z"/>
  <path class="fil15" d="M4438 3899c-296,92 -699,-214 -899,-683 -199,-468 -121,-923 176,-1014 296,-92 699,214 899,682 200,469 121,924 -176,1015z"/>
  <path class="fil9" d="M4352 3947c-296,92 -699,-214 -899,-682 -200,-469 -121,-924 175,-1015 297,-92 700,214 900,683 199,468 121,923 -176,1014z"/>
  <path class="fil10" d="M4128 3949c-222,-56 -457,-266 -615,-560 -60,-336 67,-652 296,-718 240,-69 502,162 584,517 81,344 -38,679 -265,761z"/>
  <path class="fil16" d="M4237 3678c-202,62 -477,-147 -613,-466 -136,-320 -83,-630 120,-692 202,-63 476,146 613,465 136,320 83,630 -120,693z"/>
  <path class="fil17" d="M4151 3725c-202,62 -477,-146 -613,-466 -137,-320 -83,-630 119,-692 203,-63 477,146 613,466 137,319 83,629 -119,692z"/>
  <path class="fil12" d="M3596 2596c19,-12 39,-22 61,-29 203,-63 477,146 613,466 48,112 73,223 75,323 -13,-73 -36,-148 -69,-224 -151,-355 -451,-589 -680,-536z"/>
  <path class="fil18" d="M11438 1633c129,-59 223,7 210,147 -13,141 -127,302 -256,361 -129,59 -223,-7 -210,-147 13,-141 127,-302 256,-361z"/>
  <path class="fil14" d="M11615 1652c-38,-27 -94,-29 -159,0 -129,59 -244,221 -257,362 -6,69 13,121 51,148 41,29 247,179 288,209 -38,-27 -58,-79 -51,-148 13,-141 127,-303 256,-361 65,-30 121,-28 159,-1 -41,-29 -246,-180 -287,-209z"/>
  <path class="fil18" d="M11743 1862c129,-60 223,7 210,147 -12,140 -128,302 -256,361 -129,59 -223,-7 -210,-147 13,-141 127,-303 256,-361z"/>
  <path class="fil19" d="M11194 2584c0,0 0,0 0,0 0,-2 0,-4 0,-6 -3,-50 -11,-185 -16,-273l-1 0c6,92 14,237 17,279z"/>
  <path class="fil14" d="M11194 2578c1,-43 29,-87 82,-124 47,-31 106,-53 169,-63 -5,-79 -17,-287 -20,-333 -1,-7 0,-14 1,-22 -64,10 -124,31 -171,64 -58,39 -85,87 -82,133 1,13 3,39 5,72 5,88 13,223 16,273z"/>
  <path class="fil20" d="M11918 1770c-47,-34 -117,-37 -198,0 -160,74 -303,275 -319,449 -8,87 17,151 64,184 51,37 82,60 133,97 -46,-34 -71,-98 -63,-184 16,-175 159,-376 319,-449 81,-37 150,-35 198,-1 -51,-37 -83,-60 -134,-96z"/>
  <path class="fil18" d="M11854 1867c160,-74 277,8 261,183 -16,175 -159,376 -319,449 -160,73 -277,-9 -261,-183 16,-175 159,-376 319,-449z"/>
  <path class="fil14" d="M12019 1942c-38,-27 -94,-29 -159,1 -129,59 -244,221 -257,361 -6,70 14,121 51,148 41,29 247,180 288,209 -38,-27 -58,-78 -51,-148 13,-140 127,-302 256,-361 65,-30 121,-28 159,-1 -41,-29 -246,-179 -287,-209z"/>
  <path class="fil18" d="M12147 2152c129,-59 223,7 210,148 -12,140 -127,302 -256,361 -129,59 -223,-7 -210,-148 13,-140 127,-302 256,-361z"/>
  <path class="fil19" d="M11938 2659l0 0 0 0c-30,-22 -121,-89 -194,-141l0 0c73,53 165,120 194,141z"/>
  <path class="fil21" d="M11744 2518l0 0c-40,-30 -75,-55 -90,-66 -37,-27 -57,-78 -51,-148 5,-57 27,-117 60,-172 0,-1 0,-1 -1,-1 -32,55 -55,116 -60,173 -6,69 14,121 51,148 15,10 50,36 91,66z"/>
  <path class="fil14" d="M11938 2659c-35,-28 -54,-78 -48,-146 5,-56 27,-116 59,-171 -65,-46 -233,-170 -270,-196 -6,-4 -11,-9 -16,-14 -33,55 -55,115 -60,172 -6,70 14,121 51,148 15,11 50,36 90,66 73,52 164,119 194,141z"/>
  <path class="fil20" d="M12322 2060c-47,-34 -117,-36 -197,1 -161,73 -304,274 -320,449 -8,87 17,150 64,184 51,36 83,60 133,96 -46,-33 -71,-97 -63,-184 16,-175 159,-376 319,-449 81,-37 151,-34 198,-1 -51,-36 -83,-59 -134,-96z"/>
  <path class="fil18" d="M12258 2157c160,-73 277,9 261,183 -16,175 -159,376 -319,449 -160,74 -277,-8 -261,-183 16,-175 159,-376 319,-449z"/>
  <path class="fil14" d="M12431 2220c-38,-27 -94,-29 -159,1 -129,59 -244,221 -256,361 -7,70 13,121 51,148 41,29 246,180 287,209 -37,-27 -57,-78 -51,-148 13,-140 128,-302 257,-361 65,-30 121,-28 159,-1 -41,-29 -247,-179 -288,-209z"/>
  <path class="fil18" d="M12560 2430c129,-59 223,7 210,147 -13,141 -128,303 -257,362 -129,59 -223,-7 -210,-148 13,-140 128,-302 257,-361z"/>
  <path class="fil19" d="M12217 2840c0,0 0,0 0,-1 -17,-12 -34,-24 -50,-36 0,0 -1,0 -1,0 17,12 34,25 51,37z"/>
  <path class="fil21" d="M12166 2803c0,0 1,0 1,0 -45,-33 -85,-62 -100,-73 -38,-27 -58,-78 -51,-148 2,-32 11,-65 23,-97 -12,33 -21,65 -24,97 -6,70 14,122 51,148 16,12 55,40 100,73z"/>
  <path class="fil14" d="M12217 2839c-1,-16 -1,-33 1,-51 7,-72 34,-147 75,-217 -75,-55 -174,-127 -201,-146 -6,-4 -11,-10 -17,-15 -14,24 -26,49 -36,75 -12,32 -21,65 -23,97 -7,70 13,121 51,148 15,11 55,40 100,73 16,12 33,24 50,36z"/>
  <path class="fil20" d="M12735 2338c-48,-34 -117,-36 -198,1 -160,73 -303,274 -319,449 -8,86 17,150 64,184 50,36 82,60 133,96 -47,-33 -71,-97 -64,-184 17,-175 160,-376 320,-449 80,-37 150,-35 197,-1 -51,-36 -82,-59 -133,-96z"/>
  <path class="fil18" d="M12671 2435c160,-73 277,9 261,183 -16,175 -159,376 -319,449 -161,74 -277,-8 -262,-183 17,-175 160,-376 320,-449z"/>
  <path class="fil14" d="M12848 2480c-42,-29 -102,-31 -173,1 -139,64 -264,239 -278,392 -7,75 15,131 55,160 45,32 358,233 402,265 -41,-30 -30,-76 -23,-151 14,-153 16,-375 156,-439 70,-33 57,-57 98,-28 -44,-32 -193,-168 -237,-200z"/>
  <path class="fil21" d="M12537 3091c1,0 2,0 2,0 -42,-27 -74,-49 -87,-58 -40,-29 -62,-85 -55,-160 4,-43 16,-88 36,-131 0,0 0,0 -1,-1 -19,44 -32,89 -36,132 -7,76 15,132 55,161 13,9 45,30 86,57z"/>
  <path class="fil14" d="M12844 3290c-1,0 -1,-1 -2,-1 -24,-21 -45,-52 -59,-93 -24,-64 -29,-141 -19,-218 -110,-71 -264,-171 -294,-192 -15,-11 -28,-26 -37,-44 -20,43 -32,88 -36,131 -7,75 15,131 55,160 13,9 45,31 87,58 101,66 255,166 305,199z"/>
  <path class="fil3" d="M12867 2723c99,-117 222,-96 274,48 52,143 15,355 -84,472 -99,118 -222,97 -274,-47 -53,-143 -15,-355 84,-473z"/>
  <polygon class="fil22" points="13460,2470 12996,2661 13002,2658 13466,2467 "/>
  <path class="fil14" d="M13383 2835c-66,-151 -32,-315 77,-365l-464 191c-109,50 -214,223 -186,386 24,138 113,234 200,218l683 -246c-107,45 -245,-37 -310,-184z"/>
  <path class="fil3" d="M13460 2470c108,-50 250,31 316,182 66,151 32,314 -76,365 -109,50 -250,-32 -317,-182 -66,-151 -32,-315 77,-365z"/>
  <path class="fil19" d="M13615 3031c20,2 40,0 59,-5l1 0c-20,5 -40,7 -60,5 -63,-6 -126,-44 -176,-105l0 0c50,61 113,99 176,105z"/>
  <path class="fil14" d="M12981 3266c10,1 20,1 29,-1l664 -239c-19,5 -39,7 -59,5 -63,-6 -126,-44 -176,-105l-600 216c12,25 27,48 43,66 29,34 64,55 99,58z"/>
  <path class="fil23" d="M13615 3031c20,2 40,0 60,-5l4 -2c-21,7 -43,9 -65,7 -62,-6 -125,-44 -175,-105l0 0c50,61 113,99 176,105zm64 -7c5,-1 9,-3 14,-5l-14 5z"/>
  <path class="fil24" d="M15084 2700c-16,-86 -31,-172 -47,-258 2,11 -4,23 -19,35 -35,28 -105,45 -157,37l-603 -95c-77,-12 -165,-10 -249,7 -72,15 -132,39 -168,69l-312 252c-27,22 -40,46 -35,69 6,35 12,69 18,104 10,51 19,103 29,154 -5,-23 7,-47 35,-69l312 -253c36,-29 95,-53 168,-68 84,-17 172,-20 249,-8l603 95c52,9 122,-8 157,-36 15,-12 21,-24 19,-35z"/>
  <path class="fil24" d="M14353 3291c-15,-86 -31,-171 -46,-258 1,11 -4,24 -19,36 -35,28 -106,44 -157,36l-603 -95c-155,-24 -247,-83 -259,-153l46 258c13,70 104,129 260,153l603 95c51,8 121,-8 156,-37 15,-12 21,-24 19,-35z"/>
  <path class="fil18" d="M13654 2465c150,-122 478,-188 731,-149l603 95c51,8 65,38 30,66 -35,28 -105,45 -157,37l-603 -95c-77,-12 -165,-10 -249,7 -72,15 -132,39 -168,69l-312 252c-36,29 -46,61 -27,90 21,34 75,59 152,71l603 95c52,8 65,37 31,66 -35,28 -106,44 -157,36l-603 -95c-253,-39 -336,-171 -186,-292l312 -253z"/>
  <path class="fil15" d="M11349 2616c-202,44 -451,-182 -557,-503 -106,-322 -28,-618 173,-662 202,-44 451,182 557,503 106,322 28,618 -173,662z"/>
  <path class="fil9" d="M11289 2643c-202,44 -451,-181 -557,-503 -105,-321 -28,-618 174,-662 201,-43 450,182 556,503 106,322 28,618 -173,662z"/>
  <path class="fil10" d="M11140 2631c-143,-50 -287,-202 -375,-405 -21,-226 81,-428 236,-459 163,-32 323,136 358,375 33,233 -64,447 -219,489z"/>
  <path class="fil16" d="M11228 2458c-138,30 -307,-124 -380,-343 -72,-220 -19,-421 119,-451 137,-30 307,123 379,342 72,220 19,422 -118,452z"/>
  <path class="fil17" d="M11168 2484c-137,30 -307,-124 -379,-343 -72,-219 -20,-421 118,-451 137,-30 307,124 379,343 72,219 19,421 -118,451z"/>
  <path class="fil12" d="M10865 1706c13,-7 27,-13 42,-16 137,-30 307,124 379,343 26,77 35,152 32,218 -6,-49 -16,-100 -34,-152 -79,-243 -265,-416 -419,-393z"/>
  <path class="fil23" d="M11177 2305l1 0c-2,-33 -4,-59 -5,-72 -3,-46 24,-94 82,-133 47,-33 107,-54 171,-64 0,0 0,0 0,0 -64,10 -124,31 -172,63 -58,40 -84,88 -81,134 1,13 2,39 4,72z"/>
  <polygon class="fil25" points="8741,8892 8740,9019 6566,10271 6566,10144 "/>
  <path class="fil26" d="M15255 5238c-15,-8 -30,-17 -45,-26 108,63 175,197 176,386 1,382 -268,847 -600,1039l-7940 4585c-167,96 -319,105 -428,41l44 26c48,28 104,42 166,41 53,-1 110,-14 170,-38 30,-12 61,-27 92,-45l7940 -4584c332,-192 601,-657 600,-1039 0,-190 -67,-323 -175,-386z"/>
  <g>
   <path class="fil14" d="M14830 6663c332,-192 601,-657 600,-1039 -1,-382 -271,-536 -604,-344l-7940 4584c-332,192 -601,657 -599,1039 1,382 271,536 603,344l7940 -4584zm498 -1602c-7,-5 -15,-9 -22,-13 -134,-78 -320,-68 -525,51l-7939 4584c-407,235 -737,805 -735,1273 0,232 82,395 215,472l37 22 1 0 1 1 0 0 1 0 0 0 0 1 0 -1 1 1 1 0 0 0 1 1 8963 -6392zm-8963 6392l1 0c134,79 320,68 525,-50l7940 -4584c406,-235 736,-806 734,-1273 -1,-234 -84,-398 -217,-474l2 1c-7,-4 -15,-8 -22,-12l-8963 6392zm-6 -3l0 -1 -1 0 -1 -1 -1 0 0 0 0 -1 -1 0 -1 -1 -1 0 -1 -1 -7 -5 -1 0 0 0 -1 -1 -1 0c-7,-6 -14,-11 -21,-16l-1 -1 -10 -9 0 0 -10 -9 -1 -1 0 0c-7,-6 -13,-12 -18,-19l-3 -2 -2 -3c-6,-6 -12,-13 -17,-20l-1 -2c-6,-7 -11,-15 -17,-23 6,8 11,16 17,23l101 93zm-60 -47c-7,-6 -13,-12 -18,-19l18 19zm-66 -83c-6,-9 -11,-18 -16,-28 5,10 10,19 16,28zm-16 -28l-2 -3c-4,-9 -8,-18 -12,-27l-1 -1 -5 -14 0 0 -1 -1 -5 -15 -1 -1 0 0c-9,-27 -17,-56 -24,-87 7,31 15,60 24,87l27 62zm-57 -187c-2,-11 -3,-23 -5,-35 2,12 3,24 5,35z"/>
  </g>
  <g>
   <g id="_2545273922416">
    <polygon class="fil27" points="7389,11892 7536,11807 7526,14187 7379,14272 "/>
    <polygon class="fil28" points="7190,11777 7337,11692 7536,11807 7389,11892 "/>
    <polygon class="fil29" points="7389,11892 7379,14272 7180,14157 7190,11777 "/>
    <polygon class="fil27" points="9663,10582 9810,10496 9800,12877 9653,12962 "/>
    <polygon class="fil28" points="9464,10466 9611,10381 9810,10496 9663,10582 "/>
    <polygon class="fil29" points="9663,10582 9653,12962 9454,12847 9464,10466 "/>
    <polygon class="fil27" points="11937,9271 12084,9186 12074,11567 11928,11652 "/>
    <polygon class="fil28" points="11738,9156 11885,9071 12084,9186 11937,9271 "/>
    <polygon class="fil29" points="11937,9271 11928,11652 11728,11537 11738,9156 "/>
    <polygon class="fil27" points="14211,7961 14358,7876 14348,10256 14202,10341 "/>
    <polygon class="fil28" points="14012,7846 14159,7761 14358,7876 14211,7961 "/>
    <polygon class="fil29" points="14211,7961 14202,10341 14002,10226 14012,7846 "/>
   </g>
   <g id="_2545273919184">
    <polygon class="fil27" points="7400,9561 7546,9476 7537,11856 7390,11941 "/>
    <polygon class="fil28" points="7201,9446 7347,9361 7546,9476 7400,9561 "/>
    <polygon class="fil29" points="7400,9561 7390,11941 7191,11826 7201,9446 "/>
    <polygon class="fil27" points="9674,8251 9820,8165 9811,10546 9664,10631 "/>
    <polygon class="fil28" points="9474,8135 9621,8050 9820,8165 9674,8251 "/>
    <polygon class="fil29" points="9674,8251 9664,10631 9465,10516 9474,8135 "/>
    <polygon class="fil27" points="11948,6940 12094,6855 12085,9236 11938,9321 "/>
    <polygon class="fil28" points="11749,6825 11895,6740 12094,6855 11948,6940 "/>
    <polygon class="fil29" points="11948,6940 11938,9321 11739,9206 11749,6825 "/>
    <polygon class="fil27" points="14222,5630 14368,5545 14359,7925 14212,8010 "/>
    <polygon class="fil28" points="14023,5515 14169,5430 14368,5545 14222,5630 "/>
    <polygon class="fil29" points="14222,5630 14212,8010 14013,7895 14023,5515 "/>
   </g>
  </g>
  <path class="fil30" d="M17363 6610c-703,-409 -1407,-817 -2111,-1226 108,62 175,195 175,384 2,381 -266,844 -597,1035l-7913 4569c-167,96 -318,105 -427,42 704,409 1407,818 2111,1227 109,63 260,54 427,-42l7913 -4569c331,-191 598,-654 597,-1035 0,-189 -67,-322 -175,-385z"/>
  <path class="fil31" d="M15348 5219c-134,-77 -319,-66 -523,51l-7912 4569c-406,234 -734,803 -733,1268 1,217 73,374 191,455 7,6 16,11 24,16 703,409 1407,818 2111,1227 -132,-77 -214,-240 -215,-471 -1,-466 327,-1035 732,-1269l7913 -4568c204,-118 389,-129 523,-51 -704,-409 -1408,-818 -2111,-1227z"/>
  <path class="fil30" d="M16941 8030c331,-191 598,-654 597,-1035 -1,-381 -270,-534 -601,-343l-7913 4569c-331,191 -599,654 -598,1035 1,381 271,534 602,343l7913 -4569zm-5 -1533c405,-234 736,-45 737,420 2,465 -327,1034 -732,1268l-7913 4569c-405,234 -735,45 -737,-420 -1,-466 327,-1035 732,-1269l7913 -4568z"/>
  <path class="fil32" d="M9826 10663l0 0c29,-83 107,-144 154,-116 7,4 286,171 293,175 -40,-23 -105,18 -140,86 -27,50 -38,124 4,149 -7,-4 -286,-172 -293,-175 -31,-19 -36,-69 -18,-119z"/>
  <path class="fil33" d="M10205 10729c-54,30 -97,105 -97,166 1,61 44,86 97,55 53,-31 96,-105 96,-166 0,-62 -43,-86 -96,-55z"/>
  <path class="fil14" d="M9945 10790l0 0c80,-225 293,-391 420,-317 19,11 97,56 116,67 -110,-64 -285,49 -383,233 -72,136 -103,339 11,406 -19,-11 -96,-56 -115,-67 -85,-49 -97,-185 -49,-322z"/>
  <path class="fil4" d="M10294 10558c-144,83 -261,286 -261,453 0,166 118,233 263,149 145,-83 262,-286 261,-452 0,-167 -118,-234 -263,-150z"/>
  <path class="fil34" d="M10220 10859l0 0c25,-72 94,-125 134,-102l38 22c-35,-21 -92,15 -123,74 -23,44 -33,109 4,131 -7,-4 -31,-18 -38,-22 -27,-16 -30,-59 -15,-103z"/>
  <path class="fil35" d="M10332 10784c-47,27 -84,92 -84,145 0,54 38,75 84,49 47,-27 84,-92 84,-145 0,-54 -38,-75 -84,-49z"/>
  <path class="fil32" d="M11327 9791l0 0c29,-83 108,-144 155,-117 7,4 285,171 292,175 -40,-23 -104,18 -140,86 -27,50 -38,125 4,149 -7,-4 -286,-171 -293,-175 -31,-19 -35,-68 -18,-118z"/>
  <path class="fil33" d="M11706 9856c-53,31 -96,105 -96,166 0,61 43,86 96,55 54,-30 97,-105 96,-166 0,-61 -43,-86 -96,-55z"/>
  <path class="fil14" d="M11447 9918l0 0c79,-226 292,-392 419,-317 19,10 97,55 116,66 -109,-63 -285,49 -382,233 -73,136 -104,340 11,406 -19,-11 -97,-55 -116,-66 -85,-50 -97,-186 -48,-322z"/>
  <path class="fil4" d="M11796 9685c-145,84 -262,287 -262,453 1,166 118,234 263,150 145,-84 262,-287 262,-453 -1,-166 -119,-233 -263,-150z"/>
  <path class="fil34" d="M11721 9986l0 0c26,-72 94,-125 135,-101 6,3 31,18 37,21 -35,-20 -91,16 -123,75 -23,43 -33,108 4,130l-37 -22c-28,-15 -31,-59 -16,-103z"/>
  <path class="fil35" d="M11833 9912c-46,27 -84,92 -84,145 0,53 38,75 85,48 46,-27 84,-92 83,-145 0,-53 -38,-75 -84,-48z"/>
  <path class="fil32" d="M12829 8928l0 0c29,-83 107,-144 154,-116 7,4 286,171 293,175 -40,-23 -105,18 -141,86 -27,50 -38,124 4,149 -7,-4 -286,-171 -293,-175 -31,-19 -35,-69 -17,-119z"/>
  <path class="fil33" d="M13207 8994c-53,31 -96,105 -96,166 0,61 43,86 97,55 53,-31 96,-105 96,-166 -1,-61 -44,-86 -97,-55z"/>
  <path class="fil14" d="M12948 9055l0 0c79,-225 292,-391 420,-317 19,11 96,56 115,67 -109,-64 -284,49 -382,233 -73,136 -104,339 11,406 -19,-11 -97,-56 -116,-67 -85,-49 -96,-185 -48,-322z"/>
  <path class="fil4" d="M13297 8823c-145,84 -262,286 -262,453 1,166 119,233 263,150 145,-84 262,-287 262,-453 0,-166 -118,-234 -263,-150z"/>
  <path class="fil34" d="M13222 9124l0 0c26,-72 94,-125 135,-102l37 22c-35,-21 -91,16 -123,75 -23,43 -33,108 4,130l-37 -22c-27,-16 -31,-59 -16,-103z"/>
  <path class="fil35" d="M13334 9050c-46,26 -84,91 -84,145 1,53 39,74 85,48 46,-27 84,-92 84,-145 -1,-54 -38,-75 -85,-48z"/>
  <path class="fil32" d="M14330 8066l0 0c29,-83 107,-144 154,-117 7,5 286,172 293,176 -40,-24 -105,18 -141,85 -26,51 -38,125 4,150 -7,-4 -286,-172 -293,-176 -31,-18 -35,-68 -17,-118z"/>
  <path class="fil33" d="M14708 8132c-53,30 -96,105 -96,166 0,61 44,86 97,55 53,-31 96,-105 96,-166 0,-62 -44,-86 -97,-55z"/>
  <path class="fil14" d="M14449 8193l0 0c79,-225 292,-391 420,-317 19,11 97,55 116,67 -110,-64 -285,49 -383,233 -72,136 -104,339 11,406 -19,-11 -97,-56 -116,-67 -85,-49 -96,-185 -48,-322z"/>
  <path class="fil4" d="M14798 7961c-145,83 -262,286 -261,453 0,166 118,233 263,149 144,-83 262,-286 261,-452 0,-167 -118,-234 -263,-150z"/>
  <path class="fil34" d="M14724 8262l0 0c25,-72 93,-126 134,-102l37 22c-35,-21 -91,15 -122,74 -24,44 -34,109 3,130 -6,-3 -31,-18 -37,-21 -27,-16 -31,-59 -15,-103z"/>
  <path class="fil35" d="M14835 8187c-46,27 -83,92 -83,145 0,54 38,75 84,48 46,-26 84,-91 84,-145 -1,-53 -38,-74 -85,-48z"/>
  <path class="fil32" d="M15831 7193l0 0c29,-82 107,-143 154,-116 7,4 286,171 293,175 -40,-23 -105,18 -141,86 -26,50 -38,124 5,149 -7,-4 -286,-171 -293,-175 -32,-19 -36,-69 -18,-119z"/>
  <path class="fil33" d="M16209 7259c-53,31 -96,105 -96,166 0,61 44,86 97,55 53,-30 96,-105 96,-166 0,-61 -43,-86 -97,-55z"/>
  <path class="fil14" d="M15950 7321l0 0c80,-226 292,-392 420,-318 19,11 97,56 116,67 -110,-64 -285,49 -383,233 -72,136 -103,339 11,406 -19,-11 -96,-55 -116,-67 -84,-49 -96,-185 -48,-321z"/>
  <path class="fil4" d="M16299 7088c-145,84 -262,286 -261,453 0,166 118,233 263,150 145,-84 262,-286 261,-453 0,-166 -118,-233 -263,-150z"/>
  <path class="fil34" d="M16225 7389l0 0c25,-72 93,-125 134,-102 7,4 31,18 37,22 -35,-20 -91,16 -122,75 -23,43 -33,108 3,130l-37 -22c-27,-15 -31,-59 -15,-103z"/>
  <path class="fil35" d="M16337 7315c-47,27 -84,92 -84,145 0,53 38,75 84,48 46,-27 84,-92 84,-145 0,-54 -38,-75 -84,-48z"/>
  <path class="fil14" d="M17402 6595c-15,-8 -30,-17 -44,-26 108,63 175,197 175,386 1,382 -267,847 -600,1039l-7940 4585c-167,96 -318,105 -428,41l45 26c47,28 103,42 165,41 53,-1 110,-13 170,-37 30,-13 61,-28 93,-46l7940 -4584c332,-192 600,-657 599,-1039 0,-190 -67,-323 -175,-386z"/>
  <path class="fil14" d="M17475 6418c-7,-5 -14,-9 -22,-13 -134,-78 -319,-67 -524,51l-7940 4584c-407,235 -736,806 -735,1273 1,232 83,395 215,472 15,9 30,17 45,26 -9,-5 -17,-10 -25,-15 -118,-83 -190,-240 -191,-457 -1,-468 329,-1039 735,-1273l7940 -4584c198,-115 379,-129 512,-58l13 7c-8,-5 -15,-9 -23,-13z"/>
  <path class="fil4" d="M16978 8020c332,-192 600,-657 599,-1039 -1,-382 -271,-536 -603,-344l-7940 4584c-333,192 -601,657 -600,1039 1,382 271,536 604,344l7940 -4584zm-5 -1538c407,-235 739,-46 740,421 1,467 -328,1038 -735,1273l-7940 4584c-406,235 -738,46 -740,-421 -1,-468 329,-1039 735,-1273l7940 -4584z"/>
  <g>
   <polygon class="fil27" points="10210,13325 10357,13240 10347,15620 10201,15705 "/>
   <polygon class="fil28" points="10011,13210 10158,13125 10357,13240 10210,13325 "/>
   <polygon class="fil29" points="10210,13325 10201,15705 10002,15590 10011,13210 "/>
   <polygon class="fil27" points="12484,12014 12631,11929 12621,14310 12475,14395 "/>
   <polygon class="fil28" points="12285,11899 12432,11814 12631,11929 12484,12014 "/>
   <polygon class="fil29" points="12484,12014 12475,14395 12276,14280 12285,11899 "/>
   <polygon class="fil27" points="14758,10704 14905,10619 14895,12999 14749,13084 "/>
   <polygon class="fil28" points="14559,10589 14706,10504 14905,10619 14758,10704 "/>
   <polygon class="fil29" points="14758,10704 14749,13084 14550,12970 14559,10589 "/>
   <polygon class="fil27" points="17033,9394 17179,9308 17170,11689 17023,11774 "/>
   <polygon class="fil28" points="16833,9279 16980,9194 17179,9308 17033,9394 "/>
   <polygon class="fil29" points="17033,9394 17023,11774 16824,11659 16833,9279 "/>
  </g>
  <g>
   <polygon class="fil27" points="10221,11624 10368,11539 10358,13919 10211,14004 "/>
   <polygon class="fil28" points="10022,11509 10168,11424 10368,11539 10221,11624 "/>
   <polygon class="fil29" points="10221,11624 10211,14004 10012,13889 10022,11509 "/>
   <polygon class="fil27" points="12495,10313 12642,10228 12632,12609 12485,12694 "/>
   <polygon class="fil28" points="12296,10198 12442,10113 12642,10228 12495,10313 "/>
   <polygon class="fil29" points="12495,10313 12485,12694 12286,12579 12296,10198 "/>
   <polygon class="fil27" points="14769,9003 14916,8918 14906,11298 14759,11383 "/>
   <polygon class="fil28" points="14570,8888 14717,8803 14916,8918 14769,9003 "/>
   <polygon class="fil29" points="14769,9003 14759,11383 14560,11268 14570,8888 "/>
   <polygon class="fil27" points="17043,7693 17190,7607 17180,9988 17033,10073 "/>
   <polygon class="fil28" points="16844,7578 16991,7493 17190,7607 17043,7693 "/>
   <polygon class="fil29" points="17043,7693 17033,10073 16834,9958 16844,7578 "/>
  </g>
  <polygon class="fil29" points="8577,12615 8358,12487 8357,12206 8577,12333 "/>
  <polygon class="fil27" points="8577,12333 8357,12206 17864,6720 18084,6848 "/>
  <polygon class="fil36" points="18084,6848 18085,7129 8577,12615 8577,12333 "/>
  <polygon class="fil37" points="13610,5822 13610,6333 13978,6120 13978,5608 "/>
  <polygon class="fil38" points="15012,7372 15012,6449 16491,5594 16491,6518 "/>
  <polygon class="fil39" points="15012,7372 15012,6449 13285,5451 13285,6374 "/>
  <polygon class="fil40" points="13285,5451 15012,6449 16491,5594 14765,4596 "/>
  <polygon class="fil37" points="15123,7203 15123,7108 15619,6820 15619,6917 "/>
  <polygon class="fil37" points="15123,7033 15123,6938 15619,6650 15619,6747 "/>
  <polygon class="fil37" points="13655,5825 13655,6255 13358,6083 13358,5654 "/>
  <polygon class="fil41" points="14896,6545 14896,7058 14140,6621 14140,6108 "/>
  <polygon class="fil37" points="14803,6702 14803,6577 14208,6234 14208,6357 "/>
  <polygon class="fil4" points="16117,6295 15606,6591 15606,6105 16117,5808 "/>
  <polygon class="fil14" points="16117,5808 14392,4811 13880,5107 15606,6106 "/>
  <polygon class="fil37" points="10568,7608 10568,8119 10936,7906 10936,7394 "/>
  <polygon class="fil38" points="11970,9158 11970,8235 13449,7380 13449,8304 "/>
  <polygon class="fil39" points="11970,9158 11970,8235 10243,7237 10243,8160 "/>
  <polygon class="fil40" points="10243,7237 11970,8235 13449,7380 11723,6382 "/>
  <polygon class="fil37" points="12081,8989 12081,8894 12577,8606 12577,8703 "/>
  <polygon class="fil37" points="12081,8819 12081,8724 12577,8436 12577,8533 "/>
  <polygon class="fil37" points="10613,7612 10613,8041 10316,7870 10316,7440 "/>
  <polygon class="fil41" points="11854,8332 11854,8844 11098,8407 11098,7894 "/>
  <polygon class="fil37" points="11761,8488 11761,8363 11167,8021 11167,8143 "/>
  <polygon class="fil4" points="13075,8081 12565,8377 12565,7891 13075,7594 "/>
  <polygon class="fil14" points="13075,7594 11350,6597 10838,6893 12565,7892 "/>
  <polygon class="fil37" points="7378,9421 7378,9932 7746,9719 7746,9208 "/>
  <polygon class="fil38" points="8781,10972 8780,10049 10259,9193 10259,10117 "/>
  <polygon class="fil39" points="8781,10972 8780,10049 7053,9050 7053,9973 "/>
  <polygon class="fil40" points="7053,9050 8780,10049 10259,9193 8533,8195 "/>
  <polygon class="fil37" points="8891,10803 8891,10708 9387,10420 9387,10516 "/>
  <polygon class="fil37" points="8891,10633 8891,10537 9387,10249 9387,10346 "/>
  <polygon class="fil37" points="7423,9425 7423,9854 7127,9683 7127,9254 "/>
  <polygon class="fil41" points="8664,10145 8664,10657 7908,10220 7908,9707 "/>
  <polygon class="fil37" points="8572,10301 8572,10177 7977,9834 7977,9957 "/>
  <polygon class="fil4" points="9886,9894 9375,10191 9375,9705 9886,9408 "/>
  <polygon class="fil14" points="9886,9408 8161,8410 7648,8706 9375,9706 "/>
  <path class="fil4" d="M5485 7300l276 -141 -1 0 -2 1 -1 1 -1 1 -1 1 -2 1 -1 1 -1 1 -1 1 -2 1 -1 1 -1 1 -1 0 0 0 -2 1 -1 1 -1 1 -2 1 -1 1 0 0 -1 1 0 0 -1 1 0 0 -2 1 0 0 -1 0 0 0 -1 1 0 0 -2 1 -1 1 0 0 -1 1 -1 1 0 0 -2 1 0 0 -1 0 0 0 -1 1 0 0 -2 1 0 0 -1 1 0 0 -1 1 0 0 -1 1 0 0 -2 0 0 0 -1 1 0 0 -3 2 0 0 -1 1 0 0 -3 1 0 0 -5 3 0 0 -1 1 0 0 -2 1 0 0 -1 1 0 0 -1 0 0 0 -2 1 0 0 -1 1 0 0 -2 1 0 0 -1 0 0 0 -1 1 0 0 -2 1 0 0 -1 1 0 0 -1 0 0 0 -2 1 0 0 -1 1 -1 0 0 0 -2 1 0 0 -1 1 -1 1 0 0 -2 0 -4 2 -4 3 -5 2 -4 2 -4 2 -237 122 -5 3 -4 2 -4 2 -2 1 -1 0 -2 1 2 -1 1 0c28,-15 55,-32 81,-52z"/>
 </g>
</svg>
