<?xml version="1.0" encoding="UTF-8"?>
<!DOCTYPE svg PUBLIC "-//W3C//DTD SVG 1.1//EN" "http://www.w3.org/Graphics/SVG/1.1/DTD/svg11.dtd">
<!-- Creator: CorelDRAW X8 -->
<svg xmlns="http://www.w3.org/2000/svg" xml:space="preserve" width="19.1354mm" height="16.7113mm" version="1.1" style="shape-rendering:geometricPrecision; text-rendering:geometricPrecision; image-rendering:optimizeQuality; fill-rule:evenodd; clip-rule:evenodd"
viewBox="0 0 2183 1906"
 xmlns:xlink="http://www.w3.org/1999/xlink">
 <defs>
  <style type="text/css">
   <![CDATA[
    .fil0 {fill:#E0E0E0}
    .fil1 {fill:#E6E7E8;fill-rule:nonzero}
    .fil4 {fill:#FAC5B5;fill-rule:nonzero}
    .fil5 {fill:#8A7270;fill-rule:nonzero}
    .fil7 {fill:#786260;fill-rule:nonzero}
    .fil9 {fill:#423635;fill-rule:nonzero}
    .fil6 {fill:#423635;fill-rule:nonzero}
    .fil3 {fill:#575757;fill-rule:nonzero}
    .fil2 {fill:#A4B1B8;fill-rule:nonzero}
    .fil11 {fill:#A82116;fill-rule:nonzero}
    .fil10 {fill:#DB2C1C;fill-rule:nonzero}
    .fil8 {fill:#FBB540;fill-rule:nonzero}
   ]]>
  </style>
 </defs>
 <g id="Capa_x0020_1">
  <metadata id="CorelCorpID_0Corel-Layer"/>
  <rect class="fil0" transform="matrix(0.882305 -0.503661 0.882305 0.503661 -0.00145264 1283.33)" width="1237" height="1237"/>
  <path class="fil1" d="M1110 1098l-277 -650 14 -8 822 476c39,23 71,84 71,136l0 410 -13 7 -617 -371z"/>
  <path class="fil2" d="M833 953l0 -505 823 475c39,23 71,84 71,136l0 410 -894 -516z"/>
  <path class="fil1" d="M1110 871l-277 -651 14 -7 822 476c39,22 71,83 71,135l0 411 -13 7 -617 -371z"/>
  <path class="fil2" d="M833 725l0 -505 823 476c39,22 71,83 71,136l0 410 -894 -517z"/>
  <path class="fil1" d="M1110 658l-277 -651 14 -7 822 476c39,22 71,84 71,136l0 410 -13 7 -617 -371z"/>
  <path class="fil2" d="M833 515l0 -505 823 476c39,22 71,83 71,136l0 410 -894 -517z"/>
  <g id="_2545295218176">
   <polygon class="fil3" points="1021,787 1021,777 1073,747 1073,757 "/>
   <polygon class="fil3" points="826,619 826,664 795,646 795,601 "/>
   <polygon class="fil3" points="868,643 868,688 837,670 837,625 "/>
   <path class="fil4" d="M773 732c13,-43 19,-91 -2,-126l-47 1c0,0 -19,41 -24,72 -5,31 2,45 14,60 13,15 56,-5 58,-6l1 -1z"/>
   <path class="fil5" d="M901 1406c0,0 51,-22 76,-23 25,-1 27,28 0,51 -27,22 -48,25 -71,35 -20,8 -27,9 -43,-2 -22,-14 -5,-51 -5,-51l43 -10z"/>
   <path class="fil5" d="M756 1320c0,0 40,-17 65,-18 25,-1 34,21 6,43 -27,23 -44,28 -67,37 -20,9 -27,9 -43,-1 -22,-14 -5,-51 -4,-51l43 -10z"/>
   <path class="fil6" d="M905 823c0,0 44,238 44,313 0,131 -1,270 -1,270 0,0 -22,23 -44,23 -47,0 -52,-24 -52,-24 0,0 -1,-157 -5,-228 -3,-50 -6,-120 -26,-177 0,59 0,78 -5,142 -4,48 -23,175 -24,184 -16,18 -63,31 -86,4 1,-21 15,-169 13,-245 -2,-70 -20,-236 21,-269 34,-28 165,7 165,7z"/>
   <path class="fil5" d="M783 672c-2,-35 -7,-56 -7,-56l23 -74c0,0 -33,-17 -55,10 -9,11 -26,44 -41,74 11,20 42,47 80,46z"/>
   <path class="fil4" d="M848 396c-17,-12 -51,-9 -65,22 -9,17 3,63 5,96 1,26 -8,41 -8,41 0,0 0,0 23,9 22,9 45,0 45,0l0 -40c0,0 24,-3 28,-7 10,-9 16,-37 11,-73 -7,-53 -32,-44 -39,-48z"/>
   <path class="fil7" d="M909 681c13,-28 -17,-79 -25,-98 -9,-18 -36,-29 -36,-29 0,0 -36,-13 -49,-15 -6,-1 -25,-2 -25,-2 0,0 -43,67 -47,104 -4,26 10,110 0,194 -6,44 161,31 176,13 -9,-41 -21,-109 6,-167z"/>
   <path class="fil6" d="M728 699c1,5 3,56 -2,89 -5,33 -8,85 -8,85 0,0 47,37 102,30 54,-6 92,-38 92,-38 0,0 -18,-94 -17,-105 1,-12 1,-12 1,-12 0,0 -21,10 -34,5 -14,-6 -36,-16 -42,-50 -5,-24 -2,-80 -1,-95 -3,0 -71,-20 -71,-20 0,0 -20,66 -20,111z"/>
   <path class="fil8" d="M870 458c3,-8 9,-29 10,-38 2,-9 3,-24 -11,-37 -13,-14 -59,-18 -75,-9 -17,10 -52,27 -40,84 10,47 20,52 34,63 12,9 34,11 34,11 0,0 11,-8 14,-26 0,-5 0,-22 0,-22 0,0 -13,-24 -3,-33 10,-9 20,6 23,12 8,20 16,30 14,-5z"/>
   <path class="fil4" d="M1063 750c-18,-1 -42,-3 -66,-10 -33,-8 -50,-19 -61,-25 -7,-11 -18,-45 -18,-45l-61 25c0,0 15,41 24,60 8,15 17,18 31,23 21,8 83,10 108,13 6,1 12,2 17,2 13,2 29,7 46,0 14,-6 50,-20 58,-35 8,-16 10,-31 -9,-28 -20,3 -35,14 -38,15 -15,5 7,-19 -2,-18 -5,1 -8,2 -23,17 -2,2 -4,4 -6,6z"/>
   <path class="fil5" d="M857 713c29,7 60,-2 76,-25 -11,-53 -30,-111 -56,-120 -14,-4 -39,44 -35,78 2,9 7,36 15,67z"/>
   <path class="fil9" d="M721 827l-2 23c0,0 32,28 101,29 68,2 91,-22 91,-22l-4 -24c0,0 -36,22 -89,23 -54,1 -97,-29 -97,-29z"/>
   <path class="fil6" d="M799 615c0,0 8,-30 22,-45 13,-14 27,-16 27,-16 0,0 14,4 14,8 -7,4 -21,9 -30,24 -8,14 -14,43 -14,43l-19 -14z"/>
   <path class="fil6" d="M771 537c0,0 -13,19 -22,49 -4,13 -8,43 -8,43l13 2c0,0 13,-49 20,-67 7,-18 12,-27 12,-27l-15 0z"/>
   <path class="fil4" d="M1059 757c1,0 17,-15 23,-21 6,-7 11,-5 9,2 -2,8 -12,21 -12,21 0,0 -15,-2 -17,-2l-3 0z"/>
   <path class="fil10" d="M848 384c33,4 47,26 30,49 -18,24 -59,40 -92,36 -34,-3 -47,-25 -30,-49 17,-23 59,-39 92,-36z"/>
   <path class="fil10" d="M750 447c0,0 -20,-68 40,-88 44,-15 76,2 94,47 11,27 -134,41 -134,41z"/>
   <path class="fil11" d="M860 450c5,-3 25,-29 19,-52 0,-3 -8,-16 -8,-16 0,0 6,-4 31,2 25,5 29,27 10,43 -24,20 -52,23 -52,23z"/>
  </g>
 </g>
</svg>
