<?xml version="1.0" encoding="UTF-8"?>
<!DOCTYPE svg PUBLIC "-//W3C//DTD SVG 1.0//EN" "http://www.w3.org/TR/2001/REC-SVG-20010904/DTD/svg10.dtd">
<!-- Creator: CorelDRAW X8 -->
<svg xmlns="http://www.w3.org/2000/svg" xml:space="preserve" width="42.6334mm" height="17.2334mm" version="1.0" style="shape-rendering:geometricPrecision; text-rendering:geometricPrecision; image-rendering:optimizeQuality; fill-rule:evenodd; clip-rule:evenodd"
viewBox="0 0 1184 479"
 xmlns:xlink="http://www.w3.org/1999/xlink">
 <defs>
  <style type="text/css">
   <![CDATA[
    .str0 {stroke:#A82116;stroke-width:8.33275;stroke-linecap:round;stroke-linejoin:round}
    .fil24 {fill:none}
    .fil79 {fill:none;fill-rule:nonzero}
    .fil2 {fill:#96989A}
    .fil0 {fill:#BDBFC1}
    .fil8 {fill:#FEFEFE;fill-rule:nonzero}
    .fil9 {fill:#FBBB7C;fill-rule:nonzero}
    .fil10 {fill:#999999;fill-rule:nonzero}
    .fil4 {fill:#786260;fill-rule:nonzero}
    .fil5 {fill:#5B4543;fill-rule:nonzero}
    .fil3 {fill:#423635;fill-rule:nonzero}
    .fil13 {fill:#535353;fill-rule:nonzero}
    .fil11 {fill:#454645;fill-rule:nonzero}
    .fil12 {fill:#3F3F3F;fill-rule:nonzero}
    .fil76 {fill:#0C1E01;fill-rule:nonzero}
    .fil45 {fill:#141516;fill-rule:nonzero}
    .fil20 {fill:#14546D;fill-rule:nonzero}
    .fil78 {fill:#163601;fill-rule:nonzero}
    .fil74 {fill:#173801;fill-rule:nonzero}
    .fil65 {fill:#282827;fill-rule:nonzero}
    .fil52 {fill:#282828;fill-rule:nonzero}
    .fil46 {fill:#323435;fill-rule:nonzero}
    .fil73 {fill:#32630C;fill-rule:nonzero}
    .fil16 {fill:#383736;fill-rule:nonzero}
    .fil62 {fill:#393939;fill-rule:nonzero}
    .fil86 {fill:#40ABCB;fill-rule:nonzero}
    .fil25 {fill:#444444;fill-rule:nonzero}
    .fil36 {fill:#4D4D4D;fill-rule:nonzero}
    .fil82 {fill:#565656;fill-rule:nonzero}
    .fil30 {fill:#595959;fill-rule:nonzero}
    .fil84 {fill:#606060;fill-rule:nonzero}
    .fil60 {fill:#626262;fill-rule:nonzero}
    .fil21 {fill:#633A11;fill-rule:nonzero}
    .fil66 {fill:#662D17;fill-rule:nonzero}
    .fil83 {fill:dimgray;fill-rule:nonzero}
    .fil47 {fill:#6A6A69;fill-rule:nonzero}
    .fil37 {fill:#707070;fill-rule:nonzero}
    .fil31 {fill:#727272;fill-rule:nonzero}
    .fil39 {fill:#767675;fill-rule:nonzero}
    .fil70 {fill:#7B8693;fill-rule:nonzero}
    .fil29 {fill:#828282;fill-rule:nonzero}
    .fil35 {fill:#898988;fill-rule:nonzero}
    .fil42 {fill:#8E8E8E;fill-rule:nonzero}
    .fil6 {fill:#8F190E;fill-rule:nonzero}
    .fil55 {fill:#8F190E;fill-rule:nonzero}
    .fil53 {fill:#909090;fill-rule:nonzero}
    .fil32 {fill:#999999;fill-rule:nonzero}
    .fil63 {fill:#9D9C9C;fill-rule:nonzero}
    .fil77 {fill:#9E9E9E;fill-rule:nonzero}
    .fil69 {fill:#9FADBE;fill-rule:nonzero}
    .fil75 {fill:#A2AF99;fill-rule:nonzero}
    .fil80 {fill:#A3A3A3;fill-rule:nonzero}
    .fil51 {fill:#A5A5A5;fill-rule:nonzero}
    .fil7 {fill:#A82116;fill-rule:nonzero}
    .fil54 {fill:#A82116;fill-rule:nonzero}
    .fil57 {fill:#ABAAAA;fill-rule:nonzero}
    .fil81 {fill:#ACACAC;fill-rule:nonzero}
    .fil58 {fill:#ACADAF;fill-rule:nonzero}
    .fil40 {fill:#AD950B;fill-rule:nonzero}
    .fil41 {fill:#B1B1B1;fill-rule:nonzero}
    .fil26 {fill:#B5B8BD;fill-rule:nonzero}
    .fil48 {fill:#BABABA;fill-rule:nonzero}
    .fil33 {fill:#BCBCBC;fill-rule:nonzero}
    .fil68 {fill:#BD693F;fill-rule:nonzero}
    .fil43 {fill:#C5C5C5;fill-rule:nonzero}
    .fil28 {fill:#C6C6C6;fill-rule:nonzero}
    .fil38 {fill:#C9B62D;fill-rule:nonzero}
    .fil87 {fill:#C9C8C5;fill-rule:nonzero}
    .fil50 {fill:#CECECE;fill-rule:nonzero}
    .fil14 {fill:#D18B00;fill-rule:nonzero}
    .fil59 {fill:#D5D7D9;fill-rule:nonzero}
    .fil34 {fill:#D6D6D6;fill-rule:nonzero}
    .fil61 {fill:#D9D9D9;fill-rule:nonzero}
    .fil56 {fill:#DB2C1C;fill-rule:nonzero}
    .fil67 {fill:#DB410B;fill-rule:nonzero}
    .fil1 {fill:#E0E0E0;fill-rule:nonzero}
    .fil17 {fill:#E4EFF4;fill-rule:nonzero}
    .fil18 {fill:#E8C5AC;fill-rule:nonzero}
    .fil44 {fill:#EADA49;fill-rule:nonzero}
    .fil49 {fill:#EAEAEA;fill-rule:nonzero}
    .fil27 {fill:#EDEDED;fill-rule:nonzero}
    .fil22 {fill:#EFCFBD;fill-rule:nonzero}
    .fil71 {fill:#FC95B5;fill-rule:nonzero}
    .fil64 {fill:#FF2A32;fill-rule:nonzero}
    .fil23 {fill:#FFAB00;fill-rule:nonzero}
    .fil72 {fill:#FFD2E2;fill-rule:nonzero}
    .fil19 {fill:#FFE1CC;fill-rule:nonzero}
    .fil15 {fill:#FFE8D9;fill-rule:nonzero}
    .fil85 {fill:#FFF35A;fill-rule:nonzero}
   ]]>
  </style>
   <clipPath id="id0">
    <path d="M4 475l452 0 272 -471 -724 0 0 471z"/>
   </clipPath>
     <mask id="id1">
  <linearGradient id="id2" gradientUnits="userSpaceOnUse" x1="389.892" y1="57.3265" x2="367.649" y2="239.336">
   <stop offset="0" style="stop-opacity:1; stop-color:white"/>
   <stop offset="1" style="stop-opacity:0; stop-color:white"/>
  </linearGradient>
      <rect style="fill:url(#id2)" x="255" y="21" width="200" height="240"/>
     </mask>
   <clipPath id="id3">
    <path d="M728 4l-272 471 724 0 0 -471 -452 0z"/>
   </clipPath>
   <mask id="id4">
  <linearGradient id="id5" gradientUnits="userSpaceOnUse" x1="60.6402" y1="228.806" x2="160.936" y2="424.134">
   <stop offset="0" style="stop-opacity:1; stop-color:white"/>
   <stop offset="1" style="stop-opacity:0; stop-color:white"/>
  </linearGradient>
    <rect style="fill:url(#id5)" x="22" y="188" width="149" height="236"/>
   </mask>
   <mask id="id6">
  <linearGradient id="id7" gradientUnits="userSpaceOnUse" x1="240.415" y1="293.9" x2="183.247" y2="405.235">
   <stop offset="0" style="stop-opacity:1; stop-color:white"/>
   <stop offset="1" style="stop-opacity:0; stop-color:white"/>
  </linearGradient>
    <rect style="fill:url(#id7)" x="178" y="271" width="85.1051" height="134.702"/>
   </mask>
 </defs>
 <g id="Capa_x0020_1">
  <metadata id="CorelCorpID_0Corel-Layer"/>
  <polygon class="fil0" points="4,475 456,475 728,4 4,4 "/>
  <g style="clip-path:url(#id0)">
   <g id="_2495796106128">
    <polygon id="1" class="fil1" points="789,-116 789,376 121,-10 121,-502 "/>
    <path class="fil2" style="mask:url(#id1)" d="M342 50c-12,0 -22,4 -30,10 -5,-10 -15,-18 -28,-18 -16,0 -29,14 -29,30 0,17 13,30 29,30 4,0 7,0 10,-1 2,16 11,29 24,37 -4,8 -6,18 -6,28 0,37 31,68 68,68 8,0 15,-2 22,-4 0,2 0,3 0,4 0,15 11,27 26,27 14,0 26,-12 26,-27 0,-12 -9,-23 -21,-26 9,-11 15,-26 15,-42 0,-35 -26,-64 -59,-68l0 -1c0,-6 -2,-12 -4,-18 13,-1 24,-12 24,-26 0,-15 -12,-26 -26,-26 -15,0 -26,11 -27,25 -4,-1 -9,-2 -14,-2zm95 -29c-7,0 -13,6 -13,13 0,7 6,14 13,14 7,0 14,-7 14,-14 0,-7 -7,-13 -14,-13z"/>
    <polygon class="fil3" points="98,310 -247,111 -247,-152 98,47 "/>
    <polygon class="fil3" points="89,54 89,295 -238,106 -238,-135 "/>
    <polygon class="fil4" points="261,-47 261,65 98,158 98,47 "/>
    <polygon class="fil4" points="253,-31 253,61 107,139 107,53 "/>
    <polygon class="fil5" points="261,-47 -85,-246 -247,-152 98,47 "/>
    <polygon class="fil5" points="242,-48 98,35 -229,-153 -84,-237 "/>
    <polygon class="fil6" points="196,197 98,142 260,48 358,104 "/>
    <polygon class="fil7" points="98,142 98,310 267,408 267,342 196,197 "/>
    <polygon class="fil6" points="428,251 428,314 267,407 267,345 "/>
    <polygon class="fil6" points="196,197 267,345 428,251 358,104 "/>
    <polygon class="fil1" points="352,127 409,247 275,325 217,205 "/>
    <polygon class="fil1" points="146,259 112,239 112,174 177,212 202,268 202,317 155,290 "/>
    <polygon class="fil4" points="442,308 272,406 273,426 442,328 "/>
    <polygon class="fil3" points="273,406 273,426 241,408 241,388 "/>
    <polygon class="fil5" points="249,384 273,398 435,304 442,308 273,406 241,388 "/>
    <polygon class="fil4" points="388,317 388,324 310,369 310,362 "/>
    <polygon class="fil4" points="388,303 388,311 310,355 310,348 "/>
    <polygon class="fil4" points="388,289 388,297 310,342 310,334 "/>
    <polygon class="fil8" points="395,290 428,271 428,295 395,314 "/>
    <polygon class="fil8" points="303,343 303,368 267,389 267,364 "/>
    <polygon class="fil7" points="188,328 185,320 241,353 241,316 246,324 246,361 "/>
    <polygon class="fil7" points="250,333 256,345 256,378 192,341 189,333 250,368 "/>
    <path class="fil9" d="M427 284c0,5 -3,11 -7,13 -3,2 -6,0 -6,-5 0,-5 3,-10 6,-13 4,-2 7,0 7,5z"/>
    <path class="fil9" d="M283 366c0,5 -3,11 -6,13 -4,2 -7,0 -7,-5 0,-5 3,-11 7,-13 3,-2 6,0 6,5z"/>
    <path class="fil9" d="M300 356c0,5 -3,11 -7,13 -4,2 -7,0 -7,-5 0,-5 3,-11 7,-13 4,-2 7,0 7,5z"/>
    <path class="fil9" d="M412 293c0,5 -3,11 -7,13 -4,2 -7,0 -7,-5 0,-5 3,-11 7,-13 4,-2 7,0 7,5z"/>
    <path class="fil3" d="M153 308c17,7 32,32 35,55 5,2 15,8 17,9 -2,9 -6,15 -12,17l-23 14 -16 -35 0 -1c-5,-7 -8,-15 -11,-24l-14 -32c6,-5 14,-7 24,-3z"/>
    <path class="fil3" d="M116 338c0,24 14,52 33,63 18,10 32,-1 32,-25 0,-24 -14,-52 -32,-63 -19,-10 -33,1 -33,25z"/>
    <path class="fil10" d="M127 345c0,16 10,34 22,41 11,7 21,0 21,-16 0,-16 -10,-34 -21,-41 -12,-7 -22,1 -22,16z"/>
    <path class="fil8" d="M133 349c0,11 7,24 16,29 8,5 15,0 15,-11 0,-12 -7,-25 -15,-30 -9,-5 -16,1 -16,12z"/>
    <path class="fil11" d="M141 353c0,6 4,12 8,15 4,2 7,-1 7,-6 0,-5 -3,-12 -7,-14 -4,-3 -8,0 -8,5z"/>
    <path class="fil11" d="M147 342c0,1 1,2 2,2 0,1 1,0 1,-1 0,-1 -1,-2 -1,-2 -1,-1 -2,0 -2,1z"/>
    <path class="fil11" d="M138 342c0,1 0,2 1,2 1,1 1,0 1,-1 0,-1 0,-2 -1,-2 -1,-1 -1,0 -1,1z"/>
    <path class="fil11" d="M156 352c0,1 1,2 1,3 1,0 2,0 2,-1 0,-1 -1,-2 -2,-3 0,0 -1,0 -1,1z"/>
    <path class="fil11" d="M138 362c0,1 0,2 1,2 1,1 1,0 1,-1 0,-1 0,-2 -1,-3 -1,0 -1,0 -1,2z"/>
    <path class="fil11" d="M156 372c0,1 1,2 1,3 1,0 2,0 2,-1 0,-1 -1,-3 -2,-3 0,0 -1,0 -1,1z"/>
    <path class="fil11" d="M135 351c0,1 1,2 2,2 1,1 1,0 1,-1 0,-1 0,-2 -1,-2 -1,-1 -2,0 -2,1z"/>
    <path class="fil11" d="M159 364c0,1 0,3 1,3 1,0 2,0 2,-1 0,-1 -1,-2 -2,-3 -1,0 -1,0 -1,1z"/>
    <path class="fil11" d="M147 372c0,1 1,2 2,3 0,0 1,0 1,-1 0,-1 -1,-3 -1,-3 -1,0 -2,0 -2,1z"/>
    <path class="fil12" d="M-177 117c18,7 33,32 36,55 4,2 14,8 17,9 -2,9 -6,15 -12,17l-23 13 -16 -35 0 0c-5,-7 -9,-15 -11,-24l-15 -32c6,-5 15,-7 24,-3z"/>
    <path class="fil13" d="M-214 147c0,24 15,52 33,63 18,10 33,-1 33,-25 0,-24 -15,-53 -33,-63 -18,-10 -33,1 -33,25z"/>
    <path class="fil10" d="M-202 154c0,16 10,34 21,41 12,7 22,0 22,-16 0,-16 -10,-34 -22,-41 -11,-7 -21,1 -21,16z"/>
    <path class="fil8" d="M-196 158c0,11 7,24 15,29 9,5 16,0 16,-12 0,-11 -7,-24 -16,-29 -8,-5 -15,1 -15,12z"/>
    <path class="fil11" d="M-188 162c0,6 3,12 7,14 4,3 8,0 8,-5 0,-6 -4,-12 -8,-14 -4,-3 -7,0 -7,5z"/>
    <path class="fil11" d="M-182 151c0,1 0,2 1,2 1,1 2,0 2,-1 0,-1 -1,-2 -2,-3 -1,0 -1,0 -1,2z"/>
    <path class="fil11" d="M-192 151c0,1 1,2 2,2 0,1 1,0 1,-1 0,-1 -1,-2 -1,-3 -1,0 -2,0 -2,2z"/>
    <path class="fil11" d="M-173 161c0,1 0,2 1,3 1,0 1,0 1,-1 0,-1 0,-2 -1,-3 -1,0 -1,0 -1,1z"/>
    <path class="fil11" d="M-192 170c0,1 1,3 2,3 0,1 1,0 1,-1 0,-1 -1,-2 -1,-3 -1,0 -2,0 -2,1z"/>
    <path class="fil11" d="M-173 181c0,1 0,2 1,3 1,0 1,0 1,-1 0,-1 0,-3 -1,-3 -1,-1 -1,0 -1,1z"/>
    <path class="fil11" d="M-194 160c0,1 1,2 1,2 1,1 2,0 2,-1 0,-1 -1,-2 -2,-2 0,-1 -1,0 -1,1z"/>
    <path class="fil11" d="M-171 173c0,1 1,2 2,3 1,0 1,0 1,-1 0,-1 0,-2 -1,-3 -1,0 -2,0 -2,1z"/>
    <path class="fil11" d="M-182 181c0,1 0,2 1,3 1,0 2,0 2,-1 0,-1 -1,-3 -2,-3 -1,-1 -1,0 -1,1z"/>
    <g>
     <path class="fil14" d="M492 75c-5,-5 -24,-21 -6,-20 4,0 12,3 14,9 1,5 -8,11 -8,11z"/>
     <path class="fil15" d="M428 174c3,-1 8,1 11,1 3,0 5,-1 8,-1 6,-1 11,-2 17,-3 6,0 12,-1 17,-4 3,-1 4,-3 6,-6 2,-2 3,-3 6,-1 6,3 4,6 2,11 -2,4 -5,8 -6,13 -3,5 -7,3 -12,3 -6,0 -12,1 -19,1 -9,-1 -18,-2 -27,-2 -3,0 -6,-1 -6,-5 -1,-3 -1,-7 3,-7l0 0z"/>
     <path class="fil4" d="M504 355c0,0 -2,3 -7,4 -3,1 -12,2 -12,2 -5,1 -11,2 -12,7 0,0 0,2 0,3 1,2 3,3 6,4 0,0 6,2 11,3 6,1 9,1 14,1 0,0 10,0 10,3l8 2c8,1 13,-6 13,-8l-2 -18 -29 -3z"/>
     <path class="fil16" d="M508 378c-2,-1 -8,1 -14,0 -6,-1 -15,-4 -15,-4 -3,-1 -5,-3 -6,-5 0,1 0,2 0,2 1,3 3,4 6,5 0,0 6,2 11,2 6,2 10,2 14,2 4,0 10,2 10,2 2,0 5,-1 3,-2 0,-1 -5,-2 -9,-2z"/>
     <path class="fil16" d="M521 381l-8 -2c1,0 1,2 1,3l8 2c8,1 13,-6 13,-8l-1 -3c1,2 -5,9 -13,8z"/>
     <path class="fil4" d="M520 338c0,0 0,5 -5,5 -3,0 -6,0 -6,0 -5,-1 -11,-1 -12,3 0,0 -1,1 -1,2 1,3 0,1 3,4 0,0 7,5 11,7 5,2 8,2 10,2 0,0 3,-1 5,0 2,0 2,3 2,5l7 3c7,2 13,-4 13,-6l0 -18 -27 -7z"/>
     <path class="fil16" d="M523 360c-2,0 -5,0 -11,-2 -5,-2 -12,-7 -12,-7 -2,-1 -3,-3 -3,-4 -1,0 -1,1 -1,1 0,3 2,4 4,5 0,0 6,5 10,6 6,2 7,2 9,2 0,0 3,0 5,0 1,0 3,1 3,1 0,0 -1,-2 -4,-2z"/>
     <path class="fil16" d="M534 367l-7 -3c0,1 0,2 0,2l7 3c7,2 13,-4 13,-6l0 -2c0,2 -6,8 -13,6z"/>
     <path class="fil15" d="M544 243c0,3 -4,5 -7,5 -1,0 -2,6 -4,8 -1,2 -4,1 -4,0 0,-1 3,-9 4,-12 2,-7 5,-7 8,-7 3,0 4,3 3,6z"/>
     <path class="fil15" d="M544 236c3,0 10,-6 10,-6 0,0 0,-1 0,-2 1,-8 7,-36 8,-46 0,-11 -4,-40 -4,-40 0,0 -2,-25 -19,-24 -10,0 -5,15 -5,24 0,7 3,42 3,42l-2 44c0,0 3,8 9,8z"/>
     <path class="fil8" d="M562 142c0,0 -1,-25 -18,-24 -10,0 -5,15 -5,24 0,2 0,8 1,14l24 0c-1,-8 -2,-14 -2,-14z"/>
     <path class="fil15" d="M548 238l-8 -1 -4 10 0 1 1 14c0,0 0,6 6,6 5,1 1,0 1,0 6,1 7,-6 7,-6l2 -16c0,-4 -1,-8 -5,-8z"/>
     <path class="fil17" d="M533 237c0,2 4,5 8,5 6,1 8,0 8,0 3,-1 4,-2 5,-4 0,0 0,-7 1,-9 0,-1 -1,-1 -1,-1 0,0 0,1 0,1 -1,2 -4,3 -9,4 -9,0 -10,-5 -10,-5 -1,0 -1,0 -1,2l-1 7z"/>
     <path class="fil8" d="M535 152c2,-2 11,-2 13,-2 4,0 10,2 13,2 2,0 4,-1 5,6 0,3 -1,5 -4,4 -7,0 -15,-2 -23,-1 -2,0 -5,-8 -4,-9z"/>
     <path class="fil18" d="M551 238c0,0 4,-19 -19,-19 -18,0 -18,19 -18,19l9 111 23 0 5 -111z"/>
     <path class="fil19" d="M506 64l-16 2 7 40c2,12 7,13 10,13 7,-1 15,-5 19,-8 7,-6 6,-19 6,-20l0 -27 -26 0z"/>
     <path class="fil19" d="M535 119l-4 -25 -20 5 3 24c0,3 -13,32 -13,42l38 -12c0,-5 -4,-34 -4,-34z"/>
     <path class="fil20" d="M508 209l0 10c0,8 2,21 2,21l36 2c5,-1 6,-7 6,-14l0 -19 -44 0z"/>
     <path class="fil19" d="M551 238c0,0 -2,-13 -17,-13 -3,0 0,0 -7,0 -15,0 -17,15 -17,15l9 109 25 0 7 -111z"/>
     <path class="fil21" d="M494 60c-9,6 -6,11 -2,18 2,3 6,8 7,12l1 4c0,2 2,4 3,2 1,-3 -1,-5 0,-6 1,-2 4,-2 8,6l2 7c4,7 10,7 14,6 0,0 5,-2 7,-4 1,-1 7,-13 8,-17 5,-19 -5,-43 -35,-34 -8,2 -13,6 -13,6z"/>
     <path class="fil3" d="M510 229l1 126c0,0 8,8 22,8 8,0 15,-5 15,-7l5 -130 -43 3z"/>
     <path class="fil3" d="M500 241l2 113c0,0 0,3 -2,3 -1,1 -1,3 0,5 1,2 8,14 23,13 5,0 11,-2 11,-4l8 -126 -42 -4z"/>
     <path class="fil8" d="M500 140c-5,5 -6,10 -6,26l6 78c0,3 53,-6 53,-12l1 -81c-1,-28 -17,-34 -17,-34l-19 7 -18 16z"/>
     <path class="fil15" d="M430 185l3 -9 -2 -3 -13 -4 -16 0c0,0 -3,0 -3,2 0,1 3,1 9,1 3,0 2,2 2,2 -1,5 -1,9 0,12 2,3 5,3 7,2 0,0 0,-1 0,-1 6,2 13,3 13,-2z"/>
     <path class="fil22" d="M503 85c0,0 4,1 5,5 1,2 0,4 0,5 -2,2 -3,2 -3,2 0,0 0,-6 -1,-7 0,-1 -1,-5 -1,-5z"/>
     <path class="fil15" d="M502 84c0,0 -2,0 -1,3 2,2 2,4 2,5 0,2 0,6 0,6 0,0 2,2 3,-1 0,-1 0,-3 0,-6 0,-2 -2,-8 -4,-7z"/>
     <path class="fil8" d="M494 183c7,-6 14,-12 14,-12 0,0 16,-13 11,-26 -4,-9 -16,-9 -22,-2 -4,4 -12,12 -18,19 -3,3 9,26 15,21z"/>
     <path class="fil3" d="M500 241l-5 -59c0,0 15,20 27,15 12,-6 9,-25 14,-23 9,5 17,39 17,39 0,0 5,25 -1,30 -6,5 -50,15 -52,-2z"/>
     <path class="fil3" d="M535 223c3,-53 2,-77 -13,-92 -3,-3 -10,-3 -10,-3 0,0 -7,6 -7,7 0,0 8,-1 13,4 11,10 11,34 11,86l6 -2z"/>
     <path class="fil3" d="M553 215c3,-45 1,-71 -2,-85 -2,-13 -7,-14 -7,-14 0,0 -8,-1 -9,1 0,1 7,0 10,13 3,14 5,42 4,86l4 -1z"/>
     <path class="fil23" d="M539 91c0,0 -22,8 -52,-21 -1,-1 -1,-4 0,-5 4,-7 19,-23 39,-15 21,8 22,39 13,41z"/>
     <path class="fil8" d="M480 157c2,1 8,7 9,9 2,3 5,9 7,12 1,1 3,2 -2,7 -2,2 -4,2 -6,0 -4,-6 -8,-13 -13,-19 -1,-2 2,-9 5,-9z"/>
     <path class="fil3" d="M531 155c0,0 3,-1 10,-4 7,-2 7,-4 7,-4l4 39 -2 33 -16 6 -2 -48 -1 -22z"/>
    </g>
   </g>
  </g>
  <polygon class="fil24 str0" points="4,475 456,475 728,4 4,4 "/>
  <polygon class="fil0" points="728,4 456,475 1180,475 1180,4 "/>
  <g style="clip-path:url(#id3)">
   <g id="_2531774891920">
    <path id="1" class="fil25" d="M1542 -112l0 0c-1,-4 -5,-7 -7,-6 -1,0 -14,8 -14,9 2,-2 5,0 7,4 1,2 1,5 -1,7 1,-1 14,-8 14,-9 2,-1 2,-3 1,-5z"/>
    <path class="fil26" d="M1524 -109c3,1 5,5 5,8 0,3 -2,4 -5,2 -2,-1 -4,-5 -4,-8 0,-2 2,-4 4,-2z"/>
    <path class="fil27" d="M1536 -106l0 0c-3,-11 -13,-19 -19,-15 -1,0 -5,2 -6,3 5,-3 14,2 18,11 4,6 5,16 0,19 1,0 4,-2 5,-3 4,-2 5,-9 2,-15z"/>
    <path class="fil28" d="M1520 -117c7,4 12,13 12,21 0,8 -5,11 -12,7 -7,-4 -13,-13 -13,-21 0,-8 6,-11 13,-7z"/>
    <path class="fil29" d="M1523 -103l0 0c-1,-3 -4,-6 -6,-5l-2 1c2,-1 5,1 6,4 1,2 2,5 0,6l2 -1c1,-1 1,-3 0,-5z"/>
    <path class="fil30" d="M1518 -107c2,2 4,5 4,7 0,3 -2,4 -4,3 -2,-2 -4,-5 -4,-7 0,-3 2,-4 4,-3z"/>
    <polygon class="fil31" points="1568,-71 1569,-71 1572,-70 1556,-61 1554,-62 1553,-62 "/>
    <path class="fil31" d="M1578 -22l1 -4 15 -9 0 4c0,0 0,0 0,1 -6,3 -11,6 -16,9 0,-1 0,-1 0,-1z"/>
    <path class="fil31" d="M1573 -85c1,-1 2,1 4,4l-16 9c-1,-2 -3,-5 -4,-4 6,-3 11,-6 16,-9z"/>
    <path class="fil31" d="M1592 -22l-2 -4 16 -9 2 4c0,1 0,1 0,2 -6,3 -11,6 -16,9 0,-1 0,-1 0,-2z"/>
    <path class="fil32" d="M1567 -74l15 -9c-1,0 -3,0 -4,1l-16 9 0 0 0 0 0 0 0 0c2,-1 3,-1 5,-1z"/>
    <path class="fil32" d="M1590 -26l16 -9c1,-1 3,-3 3,-5l-15 10c-1,2 -2,3 -4,4z"/>
    <polygon class="fil33" points="1582,-88 1582,-88 1586,-87 1571,-78 1567,-79 1566,-79 "/>
    <path class="fil31" d="M1571 -78l0 0 0 0 15 -9 1 0c1,0 1,1 2,5l-16 9c-1,-3 -1,-4 -2,-5z"/>
    <path class="fil33" d="M1598 -28l1 -5 16 -9 -1 5 -1 0c-5,3 -10,6 -15,9l0 0z"/>
    <path class="fil31" d="M1595 -37l16 -9c2,2 3,2 4,4l0 0 0 0 -16 9 0 0 0 0c0,-1 -1,-2 -4,-4z"/>
    <path class="fil32" d="M1589 -82l0 0 0 0 0 0 0 0 0 0 0 0c1,0 2,1 2,1l1 1c1,0 1,0 1,1l1 0 0 0c0,0 0,0 1,1l0 0 0 0 0 0 0 0 0 0 0 0 0 0 0 0 0 0 0 0 0 0 0 0 1 0 0 0 -16 9 0 0 0 0 0 0 0 0 0 0 0 0 0 0 0 0 0 0 0 0 -1 0 0 0 0 0 0 0 0 0 0 0 0 0 0 0 0 0 0 0 0 0 0 0 0 -1 0 0 0 0c-1,0 -2,-1 -2,-1l-1 -1 0 0 0 0 -1 0 0 0c0,0 0,0 0,0l0 0 -1 0 0 0 0 0 0 0 0 0 0 0 0 0 0 -1 0 0 0 0 0 0 0 0 0 0 0 0 0 0 0 0 0 0 0 0 0 0 0 0 0 0 0 0 0 0 0 0 0 0 0 0 0 0 -1 0 16 -9z"/>
    <path class="fil32" d="M1594 -46l16 -9c1,3 1,6 1,9l0 0 -16 9 0 0c0,-3 0,-6 -1,-9z"/>
    <path class="fil32" d="M1591 -54l16 -9c-1,-1 -1,-2 -1,-2l0 0 0 -1 -1 0 -15 9 0 0 0 0 0 0 0 1 0 0c1,0 1,1 1,2z"/>
    <path class="fil32" d="M1590 -57l15 -9c0,0 0,-1 0,-1l0 0 0 0 0 0 0 0c-1,-2 -2,-3 -3,-4l0 0 0 0 0 0 0 0 -16 9 0 0 0 0 0 0 0 0 0 0 0 0 0 0 0 0 0 0 1 0 0 0 0 0c0,1 1,3 2,4l0 0 0 0 0 0 0 0 0 0 0 0 0 0 0 0 0 0 0 0 0 0 0 0 0 0 0 0 0 0 0 1 0 0 1 0 0 0 0 0 0 0 0 0z"/>
    <path class="fil34" d="M1597 -80c0,-1 0,-1 1,0 0,0 4,4 4,4l-15 9c-4,-3 -5,-5 -6,-4l16 -9z"/>
    <path class="fil35" d="M1587 -67l15 -9 1 1 0 0c0,1 0,2 -1,4l-16 9c1,-2 2,-3 1,-5z"/>
    <path class="fil34" d="M1597 -47l-2 -6 16 -9 2 6c0,1 0,1 0,1l-16 9c1,0 1,0 0,-1z"/>
    <path class="fil35" d="M1607 -63l2 0c1,0 2,1 2,1l-16 9c0,-2 -2,-1 -4,-1l16 -9z"/>
    <path class="fil36" d="M1554 -62c-1,0 -2,0 -1,1l0 5c0,1 1,2 1,2l0 0 3 1c1,3 2,6 4,9l-2 1c-1,1 -1,2 0,2l3 5c0,1 0,1 1,1 0,0 0,0 1,0l2 -1c2,2 4,5 6,6l0 4c0,1 0,1 1,2l4 3c1,0 1,0 1,-1l1 -4c2,1 4,2 6,2l2 4c0,0 0,0 1,1l0 0 4 -1c0,-1 0,-1 0,-2l-2 -4c2,-1 3,-2 4,-4l3 2 0 0c1,0 1,0 1,0l1 -5c0,0 0,-1 -1,-2l-3 -2 0 0c0,-3 0,-6 -1,-9l3 0c1,0 1,0 0,-1l-2 -6c0,0 0,-1 -1,-1l0 0 -3 0c0,-1 0,-2 -1,-2 -1,-3 -2,-5 -4,-6l1 -3c0,0 0,-1 0,-2l-4 -4 -1 0c0,-1 -1,-1 -1,0l-1 2c-1,-1 -2,-2 -3,-2l-1 -1c-1,0 -2,-1 -3,-1l-1 -4c0,0 0,-1 -1,-1l0 0 -4 -1c-1,0 -1,0 -1,1l1 4c-2,0 -4,0 -6,2l-2 -4 -1 0c0,0 0,0 -1,0l-2 3c0,0 0,1 0,2l3 3c-1,2 -1,4 -2,7l0 0 -2 -1z"/>
    <polygon class="fil37" points="1675,-159 1570,-99 1517,-130 1622,-190 "/>
    <path class="fil37" d="M1714 -95c0,11 -3,19 -9,23 0,0 -1,0 -1,0 -35,21 -70,41 -105,61 7,-4 11,-12 11,-23 0,-6 -1,-13 -3,-19l105 -60c1,6 2,12 2,18z"/>
    <path class="fil37" d="M1678 -158c15,9 27,25 33,43l-105 60c-6,-17 -18,-34 -32,-42l-2 -1 105 -60 1 0z"/>
    <polygon class="fil38" points="1496,-81 1489,-85 1490,28 1496,32 "/>
    <polygon class="fil39" points="1505,-86 1498,-90 1489,-85 1496,-81 "/>
    <polygon class="fil40" points="1496,-81 1496,32 1506,26 1505,-86 "/>
    <polygon class="fil38" points="1544,-53 1555,-59 1555,-72 1544,-66 "/>
    <path class="fil25" d="M1585 -51l0 0c-3,-8 -11,-14 -16,-11 0,0 -28,17 -29,17 4,-2 11,2 14,9 3,5 4,12 0,14 1,0 28,-17 29,-17 3,-2 4,-7 2,-12z"/>
    <path class="fil26" d="M1547 -44c5,3 10,10 10,16 0,6 -5,9 -10,6 -5,-3 -10,-11 -10,-17 0,-6 5,-8 10,-5z"/>
    <path class="fil27" d="M1573 -38l0 0c-8,-23 -29,-39 -42,-32 -2,1 -10,6 -12,7 11,-7 29,5 39,23 7,14 10,34 -1,41 1,-1 9,-6 11,-7 9,-5 10,-19 5,-32z"/>
    <path class="fil28" d="M1538 -61c15,8 26,28 26,45 0,16 -12,23 -26,15 -15,-9 -26,-29 -26,-45 0,-17 12,-24 26,-15z"/>
    <path class="fil29" d="M1546 -31l0 0c-3,-8 -10,-13 -14,-10 -1,0 -3,1 -4,2 4,-2 10,1 13,7 2,5 3,11 -1,13 1,0 3,-2 4,-2 3,-2 3,-6 2,-10z"/>
    <path class="fil30" d="M1534 -39c5,3 9,9 9,15 0,5 -4,7 -9,5 -4,-3 -8,-10 -8,-15 0,-5 4,-7 8,-5z"/>
    <polygon class="fil41" points="1606,-101 1606,-87 1515,-34 1515,-48 "/>
    <polygon class="fil42" points="1515,-48 1515,-34 1457,-68 1457,-81 "/>
    <polygon class="fil43" points="1606,-101 1515,-48 1457,-81 1548,-134 "/>
    <polygon class="fil44" points="1170,126 1170,132 1307,52 1307,47 "/>
    <path class="fil45" d="M1160 106l0 0 0 1 0 0 0 0 0 0 0 0 0 0 0 0 0 0 0 0 0 0 0 0 0 0 0 0 0 1 0 0 0 0 0 0 0 0 0 0 0 0 0 0 0 1 0 0 0 0 0 3 0 0 0 0 0 0 0 0c0,2 1,3 3,5 4,2 11,2 15,0l0 0 0 -1 0 0 0 0 0 0 0 0 0 0 0 0 1 0 0 0 0 0 0 0 0 0 0 0 0 0 0 0 0 0 0 0 0 0 0 0 0 0 0 0 0 0 0 0 0 -1 0 0 0 0 0 0 0 0 0 0 1 0 0 0 0 0 0 0 0 0 0 0 0 0 0 0 0 0 0 0 0 0 0 0 0 0 0 0 0 0 0 0c0,0 0,-1 0,-1l0 0 0 0 0 0 0 0 0 0 0 0 0 0 0 0 0 0 0 0 0 0 0 0 0 0 0 0 0 0 0 0 0 0 1 0 0 0 0 0 0 0 0 0 0 0 0 0 0 0 0 -1 0 0 0 0 0 0 0 0 0 0 0 0 0 0 0 0 0 0 0 0 0 0 0 0 0 0 0 0 0 0 0 0 0 0 0 0 0 0 0 0 0 0 0 0 0 0 0 0 0 0 0 -1 0 0 0 0 0 0 0 0 0 0c0,-1 0,-4 0,-5l0 0 0 0 0 0 0 -1 0 0 0 0c0,2 -1,3 -3,5 -4,2 -11,2 -15,0l0 0 0 -1 0 0 0 0 0 0 0 0 0 0 0 0 0 0 -1 0 0 0 0 0 0 0 0 0 0 0 0 0 0 0 0 0 0 0 0 0 0 0 0 -1 0 0 0 0 0 0 0 0 0 0 0 0 0 0 0 0 0 0 0 0 -1 0 0 0 0 0 0 0 0 0 0 0 0 0 0 0 0 0 0 0 0 0 0 0 0 0 0 0 0 -1 0 0 0 0 0 0 0 0 0 0 0 0 0 0 0 0 0 0 0 0 0 0 0 0 0 0 0 0 0 0 0 0 0 0 0 0 0 0 0 0 0 0 0 0 0 0 0 0 0 0 0 0 0 -1 0 0 0 0 0 0 0 0 0 0 -1 0 0 0 0 0 0 0 0 0 0 0 0 0 0 0 0 0 0 0 0 0 0 0 0 0 0 0 0 0 0 0 0 0 0 0 0 0 0 0 0 0 0 -1 0 0z"/>
    <path class="fil46" d="M1163 102c-4,3 -4,6 0,9 4,2 11,2 15,0 4,-3 4,-6 0,-9 -4,-2 -11,-2 -15,0z"/>
    <polygon class="fil47" points="976,198 976,204 874,263 874,257 "/>
    <path class="fil48" d="M1635 -181c-1,0 -2,0 -3,-1 6,3 9,10 9,18 0,19 -13,41 -29,50l-725 422c-8,5 -15,5 -20,2l2 2c2,1 5,2 8,2 2,-1 5,-1 8,-2 1,-1 2,-2 4,-2l726 -423c15,-9 28,-31 28,-49 0,-9 -3,-16 -8,-19z"/>
    <path class="fil49" d="M1638 -189c0,0 -1,0 -1,-1 -6,-3 -15,-3 -25,3l-725 423c-20,11 -35,38 -35,60 0,11 4,19 10,22 1,1 1,1 2,1 0,0 -1,0 -1,0 -6,-4 -9,-12 -9,-22 0,-22 16,-49 35,-60l725 -423c10,-5 18,-6 24,-3l1 1c0,-1 -1,-1 -1,-1z"/>
    <path class="fil50" d="M1615 -113c15,-9 28,-31 28,-49 0,-18 -13,-26 -29,-17l-725 423c-16,9 -29,31 -29,49 0,18 13,26 29,17l726 -423zm-1 -73c20,-11 35,-2 35,20 0,22 -15,49 -34,60l-726 423c-19,11 -35,2 -35,-20 0,-22 16,-49 35,-60l725 -423z"/>
    <path class="fil51" d="M1734 -116c-33,-19 -66,-38 -100,-58 6,3 9,10 9,19 0,18 -13,39 -29,48l-724 422c-8,5 -15,5 -20,2 33,20 67,39 100,58 5,3 12,3 20,-1l724 -423c16,-9 29,-30 29,-48 0,-9 -4,-16 -9,-19z"/>
    <path class="fil52" d="M1639 -181c-6,-4 -15,-4 -25,2l-724 422c-19,11 -35,38 -35,60 0,10 4,18 9,22 1,0 1,0 2,0 33,20 66,39 99,58 -6,-3 -10,-11 -10,-22 0,-22 16,-49 35,-60l724 -422c10,-6 18,-6 25,-2 -33,-20 -67,-39 -100,-58z"/>
    <path class="fil53" d="M1714 -49c16,-9 29,-30 29,-48 0,-18 -13,-26 -29,-17l-724 422c-16,9 -28,31 -28,49 0,18 12,26 28,17l724 -423zm0 -72c19,-11 35,-2 35,20 0,22 -16,49 -35,60l-724 422c-19,11 -35,2 -35,-20 0,-22 16,-49 35,-60l724 -422z"/>
    <path class="fil25" d="M1028 282l0 0c1,-4 5,-7 7,-6 0,1 14,9 14,9 -2,-1 -5,1 -7,4 -1,2 -2,6 0,7 0,0 -13,-8 -13,-8 -2,-1 -2,-4 -1,-6z"/>
    <path class="fil26" d="M1046 285c-3,2 -5,5 -5,8 0,3 2,4 5,3 2,-2 4,-5 4,-8 0,-3 -2,-4 -4,-3z"/>
    <path class="fil27" d="M1033 288l0 0c4,-11 14,-19 20,-15 1,1 5,3 6,3 -5,-3 -14,2 -18,11 -4,7 -5,16 0,19 -1,0 -4,-2 -5,-3 -4,-2 -5,-9 -3,-15z"/>
    <path class="fil28" d="M1050 277c-7,4 -12,14 -12,21 0,8 5,11 12,8 7,-4 12,-14 12,-22 0,-8 -5,-11 -12,-7z"/>
    <path class="fil29" d="M1046 291l0 0c2,-3 5,-6 7,-5l2 1c-2,-1 -5,1 -6,4 -1,2 -2,5 0,6l-2 -1c-1,-1 -1,-3 -1,-5z"/>
    <path class="fil30" d="M1052 288c-2,1 -4,4 -4,7 0,2 2,3 4,2 2,-1 4,-4 4,-7 0,-3 -2,-4 -4,-2z"/>
    <path class="fil25" d="M1091 245l0 0c2,-4 5,-7 7,-6 1,1 14,9 14,9 -2,-1 -5,1 -6,4 -2,2 -2,6 0,7 0,0 -14,-8 -14,-8 -1,-1 -2,-4 -1,-6z"/>
    <path class="fil26" d="M1109 248c-2,2 -4,5 -4,8 0,3 2,4 4,3 3,-2 5,-5 5,-8 0,-3 -2,-4 -5,-3z"/>
    <path class="fil27" d="M1097 251l0 0c4,-11 14,-19 20,-15 1,1 4,3 5,3 -5,-3 -13,2 -18,11 -3,7 -5,16 1,19 -1,0 -5,-2 -6,-3 -4,-2 -4,-9 -2,-15z"/>
    <path class="fil28" d="M1113 240c-7,4 -12,14 -12,21 0,8 6,11 12,7 7,-3 13,-13 13,-21 0,-8 -6,-11 -13,-7z"/>
    <path class="fil29" d="M1110 254l0 0c1,-3 4,-6 6,-5l2 1c-2,-1 -4,1 -6,4 -1,2 -1,5 0,6l-1 -1c-2,-1 -2,-3 -1,-5z"/>
    <path class="fil30" d="M1115 251c-2,1 -4,4 -4,7 0,2 2,3 4,2 2,-1 4,-4 4,-7 0,-3 -2,-4 -4,-2z"/>
    <path class="fil25" d="M1155 208l0 0c1,-4 5,-7 7,-6 0,1 13,9 14,9 -2,-1 -5,1 -7,4 -1,2 -2,6 0,7 0,0 -13,-8 -14,-8 -1,-1 -1,-4 0,-6z"/>
    <path class="fil26" d="M1172 211c-2,2 -4,5 -4,8 0,3 2,4 5,3 2,-2 4,-5 4,-8 0,-3 -2,-4 -5,-3z"/>
    <path class="fil27" d="M1160 214l0 0c4,-11 14,-19 20,-15 1,1 5,3 6,3 -6,-3 -14,2 -19,11 -3,7 -4,16 1,19 -1,0 -5,-2 -5,-3 -5,-2 -5,-9 -3,-15z"/>
    <path class="fil28" d="M1177 203c-7,4 -13,14 -13,21 0,8 6,11 13,7 7,-3 12,-13 12,-21 0,-8 -5,-11 -12,-7z"/>
    <path class="fil29" d="M1173 217l0 0c1,-3 5,-6 7,-5l1 1c-1,-1 -4,1 -5,4 -2,2 -2,5 0,6l-2 -1c-1,-1 -2,-3 -1,-5z"/>
    <path class="fil30" d="M1179 214c-3,1 -4,4 -4,7 0,2 1,3 4,2 2,-1 3,-4 3,-7 0,-3 -1,-4 -3,-2z"/>
    <path class="fil25" d="M1218 171l0 0c1,-4 5,-7 7,-6 1,1 14,9 14,9 -2,-1 -5,1 -7,4 -1,2 -1,6 1,7 -1,0 -14,-8 -14,-8 -2,-1 -2,-4 -1,-6z"/>
    <path class="fil26" d="M1236 174c-3,2 -5,5 -5,8 0,3 2,4 5,3 2,-2 4,-5 4,-8 0,-3 -2,-4 -4,-3z"/>
    <path class="fil27" d="M1224 177l0 0c3,-11 13,-19 19,-15 1,0 5,3 6,3 -5,-3 -14,2 -18,11 -4,7 -5,16 0,19 -1,0 -4,-2 -5,-3 -4,-2 -5,-9 -2,-15z"/>
    <path class="fil28" d="M1240 166c-7,4 -12,14 -12,21 0,8 5,11 12,7 7,-3 13,-13 13,-21 0,-8 -6,-11 -13,-7z"/>
    <path class="fil29" d="M1237 180l0 0c1,-3 4,-6 6,-5 0,1 1,1 2,1 -2,-1 -5,1 -6,4 -1,2 -2,5 0,6 0,0 -1,-1 -2,-1 -1,-1 -1,-3 0,-5z"/>
    <path class="fil30" d="M1242 177c-2,1 -4,4 -4,7 0,2 2,3 4,2 2,-1 4,-5 4,-7 0,-3 -2,-4 -4,-2z"/>
    <polygon class="fil31" points="1001,323 1001,323 998,324 1013,333 1016,332 1017,332 "/>
    <path class="fil31" d="M991 372l0 -3 -15 -9 0 3c0,0 0,1 0,1 5,3 11,6 16,9 0,0 -1,-1 -1,-1z"/>
    <path class="fil31" d="M997 309c-1,0 -2,1 -4,4l16 9c1,-2 2,-4 3,-4 -5,-3 -10,-6 -15,-9z"/>
    <path class="fil31" d="M978 372l2 -4 -16 -9 -2 4c0,1 0,2 0,2 5,3 11,6 16,9 -1,0 -1,-1 0,-2z"/>
    <path class="fil32" d="M1003 320l-15 -9c1,0 3,0 4,1l16 9 0 0 0 0 0 0 0 0c-2,-1 -3,-1 -5,-1z"/>
    <path class="fil32" d="M980 368l-16 -9c-1,-1 -3,-2 -4,-4l16 9c1,2 2,3 4,4z"/>
    <polygon class="fil33" points="988,306 988,306 984,307 999,316 1003,315 1004,315 "/>
    <path class="fil31" d="M998 316l1 0 0 0 -15 -9 -1 0c-1,1 -1,2 -2,5l16 9c1,-3 1,-4 1,-5z"/>
    <path class="fil33" d="M972 366l-1 -4 -16 -10 1 5 0 0c6,3 11,6 16,9l0 0z"/>
    <path class="fil31" d="M975 357l-16 -9c-2,2 -4,3 -4,4l0 0 0 0 16 10 0 -1 0 0c0,-1 1,-2 4,-4z"/>
    <path class="fil32" d="M981 312l0 0 0 0 0 0 0 0 0 0 0 0c-1,1 -2,1 -3,2l0 0c-1,0 -1,1 -2,1l0 0 0 0c0,0 -1,1 -1,1l0 0 0 0 0 0 0 0 0 0 0 0 0 0 -1 0 0 0 0 0 0 0 0 0 0 0 0 0 16 10 0 -1 0 0 0 0 0 0 0 0 0 0 0 0 0 0 0 0 0 0 0 0 0 0 0 0 0 0 0 0 1 0 0 0 0 0 0 0 0 0 0 0 0 0 0 0 0 0 0 0c1,-1 1,-2 2,-2l1 0 0 0 0 -1 0 0 0 0c1,0 1,0 1,0l0 0 0 0 0 0 0 0 0 0 0 0 1 0 0 0 0 0 0 0 0 0 0 0 0 0 0 0 0 0 0 0 0 0 0 0 0 0 0 0 0 0 0 0 0 0 0 0 0 -1 0 0 0 0 0 0 1 0 -16 -9z"/>
    <path class="fil32" d="M975 349l-15 -9c-1,3 -1,5 -1,8l0 0 16 9 -1 0c0,-3 1,-5 1,-8z"/>
    <path class="fil32" d="M978 340l-15 -9c0,-1 1,-1 1,-2l0 0 0 0 1 -1 15 9 0 0 0 1 0 0 0 0 0 0c-1,1 -1,1 -2,2z"/>
    <path class="fil32" d="M980 337l-15 -9c0,0 0,0 0,-1l0 0 0 0 0 0 0 0c1,-1 2,-3 3,-4l0 0 0 0 0 0 0 0 16 9 0 0 0 0 0 0 0 0 -1 0 0 0 0 0 0 0 0 0 0 0 0 0 0 0c-1,2 -1,3 -2,4l0 0 0 0 0 0 0 0 0 0 0 0 0 0 0 0 0 0 0 0 -1 1 0 0 0 0 0 0 0 0 0 0 0 0 0 0 0 0 0 0 0 0 0 0z"/>
    <path class="fil34" d="M973 314c0,0 -1,0 -1,0 0,0 -4,4 -4,4l15 9c4,-3 5,-5 5,-4l-15 -9z"/>
    <path class="fil35" d="M983 327l-15 -9 -1 1 0 0c0,1 0,2 1,4l16 9c-1,-2 -2,-3 -1,-5z"/>
    <path class="fil34" d="M972 347l2 -6 -15 -9 -2 6c0,1 0,1 0,2l16 9c-1,-1 -1,-1 -1,-2z"/>
    <path class="fil35" d="M963 331l-3 0c0,0 -1,1 -1,1l15 9c1,-1 2,-1 4,-1l-15 -9z"/>
    <path class="fil36" d="M1016 332c1,0 1,0 1,1l0 5c0,1 -1,2 -1,2l-1 0 -3 1c0,3 -1,6 -3,9l2 2c1,0 1,1 0,1l-3 6c0,0 -1,0 -1,0 0,1 -1,1 -1,1l-2 -2c-2,3 -4,5 -6,7l0 3c0,1 0,2 -1,2l-4 3c-1,0 -2,0 -2,-1l0 -3c-2,1 -4,1 -6,1l-2 4c0,0 -1,1 -1,1l-1 0 -3 -1c-1,0 -1,-1 0,-2l2 -4c-2,-1 -3,-2 -4,-4l-3 2 0 0c-1,1 -1,0 -1,0l-1 -4c0,-1 0,-2 1,-2l3 -3 -1 0c0,-3 1,-5 1,-8l-2 0c-1,0 -1,-1 -1,-2l2 -6c1,0 1,0 1,-1l1 0 2 0c1,-1 1,-1 2,-2 1,-2 2,-4 4,-6l-1 -3c-1,0 0,-1 0,-2l4 -4 1 0c0,0 1,0 1,0l1 3c1,-1 2,-2 3,-3l1 0c1,-1 2,-1 3,-2l1 -3c0,-1 0,-2 1,-2l0 0 4 -1c1,0 1,1 1,1l-1 4c2,0 4,1 6,2l2 -3 1 -1c0,0 0,0 0,0l3 3c0,1 0,1 -1,2l-2 3c1,2 1,4 1,7l0 0 3 -1z"/>
    <path class="fil25" d="M1662 -88l0 0c1,-4 5,-7 7,-6 0,1 14,8 14,9 -2,-1 -5,1 -7,4 -1,2 -1,6 1,7 -1,0 -14,-8 -14,-8 -2,-1 -2,-4 -1,-6z"/>
    <path class="fil26" d="M1680 -85c-3,1 -5,5 -5,8 0,3 2,4 5,2 2,-1 4,-4 4,-7 0,-3 -2,-4 -4,-3z"/>
    <path class="fil27" d="M1667 -82l0 0c4,-11 14,-19 20,-15 1,0 5,3 6,3 -5,-3 -14,2 -18,11 -4,7 -5,16 0,19 -1,0 -4,-2 -5,-3 -4,-2 -5,-9 -3,-15z"/>
    <path class="fil28" d="M1684 -93c-7,4 -12,13 -12,21 0,8 5,11 12,7 7,-4 12,-13 12,-21 0,-8 -5,-11 -12,-7z"/>
    <path class="fil29" d="M1680 -79l0 0c2,-3 5,-6 7,-5l2 1c-2,-1 -5,1 -6,4 -1,2 -2,5 0,6l-2 -1c-1,-1 -1,-3 -1,-5z"/>
    <path class="fil30" d="M1686 -82c-2,1 -4,4 -4,7 0,2 2,3 4,2 2,-1 4,-5 4,-7 0,-3 -2,-4 -4,-2z"/>
    <path class="fil25" d="M1598 -51l0 0c2,-4 5,-7 8,-6 0,1 13,9 14,9 -2,-1 -5,1 -7,4 -1,2 -2,6 0,7 0,0 -13,-8 -14,-8 -1,-1 -1,-4 -1,-6z"/>
    <path class="fil26" d="M1616 -48c-2,1 -4,5 -4,8 0,3 2,4 4,2 3,-1 5,-4 5,-7 0,-3 -2,-4 -5,-3z"/>
    <path class="fil27" d="M1604 -45l0 0c4,-11 14,-19 20,-15 1,0 4,3 5,3 -5,-3 -13,2 -18,11 -3,7 -5,16 1,19 -1,0 -5,-2 -6,-3 -4,-2 -4,-9 -2,-15z"/>
    <path class="fil28" d="M1621 -56c-7,4 -13,13 -13,21 0,8 6,11 13,7 6,-4 12,-13 12,-21 0,-8 -6,-11 -12,-7z"/>
    <path class="fil29" d="M1617 -42l0 0c1,-3 4,-6 6,-5l2 1c-1,-1 -4,1 -6,4 -1,2 -1,5 1,6l-2 -1c-2,-1 -2,-3 -1,-5z"/>
    <path class="fil30" d="M1622 -45c-2,1 -4,4 -4,7 0,2 2,3 4,2 3,-1 4,-5 4,-7 0,-3 -1,-4 -4,-2z"/>
    <path class="fil25" d="M1535 -14l0 0c1,-4 5,-7 7,-6 1,1 14,9 14,9 -2,-1 -5,1 -6,4 -2,2 -2,6 0,7 -1,0 -14,-8 -14,-8 -2,-1 -2,-4 -1,-6z"/>
    <path class="fil26" d="M1553 -11c-3,1 -5,5 -5,8 0,3 2,4 5,2 2,-1 4,-4 4,-7 0,-3 -2,-4 -4,-3z"/>
    <path class="fil27" d="M1541 -8l0 0c3,-11 13,-19 19,-15 1,0 5,3 6,3 -5,-3 -13,2 -18,11 -4,7 -5,16 0,19 0,0 -4,-2 -5,-3 -4,-2 -5,-9 -2,-15z"/>
    <path class="fil28" d="M1557 -19c-7,4 -12,13 -12,21 0,8 5,11 12,7 7,-4 13,-13 13,-21 0,-8 -6,-11 -13,-7z"/>
    <path class="fil29" d="M1554 -5l0 0c1,-3 4,-6 6,-5l2 1c-2,-1 -5,1 -6,4 -1,2 -2,5 0,6l-2 -1c-1,-1 -1,-3 0,-5z"/>
    <path class="fil30" d="M1559 -8c-2,1 -4,4 -4,7 0,2 2,3 4,2 2,-1 4,-5 4,-7 0,-3 -2,-4 -4,-2z"/>
    <path class="fil25" d="M1472 23l0 0c1,-4 5,-7 7,-6 0,1 13,9 14,9 -2,-1 -5,1 -7,4 -1,2 -2,6 0,7 0,0 -13,-8 -14,-8 -1,-1 -1,-4 0,-6z"/>
    <path class="fil26" d="M1490 26c-3,1 -5,5 -5,8 0,3 2,4 5,3 2,-2 4,-5 4,-8 0,-3 -2,-4 -4,-3z"/>
    <path class="fil27" d="M1477 29l0 0c4,-11 14,-19 20,-15 1,0 5,3 6,3 -6,-3 -14,2 -19,11 -3,7 -4,16 1,19 -1,0 -5,-2 -5,-3 -4,-2 -5,-9 -3,-15z"/>
    <path class="fil28" d="M1494 18c-7,4 -13,13 -13,21 0,8 6,11 13,7 7,-3 12,-13 12,-21 0,-8 -5,-11 -12,-7z"/>
    <path class="fil29" d="M1490 32l0 0c1,-3 5,-6 7,-5l1 1c-1,-1 -4,1 -5,4 -2,2 -2,5 0,6l-2 -1c-1,-1 -1,-3 -1,-5z"/>
    <path class="fil30" d="M1496 29c-3,1 -4,4 -4,7 0,2 1,3 4,2 2,-1 4,-5 4,-7 0,-3 -2,-4 -4,-2z"/>
    <path class="fil25" d="M1408 60l0 0c2,-4 5,-7 7,-6 1,1 14,9 14,9 -2,-1 -5,1 -6,4 -2,2 -2,6 0,7 0,0 -14,-8 -14,-8 -1,-1 -2,-4 -1,-6z"/>
    <path class="fil26" d="M1426 63c-2,1 -4,5 -4,8 0,3 2,4 4,3 3,-2 5,-5 5,-8 0,-3 -2,-4 -5,-3z"/>
    <path class="fil27" d="M1414 66l0 0c4,-11 14,-19 20,-15 1,0 4,3 5,3 -5,-3 -13,2 -18,11 -3,7 -5,16 1,19 -1,0 -5,-2 -6,-3 -4,-2 -4,-9 -2,-15z"/>
    <path class="fil28" d="M1430 55c-7,4 -12,14 -12,21 0,8 6,11 12,7 7,-3 13,-13 13,-21 0,-8 -6,-11 -13,-7z"/>
    <path class="fil29" d="M1427 69l0 0c1,-3 4,-6 6,-5l2 1c-2,-1 -4,1 -6,4 -1,2 -1,5 0,6l-1 -1c-2,-1 -2,-3 -1,-5z"/>
    <path class="fil30" d="M1432 66c-2,1 -4,4 -4,7 0,2 2,3 4,2 2,-1 4,-5 4,-7 0,-3 -2,-4 -4,-2z"/>
    <path class="fil25" d="M1345 97l0 0c1,-4 5,-7 7,-6 0,1 14,9 14,9 -2,-1 -5,1 -7,4 -1,2 -2,6 0,7 0,0 -13,-8 -13,-8 -2,-1 -2,-4 -1,-6z"/>
    <path class="fil26" d="M1363 100c-3,1 -5,5 -5,8 0,3 2,4 5,3 2,-2 4,-5 4,-8 0,-3 -2,-4 -4,-3z"/>
    <path class="fil27" d="M1350 103l0 0c4,-11 14,-19 20,-15 1,0 5,3 6,3 -5,-3 -14,2 -18,11 -4,7 -5,16 0,19 -1,0 -4,-2 -5,-3 -4,-2 -5,-9 -3,-15z"/>
    <path class="fil28" d="M1367 92c-7,4 -12,14 -12,21 0,8 5,11 12,7 7,-3 12,-13 12,-21 0,-8 -5,-11 -12,-7z"/>
    <path class="fil29" d="M1363 106l0 0c2,-3 5,-6 7,-5l2 1c-2,-1 -5,1 -6,4 -1,2 -2,5 0,6l-2 -1c-1,-1 -1,-3 -1,-5z"/>
    <path class="fil30" d="M1369 103c-2,1 -4,4 -4,7 0,2 2,3 4,2 2,-1 4,-5 4,-7 0,-3 -2,-4 -4,-2z"/>
    <path class="fil25" d="M1281 134l0 0c2,-4 5,-7 8,-6 0,1 13,9 14,9 -2,-1 -5,1 -7,4 -1,2 -2,6 0,7 0,0 -13,-8 -14,-8 -1,-1 -1,-4 -1,-6z"/>
    <path class="fil26" d="M1299 137c-2,2 -4,5 -4,8 0,3 2,4 4,3 3,-2 5,-5 5,-8 0,-3 -2,-4 -5,-3z"/>
    <path class="fil27" d="M1287 140l0 0c4,-11 14,-19 20,-15 1,0 4,3 5,3 -5,-3 -13,2 -18,11 -3,7 -5,16 1,19 -1,0 -5,-2 -6,-3 -4,-2 -4,-9 -2,-15z"/>
    <path class="fil28" d="M1304 129c-7,4 -13,14 -13,21 0,8 6,11 13,7 6,-3 12,-13 12,-21 0,-8 -6,-11 -12,-7z"/>
    <path class="fil29" d="M1300 143l0 0c1,-3 4,-6 6,-5l2 1c-2,-1 -4,1 -6,4 -1,2 -1,5 1,6l-2 -1c-2,-1 -2,-3 -1,-5z"/>
    <path class="fil30" d="M1305 140c-2,1 -4,4 -4,7 0,2 2,3 4,2 3,-1 4,-5 4,-7 0,-3 -1,-4 -4,-2z"/>
    <polygon class="fil37" points="895,235 1000,295 1053,264 948,204 "/>
    <polygon class="fil37" points="949,203 1055,263 1108,233 1003,172 "/>
    <polygon class="fil37" points="1004,171 1110,232 1163,201 1058,141 "/>
    <path class="fil37" d="M855 299c0,11 4,19 10,23 0,0 1,0 1,1 35,20 70,40 105,60 -7,-4 -11,-12 -11,-23 0,-6 1,-13 3,-19l-105 -60c-2,6 -3,12 -3,18z"/>
    <path class="fil37" d="M892 237c-15,8 -27,25 -33,42l105 60c6,-17 18,-34 32,-42l2 -1 -105 -60 -1 1z"/>
    <path class="fil37" d="M1640 -182c-7,-3 -16,-3 -26,3l-5 3 106 60 4 -2c10,-6 19,-7 25,-3 -34,-20 -69,-40 -104,-61z"/>
    <polygon class="fil37" points="1059,140 1165,200 1218,169 1112,109 "/>
    <polygon class="fil37" points="1114,108 1219,168 1273,138 1167,77 "/>
    <polygon class="fil37" points="1169,76 1275,137 1328,106 1222,46 "/>
    <polygon class="fil37" points="1224,45 1329,105 1383,74 1277,14 "/>
    <polygon class="fil37" points="1279,13 1384,73 1438,43 1332,-18 "/>
    <polygon class="fil37" points="1334,-19 1439,42 1492,11 1387,-49 "/>
    <polygon class="fil37" points="1389,-50 1494,10 1547,-21 1442,-81 "/>
    <polygon class="fil37" points="1444,-82 1549,-22 1602,-52 1497,-113 "/>
    <polygon class="fil37" points="1499,-114 1604,-53 1657,-84 1552,-144 "/>
    <polygon class="fil37" points="1554,-145 1659,-85 1712,-116 1607,-176 "/>
    <path class="fil48" d="M1736 -116c-1,-1 -1,-1 -2,-2 5,3 8,10 8,19 0,18 -12,40 -28,49l-726 423c-8,4 -15,5 -20,2l2 1c3,1 5,2 8,2 3,0 5,-1 8,-2 2,-1 3,-1 4,-2l726 -423c16,-9 28,-31 28,-49 0,-9 -3,-15 -8,-18z"/>
    <path class="fil49" d="M1740 -125c-1,0 -1,0 -1,0 -7,-4 -16,-4 -25,2l-726 423c-19,11 -35,38 -35,60 0,11 4,19 11,22 0,1 1,1 2,2 -1,-1 -1,-1 -1,-1 -6,-4 -9,-12 -9,-22 -1,-22 15,-49 34,-60l726 -423c9,-5 18,-6 24,-2l1 0c-1,0 -1,-1 -1,-1z"/>
    <path class="fil50" d="M1716 -49c16,-9 28,-31 28,-49 0,-18 -12,-25 -28,-16l-726 422c-15,9 -28,31 -28,50 0,18 13,25 28,16l726 -423zm0 -73c19,-11 35,-2 35,20 0,22 -16,49 -35,60l-725 423c-20,11 -35,2 -35,-20 -1,-22 15,-49 34,-60l726 -423z"/>
    <polygon class="fil54" points="1074,313 1081,309 1080,422 1073,426 "/>
    <polygon class="fil39" points="1064,308 1071,304 1081,309 1074,313 "/>
    <polygon class="fil55" points="1074,313 1073,426 1064,420 1064,308 "/>
    <polygon class="fil38" points="1298,183 1305,179 1305,291 1298,295 "/>
    <polygon class="fil39" points="1289,177 1296,173 1305,179 1298,183 "/>
    <polygon class="fil40" points="1298,183 1298,295 1288,290 1289,177 "/>
    <polygon class="fil38" points="1410,117 1417,113 1417,226 1410,230 "/>
    <polygon class="fil39" points="1401,112 1408,108 1417,113 1410,117 "/>
    <polygon class="fil40" points="1410,117 1410,230 1400,224 1401,112 "/>
    <polygon class="fil38" points="1522,52 1529,48 1529,161 1522,165 "/>
    <polygon class="fil39" points="1513,47 1520,43 1529,48 1522,52 "/>
    <polygon class="fil40" points="1522,52 1522,165 1512,159 1513,47 "/>
    <polygon class="fil38" points="1634,-13 1641,-17 1641,95 1634,99 "/>
    <polygon class="fil39" points="1625,-19 1632,-23 1641,-17 1634,-13 "/>
    <polygon class="fil40" points="1634,-13 1634,99 1625,94 1625,-19 "/>
    <polygon class="fil38" points="1746,-79 1753,-83 1753,30 1746,34 "/>
    <polygon class="fil39" points="1737,-84 1744,-88 1753,-83 1746,-79 "/>
    <polygon class="fil40" points="1746,-79 1746,34 1737,28 1737,-84 "/>
    <polygon class="fil55" points="1026,341 1015,335 1015,322 1026,328 "/>
    <polygon class="fil56" points="1026,328 1015,322 1758,-110 1768,-104 "/>
    <polygon class="fil54" points="1768,-104 1768,-91 1026,341 1026,328 "/>
    <path class="fil25" d="M985 343l0 0c3,-8 11,-14 15,-11 1,0 29,17 30,17 -4,-2 -11,2 -14,9 -3,5 -4,12 0,15 -1,-1 -29,-17 -29,-18 -3,-2 -4,-7 -2,-12z"/>
    <path class="fil26" d="M1023 350c-6,3 -10,10 -10,17 0,6 5,8 10,5 5,-3 9,-10 9,-17 0,-6 -4,-8 -9,-5z"/>
    <path class="fil27" d="M997 356l0 0c8,-22 29,-39 42,-32 2,2 9,6 11,7 -11,-6 -28,5 -38,23 -7,14 -10,34 1,41 -2,-1 -9,-6 -11,-7 -9,-5 -10,-18 -5,-32z"/>
    <path class="fil28" d="M1032 333c-15,8 -26,28 -26,45 0,17 11,23 26,15 14,-8 26,-29 26,-45 0,-17 -12,-23 -26,-15z"/>
    <path class="fil29" d="M1024 363l0 0c3,-7 10,-13 14,-10 0,0 3,2 3,2 -3,-2 -9,1 -12,7 -2,5 -3,11 1,13 -1,0 -4,-1 -4,-2 -3,-1 -3,-6 -2,-10z"/>
    <path class="fil30" d="M1035 356c-4,2 -8,9 -8,14 0,5 4,7 9,5 4,-3 8,-9 8,-15 0,-5 -4,-7 -9,-4z"/>
    <polygon class="fil1" points="489,-195 489,298 1188,-68 1158,-581 "/>
    <polygon class="fil39" points="899,-73 896,-72 899,-70 "/>
    <polygon class="fil57" points="923,190 991,151 991,-26 924,61 "/>
    <polygon class="fil58" points="858,153 925,113 926,-63 858,23 "/>
    <polygon class="fil59" points="858,23 858,153 923,190 924,61 "/>
    <polygon class="fil57" points="864,36 863,104 880,114 880,45 "/>
    <polygon class="fil60" points="880,114 863,104 863,104 863,35 864,36 864,104 880,113 "/>
    <polygon class="fil61" points="926,-63 991,-26 924,61 858,23 "/>
    <polygon class="fil62" points="924,-50 976,-20 939,26 888,-3 "/>
    <path class="fil57" d="M900 19c1,-1 4,-2 5,-1l25 14c1,1 1,3 0,5l-8 10c-1,2 -3,2 -5,1l-24 -14c-2,-1 -2,-3 -1,-4l8 -11z"/>
    <polygon class="fil63" points="888,-3 887,-3 924,-51 976,-21 975,-20 924,-49 "/>
    <path class="fil55" d="M872 20c0,-2 2,-3 4,-3 3,0 5,1 5,3 0,2 -2,4 -5,4 -2,0 -4,-2 -4,-4z"/>
    <path class="fil64" d="M879 12c0,-2 2,-3 4,-3 3,0 5,1 5,3 0,2 -2,3 -5,3 -2,0 -4,-1 -4,-3z"/>
    <path class="fil55" d="M881 25c0,-2 2,-4 5,-4 2,0 4,2 4,4 0,2 -2,3 -4,3 -3,0 -5,-1 -5,-3z"/>
    <path class="fil55" d="M888 16c0,-1 2,-3 4,-3 3,0 5,2 5,3 0,2 -2,4 -5,4 -2,0 -4,-2 -4,-4z"/>
    <polygon class="fil55" points="964,-20 937,16 931,13 959,-24 "/>
    <polygon class="fil56" points="913,-15 903,-3 898,-6 907,-18 "/>
    <polygon class="fil55" points="929,-21 912,2 906,-1 923,-24 "/>
    <polygon class="fil56" points="950,-18 928,12 922,9 945,-21 "/>
    <polygon class="fil56" points="934,-12 920,7 914,4 929,-15 "/>
    <polygon class="fil55" points="897,-5 938,19 938,17 898,-6 "/>
   </g>
  </g>
  <polygon class="fil24 str0" points="728,4 456,475 1180,475 1180,4 "/>
  <g id="_2495967561168">
   <path class="fil18" d="M837 174c0,0 9,-2 12,-5 3,-3 4,-10 4,-10l-13 -2 -8 17 5 0z"/>
   <path class="fil16" d="M753 355c0,0 0,15 0,15 0,6 3,17 16,17 11,0 6,0 6,0 0,0 9,-1 7,-14 -1,-4 -4,-19 -4,-19l-25 1z"/>
   <path class="fil4" d="M753 352c0,0 0,-1 0,16 1,6 3,15 16,15 6,0 7,0 7,0 4,0 7,-4 6,-12 -1,-4 -4,-19 -5,-19l-24 0z"/>
   <path class="fil18" d="M846 170c-14,7 -49,17 -52,8 -4,-11 -11,-45 -11,-45 0,0 -8,-21 2,-27 6,-4 18,-1 21,16 2,7 9,39 9,39l35 -1c0,0 -3,9 -4,10z"/>
   <path class="fil8" d="M786 149c-2,-9 -3,-16 -3,-16 0,0 -8,-21 2,-27 6,-4 18,-1 21,16 1,3 3,9 5,17 2,10 -22,20 -25,10z"/>
   <path class="fil4" d="M825 338l4 4c0,0 20,9 22,9 1,1 5,2 4,5 0,1 0,1 0,2 -1,2 -5,3 -7,3 -7,2 -20,0 -20,0 -4,0 -10,-2 -11,-2 0,0 -3,-1 -4,0 0,1 0,3 0,3l-8 -3c0,0 -1,-4 -2,-6l-1 -11 23 -4z"/>
   <path class="fil65" d="M851 359c-2,1 -4,2 -6,2 -9,1 -23,-1 -23,-1 -2,0 -7,-2 -7,-2 0,0 -2,1 -2,1 0,0 0,0 0,0l0 3 3 -2c0,0 6,2 7,2 0,0 14,2 23,1 3,0 7,-2 9,-5 0,0 1,-2 0,-2 0,0 -2,2 -4,3z"/>
   <path class="fil65" d="M813 359l-9 -3 1 3 8 3c0,0 0,-2 0,-3z"/>
   <path class="fil3" d="M803 212l25 56c1,4 2,8 2,11l0 57c-1,4 -3,7 -5,8 -5,2 -20,7 -25,-4l-1 -55c0,-1 0,-2 -1,-3l-30 -61 35 -9z"/>
   <path class="fil3" d="M787 217l-7 125 0 11c0,3 -5,7 -11,8 -7,1 -11,-1 -11,-1 -5,-1 -7,-6 -7,-8l-1 -65 -1 -68 38 -2z"/>
   <path class="fil8" d="M798 107c6,10 9,36 10,56l-5 51c0,3 -1,2 -4,4 0,0 -13,8 -24,8 -7,-1 -19,-1 -19,-1 -5,-2 -1,-24 -1,-25l-14 -69c0,-4 8,-11 16,-16 4,-3 8,-6 10,-7l15 -5c0,0 12,-3 16,4z"/>
   <path class="fil3" d="M808 163l-3 55c0,0 -10,16 -29,15 -7,0 -27,-7 -27,-7l0 -54c27,-2 21,-24 21,-24l34 -6c0,0 1,21 4,21z"/>
   <path class="fil65" d="M798 144c0,0 0,-22 -5,-28 -6,-6 -12,-10 -12,-10l8 0c0,0 5,2 10,9 5,7 5,29 5,29l-6 0z"/>
   <path class="fil8" d="M791 125c3,-5 2,-17 -5,-23 -2,0 -4,1 -4,1l-14 4c0,0 -8,5 -11,8 2,0 8,2 15,9 7,6 16,7 19,1z"/>
   <path class="fil18" d="M787 114c-8,9 -14,0 -19,-6l1 -8 3 -14 15 4 0 24z"/>
   <polygon class="fil66" points="806,196 806,196 807,196 806,197 806,197 806,197 803,197 804,193 "/>
   <polygon class="fil67" points="806,196 806,196 807,196 806,197 806,197 806,197 803,197 804,193 "/>
   <path class="fil66" d="M803 197l1 -4 2 2c-1,1 -1,1 -2,2l-1 0z"/>
   <path class="fil7" d="M804 193c0,0 1,1 1,1 0,1 -1,2 -2,2 0,1 -1,1 -1,0l-33 -20c0,0 1,0 1,0 1,-1 1,-2 1,-2 0,-1 0,-1 0,-1l33 20z"/>
   <path class="fil68" d="M771 174c0,-1 0,-2 -1,-1 -1,0 -1,1 -1,2 0,1 0,1 1,1 1,-1 1,-2 1,-2z"/>
   <path class="fil69" d="M773 174c1,0 1,0 1,1 0,1 -1,2 -2,2 0,1 -1,1 -1,1l-2 -2c0,0 1,0 1,0 1,0 2,-1 2,-3 0,0 0,0 -1,-1l2 2z"/>
   <path class="fil70" d="M772 173c0,-1 -1,-1 -2,-1 -1,1 -1,2 -2,3 0,1 1,2 2,1 1,0 2,-1 2,-3z"/>
   <path class="fil71" d="M771 173c0,0 0,0 0,1 0,0 0,2 -1,2 0,0 -1,0 -1,0l-2 -1c1,0 1,0 1,0 1,-1 2,-2 2,-3 0,0 0,0 -1,0l2 1z"/>
   <path class="fil72" d="M770 172c0,0 -1,-1 -2,0 0,0 -1,1 -1,2 0,1 0,1 1,1 1,-1 2,-2 2,-3z"/>
   <polygon class="fil73" points="798,214 798,214 798,214 798,214 798,214 798,214 798,214 798,214 798,214 798,214 798,214 798,214 797,214 797,214 797,214 797,214 797,214 797,214 797,214 797,213 797,213 797,213 797,213 797,213 797,213 797,213 797,213 797,213 797,213 797,213 797,213 797,213 797,213 797,213 797,213 797,213 797,213 796,213 796,213 796,213 796,213 796,213 796,213 796,213 796,213 796,212 796,212 796,212 796,212 796,212 796,212 796,212 796,212 796,212 796,212 796,212 796,212 796,212 796,212 796,212 796,212 795,212 795,212 798,214 "/>
   <polygon class="fil6" points="856,137 853,135 854,135 856,137 "/>
   <polygon class="fil74" points="846,146 843,144 843,144 843,144 846,146 "/>
   <path class="fil75" d="M846 146l-3 -2c1,0 1,0 1,-1l0 0 2 3 0 0z"/>
   <path class="fil74" d="M846 146l-2 -3c1,0 1,-1 2,-2l0 0 0 0 0 0 0 0 2 2 0 0 0 0 0 0 0 0 0 0 0 0 0 1 0 0 0 0 0 0 0 0 0 0 0 0 0 0 0 0 0 0 0 0 0 0 0 0 0 0 0 0 0 0 0 0 0 0 0 0 0 0 0 0 0 0 0 0 0 0 0 0 0 0 0 0 0 0 0 0 0 0 0 0 0 0 -1 0 0 0 0 0 0 0 0 0 0 0 0 0 0 1 0 0 0 0 0 0 0 0 0 0 0 0 0 0 0 0 0 0 0 0 0 0 0 0 0 0 0 0 0 0 0 0 0 0 0 0 0 0 0 0 0 0 0 0 0 0 0 0 0 0 0 0 0 0 0 0 0 0c0,0 0,0 -1,1z"/>
   <polygon class="fil76" points="848,143 846,141 846,140 848,142 "/>
   <polygon class="fil6" points="848,142 846,140 853,135 856,137 "/>
   <polygon class="fil77" points="845,143 843,141 846,139 849,141 "/>
   <polygon class="fil78" points="824,162 822,159 843,144 846,146 "/>
   <polygon class="fil77" points="827,156 825,154 843,141 845,143 "/>
   <path class="fil79" d="M841 141c1,-1 2,-1 2,-1l2 2m0 0l0 0 0 0 0 0 0 0 0 0 0 0 0 0 0 0 0 0 0 0 0 0 0 0 0 0 0 0 0 0 0 0 0 0 0 0 0 0 0 0 0 0 0 0 0 0 0 0 0 0 0 0 0 0 0 0 0 0 0 0 0 0 0 0 0 0 0 0 0 0 0 0 0 0 0 0 0 0 0 0 0 0 0 0 0 0 0 0 0 0 0 0 0 0 0 0 0 0 0 0 0 0 0 0 0 0 0 0 -1 0 0 0 0 0 0 0 0 0 0 0 0 0 0 0 0 0 0 0 0 0 0 0 0 0 0 0 0 0 0 0 0 0 0 0 0 0 0 0 0 0 0 0 0 1 0 0c0,0 -1,0 -1,0l-2 -2"/>
   <path class="fil74" d="M823 162l-2 -2 0 0 0 0 0 0 0 0 0 0 0 0 0 0 0 0 0 0 0 0 0 0 0 0 0 0 0 0 0 0 0 0 0 0 0 0 0 0 0 0 0 0 0 0 0 0 0 0 0 0 0 0 0 0 0 0 0 0 0 0 0 0 0 0 0 0 0 0 0 0 0 0 0 0 0 0 0 0 0 0 0 0 0 0 0 0 0 0 0 0 0 0 0 0 0 0 0 0 0 0 0 0 0 0 0 0 0 0 0 0 0 0 0 0 0 0 0 0 0 0 0 0 0 0 0 0 0 0 0 0 0 0 0 0 0 0 0 0 0 0 0 0 0 0 0 0 0 0 0 0 0 0 0 0 0 0 0 0 0 0 0 0 0 0 0 0 0 0 1 0 0 0 0 0 0 0 0 0 0 0 0 0 0 0 0 0 0 -1 0 0 0 0 0 0 0 0 2 3c0,0 -1,0 -1,0z"/>
   <path class="fil80" d="M823 162l0 0 0 0 -2 -2 0 0 0 0 0 0 0 0 0 0 0 0 0 0 0 0 0 0 0 0 0 0 -1 0 0 0 0 0 0 0 0 0 0 0 0 0 0 0 0 0 0 0 0 0 0 0 0 0 0 0 0 0 0 0 0 0 0 0 0 0 0 0 0 0 0 0 0 0 0 0 0 0 0 0 0 0 0 0c0,0 0,0 0,0l0 0 0 0 0 0 0 0 0 -1 0 0 0 0 0 0 0 0 0 0 0 0 0 0 0 0 0 0 0 0 0 0 0 0 0 0 0 0 0 0 0 0 0 0 0 0 0 0 0 0 0 0 0 0 0 0 0 0 0 0 0 0 0 0 0 0 0 0 0 0 0 0 1 0 0 0 0 0 0 0 0 0 0 0 0 0 2 2c0,1 0,1 0,1l0 0 0 0z"/>
   <polygon class="fil81" points="832,151 829,149 841,141 843,143 "/>
   <polygon class="fil82" points="833,150 831,148 831,147 834,149 "/>
   <polygon class="fil82" points="823,161 821,159 821,158 823,160 "/>
   <path class="fil82" d="M839 142l-2 -2 0 0 0 0 0 0 0 0 0 0 0 0 0 0 0 0 0 0 0 0 0 0 0 0 0 0 0 0 0 0 0 0 0 0 1 0 0 0 0 0 0 0 0 0 0 0 0 0 0 0 0 0 0 0 0 -1 0 0 0 0 0 0 0 0 0 0 0 0 0 0 0 0 0 0 0 0 0 0 0 0 0 0 0 0 0 0 0 0 0 0 0 0 0 0 0 0 0 0 0 0 0 0 0 0 0 0 0 0 0 0 1 0 0 0 0 0 0 0 0 0 0 0 0 0 0 0 0 0 0 0 0 0 0 0 0 0 0 0 0 0 0 0 0 0 0 0 0 0 0 0 0 0 0 0 0 0 0 0 0 0 0 0 0 0 0 0 0 0 0 0 0 0 0 0 0 0 0 0 0 0 0 0 0 0 0 0 0 0 0 0 0 0 0 0 0 0 0 0 0 0 0 0 0 0 0 0 0 0 0 0 0 0 0 0 0 0 0 1 1 0 0 0 1 1 0 0 0 0 0 0 0 0 0 0 0 0 0 0 0 0 0 0 0 0 1 0 0 0 0 0 0 1 0 0 0 0 0 0c-1,-1 -2,0 -3,0z"/>
   <path class="fil83" d="M843 143c2,-1 3,-1 2,0l-18 13c1,-1 3,-3 5,-5l11 -8z"/>
   <path class="fil81" d="M827 156l-2 -2 0 0 0 0 0 0 0 0 0 0 0 0 0 0 0 0 0 0c0,-1 1,-1 1,-2l0 0c0,0 0,0 0,0l0 0 0 0 0 0 0 0 0 0 0 0 0 0 0 0 0 0 0 0 1 0 0 0 0 0 0 -1 0 0 0 0 0 0 0 0 0 0 0 0 0 0 0 0 0 0 0 0 0 0 0 0 0 0c0,0 1,-1 1,-1l2 2c0,1 0,1 0,1l0 0 0 0 0 0 -1 0 0 0 0 0 0 0 0 0 0 0 0 0 0 0 0 1 0 0 0 0 0 0 0 0 0 0 0 0 0 0 0 0 0 0 0 0 0 0 0 0 0 0 0 0 0 0 0 0 0 0 0 0 0 0 0 0 0 0 0 0 0 0 0 0 -1 0 0 0 0 1 0 0 0 0 0 0 0 0 0 0 0 0 0 0 0 0 0 0 0 0 0 1 0 0 0 0 0 0 0 0 0 0 0 0 0 0 0 0 0 0 0 0 0 0 0 0 0 0 -1 0 0 0 0 0 0 0 0 0 0 0z"/>
   <path class="fil81" d="M830 152l-2 -2c0,0 0,0 0,0l0 0 0 0 0 0 0 0 0 0 0 0 0 0 0 0 0 0 0 0 0 0 0 0 0 0 0 0 0 0 0 0 0 0 0 0 0 0 0 0 0 0 0 0 0 0 0 0 0 0 0 0 1 0 0 0 0 0 0 0 0 0 0 0 0 -1 0 0 0 0 0 0 0 0 0 0 0 0 0 0 0 0 0 0 0 0 0 0 2 3c0,0 0,0 -1,0z"/>
   <polygon class="fil81" points="831,152 829,149 829,149 829,149 832,151 831,151 "/>
   <polygon class="fil77" points="824,159 821,157 825,154 827,156 "/>
   <path class="fil84" d="M849 141l-1 1 0 1c0,1 -1,3 -2,3l-22 16c-1,0 -1,0 -1,-1l0 -1 1 -1 3 -3 18 -13 4 -2z"/>
   <polygon class="fil82" points="823,160 821,158 821,157 824,159 "/>
   <path class="fil82" d="M834 149l-3 -2 0 0 0 0 0 0 0 -1 0 0 0 0 0 0 0 0 0 0 1 0 0 0 0 0 0 0 0 0 0 0 0 0 0 0 0 0 0 0 0 0 0 0 0 0 0 0 0 -1 0 0 0 0 0 0 0 0 0 0 0 0 0 0 0 0 0 0 0 0 0 0 0 0 0 0 0 0 0 0 0 0 0 0 0 0 0 0 0 0 1 0 0 0 0 -1 0 0 0 0c0,-1 1,-2 2,-2l2 2 0 0 0 0 0 0 0 0 0 0 0 0 0 0 0 1 0 0 0 0 0 0 0 0 0 0 0 0 -1 0 0 0 0 0 0 0 0 0 0 0 0 0 0 0 0 0 0 0 0 0 0 1 0 0 0 0 0 0 0 0c-1,0 -1,1 -2,2l0 0c0,0 0,0 0,0l0 0 0 0 0 0 0 0 0 1 0 0 0 0 0 0 0 0 0 0z"/>
   <path class="fil82" d="M837 144l-2 -2c0,-1 0,-1 1,-1l0 0 0 0 0 0 0 0 0 0 0 0 0 0 0 0 0 0 0 0 0 0 0 0 0 0 0 0 0 0 0 0 0 0 0 0 0 0 0 0 0 0 0 0 0 0 0 0 0 0 0 0 0 0 3 2 0 0 0 0 0 0 0 0 0 0 0 0 0 0 0 0 -1 0 0 0 0 0 0 0 0 0 0 0 0 0 0 0 0 0 0 0 0 0 0 0 0 0 0 0 0 0 0 0 0 0 0 0 0 0 0 0 0 0 0 0 0 0 0 0 0 1 0 0 0 0 0 0 0 0 0 0 0 0 0 0 0 0 0 0 0 0 0 0 0 0 0 0 0 0 0 0 0 0 0 0 -1 0z"/>
   <path class="fil82" d="M839 143l-3 -2 1 -1 2 2c0,1 0,1 0,1l0 0 0 0z"/>
   <path class="fil84" d="M839 142c2,-1 3,-1 3,1l-1 1 -8 6 1 -1c0,-2 3,-5 5,-7z"/>
   <polygon class="fil6" points="798,214 795,212 813,164 815,166 "/>
   <polygon class="fil6" points="816,165 814,163 821,158 823,160 "/>
   <path class="fil6" d="M815 166l-2 -2 0 -1 0 0 3 3c0,0 -1,0 -1,0l0 0 0 0 0 0 0 0 0 0 0 0 0 0 0 0 0 0 0 0 0 0z"/>
   <polygon class="fil6" points="816,166 813,163 813,163 814,163 816,165 816,166 816,166 816,166 816,166 816,166 816,166 816,166 816,166 "/>
   <polygon class="fil6" points="816,165 814,163 814,163 814,163 814,163 816,165 816,165 816,165 "/>
   <path class="fil6" d="M856 137c0,0 0,0 0,0l-17 48c0,0 -1,0 -1,1l-40 28c0,0 0,0 0,0l17 -48c0,0 1,0 1,-1l7 -5 0 1c0,1 0,1 1,1l22 -16c1,0 2,-2 2,-3l0 -1 8 -5z"/>
   <path class="fil18" d="M843 157c0,0 -2,2 0,5 1,2 2,3 2,5 0,2 -2,5 -2,5 0,0 3,-1 5,-2 3,-3 4,-7 5,-9 2,-3 -1,-7 -1,-7 0,0 -3,-4 -4,-4 -1,0 -3,3 -5,7z"/>
   <path class="fil15" d="M778 197l1 -10 -2 0c0,0 14,-2 17,-2 4,-1 8,7 8,7 0,5 -3,9 -5,11 -3,2 -6,1 -7,0 0,0 0,-1 0,-1 -6,0 -12,-1 -12,-5z"/>
   <path class="fil15" d="M780 198c-11,0 -35,-3 -51,-7 -14,-5 -13,-13 -8,-23l13 -31c0,0 7,-13 16,-12 9,2 13,16 7,25 -3,4 -10,16 -14,23 -1,2 -2,3 3,5l34 9c0,0 8,10 0,11z"/>
   <path class="fil8" d="M724 156c1,-3 10,-19 10,-19 0,0 7,-13 16,-12 9,2 13,16 7,25 -2,3 -7,11 -10,18 -2,4 -25,-8 -23,-12z"/>
   <path class="fil85" d="M801 145c-1,1 -2,2 -2,4 0,1 1,2 2,1 2,-1 2,-2 2,-4 0,-1 0,-2 -2,-1z"/>
   <path class="fil85" d="M773 150c-1,1 -2,2 -2,4 0,1 1,1 3,1 1,-1 2,-3 2,-4 0,-1 -1,-2 -3,-1z"/>
   <path class="fil3" d="M799 153l-21 3 0 12c0,0 0,4 5,3 5,0 12,-2 14,-3 2,-1 2,-4 2,-4l0 -11z"/>
   <path class="fil65" d="M750 120c0,0 6,-2 13,5 6,6 7,24 7,24l8 -2c0,0 -2,-19 -9,-26 -5,-5 -12,-6 -12,-6 0,0 -3,1 -4,3 -2,1 -3,2 -3,2z"/>
   <path class="fil19" d="M790 64l0 0 -17 -2 -2 31c0,2 -1,3 -1,4 1,2 1,4 4,6 0,0 6,5 9,6 1,1 2,2 4,2 7,1 10,-4 11,-7 1,-2 3,-6 3,-8l4 -18 2 -16 -17 2z"/>
   <path class="fil21" d="M804 58c5,3 7,7 4,14 -3,6 -3,7 -3,7 0,0 0,-4 1,-6 0,-4 -4,-3 -5,-2 -3,2 -8,4 -8,5 -2,1 -2,0 -3,-2 0,0 1,-2 1,-2 -1,0 -5,2 -7,3 -3,1 -4,4 -4,7l0 3c0,1 0,3 -1,2 -2,0 -3,0 -3,-2 0,0 -1,-5 -4,-5 -4,1 -2,8 -2,9l1 10c-2,0 -4,-2 -6,-6 -2,-6 -4,-11 -4,-13 -7,-20 10,-37 31,-29 4,1 12,7 12,7z"/>
   <path class="fil19" d="M772 80c4,0 5,4 5,4l-1 9c0,0 0,2 -2,2 -3,1 -4,-2 -4,-4l-2 -4c-1,-3 0,-7 4,-7z"/>
   <path class="fil23" d="M812 74c-1,2 -1,3 -1,5 -1,8 -9,5 -16,1 -5,-1 -9,-3 -12,-3 -9,1 -26,0 -25,-9 1,-15 15,-25 30,-24 15,2 25,15 24,30z"/>
   <path class="fil14" d="M784 77c0,0 26,5 27,3 1,-3 18,12 -4,7 -10,-2 -26,-8 -26,-10 0,0 1,0 3,0z"/>
  </g>
  <path class="fil86" d="M880 231c1,0 1,0 1,0 3,-4 4,-8 5,-12l0 0c-1,4 -3,8 -6,12z"/>
  <path class="fil87" d="M886 217l0 0c0,0 0,0 0,0z"/>
  <path class="fil2" style="mask:url(#id4)" d="M72 205c-7,0 -13,2 -17,6 -3,-6 -9,-11 -16,-11 -10,0 -17,8 -17,18 0,9 7,17 17,17 2,0 4,0 5,-1 1,9 6,17 14,21 -2,5 -3,11 -3,16 0,22 17,40 39,40 4,0 7,-1 11,-2 -10,7 -16,19 -16,31 0,6 1,12 3,16 -7,5 -13,13 -13,22 -2,-1 -4,-1 -6,-1 -9,0 -17,8 -17,17 0,10 8,18 17,18 7,0 13,-5 16,-11 4,4 10,6 17,6 3,0 6,0 8,-1 1,8 7,15 16,15 8,0 15,-7 15,-16 0,-7 -6,-14 -14,-15 1,-3 2,-6 2,-10l0 -1c19,-2 34,-19 34,-39 0,-9 -3,-17 -8,-24 7,-1 12,-8 12,-15 0,-8 -7,-15 -15,-15 -9,0 -16,7 -16,15 0,1 1,2 1,2 -3,0 -5,-1 -8,-1 -2,-3 -5,-5 -9,-6 6,-7 9,-15 9,-25 0,-20 -15,-36 -34,-38l0 -1c0,-4 -1,-7 -2,-10 7,-1 13,-8 13,-15 0,-9 -6,-16 -15,-16 -8,0 -15,7 -15,15 -3,-1 -5,-1 -8,-1zm89 219c-4,0 -8,-3 -8,-8 0,-4 4,-7 8,-7 4,0 8,3 8,7 0,5 -4,8 -8,8zm-34 -236c-5,0 -8,3 -8,8 0,4 3,7 8,7 4,0 7,-3 7,-7 0,-5 -3,-8 -7,-8z"/>
  <path class="fil2" style="mask:url(#id6)" d="M234 280c4,0 7,1 10,4 1,-4 5,-6 9,-6 5,0 10,4 10,10 0,5 -5,9 -10,9 -1,0 -2,0 -3,0 -1,5 -4,10 -8,12 1,3 2,6 2,9 0,13 -10,23 -22,23 -3,0 -5,-1 -7,-1 6,4 9,10 9,18 0,3 0,6 -2,9 5,2 8,7 8,12 1,0 2,-1 3,-1 6,0 10,5 10,10 0,6 -4,10 -10,10 -4,0 -7,-2 -9,-6 -2,2 -6,4 -9,4 -2,0 -4,-1 -5,-1 0,4 -4,8 -9,8 -5,0 -8,-4 -8,-8 0,-5 3,-9 7,-9 0,-2 -1,-4 -1,-6l0 0c-11,-2 -19,-11 -19,-22 0,-6 1,-11 5,-14 -4,-1 -7,-5 -7,-9 0,-5 3,-9 8,-9 5,0 9,4 9,9 0,1 0,1 0,1 1,0 3,0 4,-1 1,-1 3,-2 5,-3 -3,-4 -5,-8 -5,-14 0,-11 9,-21 20,-22l0 0c0,-2 0,-4 1,-6 -5,-1 -8,-4 -8,-9 0,-5 4,-8 9,-8 4,0 8,3 8,8 2,-1 3,-1 5,-1zm-51 125c3,0 5,-2 5,-4 0,-3 -2,-5 -5,-5 -2,0 -4,2 -4,5 0,2 2,4 4,4zm20 -134c2,0 4,2 4,4 0,2 -2,4 -4,4 -3,0 -5,-2 -5,-4 0,-2 2,-4 5,-4z"/>
 </g>
</svg>
