<?xml version="1.0" encoding="UTF-8"?>
<!DOCTYPE svg PUBLIC "-//W3C//DTD SVG 1.0//EN" "http://www.w3.org/TR/2001/REC-SVG-20010904/DTD/svg10.dtd">
<!-- Creator: CorelDRAW X8 -->
<svg xmlns="http://www.w3.org/2000/svg" xml:space="preserve" width="42.6334mm" height="17.2334mm" version="1.0" style="shape-rendering:geometricPrecision; text-rendering:geometricPrecision; image-rendering:optimizeQuality; fill-rule:evenodd; clip-rule:evenodd"
viewBox="0 0 1181 477"
 xmlns:xlink="http://www.w3.org/1999/xlink">
 <defs>
  <style type="text/css">
   <![CDATA[
    .str1 {stroke:#A82116;stroke-width:8.30759;stroke-linecap:round;stroke-linejoin:round}
    .str0 {stroke:#DB2C1C;stroke-width:2.7692;stroke-linecap:round;stroke-linejoin:round}
    .fil26 {fill:none}
    .fil2 {fill:#BDBFC1}
    .fil25 {fill:#848688}
    .fil1 {fill:#F7F7F8}
    .fil24 {fill:#B9BDCD}
    .fil0 {fill:#E0E0E0}
    .fil18 {fill:#FEFEFE;fill-rule:nonzero}
    .fil13 {fill:#EBDCE1;fill-rule:nonzero}
    .fil29 {fill:#DCD970;fill-rule:nonzero}
    .fil17 {fill:#D0CFCF;fill-rule:nonzero}
    .fil10 {fill:#D0BFC5;fill-rule:nonzero}
    .fil27 {fill:#CBCA5E;fill-rule:nonzero}
    .fil16 {fill:#C3B0B7;fill-rule:nonzero}
    .fil23 {fill:#B9BDCD;fill-rule:nonzero}
    .fil28 {fill:#B2B14B;fill-rule:nonzero}
    .fil12 {fill:#A6A7A7;fill-rule:nonzero}
    .fil19 {fill:#9E8B94;fill-rule:nonzero}
    .fil7 {fill:#8C7A84;fill-rule:nonzero}
    .fil11 {fill:#786260;fill-rule:nonzero}
    .fil20 {fill:#5B4543;fill-rule:nonzero}
    .fil6 {fill:#5B4543;fill-rule:nonzero}
    .fil9 {fill:#564141;fill-rule:nonzero}
    .fil14 {fill:#776770;fill-rule:nonzero}
    .fil8 {fill:#423635;fill-rule:nonzero}
    .fil15 {fill:#5F5DA7;fill-rule:nonzero}
    .fil4 {fill:#8F190E;fill-rule:nonzero}
    .fil5 {fill:#A82116;fill-rule:nonzero}
    .fil21 {fill:#AE583E;fill-rule:nonzero}
    .fil22 {fill:#C97E67;fill-rule:nonzero}
    .fil3 {fill:#DB2C1C;fill-rule:nonzero}
   ]]>
  </style>
   <clipPath id="id0">
    <path d="M4 4l1172 0 0 469 -1172 0 0 -469z"/>
   </clipPath>
 </defs>
 <g id="Capa_x0020_1">
  <metadata id="CorelCorpID_0Corel-Layer"/>
  <polygon class="fil0" points="4,4 1176,4 1176,473 4,473 "/>
  <g style="clip-path:url(#id0)">
   <g id="_2495964665648">
    <rect class="fil1" x="-74" y="-117" width="570" height="627"/>
    <rect class="fil2" transform="matrix(1.37469 0.813168 -1.37469 0.813168 495.819 73.8045)" width="567" height="567"/>
    <polygon class="fil3" points="105,506 444,311 822,532 483,727 "/>
    <polygon class="fil4" points="822,532 822,514 444,294 444,311 "/>
    <polygon class="fil5" points="105,506 105,489 444,294 444,311 "/>
    <polygon class="fil6" points="613,150 728,82 589,-20 475,46 574,104 "/>
    <path class="fil7" d="M508 100l0 -56c-17,-10 -33,-20 -33,-20l0 219 138 80 0 -150 -95 -56c-5,-3 -10,-11 -10,-17z"/>
    <path class="fil8" d="M544 86c-8,-5 -22,-13 -36,-21l0 35c0,6 5,14 10,17l95 56 0 -19c0,-17 -9,-34 -24,-42 -16,-10 -36,-21 -45,-26z"/>
    <path class="fil6" d="M658 19c-8,-4 -22,-12 -36,-20l0 34c0,7 5,15 10,18l96 55 0 -18c0,-18 -10,-34 -25,-43 -16,-9 -36,-20 -45,-26z"/>
    <polygon class="fil9" points="508,65 623,0 623,-22 508,44 "/>
    <polygon class="fil10" points="728,82 613,148 613,323 728,257 "/>
    <polygon class="fil11" points="475,228 613,309 613,306 475,226 "/>
    <polygon class="fil11" points="475,205 613,285 613,282 475,202 "/>
    <polygon class="fil11" points="475,182 613,262 613,259 475,179 "/>
    <polygon class="fil11" points="475,158 613,238 613,235 475,155 "/>
    <polygon class="fil11" points="475,135 613,215 613,212 475,132 "/>
    <polygon class="fil11" points="475,111 613,192 613,189 475,109 "/>
    <path class="fil9" d="M505 206c0,0 15,15 32,25 20,12 37,15 37,15l-69 -40z"/>
    <path class="fil9" d="M505 182c0,0 15,16 32,26 20,11 37,14 37,14l-69 -40z"/>
    <path class="fil9" d="M505 159c0,0 15,16 32,26 20,11 37,14 37,14l-69 -40z"/>
    <path class="fil9" d="M505 135c0,0 15,16 32,26 20,11 37,14 37,14l-69 -40z"/>
    <polygon class="fil12" points="681,5 589,-49 517,-7 609,47 "/>
    <polygon class="fil8" points="568,69 608,92 660,62 668,37 612,30 "/>
    <path class="fil8" d="M580 72l29 -18 -92 -53 -42 24 80 47c8,4 17,4 25,0z"/>
    <polygon class="fil8" points="567,71 609,54 682,12 682,4 "/>
    <path class="fil6" d="M580 63l29 -17 -92 -53 -42 24 80 47c8,4 17,4 25,-1z"/>
    <path class="fil8" d="M531 41l-39 -22c-2,-2 -2,-4 0,-5l21 -12c3,-2 7,-2 9,-1l39 23c2,1 2,3 -1,5l-21 12c-2,1 -6,2 -8,0z"/>
    <path class="fil13" d="M516 -7c0,0 -2,-19 7,-24 9,-4 66,-38 66,-38l0 21 -73 41z"/>
    <polygon class="fil13" points="589,-69 597,-64 595,-54 682,-8 609,47 516,-7 "/>
    <path class="fil14" d="M528 -15c0,0 14,15 31,25 20,12 37,14 37,14l-68 -39z"/>
    <polygon class="fil15" points="654,22 654,49 682,33 682,4 "/>
    <polygon class="fil11" points="613,148 613,173 728,106 728,82 "/>
    <polygon class="fil8" points="475,36 475,28 488,36 "/>
    <path class="fil16" d="M542 -20l74 43 0 7 66 -38 -85 -49 -54 31c-2,1 -3,3 -4,4 1,1 2,1 3,2z"/>
    <path class="fil14" d="M543 -33c-5,3 -6,8 -4,11 1,-1 2,-3 4,-4l54 -31 0 -7 -54 31z"/>
    <path class="fil14" d="M616 23c-9,5 -7,24 -7,24l73 -43 0 -12 -66 38 0 -7z"/>
    <path class="fil14" d="M546 -18l57 -44c3,-2 6,-2 9,0l44 25c5,3 6,10 1,13l-49 42 -62 -36z"/>
    <path class="fil16" d="M544 -19l59 -45c3,-3 6,-3 9,-1l44 25c5,3 6,10 1,14l-51 43 -62 -36z"/>
    <polygon class="fil17" points="733,37 618,37 618,42 733,42 "/>
    <path class="fil17" d="M670 72l-52 -30 60 -35 52 30c4,3 4,7 -1,10l-43 24c-4,3 -12,3 -16,1z"/>
    <path class="fil13" d="M670 68l-52 -31 60 -34 52 30c4,3 4,7 -1,10l-43 24c-4,3 -12,3 -16,1z"/>
    <polygon class="fil14" points="618,37 618,32 678,-3 678,3 "/>
    <polygon class="fil18" points="670,7 722,38 679,62 627,32 "/>
    <polygon class="fil18" points="550,-15 608,-59 652,-33 599,13 "/>
    <g>
     <path class="fil19" d="M987 -79l8 -4c1,0 3,-1 3,-1 3,-2 7,-2 11,0l79 46c5,2 8,7 8,12l0 189c0,5 -3,9 -6,11l0 0 -1 1 0 0 -10 6 -10 -7 3 -1 -37 -21 0 -2 -40 -23c-4,-3 -7,-7 -7,-12l0 -180 0 -1 -1 -13z"/>
     <path class="fil16" d="M999 -78l80 46c5,2 8,7 8,12l0 189c0,10 -12,17 -21,12l-28 -16 0 0 -52 -30c-4,-3 -7,-7 -7,-12l0 -189c0,-10 11,-17 20,-12z"/>
     <polygon class="fil18" points="1073,159 1073,-9 992,-57 992,112 "/>
     <polygon class="fil16" points="1075,94 1075,66 1025,38 1025,65 "/>
     <polygon class="fil16" points="1038,74 1038,46 988,17 988,45 "/>
    </g>
    <g>
     <path class="fil6" d="M361 76c3,-1 10,-1 17,9 7,7 10,25 12,36 0,1 3,0 4,2 1,0 3,9 3,9 3,8 5,18 -5,19 -2,0 -5,-1 -6,-2 -11,-3 -19,-24 -21,-26 -1,-2 -4,-47 -4,-47z"/>
     <path class="fil20" d="M389 325c0,0 3,4 8,9 5,5 6,6 10,11 3,2 1,5 -4,4 -4,0 -13,-2 -18,-4 -4,-1 -11,-5 -14,-8 -3,-2 -4,-5 -4,-5l0 -8 22 1z"/>
     <path class="fil20" d="M340 350c0,0 1,8 2,18 0,10 -1,19 -4,20 -3,1 -11,1 -16,-13 -4,-14 -2,-28 -2,-28l20 3z"/>
     <path class="fil8" d="M320 200c3,-34 15,-48 15,-48 -1,-10 41,3 41,3 0,0 11,58 15,86 4,31 0,82 0,82 0,0 -1,7 -12,7 -8,0 -15,-8 -15,-8l0 -67 -9 -33c0,0 -3,41 -7,59 -7,27 -5,73 -5,73 0,0 -14,5 -24,0 -9,-5 -7,-11 -7,-11 0,0 -3,-45 9,-75 1,-22 -3,-55 -1,-68z"/>
     <path class="fil8" d="M324 156c0,11 -2,26 -3,33 9,8 21,9 34,7 8,-1 18,-4 25,-10 -2,-16 3,-62 0,-80 -3,-17 -13,-27 -13,-27 -13,-6 -26,5 -26,5 0,0 -8,4 -13,8 -4,3 -8,8 -8,12 -1,5 5,31 4,52z"/>
     <path class="fil6" d="M341 84l-6 3c0,0 3,5 8,11 6,5 13,11 21,7 7,-4 6,-13 1,-18 -4,-6 -6,-7 -6,-7l-18 4z"/>
     <path class="fil21" d="M359 75l2 11c0,0 6,12 -1,15 -8,3 -21,-15 -21,-15 0,0 2,-8 3,-22 5,-2 17,11 17,11z"/>
     <path class="fil22" d="M341 43c4,-7 18,-12 27,2 9,15 0,39 -8,38 -4,-1 -14,-6 -19,-14 -5,-8 -4,-21 0,-26z"/>
     <path class="fil8" d="M346 35c8,-11 25,-1 27,7 1,11 1,11 5,15 -13,10 -28,-4 -28,-4 0,8 -4,10 -5,10 0,-3 -2,-4 -3,-3 -2,2 -2,8 -2,8 0,0 -6,-6 -6,-16 0,-7 1,-16 12,-17z"/>
     <path class="fil6" d="M347 176c3,-7 1,-13 -1,-16 -2,-3 -6,-2 -6,-2 0,0 2,-4 -1,-7 1,-8 1,-24 -1,-32 -4,-15 -14,-23 -14,-23 0,0 -13,8 -13,27 1,13 5,27 7,39 0,4 -1,6 2,8 3,1 0,5 6,7 4,8 18,8 21,-1z"/>
     <path class="fil22" d="M342 163c-3,-2 -5,3 -7,7 -2,3 -3,8 0,10 3,3 19,6 29,9 10,3 14,9 24,8 10,-1 13,-9 4,-12 -5,-2 -11,-4 -11,-4 0,0 4,-2 5,-4 1,-2 0,-3 -1,-2 -2,0 -14,6 -21,2 -8,-4 -18,-13 -22,-14z"/>
     <polygon class="fil18" points="363,114 406,140 447,213 405,189 "/>
    </g>
    <polygon class="fil6" points="69,8 69,186 76,190 282,71 282,-107 275,-111 "/>
    <polygon class="fil6" points="76,12 76,190 282,71 282,-107 "/>
    <polygon class="fil18" points="277,69 277,-99 80,15 80,183 "/>
    <polygon class="fil23" points="179,9 179,15 268,-36 268,-43 "/>
    <polygon class="fil23" points="179,-5 179,2 268,-49 268,-56 "/>
    <polygon class="fil3" points="159,-21 268,-84 268,-76 159,-13 "/>
    <polygon class="fil3" points="153,-18 153,-9 91,26 91,18 "/>
    <polygon class="fil23" points="171,70 91,116 91,110 171,64 "/>
    <polygon class="fil23" points="171,57 91,103 91,96 171,51 "/>
    <polygon class="fil23" points="171,44 91,89 91,83 171,37 "/>
    <polygon class="fil23" points="171,32 91,78 91,71 171,25 "/>
    <polygon class="fil23" points="171,19 91,64 91,58 171,12 "/>
    <polygon class="fil23" points="171,5 91,51 91,44 171,-1 "/>
    <polygon class="fil23" points="179,60 179,67 268,16 268,9 "/>
    <polygon class="fil23" points="179,47 179,54 268,3 268,-4 "/>
    <polygon class="fil23" points="179,74 179,81 268,29 268,23 "/>
    <path class="fil24" d="M92 154c1,-1 2,-1 3,-2 1,-1 3,-1 4,-2 0,1 0,2 0,3 0,1 0,2 0,4 -1,0 -3,1 -4,2 -1,0 -2,1 -3,2 0,-1 0,-3 0,-4 0,-1 0,-2 0,-3z"/>
    <path class="fil24" d="M102 148c1,0 2,-1 4,-2 1,-1 2,-1 3,-2 0,1 0,2 0,3 0,2 0,3 0,4 -1,1 -2,1 -3,2 -2,1 -3,1 -4,2 0,-1 0,-2 0,-3 0,-2 0,-3 0,-4z"/>
    <path class="fil24" d="M113 142c1,-1 3,-2 4,-2 1,-1 2,-2 3,-2 0,1 0,2 0,3 0,1 0,2 0,3 -1,1 -2,2 -3,2 -1,1 -3,2 -4,3 0,-2 0,-3 0,-4 0,-1 0,-2 0,-3z"/>
    <path class="fil24" d="M124 136c1,-1 2,-1 3,-2 1,-1 2,-1 3,-2 0,1 0,2 0,3 0,1 0,3 0,4 -1,0 -2,1 -3,2 -1,0 -2,1 -3,2 0,-1 0,-2 0,-4 0,-1 0,-2 0,-3z"/>
    <path class="fil24" d="M92 144c1,-1 2,-2 3,-3 1,0 3,-1 4,-2 0,2 0,3 0,4 0,1 0,2 0,3 -1,1 -3,2 -4,2 -1,1 -2,2 -3,2 0,-1 0,-2 0,-3 0,-1 0,-2 0,-3z"/>
    <path class="fil24" d="M102 138c1,-1 2,-2 4,-2 1,-1 2,-2 3,-2 0,1 0,2 0,3 0,1 0,2 0,3 -1,1 -2,2 -3,3 -2,0 -3,1 -4,2 0,-2 0,-3 0,-4 0,-1 0,-2 0,-3z"/>
    <path class="fil24" d="M113 131c1,0 3,-1 4,-2 1,0 2,-1 3,-2 0,1 0,2 0,4 0,1 0,2 0,3 -1,1 -2,1 -3,2 -1,1 -3,1 -4,2 0,-1 0,-2 0,-3 0,-1 0,-3 0,-4z"/>
    <path class="fil24" d="M124 126c1,-1 2,-2 3,-2 1,-1 2,-2 3,-3 0,2 0,3 0,4 0,1 0,2 0,3 -1,1 -2,2 -3,2 -1,1 -2,2 -3,2 0,-1 0,-2 0,-3 0,-1 0,-2 0,-3z"/>
    <path class="fil24" d="M133 131c2,-1 3,-2 4,-2 1,-1 2,-2 3,-2 0,1 0,2 0,3 0,1 0,2 0,3 -1,1 -2,2 -3,2 -1,1 -2,2 -4,2 0,-1 0,-2 0,-3 0,-1 0,-2 0,-3z"/>
    <path class="fil24" d="M144 125c1,-1 2,-1 3,-2 1,-1 3,-1 4,-2 0,1 0,2 0,3 0,1 0,2 0,4 -1,0 -3,1 -4,2 -1,0 -2,1 -3,2 0,-1 0,-3 0,-4 0,-1 0,-2 0,-3z"/>
    <path class="fil25" d="M155 118c1,0 2,-1 3,-2 1,0 3,-1 4,-2 0,1 0,3 0,4 0,1 0,2 0,3 -1,1 -3,2 -4,2 -1,1 -2,2 -3,2 0,-1 0,-2 0,-3 0,-1 0,-2 0,-4z"/>
    <path class="fil25" d="M165 113c1,-1 3,-2 4,-2 1,-1 2,-2 3,-2 0,1 0,2 0,3 0,1 0,2 0,3 -1,1 -2,2 -3,2 -1,1 -3,2 -4,3 0,-2 0,-3 0,-4 0,-1 0,-2 0,-3z"/>
    <path class="fil24" d="M133 120c2,0 3,-1 4,-2 1,0 2,-1 3,-2 0,1 0,2 0,4 0,1 0,2 0,3 -1,1 -2,1 -3,2 -1,1 -2,1 -4,2 0,-1 0,-2 0,-3 0,-1 0,-3 0,-4z"/>
    <path class="fil24" d="M144 115c1,-1 2,-2 3,-3 1,0 3,-1 4,-2 0,2 0,3 0,4 0,1 0,2 0,3 -1,1 -3,2 -4,2 -1,1 -2,2 -3,2 0,-1 0,-2 0,-3 0,-1 0,-2 0,-3z"/>
    <path class="fil25" d="M155 108c1,-1 2,-1 3,-2 1,-1 3,-1 4,-2 0,1 0,2 0,3 0,1 0,3 0,4 -1,0 -3,1 -4,2 -1,0 -2,1 -3,2 0,-1 0,-2 0,-4 0,-1 0,-2 0,-3z"/>
    <path class="fil25" d="M165 102c1,0 3,-1 4,-2 1,0 2,-1 3,-2 0,1 0,2 0,4 0,1 0,2 0,3 -1,1 -2,1 -3,2 -1,1 -3,1 -4,2 0,-1 0,-2 0,-3 0,-1 0,-3 0,-4z"/>
    <path class="fil24" d="M92 132c1,-1 2,-2 3,-2 1,-1 3,-2 4,-2 0,1 0,2 0,3 0,1 0,2 0,3 -1,1 -3,2 -4,3 -1,0 -2,1 -3,2 0,-2 0,-3 0,-4 0,-1 0,-2 0,-3z"/>
    <path class="fil24" d="M102 126c1,-1 2,-1 4,-2 1,-1 2,-1 3,-2 0,1 0,2 0,3 0,1 0,3 0,4 -1,0 -2,1 -3,2 -2,1 -3,1 -4,2 0,-1 0,-2 0,-4 0,-1 0,-2 0,-3z"/>
    <path class="fil24" d="M113 120c1,-1 3,-2 4,-2 1,-1 2,-2 3,-3 0,2 0,3 0,4 0,1 0,2 0,3 -1,1 -2,2 -3,2 -1,1 -3,2 -4,2 0,-1 0,-2 0,-3 0,-1 0,-2 0,-3z"/>
    <path class="fil24" d="M124 114c1,-1 2,-2 3,-2 1,-1 2,-2 3,-2 0,1 0,2 0,3 0,1 0,2 0,4 -1,0 -2,1 -3,2 -1,0 -2,1 -3,2 0,-1 0,-3 0,-4 0,-1 0,-2 0,-3z"/>
    <path class="fil24" d="M92 121c1,0 2,-1 3,-2 1,0 3,-1 4,-2 0,1 0,3 0,4 0,1 0,2 0,3 -1,1 -3,1 -4,2 -1,1 -2,2 -3,2 0,-1 0,-2 0,-3 0,-1 0,-2 0,-4z"/>
    <path class="fil24" d="M102 116c1,-1 2,-2 4,-2 1,-1 2,-2 3,-2 0,1 0,2 0,3 0,1 0,2 0,3 -1,1 -2,2 -3,2 -2,1 -3,2 -4,2 0,-1 0,-2 0,-3 0,-1 0,-2 0,-3z"/>
    <path class="fil24" d="M113 109c1,-1 3,-1 4,-2 1,-1 2,-1 3,-2 0,1 0,2 0,3 0,2 0,3 0,4 -1,1 -2,1 -3,2 -1,1 -3,1 -4,2 0,-1 0,-2 0,-3 0,-2 0,-3 0,-4z"/>
    <path class="fil24" d="M124 103c1,0 2,-1 3,-2 1,0 2,-1 3,-2 0,1 0,3 0,4 0,1 0,2 0,3 -1,1 -2,1 -3,2 -1,1 -2,2 -3,2 0,-1 0,-2 0,-3 0,-1 0,-2 0,-4z"/>
    <path class="fil24" d="M133 109c2,-1 3,-2 4,-3 1,0 2,-1 3,-2 0,2 0,3 0,4 0,1 0,2 0,3 -1,1 -2,2 -3,2 -1,1 -2,2 -4,2 0,-1 0,-2 0,-3 0,-1 0,-2 0,-3z"/>
    <path class="fil24" d="M144 103c1,-1 2,-2 3,-2 1,-1 3,-2 4,-2 0,1 0,2 0,3 0,1 0,2 0,3 -1,1 -3,2 -4,3 -1,0 -2,1 -3,2 0,-2 0,-3 0,-4 0,-1 0,-2 0,-3z"/>
    <path class="fil25" d="M155 96c1,0 2,-1 3,-2 1,0 3,-1 4,-2 0,1 0,2 0,4 0,1 0,2 0,3 -1,1 -3,1 -4,2 -1,1 -2,1 -3,2 0,-1 0,-2 0,-3 0,-1 0,-3 0,-4z"/>
    <path class="fil25" d="M165 91c1,-1 3,-2 4,-2 1,-1 2,-2 3,-3 0,2 0,3 0,4 0,1 0,2 0,3 -1,1 -2,2 -3,2 -1,1 -3,2 -4,2 0,-1 0,-2 0,-3 0,-1 0,-2 0,-3z"/>
    <path class="fil24" d="M133 98c2,-1 3,-1 4,-2 1,-1 2,-1 3,-2 0,1 0,2 0,3 0,2 0,3 0,4 -1,0 -2,1 -3,2 -1,1 -2,1 -4,2 0,-1 0,-2 0,-3 0,-2 0,-3 0,-4z"/>
    <path class="fil24" d="M144 92c1,0 2,-1 3,-2 1,0 3,-1 4,-2 0,1 0,3 0,4 0,1 0,2 0,3 -1,1 -3,1 -4,2 -1,1 -2,2 -3,2 0,-1 0,-2 0,-3 0,-1 0,-2 0,-4z"/>
    <path class="fil25" d="M155 86c1,-1 2,-1 3,-2 1,-1 3,-2 4,-2 0,1 0,2 0,3 0,1 0,2 0,4 -1,0 -3,1 -4,2 -1,0 -2,1 -3,2 0,-1 0,-3 0,-4 0,-1 0,-2 0,-3z"/>
    <path class="fil25" d="M165 80c1,-1 3,-1 4,-2 1,-1 2,-1 3,-2 0,1 0,2 0,3 0,2 0,3 0,4 -1,1 -2,1 -3,2 -1,1 -3,1 -4,2 0,-1 0,-2 0,-3 0,-2 0,-3 0,-4z"/>
    <path class="fil26 str0" d="M152 118l-9 15m0 -9l9 4"/>
   </g>
  </g>
  <polygon class="fil26 str1" points="4,4 1176,4 1176,473 4,473 "/>
  <path class="fil4" d="M885 378c0,8 -12,15 -26,15 -15,0 -27,-7 -27,-15 0,-8 12,-15 27,-15 14,0 26,7 26,15z"/>
  <path class="fil5" d="M892 335l-33 9 -34 -9c0,0 -3,14 0,28 2,5 4,9 6,12 4,7 15,11 27,11 5,0 9,0 13,-1l1 0c8,-3 16,-8 20,-22 4,-14 0,-28 0,-28z"/>
  <path class="fil3" d="M892 335c0,10 -15,19 -33,19 -19,0 -34,-9 -34,-19 0,-11 15,-19 34,-19 18,0 33,8 33,19z"/>
  <path class="fil4" d="M859 323c14,0 26,6 28,14 0,-1 0,-1 0,-2 0,-9 -13,-16 -28,-16 -16,0 -29,7 -29,16 0,1 0,1 1,2 1,-8 13,-14 28,-14z"/>
  <path class="fil8" d="M859 351c14,0 26,-6 28,-14 -2,-8 -14,-14 -28,-14 -15,0 -27,6 -28,14 1,8 13,14 28,14z"/>
  <path class="fil20" d="M864 141l-10 0 0 192 0 0 0 0c0,2 2,3 5,3 2,0 5,-1 5,-3l-1 0 1 0 0 -192z"/>
  <path class="fil27" d="M827 112c0,0 15,-10 22,0 6,10 6,18 6,18l-28 -18z"/>
  <path class="fil27" d="M850 128c0,0 0,-16 14,-18 14,-2 26,14 26,14l-40 4z"/>
  <path class="fil28" d="M859 138c0,0 15,5 39,2 24,-4 49,-12 49,-12 0,0 -15,-6 -38,-6 -23,0 -54,8 -54,8l4 8z"/>
  <path class="fil28" d="M906 144c-16,-4 -40,-6 -45,-6 1,1 18,19 44,22 27,3 45,-4 45,-4 0,0 -25,-8 -44,-12z"/>
  <path class="fil28" d="M860 138c0,0 0,0 1,0l0 0 -1 0z"/>
  <path class="fil28" d="M842 134c0,0 -19,7 -42,32 -10,11 -21,49 -21,49 0,0 29,-32 40,-47 11,-14 23,-34 23,-34z"/>
  <path class="fil28" d="M854 133c0,0 -5,34 10,65 15,31 23,48 23,48 0,0 7,-44 -5,-68 -11,-24 -28,-45 -28,-45z"/>
  <path class="fil28" d="M855 129c0,0 -25,46 -29,77 -4,30 0,45 0,45 0,0 16,-45 23,-72 7,-27 6,-50 6,-50z"/>
  <path class="fil27" d="M860 128c-4,-2 -32,13 -52,46 -20,32 -34,66 -34,66 0,0 40,-43 55,-62 14,-20 31,-50 31,-50z"/>
  <path class="fil27" d="M854 130c0,5 13,49 33,74 21,26 39,46 39,46 0,0 -8,-37 -24,-65 -17,-28 -48,-55 -48,-55z"/>
  <path class="fil27" d="M860 128c0,0 -27,-8 -62,-2 -36,7 -53,20 -53,20 0,0 29,10 57,4 29,-7 58,-22 58,-22z"/>
  <path class="fil29" d="M763 102c0,0 15,14 40,17 25,3 52,11 52,11 0,0 -25,-28 -48,-28 -23,0 -44,0 -44,0z"/>
  <path class="fil29" d="M943 57c0,0 -35,18 -55,30 -20,13 -32,46 -32,46 0,0 36,-22 57,-38 21,-16 30,-38 30,-38z"/>
  <path class="fil29" d="M855 130c0,0 -12,-3 -48,16 -17,10 -37,36 -37,36 0,0 28,-12 40,-20 12,-8 45,-32 45,-32z"/>
  <path class="fil27" d="M854 131c0,0 18,28 32,38 15,10 53,11 53,11 0,0 -20,-15 -40,-26 -19,-11 -45,-23 -45,-23z"/>
  <path class="fil29" d="M826 78c0,0 5,19 11,27 7,9 14,23 18,25 4,3 4,3 4,3 0,0 0,-18 -8,-34 -8,-15 -25,-21 -25,-21z"/>
  <path class="fil29" d="M855 130c0,0 8,20 25,34 17,14 41,24 41,24 0,0 -21,-24 -35,-36 -14,-12 -31,-22 -31,-22z"/>
 </g>
</svg>
