
<svg width="32px" height="32px" viewBox="0 0 32 32" version="1.1" xmlns="http://www.w3.org/2000/svg" xmlns:xlink="http://www.w3.org/1999/xlink">
    <g id="Page-1" stroke="none" stroke-width="1" fill="none" fill-rule="evenodd">
        <g id="in_progress" transform="translate(1.000000, 1.000000)" stroke="#363636" stroke-width="2">
            <circle id="Oval" fill="#FFFFFF" fill-rule="nonzero" cx="15" cy="15" r="15"></circle>
            <path d="M8.99996,15.0002 C8.99996,15.3684 8.70148,15.6668 8.33329,15.6668 C7.9651,15.6668 7.66663,15.3684 7.66663,15.0002 C7.66663,14.632 7.9651,14.3335 8.33329,14.3335 C8.70148,14.3335 8.99996,14.632 8.99996,15.0002 Z" id="Path"></path>
            <path d="M15.6666,15.0002 C15.6666,15.3684 15.3681,15.6668 15,15.6668 C14.6318,15.6668 14.3333,15.3684 14.3333,15.0002 C14.3333,14.632 14.6318,14.3335 15,14.3335 C15.3681,14.3335 15.6666,14.632 15.6666,15.0002 Z" id="Path"></path>
            <path d="M22.3333,15.0002 C22.3333,15.3684 22.0348,15.6668 21.6666,15.6668 C21.2984,15.6668 21,15.3684 21,15.0002 C21,14.632 21.2984,14.3335 21.6666,14.3335 C22.0348,14.3335 22.3333,14.632 22.3333,15.0002 Z" id="Path"></path>
        </g>
    </g>
</svg>