<svg width="32" height="182" viewBox="0 0 32 182" fill="none"
    xmlns="http://www.w3.org/2000/svg">
    <line x1="16" y1="17" x2="16" y2="166" stroke="black" stroke-opacity="0.24" stroke-width="2"/>
    <circle cx="16" cy="16" r="15" fill="white" stroke="#363636" stroke-width="2"/>
    <path d="M9.99996 16.0002C9.99996 16.3684 9.70148 16.6668 9.33329 16.6668C8.9651 16.6668 8.66663 16.3684 8.66663 16.0002C8.66663 15.632 8.9651 15.3335 9.33329 15.3335C9.70148 15.3335 9.99996 15.632 9.99996 16.0002Z" stroke="#363636" stroke-width="2"/>
    <path d="M16.6666 16.0002C16.6666 16.3684 16.3681 16.6668 16 16.6668C15.6318 16.6668 15.3333 16.3684 15.3333 16.0002C15.3333 15.632 15.6318 15.3335 16 15.3335C16.3681 15.3335 16.6666 15.632 16.6666 16.0002Z" stroke="#363636" stroke-width="2"/>
    <path d="M23.3333 16.0002C23.3333 16.3684 23.0348 16.6668 22.6666 16.6668C22.2984 16.6668 22 16.3684 22 16.0002C22 15.632 22.2984 15.3335 22.6666 15.3335C23.0348 15.3335 23.3333 15.632 23.3333 16.0002Z" stroke="#363636" stroke-width="2"/>
    <circle cx="16" cy="166" r="16" fill="white"/>
    <circle cx="16" cy="166" r="15" stroke="black" stroke-opacity="0.24" stroke-width="2"/>
    <circle cx="16" cy="91" r="16" fill="white"/>
    <circle cx="16" cy="91" r="15" stroke="black" stroke-opacity="0.24" stroke-width="2"/>
</svg>


